<svg width="24" height="24" viewBox="0 0 24 24" fill="none" xmlns="http://www.w3.org/2000/svg">
<g clip-path="url(#clip0)">
<path d="M12.363 14.947C12.363 13.099 11.484 11.733 9.668 11.221C10.993 10.59 11.684 9.634 11.684 8.147C11.684 5.215 9.492 4.5 6.963 4.5H0V19.221H7.158C9.842 19.221 12.363 17.938 12.363 14.947ZM3.246 7.013H6.292C7.463 7.013 8.517 7.341 8.517 8.695C8.517 9.945 7.697 10.448 6.537 10.448H3.246V7.013ZM3.245 16.721V12.667H6.783C8.212 12.667 9.116 13.261 9.116 14.769C9.116 16.256 8.037 16.721 6.716 16.721H3.245Z" fill="#CBCBCB"/>
<path d="M18.796 19.4997C21.35 19.4997 23.004 18.3527 23.8 15.9147H21.208C20.929 16.8247 19.779 17.3057 18.887 17.3057C17.166 17.3057 16.262 16.3007 16.262 14.5927H23.975C24.219 11.1747 22.315 8.26172 18.795 8.26172C15.536 8.26172 13.324 10.7037 13.324 13.9027C13.324 17.2227 15.42 19.4997 18.796 19.4997ZM18.704 10.4737C20.179 10.4737 20.921 11.3377 21.045 12.7507H16.266C16.363 11.3497 17.296 10.4737 18.704 10.4737Z" fill="#CBCBCB"/>
<path d="M15.667 5.27295H21.655V6.72295H15.667V5.27295Z" fill="#CBCBCB"/>
</g>
<defs>
<clipPath id="clip0">
<rect width="24" height="24" fill="white"/>
</clipPath>
</defs>
</svg>
