<svg width="82" height="91" viewBox="0 0 82 91" fill="none" xmlns="http://www.w3.org/2000/svg">
<circle cx="47" cy="35" r="35" fill="#FFCD4C"/>
<path d="M42.8747 12.6288L43.8088 11.1862L42.093 11.087C27.6388 10.2507 11.4077 18.3738 4.26294 34.7928L4.26257 34.7937C0.922895 42.4877 0.121993 51.046 1.97613 59.2262C3.83015 67.4059 8.2424 74.7819 14.5724 80.2835C27.4832 91.5798 46.4905 93.1978 61.0912 84.2057C76.3929 74.7826 81.4644 58.2174 79.6468 45.8007L79.4254 44.2878L78.1281 45.097C76.1879 46.3072 74.215 46.6299 72.0773 45.9438C69.9432 45.2588 68.5019 43.8081 67.6242 41.7046L67.1987 40.6847L66.2262 41.2097C63.5642 42.6471 61.0195 43.2937 58.6346 43.1088C56.2633 42.925 53.9573 41.9125 51.7656 39.8674L51.7656 39.8673C49.5147 37.7675 48.3182 35.4928 47.9802 33.1036C47.6405 30.7019 48.1545 28.0837 49.5055 25.2889L50.1673 23.9198L48.648 23.8546C45.7747 23.7313 43.6362 22.5239 42.3225 20.0308C41.0174 17.5541 41.2666 15.1122 42.8747 12.6288ZM44.5072 81.3096L44.5056 81.3098C40.4624 81.8413 36.3542 81.5702 32.4159 80.5121C28.4777 79.454 24.7866 77.6296 21.5541 75.1434C18.3216 72.6571 15.6109 69.5578 13.5773 66.0227C11.5438 62.4878 10.2272 58.5866 9.70271 54.5423C7.50916 37.5376 19.0909 23.4497 33.47 20.2396C33.4754 20.2584 33.4809 20.2772 33.4863 20.2959C33.6976 21.026 33.9197 21.7931 34.1955 22.5155L34.1963 22.5177C35.2647 25.297 37.1439 27.691 39.59 29.3887L39.6061 29.3999L39.6057 29.4017L39.6002 29.4581C38.5544 40.2385 46.5018 50.0694 57.2803 51.369L57.2824 51.3692C59.5889 51.6424 61.9247 51.5204 64.1896 51.0085C66.2325 52.7331 68.6755 53.911 71.2896 54.4373C70.1132 66.2258 60.3147 79.2584 44.5072 81.3096Z" fill="black" stroke="white" stroke-width="2"/>
<path d="M69.373 16.8489C69.3673 17.7976 69.0812 18.7235 68.5507 19.51C68.0202 20.2964 67.2689 20.9084 66.3914 21.2689C65.5139 21.6293 64.5495 21.7222 63.6193 21.5357C62.6892 21.3492 61.835 20.8918 61.1643 20.221C60.4935 19.5501 60.0361 18.6958 59.8497 17.7656C59.6632 16.8354 59.756 15.8708 60.1165 14.9932C60.4769 14.1156 61.0888 13.3643 61.8752 12.8337C62.6616 12.3031 63.5873 12.017 64.5359 12.0114C65.1724 12.0068 65.8034 12.1288 66.3923 12.3703C66.9812 12.6118 67.5163 12.968 67.9663 13.4181C68.4164 13.8682 68.7725 14.4033 69.014 14.9923C69.2555 15.5813 69.3775 16.2124 69.373 16.8489Z" fill="black"/>
<path d="M59.6967 34.4405C59.0665 34.4282 58.4539 34.2304 57.9355 33.8719C57.4171 33.5133 57.0158 33.0099 56.7818 32.4246C56.5479 31.8392 56.4916 31.1979 56.62 30.5807C56.7484 29.9636 57.0559 29.3979 57.5039 28.9545C57.9519 28.5111 58.5207 28.2096 59.1391 28.0877C59.7575 27.9657 60.3981 28.0288 60.9809 28.2689C61.5637 28.509 62.0628 28.9156 62.4159 29.4378C62.7689 29.96 62.9603 30.5747 62.966 31.2051C62.9722 31.6346 62.8917 32.0609 62.7292 32.4586C62.5667 32.8562 62.3255 33.2169 62.0202 33.519C61.7149 33.8212 61.3517 34.0586 60.9525 34.2169C60.5532 34.3752 60.1261 34.4513 59.6967 34.4405Z" fill="black"/>
<path d="M78.9967 34.4892C79.0038 34.9181 78.9249 35.3441 78.7645 35.742C78.6042 36.1399 78.3658 36.5016 78.0633 36.8058C77.7608 37.11 77.4004 37.3504 77.0035 37.5129C76.6065 37.6754 76.181 37.7567 75.7521 37.752C75.3231 37.7472 74.8995 37.6565 74.5062 37.4852C74.113 37.314 73.758 37.0656 73.4624 36.7548C73.1667 36.444 72.9363 36.0771 72.7849 35.6757C72.6334 35.2744 72.5639 34.8467 72.5805 34.418C72.5734 33.9891 72.6524 33.5631 72.8127 33.1652C72.973 32.7673 73.2115 32.4056 73.5139 32.1014C73.8164 31.7972 74.1768 31.5568 74.5738 31.3943C74.9707 31.2318 75.3963 31.1505 75.8252 31.1552C76.2541 31.16 76.6777 31.2507 77.071 31.422C77.4643 31.5932 77.8192 31.8416 78.1149 32.1524C78.4105 32.4632 78.6409 32.8301 78.7924 33.2315C78.9438 33.6329 79.0133 34.0605 78.9967 34.4892Z" fill="black"/>
<path d="M24.4706 40.8774C25.7356 40.8809 26.9713 41.2585 28.0221 41.9627C29.0729 42.667 29.8919 43.6665 30.376 44.8353C30.86 46.0041 30.9875 47.29 30.7423 48.5311C30.4972 49.7723 29.8904 50.9131 28.9983 51.81C28.1062 52.7069 26.9687 53.3199 25.729 53.5716C24.4894 53.8234 23.203 53.7027 22.0317 53.2248C20.8605 52.7469 19.8568 51.9331 19.1471 50.8859C18.4373 49.8387 18.0532 48.6049 18.0431 47.3399C18.0382 46.4927 18.2009 45.653 18.5217 44.8689C18.8426 44.0849 19.3153 43.3721 19.9127 42.7715C20.5101 42.1708 21.2203 41.6943 22.0026 41.3692C22.7848 41.0442 23.6236 40.8771 24.4706 40.8774Z" fill="black"/>
<path d="M29.3102 60.1141C30.2678 60.118 31.2025 60.4061 31.9962 60.9419C32.7899 61.4776 33.4067 62.2369 33.7685 63.1235C34.1304 64.0101 34.221 64.9841 34.0288 65.9223C33.8367 66.8604 33.3705 67.7205 32.6892 68.3934C32.008 69.0663 31.1424 69.5219 30.202 69.7024C29.2617 69.883 28.2889 69.7803 27.4069 69.4075C26.525 69.0346 25.7735 68.4084 25.2477 67.6081C24.7219 66.8078 24.4454 65.8694 24.4533 64.9118C24.4638 63.6322 24.9808 62.409 25.8911 61.5098C26.8014 60.6106 28.0308 60.1087 29.3102 60.1141Z" fill="black"/>
<path d="M51.7609 63.3325C52.7135 63.3365 53.6436 63.6228 54.4335 64.1553C55.2234 64.6878 55.8377 65.4426 56.1987 66.3243C56.5598 67.2059 56.6513 68.1748 56.4618 69.1085C56.2723 70.0422 55.8103 70.8987 55.1341 71.5698C54.4579 72.2409 53.598 72.6964 52.663 72.8787C51.7279 73.0611 50.7599 72.9621 49.8811 72.5942C49.0024 72.2264 48.2524 71.6063 47.726 70.8122C47.1996 70.0181 46.9205 69.0858 46.9239 68.1331C46.9336 66.8565 47.4475 65.6355 48.3536 64.7363C49.2597 63.8371 50.4844 63.3325 51.7609 63.3325Z" fill="black"/>
<path d="M48.9961 7.18951C48.9996 6.55367 49.192 5.93322 49.5488 5.40698C49.9057 4.88074 50.4109 4.47246 51.0003 4.23403C51.5896 3.99559 52.2366 3.93775 52.8589 4.06786C53.4812 4.19797 54.0508 4.51016 54.4953 4.96476C54.9399 5.41935 55.2392 5.99585 55.3554 6.62099C55.4716 7.24613 55.3993 7.89169 55.1478 8.47567C54.8963 9.05965 54.4769 9.55568 53.9429 9.90075C53.4089 10.2458 52.7844 10.4243 52.1487 10.4136C51.3056 10.3965 50.503 10.049 49.9134 9.44609C49.3238 8.84314 48.9944 8.03285 48.9961 7.18951Z" fill="black"/>
<path d="M43.7141 50.4929C43.7152 51.1284 43.5275 51.7499 43.1749 52.2785C42.8222 52.8072 42.3204 53.2191 41.7332 53.462C41.1461 53.7049 40.5 53.7679 39.8769 53.643C39.2539 53.518 38.6821 53.2107 38.2339 52.7602C37.7858 52.3096 37.4817 51.736 37.3601 51.1123C37.2384 50.4885 37.3049 49.8427 37.5509 49.2568C37.7969 48.6709 38.2115 48.1712 38.7419 47.8214C39.2724 47.4715 39.8948 47.2871 40.5302 47.2916C41.3746 47.3013 42.1814 47.6422 42.7769 48.241C43.3724 48.8397 43.709 49.6484 43.7141 50.4929Z" fill="black"/>
</svg>
