<svg width="146" height="33" viewBox="0 0 146 33" fill="none" xmlns="http://www.w3.org/2000/svg">
<path d="M14.6679 12.1187H1.33233C0.596504 12.1187 0 12.752 0 13.5333V27.6923C0 28.4736 0.596504 29.1069 1.33233 29.1069H14.6679C15.4037 29.1069 16.0002 28.4736 16.0002 27.6923V13.5333C16.0002 12.752 15.4037 12.1187 14.6679 12.1187Z" fill="white"/>
<path d="M44.0917 25.2851C44.0917 25.2851 44.0917 24.8067 45.7356 24.8067C47.4685 24.8067 47.4304 25.2851 47.4304 25.2851C47.3033 28.9643 43.2274 32.127 37.9865 32.127C31.7498 32.127 27.5469 28.1006 27.5469 22.1224V19.8742C27.5469 13.9002 31.7498 9.87378 37.5967 9.87378C43.2274 9.87378 47.4727 14.0272 47.4727 19.8742V21.4746C47.4727 21.4746 47.4727 22.0377 45.9136 22.0377H31.3092V22.8167C31.3092 26.9744 34.042 29.3115 37.9822 29.3115C41.5793 29.3115 44.0917 27.275 44.0917 25.2851ZM37.7661 12.8163C34.1267 12.8163 31.3092 15.2423 31.3092 19.3958V19.5694H44.1341C44.0028 15.2847 41.1471 12.8163 37.7661 12.8163Z" fill="white"/>
<path d="M70.6786 31.4322C70.6786 31.4322 70.6786 32.0377 68.772 32.0377C66.8654 32.0377 66.9078 31.4322 66.9078 31.4322V17.8838C66.9078 17.8838 66.9078 12.9048 61.6668 12.9048H55.3412V31.4364C55.3412 31.4364 55.3412 32.0419 53.4346 32.0419C51.528 32.0419 51.5704 31.4364 51.5704 31.4364V10.8683C51.5704 10.8683 52.3923 9.95801 61.6668 9.95801C70.6786 9.95801 70.6786 17.8796 70.6786 17.8796V31.4322Z" fill="white"/>
<path d="M76.8998 1.96555C76.8998 1.96555 76.8998 1.36011 78.8488 1.36011C80.7977 1.36011 80.7977 1.96555 80.7977 1.96555V14.8238H84.0092L93.5845 1.96555C93.5845 1.96555 93.8853 1.44902 96.1817 1.44902C98.1772 1.44902 98.1772 1.96555 98.1772 1.96555L86.975 16.2422L99.2619 31.4841C99.2619 31.4841 99.2619 32.0049 97.3087 32.0049C95.0589 32.0049 94.7115 31.4841 94.7115 31.4841L84.1194 18.1517H80.7299V31.4841C80.7299 31.4841 80.7299 32.0896 78.8234 32.0896C76.832 32.0896 76.832 31.4841 76.832 31.4841L76.8998 1.96555Z" fill="white"/>
<path d="M101.312 19.8736C101.312 13.8996 105.732 9.89014 111.553 9.89014C117.374 9.89014 121.819 13.9166 121.819 19.8905V22.1387C121.806 28.0958 117.485 32.1264 111.553 32.1264C105.621 32.1264 101.312 28.0958 101.312 22.1218V19.8736ZM105.083 22.5579C105.083 26.7113 107.812 29.095 111.54 29.095C115.269 29.095 118.035 26.7113 118.035 22.5579V19.4418C118.035 15.2841 115.222 12.9004 111.54 12.9004C107.858 12.9004 105.083 15.2841 105.083 19.4418V22.5579Z" fill="white"/>
<path d="M125.957 18.0532C125.957 18.0532 125.957 10.047 134.922 10.047C137.782 10.047 139.82 10.0893 141.277 10.174V0.605444C141.277 0.605444 141.277 0 143.137 0C144.997 0 145.002 0.605444 145.002 0.605444V31.1274C145.002 31.1274 144.18 32.0377 134.905 32.0377C125.957 32.0377 125.957 24.0272 125.957 24.0272V18.0532ZM141.294 12.9726H134.939C129.698 12.9726 129.698 18.0532 129.698 18.0532V24.0272C129.698 24.0272 129.698 29.1079 134.939 29.1079H141.294V12.9726Z" fill="white"/>
</svg>
