<svg width="20" height="20" viewBox="0 0 20 20" fill="none" xmlns="http://www.w3.org/2000/svg">
<path d="M19.1667 9.16667C18.7067 9.16667 18.3333 9.54 18.3333 10C18.3333 14.595 14.595 18.3333 10 18.3333C5.405 18.3333 1.66667 14.595 1.66667 10C1.66667 5.405 5.405 1.66667 10 1.66667C12.2371 1.66667 14.3371 2.54083 15.9133 4.12833C16.2375 4.45458 16.7654 4.45667 17.0917 4.1325C17.4183 3.80833 17.42 3.28042 17.0958 2.95375C15.2046 1.04917 12.6842 0 10 0C4.48583 0 0 4.48583 0 10C0 15.5142 4.48583 20 10 20C15.5137 20 20 15.5142 20 10C20 9.54 19.6267 9.16667 19.1667 9.16667Z" fill="#FF2856"/>
<path d="M11.1785 9.99998L13.0894 8.08915C13.4148 7.76373 13.4148 7.23623 13.0894 6.91081C12.764 6.58539 12.2365 6.58539 11.911 6.91081L10.0002 8.82165L8.08939 6.91081C7.76439 6.58539 7.23605 6.58539 6.91105 6.91081C6.58564 7.23623 6.58564 7.76373 6.91105 8.08915L8.82189 9.99998L6.91105 11.9108C6.58564 12.2362 6.58564 12.7637 6.91105 13.0892C7.07355 13.2521 7.28689 13.3333 7.50022 13.3333C7.71355 13.3333 7.92689 13.2521 8.08939 13.0892L10.0002 11.1783L11.911 13.0892C12.074 13.2521 12.2869 13.3333 12.5002 13.3333C12.7135 13.3333 12.9265 13.2521 13.0894 13.0892C13.4148 12.7637 13.4148 12.2362 13.0894 11.9108L11.1785 9.99998Z" fill="white"/>
</svg>
