<svg width="24" height="14" viewBox="0 0 24 14" fill="none" xmlns="http://www.w3.org/2000/svg">
<path d="M19.9157 7.77868C19.5277 7.3039 19.6387 7.09267 19.9157 6.66827C19.9207 6.66343 23.1238 2.37488 23.4538 0.920497L23.4558 0.919528C23.6198 0.389515 23.4558 0 22.6628 0H20.0387C19.3707 0 19.0627 0.334286 18.8977 0.708298C18.8977 0.708298 17.5616 3.80698 15.6715 5.8156C15.0615 6.396 14.7795 6.58204 14.4465 6.58204C14.2825 6.58204 14.0275 6.396 14.0275 5.86599V0.919528C14.0275 0.2839 13.8405 0 13.2875 0H9.16132C8.7423 0 8.49329 0.296497 8.49329 0.572646C8.49329 1.17533 9.43833 1.31389 9.53633 3.00954V6.68862C9.53633 7.49478 9.38533 7.64303 9.05031 7.64303C8.15828 7.64303 5.99321 4.53175 4.71016 0.970882C4.45115 0.280025 4.19815 0.000968874 3.52512 0.000968874H0.900031C0.151005 0.000968874 0 0.335255 0 0.709267C0 1.37009 0.892031 4.65578 4.14814 8.99665C6.31822 11.9597 9.37433 13.5652 12.1544 13.5652C13.8255 13.5652 14.0295 13.2086 14.0295 12.5953C14.0295 9.76405 13.8785 9.49662 14.7155 9.49662C15.1035 9.49662 15.7715 9.68266 17.3316 11.1119C19.1147 12.8065 19.4077 13.5652 20.4057 13.5652H23.0298C23.7778 13.5652 24.1568 13.2086 23.9388 12.5052C23.4398 11.0256 20.0677 7.98216 19.9157 7.77868Z" fill="#CBCBCB"/>
</svg>
