<svg width="24" height="24" viewBox="0 0 24 24" fill="none" xmlns="http://www.w3.org/2000/svg">
<g clip-path="url(#clip0)">
<path fill-rule="evenodd" clip-rule="evenodd" d="M11.8676 0C6.92134 0.000470169 3.49397 0.0169262 1.73467 1.73493C0.0167662 3.49383 0.000306714 7.08215 0.000306714 11.8676C5.31394 11.7072 7.74384 11.5742 9.68184 9.6817C11.5742 7.7437 11.7073 5.31385 11.8676 0ZM1.73437 22.2653C0.0164595 20.5064 0 16.9181 0 12.1327C5.31364 12.293 7.74354 12.4261 9.68154 14.3185C11.5739 16.2565 11.707 18.6864 11.8673 23.9998C6.92104 23.9998 3.49366 23.9838 1.73437 22.2653ZM12.1326 23.9998C12.2929 18.6864 12.426 16.2565 14.3184 14.3185C16.2564 12.4261 18.6863 12.293 23.9999 12.1327C23.9994 16.9181 23.983 20.5064 22.2651 22.2653C20.5058 23.9838 17.0789 23.9998 12.1326 23.9998ZM12.1326 0C12.2929 5.31385 12.426 7.7437 14.3184 9.6817C16.2564 11.5742 18.6863 11.7072 23.9999 11.8676C23.9994 7.08215 23.983 3.49383 22.2651 1.73493C20.5058 0.0169262 17.0789 0.000470169 12.1326 0Z" fill="#CBCBCB"/>
<path fill-rule="evenodd" clip-rule="evenodd" d="M14.3184 14.3185C12.426 16.2565 12.2929 18.6864 12.1326 23.9998C17.0789 23.9998 20.5058 23.9838 22.2651 22.2653C23.983 20.5064 23.9994 16.9181 23.9999 12.1327C18.6863 12.293 16.2564 12.4261 14.3184 14.3185ZM0 12.1327C0 16.9181 0.0164595 20.5064 1.73437 22.2653C3.49366 23.9838 6.92104 23.9998 11.8673 23.9998C11.707 18.6864 11.5739 16.2565 9.68154 14.3185C7.74354 12.4261 5.31364 12.293 0 12.1327ZM11.8676 0C6.92134 0.000470169 3.49397 0.0169262 1.73467 1.73493C0.0167662 3.49383 0.000306714 7.08215 0.000306714 11.8676C5.31394 11.7072 7.74384 11.5742 9.68184 9.6817C11.5742 7.7437 11.7073 5.31385 11.8676 0ZM14.3184 9.6817C12.426 7.7437 12.2929 5.31385 12.1326 0C17.0789 0.000470169 20.5058 0.0169262 22.2651 1.73493C23.983 3.49383 23.9994 7.08215 23.9999 11.8676C18.6863 11.7072 16.2564 11.5742 14.3184 9.6817Z" fill="#CBCBCB"/>
</g>
<defs>
<clipPath id="clip0">
<rect width="24" height="24" fill="white"/>
</clipPath>
</defs>
</svg>
