<svg width="265" height="277" viewBox="0 0 265 277" fill="none" xmlns="http://www.w3.org/2000/svg">
<rect x="43.5625" y="233.912" width="101.871" height="23.2849" transform="rotate(-52.4506 43.5625 233.912)" fill="#FFCD4C"/>
<circle cx="73.7993" cy="182.899" r="20.2797" transform="rotate(-26.3523 73.7993 182.899)" stroke="white" stroke-width="2"/>
<rect x="9.85547" y="108.25" width="51.92" height="51.92" transform="rotate(-51.6833 9.85547 108.25)" fill="#FF2856"/>
<path d="M106.431 101.007L105.023 118.401L80.959 116.208L79.2448 128.313L48.03 102.524L86.0628 84.9111L84.2207 98.5969L106.431 101.007Z" stroke="white" stroke-width="2"/>
<circle cx="218.421" cy="145" r="36.48" fill="#0079FF"/>
<path d="M161.855 112.429L221.57 172.143" stroke="white" stroke-width="2"/>
<path d="M221.574 117.857L164.574 177.571" stroke="white" stroke-width="2"/>
<path d="M154.604 11.5682L196.584 43.995L146.769 64.0317L154.604 11.5682Z" fill="#1DC296"/>
<rect x="122.004" y="53.7835" width="45" height="45" transform="rotate(-21.9111 122.004 53.7835)" stroke="white" stroke-width="2"/>
</svg>
