<svg width="24" height="52" viewBox="0 0 24 52" fill="none" xmlns="http://www.w3.org/2000/svg">
<path d="M23.7418 23.0628C23.6267 22.9826 23.5412 22.9543 23.5101 22.8962C22.324 20.6808 19.8756 20.7499 17.9418 22.1918C15.9924 23.6462 14.3664 25.4449 12.8025 27.3002C10.9557 29.4905 9.17577 31.742 7.13156 33.7562C6.45845 34.4181 5.71072 34.9794 4.89925 35.4464C3.18616 36.4323 1.23522 35.6618 0.813937 33.7122C0.248086 31.0958 0.793728 28.6178 2.1042 26.305C2.24877 26.0502 2.45552 25.9449 2.75244 25.9905C4.46087 26.2546 5.75269 25.4103 6.93569 24.3333C9.39496 22.0958 11.3133 19.382 13.3792 16.7956C14.9151 14.8742 16.5365 13.0393 18.7828 11.9182C21.04 10.7924 22.579 11.4261 23.4044 13.8144C23.7915 14.9371 23.9812 16.0974 23.9936 17.2814C24.0076 18.7484 23.9936 20.2154 23.9874 21.6823C23.9858 22.1304 23.9672 22.5738 23.7418 23.0628Z" fill="#2CB543"/>
<path d="M0.00875788 28.7499C0.0305214 26.5046 -0.0674143 24.4401 0.10203 22.3804C0.187529 21.3411 0.189084 20.2986 0.405164 19.2609C0.851315 17.11 1.89907 15.2468 3.03233 13.4339C5.87246 8.89304 9.02816 4.58174 12.3844 0.419809C12.5088 0.26415 12.5896 0.0503142 12.8352 0C13.056 0.1761 12.9658 0.429243 12.9658 0.646223C12.9736 3.52671 12.9642 6.40563 12.9767 9.28612C12.9782 9.78297 12.8632 10.1855 12.5243 10.5676C10.2749 13.099 8.12343 15.7153 6.10253 18.4339C3.78472 21.5518 1.54153 24.731 0.243493 28.4653C0.227947 28.5093 0.182866 28.5408 0.00875788 28.7499Z" fill="#2CB543"/>
<path d="M12.1646 51.0344C12.0605 46.6161 11.6905 42.1838 13.0709 37.8756C14.0285 34.8866 15.4385 32.1351 17.1236 29.5156C18.5771 27.2562 20.2109 25.1194 21.5789 22.8033C21.8369 22.3662 22.025 22.4181 22.3328 22.7279C23.0603 23.4622 23.2904 24.393 23.3588 25.3725C23.5236 27.7153 22.995 29.8851 21.753 31.8851C20.3352 34.1681 18.8149 36.3803 17.3365 38.624C14.997 42.1743 13.1409 45.9621 12.3543 50.2073C12.303 50.4856 12.2283 50.7592 12.1646 51.0344Z" fill="#2CB543"/>
</svg>
