<svg width="69" height="23" viewBox="0 0 69 23" fill="none" xmlns="http://www.w3.org/2000/svg">
<path d="M6.32746 5.32812C5.20745 5.32826 4.10754 5.62564 3.14005 6.18991C2.17257 6.75417 1.37217 7.56509 0.820597 8.53987C0.269022 9.51464 -0.0139662 10.6183 0.000530229 11.7383C0.0150267 12.8582 0.326488 13.9542 0.903109 14.9143C1.47973 15.8745 2.30085 16.6645 3.28262 17.2035C4.26438 17.7425 5.37162 18.0113 6.49126 17.9825C7.6109 17.9536 8.70281 17.6281 9.65551 17.0392C10.6082 16.4504 11.3876 15.6192 11.914 14.6306H9.27554C8.73796 15.1895 8.05415 15.586 7.30209 15.775C6.55002 15.964 5.75998 15.9379 5.02206 15.6996C4.28413 15.4613 3.62802 15.0204 3.12856 14.4272C2.6291 13.8341 2.30638 13.1125 2.19721 12.3447H12.618C12.6433 12.1161 12.6559 11.8863 12.6557 11.6564C12.6557 9.978 11.989 8.36839 10.8022 7.18162C9.61542 5.99485 8.00581 5.32813 6.32746 5.32812ZM2.3918 10.379C2.6775 9.57215 3.20622 8.87367 3.90521 8.37966C4.60419 7.88566 5.43909 7.62041 6.29503 7.62041C7.15096 7.62041 7.98586 7.88566 8.68485 8.37966C9.38383 8.87367 9.91255 9.57215 10.1983 10.379H2.3918Z" fill="black"/>
<path d="M25.4586 10.3695C25.3871 9.39185 25.0539 8.45148 24.494 7.64695C23.934 6.84242 23.1678 6.20338 22.2759 5.79684C21.384 5.39029 20.3991 5.23121 19.4245 5.33629C18.4499 5.44137 17.5216 5.80673 16.7368 6.39406V5.33011H14.5398V17.7114H16.7368V10.3789C16.7127 8.80336 18.3322 7.4988 20.0018 7.4988C21.6715 7.4988 23.2732 8.82638 23.268 10.3789V17.7114H25.4649V10.3831L25.4586 10.3695Z" fill="black"/>
<path d="M47.2523 5.3313C46.0007 5.3313 44.7772 5.70244 43.7365 6.3978C42.6958 7.09315 41.8847 8.08148 41.4057 9.23782C40.9268 10.3941 40.8015 11.6665 41.0456 12.8941C41.2898 14.1217 41.8925 15.2492 42.7775 16.1343C43.6626 17.0193 44.7901 17.622 46.0177 17.8662C47.2452 18.1103 48.5176 17.985 49.674 17.506C50.8303 17.0271 51.8186 16.216 52.514 15.1753C53.2094 14.1346 53.5805 12.9111 53.5805 11.6595C53.5805 9.98117 52.9138 8.37157 51.727 7.18479C50.5402 5.99802 48.9306 5.3313 47.2523 5.3313V5.3313ZM47.2188 15.9028C46.4 15.9028 45.5997 15.66 44.9189 15.2051C44.2382 14.7502 43.7076 14.1037 43.3942 13.3473C43.0809 12.5908 42.9989 11.7585 43.1587 10.9555C43.3184 10.1525 43.7127 9.41486 44.2916 8.83591C44.8706 8.25697 45.6082 7.86271 46.4112 7.70298C47.2142 7.54325 48.0465 7.62523 48.803 7.93855C49.5594 8.25187 50.2059 8.78246 50.6608 9.46322C51.1157 10.144 51.3584 10.9443 51.3584 11.7631C51.3582 12.8609 50.9219 13.9137 50.1457 14.69C49.3694 15.4662 48.3166 15.9025 47.2188 15.9028V15.9028Z" fill="black"/>
<path d="M33.7034 3.65075e-06C32.1839 -0.00163082 30.715 0.545606 29.5669 1.541V0.00732674H27.3762V6.2686C27.3762 6.28848 27.3762 6.30835 27.3762 6.32823C27.3762 6.34811 27.3762 6.36798 27.3762 6.38891V17.7115H29.5669V11.1207C30.3399 11.7867 31.2626 12.2559 32.2561 12.4882C33.2497 12.7205 34.2847 12.7091 35.2729 12.4549C36.2611 12.2007 37.1732 11.7113 37.9313 11.0284C38.6895 10.3455 39.2712 9.48937 39.6269 8.53302C39.9827 7.57667 40.1018 6.54848 39.9743 5.53612C39.8467 4.52376 39.4762 3.55728 38.8943 2.71908C38.3124 1.88088 37.5365 1.19585 36.6326 0.722383C35.7288 0.248922 34.7238 0.00108333 33.7034 3.65075e-06V3.65075e-06ZM33.671 10.5715C32.6669 10.5715 31.6971 10.2066 30.9421 9.5447C30.1871 8.88283 29.6983 7.96912 29.5669 6.97371V5.88989C29.6711 5.10112 30.0003 4.35907 30.5152 3.75257C31.0302 3.14606 31.709 2.70079 32.4704 2.47005C33.2318 2.23931 34.0436 2.23288 34.8086 2.45153C35.5736 2.67018 36.2593 3.10464 36.7838 3.70291C37.3083 4.30118 37.6492 5.03792 37.7659 5.82494C37.8825 6.61196 37.7699 7.41592 37.4415 8.14059C37.113 8.86526 36.5827 9.47994 35.9141 9.91105C35.2454 10.3422 34.4666 10.5714 33.671 10.5715Z" fill="black"/>
<path d="M61.8033 5.33128C60.2675 5.3285 58.7835 5.88651 57.6301 6.90052V5.33128H55.474V22.7833H57.6301V16.4154C58.3996 17.0891 59.3209 17.5663 60.3152 17.8061C61.3095 18.0459 62.347 18.0411 63.3391 17.7922C64.3311 17.5433 65.248 17.0576 66.0112 16.3768C66.7745 15.696 67.3614 14.8404 67.7216 13.8831C68.0818 12.9259 68.2047 11.8956 68.0796 10.8805C67.9546 9.8654 67.5853 8.89574 67.0035 8.05456C66.4218 7.21338 65.6447 6.52574 64.7391 6.05055C63.8334 5.57535 62.826 5.32676 61.8033 5.32605V5.33128ZM61.7698 15.9027C60.951 15.9027 60.1507 15.6599 59.4699 15.2051C58.7891 14.7502 58.2586 14.1037 57.9452 13.3473C57.6319 12.5908 57.5499 11.7585 57.7097 10.9555C57.8694 10.1525 58.2637 9.41484 58.8426 8.8359C59.4215 8.25696 60.1592 7.86269 60.9622 7.70296C61.7652 7.54323 62.5975 7.62521 63.354 7.93853C64.1104 8.25185 64.7569 8.78244 65.2118 9.46321C65.6667 10.144 65.9094 10.9443 65.9094 11.7631C65.9092 12.8609 65.4729 13.9137 64.6967 14.69C63.9204 15.4662 62.8676 15.9025 61.7698 15.9027V15.9027Z" fill="black"/>
</svg>
