<svg width="80" height="80" viewBox="0 0 80 80" fill="none" xmlns="http://www.w3.org/2000/svg">
<path d="M68.6786 43.5342L50.3559 43.5342C47.2466 43.5342 44.748 40.9796 44.748 37.8006L44.748 19.0669C44.748 15.8878 47.2466 13.3333 50.3559 13.3333L68.6786 13.3333C71.7879 13.3333 74.2864 15.8878 74.2864 19.0669V37.8006C74.2864 40.9796 71.7879 43.5342 68.6786 43.5342Z" fill="#FF2856"/>
<path opacity="0.6" d="M38.1389 67.4336H27.9226C25.0909 67.4336 22.8145 65.1061 22.8145 62.2109L22.8145 51.7654C22.8145 48.8702 25.0909 46.5427 27.9226 46.5427L38.1389 46.5427C40.9705 46.5427 43.247 48.8702 43.247 51.7654V62.2109C43.247 65.1061 40.9705 67.4336 38.1389 67.4336Z" fill="#FF2856"/>
<path opacity="0.25" d="M12.6552 43.9317C8.82414 43.9317 5.71484 40.7526 5.71484 36.8356C5.71484 32.9185 8.82414 29.7395 12.6552 29.7395C16.4863 29.7395 19.5956 32.9185 19.5956 36.8356C19.5956 40.7526 16.4863 43.9317 12.6552 43.9317Z" fill="#FF2856"/>
</svg>
