<svg width="80" height="81" viewBox="0 0 80 81" fill="none" xmlns="http://www.w3.org/2000/svg">
<path d="M53.2438 24.291H26.7562C25.234 24.291 24 25.525 24 27.0473V53.5348C24 55.057 25.234 56.291 26.7562 56.291H53.2438C54.766 56.291 56 55.057 56 53.5348V27.0473C56 25.525 54.766 24.291 53.2438 24.291Z" fill="#B7B7B7"/>
<path d="M18.5379 59.4907H7.06367C5.81391 59.4907 4.80078 60.5039 4.80078 61.7536V73.2278C4.80078 74.4776 5.81391 75.4907 7.06367 75.4907H18.5379C19.7876 75.4907 20.8008 74.4776 20.8008 73.2278V61.7536C20.8008 60.5039 19.7876 59.4907 18.5379 59.4907Z" fill="#DCDCDC"/>
<path d="M72.9363 5.09106H61.4621C60.2123 5.09106 59.1992 6.1042 59.1992 7.35396V18.8282C59.1992 20.0779 60.2123 21.0911 61.4621 21.0911H72.9363C74.1861 21.0911 75.1992 20.0779 75.1992 18.8282V7.35396C75.1992 6.1042 74.1861 5.09106 72.9363 5.09106Z" fill="#DCDCDC"/>
</svg>
