<svg width="109" height="31" viewBox="0 0 109 31" fill="none" xmlns="http://www.w3.org/2000/svg">
<path d="M42.0509 5.66065C40.4202 5.65869 38.8437 6.24599 37.6118 7.31437V5.66851H35.2609V12.3878C35.2609 12.4091 35.2609 12.4305 35.2609 12.4518C35.2609 12.4731 35.2609 12.4945 35.2609 12.5169V24.6633H37.6118V17.5903C38.441 18.3069 39.4314 18.8121 40.4983 19.0628C41.5652 19.3136 42.6769 19.3023 43.7385 19.0302C44.8001 18.758 45.7801 18.2329 46.5947 17.4998C47.4094 16.7667 48.0345 15.8473 48.4167 14.8202C48.7989 13.793 48.9269 12.6886 48.7896 11.6013C48.6523 10.514 48.254 9.47603 47.6285 8.57608C47.0031 7.67613 46.1691 6.94092 45.1978 6.43324C44.2265 5.92556 43.1468 5.66048 42.0509 5.66065V5.66065ZM42.015 17.0054C40.9376 17.0054 39.897 16.6138 39.0869 15.9035C38.2768 15.1932 37.7526 14.2126 37.6118 13.1445V11.9814C37.7235 11.1349 38.0769 10.3385 38.6296 9.68761C39.1822 9.03672 39.9107 8.55888 40.7279 8.3113C41.5451 8.06372 42.4163 8.05689 43.2373 8.29162C44.0583 8.52636 44.7942 8.99271 45.357 9.63485C45.9198 10.277 46.2856 11.0677 46.4106 11.9124C46.5356 12.757 46.4146 13.6198 46.062 14.3975C45.7094 15.1752 45.1401 15.8347 44.4224 16.2972C43.7047 16.7597 42.8688 17.0056 42.015 17.0054V17.0054Z" fill="#969696"/>
<path d="M89.9371 13.6351C89.5125 12.9779 88.9301 12.4375 88.243 12.0633C87.5781 11.6872 86.8277 11.4881 86.0638 11.4851C84.3064 11.4851 83.0064 12.0947 82.1636 13.314C81.2655 12.0947 80.0818 11.4851 78.6125 11.4851C77.7607 11.4749 76.918 11.662 76.1505 12.0319V11.3987H73.7928V15.3472C73.7794 15.4875 73.7704 15.6312 73.7704 15.7861V24.6632H76.1381V16.8404C76.1381 15.9257 76.3129 15.1814 76.6624 14.6073C77.012 14.0333 77.644 13.7462 78.5587 13.7462C79.3655 13.7462 79.9575 14.0063 80.3347 14.5265C80.7471 15.0504 80.9533 15.7678 80.9533 16.6787V24.6677H83.3739V16.517C83.3608 15.8251 83.568 15.1469 83.9655 14.5804C84.3966 14.0243 85.0422 13.7462 85.9022 13.7462C86.7621 13.7462 87.3542 14.0333 87.6783 14.6073C88.0403 15.1772 88.2273 15.8408 88.216 16.5159V24.6666H90.5826V15.7861C90.5846 15.0211 90.36 14.2726 89.9371 13.6351V13.6351Z" fill="#969696"/>
<path d="M54.4337 11.9648C53.907 12.2963 53.4495 12.7268 53.0865 13.2323V11.7223H50.8209V24.6635H53.1932V17.869C53.1897 17.606 53.2078 17.3432 53.2471 17.0831C53.2921 16.8315 53.3551 16.5835 53.4357 16.341C53.5082 16.1054 53.5987 15.8757 53.7062 15.6539C53.796 15.4743 53.9038 15.2677 54.0296 15.0342C54.5685 14.1533 55.4311 13.7128 56.6174 13.7128H57.1843V11.4517H56.4557C55.7492 11.4489 55.0535 11.6254 54.4337 11.9648V11.9648Z" fill="#969696"/>
<path d="M12.7079 11.4415C11.5059 11.4417 10.3256 11.7608 9.28729 12.3664C8.24904 12.9719 7.39009 13.8421 6.79817 14.8882C6.20624 15.9343 5.90255 17.1187 5.91811 18.3206C5.93367 19.5224 6.26791 20.6986 6.88671 21.729C7.50552 22.7594 8.3867 23.6071 9.44029 24.1856C10.4939 24.764 11.6821 25.0525 12.8836 25.0216C14.0852 24.9906 15.257 24.6413 16.2794 24.0093C17.3018 23.3774 18.1381 22.4854 18.703 21.4245H15.8761C15.2995 22.0255 14.5655 22.4523 13.758 22.656C12.9504 22.8597 12.1018 22.8322 11.3091 22.5766C10.5164 22.321 9.81164 21.8476 9.2752 21.2105C8.73877 20.5734 8.39234 19.7983 8.27549 18.9736H19.4586C19.4857 18.7283 19.4992 18.4817 19.499 18.2349C19.4993 17.3429 19.3239 16.4596 18.9827 15.6354C18.6415 14.8112 18.1414 14.0623 17.5107 13.4314C16.8801 12.8005 16.1313 12.3001 15.3072 11.9587C14.4831 11.6173 13.5999 11.4415 12.7079 11.4415V11.4415ZM8.48431 16.8619C8.79062 15.9959 9.35785 15.2461 10.1079 14.7159C10.8579 14.1856 11.7539 13.9008 12.6725 13.9008C13.5911 13.9008 14.487 14.1856 15.2371 14.7159C15.9871 15.2461 16.5544 15.9959 16.8607 16.8619H8.48431Z" fill="#969696"/>
<path d="M33.2365 16.8508C33.1598 15.8017 32.8022 14.7925 32.2012 13.9291C31.6003 13.0657 30.7781 12.38 29.8209 11.9437C28.8638 11.5074 27.8068 11.3367 26.7609 11.4494C25.7151 11.5622 24.7188 11.9543 23.8766 12.5846V11.4439H21.519V24.7264H23.8766V16.862C23.8508 15.1701 25.5887 13.7713 27.3805 13.7713C29.1723 13.7713 30.8912 15.1959 30.8856 16.862V24.7264H33.2432V16.862L33.2365 16.8508Z" fill="#969696"/>
<path d="M64.9577 11.2664C63.6142 11.2661 62.3008 11.6643 61.1837 12.4106C60.0665 13.1569 59.1958 14.2176 58.6816 15.4588C58.1673 16.7 58.0327 18.0658 58.2948 19.3835C58.5568 20.7011 59.2037 21.9115 60.1537 22.8615C61.1037 23.8115 62.3141 24.4584 63.6317 24.7204C64.9494 24.9825 66.3152 24.8479 67.5564 24.3336C68.7975 23.8194 69.8583 22.9487 70.6046 21.8315C71.3509 20.7143 71.7491 19.401 71.7488 18.0575C71.7488 16.2564 71.0333 14.529 69.7598 13.2554C68.4862 11.9819 66.7588 11.2664 64.9577 11.2664V11.2664ZM64.9218 22.6111C64.0431 22.6111 63.1842 22.3506 62.4537 21.8624C61.7231 21.3743 61.1537 20.6805 60.8175 19.8687C60.4812 19.057 60.3932 18.1637 60.5647 17.302C60.7361 16.4402 61.1592 15.6486 61.7805 15.0273C62.4018 14.406 63.1933 13.9829 64.0551 13.8115C64.9168 13.6401 65.8101 13.7281 66.6218 14.0643C67.4336 14.4006 68.1274 14.97 68.6156 15.7005C69.1037 16.4311 69.3642 17.29 69.3642 18.1686C69.3642 19.3469 68.8962 20.4768 68.0631 21.31C67.2299 22.1431 66.1 22.6111 64.9218 22.6111V22.6111Z" fill="#969696"/>
<path d="M99.3975 11.2664C98.054 11.2661 96.7407 11.6643 95.6235 12.4106C94.5064 13.1569 93.6356 14.2176 93.1214 15.4588C92.6071 16.7 92.4725 18.0658 92.7346 19.3835C92.9966 20.7011 93.6436 21.9115 94.5935 22.8615C95.5435 23.8115 96.7539 24.4584 98.0716 24.7204C99.3892 24.9825 100.755 24.8479 101.996 24.3336C103.237 23.8194 104.298 22.9487 105.044 21.8315C105.791 20.7143 106.189 19.401 106.189 18.0575C106.189 16.2564 105.473 14.529 104.2 13.2554C102.926 11.9819 101.199 11.2664 99.3975 11.2664V11.2664ZM99.3627 22.6111C98.484 22.6113 97.625 22.351 96.8943 21.863C96.1636 21.375 95.594 20.6812 95.2576 19.8695C94.9212 19.0577 94.833 18.1645 95.0043 17.3026C95.1756 16.4408 95.5986 15.6491 96.2199 15.0277C96.8411 14.4063 97.6327 13.9831 98.4945 13.8116C99.3563 13.6401 100.25 13.728 101.061 14.0642C101.873 14.4004 102.567 14.9698 103.055 15.7004C103.543 16.431 103.804 17.29 103.804 18.1686C103.804 18.752 103.689 19.3296 103.466 19.8686C103.243 20.4076 102.916 20.8973 102.504 21.3099C102.091 21.7224 101.602 22.0497 101.063 22.2729C100.524 22.4962 99.9461 22.6111 99.3627 22.6111V22.6111Z" fill="#969696"/>
</svg>
