<svg width="103" height="19" viewBox="0 0 103 19" fill="none" xmlns="http://www.w3.org/2000/svg">
<path d="M6.56752 5.85168C5.40533 5.85131 4.26387 6.15945 3.25974 6.74461C2.25562 7.32977 1.42481 8.17098 0.8522 9.18232C0.279588 10.1937 -0.0143068 11.3389 0.000535573 12.501C0.015378 13.663 0.338427 14.8004 0.936681 15.7968C1.53494 16.7931 2.38695 17.6129 3.4057 18.1722C4.42444 18.7315 5.5734 19.0104 6.7352 18.9803C7.897 18.9503 9.03 18.6124 10.0185 18.0011C11.0069 17.3899 11.8154 16.5272 12.3614 15.5012H9.62559C9.0679 16.0808 8.35859 16.4921 7.5785 16.6882C6.79842 16.8842 5.97895 16.8572 5.21348 16.6102C4.44801 16.3631 3.76735 15.906 3.24907 15.2909C2.73078 14.6758 2.39573 13.9274 2.28209 13.1312H13.0917C13.1182 12.8941 13.1316 12.6557 13.1319 12.4171C13.1319 10.676 12.4403 9.00626 11.2093 7.77504C9.97825 6.54381 8.30859 5.85197 6.56752 5.85168ZM2.48393 11.0921C2.78029 10.2551 3.32874 9.5306 4.0538 9.01816C4.77887 8.50573 5.64492 8.23058 6.53279 8.23058C7.42066 8.23058 8.28671 8.50573 9.01178 9.01816C9.73684 9.5306 10.2853 10.2551 10.5816 11.0921H2.48393Z" fill="black"/>
<path d="M26.4092 11.0814C26.3354 10.0671 25.99 9.09142 25.4092 8.25666C24.8284 7.4219 24.0336 6.75884 23.1082 6.33707C22.1829 5.91529 21.1611 5.75035 20.15 5.85954C19.1389 5.96873 18.1759 6.34803 17.3619 6.95764V5.85508H15.083V18.694H17.3619V11.0922C17.337 9.45684 19.018 8.10361 20.7499 8.10361C22.4819 8.10361 24.1401 9.4818 24.1401 11.0922V18.694H26.419V11.0922L26.4092 11.0814Z" fill="black"/>
<path d="M78.2282 5.82568C76.9299 5.82568 75.6608 6.21068 74.5813 6.93197C73.5018 7.65327 72.6604 8.67848 72.1636 9.87796C71.6668 11.0774 71.5368 12.3973 71.79 13.6707C72.0433 14.944 72.6685 16.1137 73.5866 17.0317C74.5046 17.9497 75.6743 18.5749 76.9476 18.8282C78.221 19.0815 79.5408 18.9515 80.7403 18.4547C81.9398 17.9578 82.965 17.1165 83.6863 16.037C84.4076 14.9575 84.7926 13.6883 84.7926 12.39C84.7923 10.6491 84.1006 8.97964 82.8696 7.74865C81.6386 6.51766 79.9691 5.82597 78.2282 5.82568V5.82568ZM78.1935 16.7916C77.3442 16.7916 76.514 16.5397 75.8078 16.0679C75.1017 15.596 74.5513 14.9254 74.2263 14.1407C73.9013 13.3561 73.8162 12.4927 73.9819 11.6597C74.1476 10.8267 74.5566 10.0616 75.1571 9.46106C75.7577 8.86052 76.5228 8.45154 77.3558 8.28585C78.1888 8.12016 79.0522 8.2052 79.8368 8.53021C80.6215 8.85522 81.2921 9.40561 81.764 10.1118C82.2358 10.8179 82.4876 11.6482 82.4876 12.4975C82.4873 13.6362 82.0348 14.7283 81.2296 15.5335C80.4244 16.3388 79.3323 16.7913 78.1935 16.7916V16.7916Z" fill="black"/>
<path d="M49.3556 5.87134C48.1939 5.87148 47.0529 6.17996 46.0493 6.76527C45.0457 7.35059 44.2155 8.19177 43.6433 9.20291C43.0712 10.2141 42.7776 11.3589 42.7927 12.5206C42.8077 13.6823 43.1308 14.8192 43.7289 15.8152C44.3271 16.8112 45.1788 17.6306 46.1972 18.1898C47.2156 18.7489 48.3642 19.0278 49.5256 18.9978C50.687 18.9679 51.8196 18.6303 52.8079 18.0194C53.7961 17.4086 54.6045 16.5464 55.1506 15.5209H52.4137C51.8561 16.1006 51.1468 16.512 50.3666 16.708C49.5865 16.9041 48.767 16.877 48.0015 16.6298C47.2361 16.3826 46.5555 15.9252 46.0374 15.3099C45.5193 14.6946 45.1845 13.9461 45.0713 13.1497H55.8809C55.9075 12.9126 55.9209 12.6743 55.9211 12.4357C55.9208 10.6946 55.2289 9.02494 53.9977 7.79392C52.7665 6.5629 51.0967 5.87134 49.3556 5.87134ZM45.2732 11.1161C45.5695 10.2791 46.118 9.55459 46.843 9.04216C47.5681 8.52972 48.4341 8.25457 49.322 8.25457C50.2099 8.25457 51.0759 8.52972 51.801 9.04216C52.5261 9.55459 53.0745 10.2791 53.3709 11.1161H45.2732Z" fill="black"/>
<path d="M64.4116 8.22957C65.5409 8.22831 66.6248 8.67336 67.4274 9.46778H70.3107C69.6495 8.15303 68.5655 7.09869 67.2329 6.47408C65.9004 5.84948 64.3966 5.69086 62.963 6.0237C61.5295 6.35655 60.2494 7.16153 59.3283 8.30938C58.4073 9.45723 57.8988 10.8813 57.8844 12.3529C57.8701 13.8245 58.3508 15.2583 59.2492 16.4238C60.1477 17.5894 61.4119 18.4192 62.8387 18.7799C64.2655 19.1407 65.7721 19.0114 67.1166 18.4129C68.461 17.8144 69.5654 16.7814 70.2521 15.4798H67.524C67.0345 15.9949 66.4248 16.3805 65.7495 16.6019C65.0743 16.8233 64.3546 16.8737 63.6551 16.7484C62.9556 16.6231 62.2982 16.3262 61.7417 15.8842C61.1853 15.4422 60.7472 14.869 60.4669 14.2161C60.1866 13.5631 60.0728 12.8507 60.1356 12.1429C60.1985 11.435 60.4361 10.7539 60.8271 10.1605C61.2181 9.5671 61.7503 9.08006 62.3759 8.74305C63.0015 8.40604 63.701 8.2296 64.4116 8.22957V8.22957Z" fill="black"/>
<path d="M37.6312 8.79695C39.6192 8.42038 41.794 5.56958 40.3735 2.67211C40.1455 2.22749 39.8388 1.82784 39.4684 1.4925C39.4022 1.42956 38.941 1.07796 38.7978 0.991145C38.2195 0.647107 37.5703 0.439627 36.8998 0.384521H28.3658V18.7384H30.6447V9.92229H35.1656C36.737 9.92229 38.5731 11.0715 38.5731 14.2761V18.7373H40.852V14.3965C40.8455 11.6901 40.2812 10.0406 37.6312 8.79695ZM35.9578 7.64338H30.6403V2.65149H36.0457C39.4413 2.83272 39.3838 7.59889 35.9578 7.64338Z" fill="black"/>
<path d="M102.376 8.07748C101.965 7.44242 101.402 6.92018 100.737 6.55821C100.095 6.19462 99.3694 6.00218 98.631 5.99933C96.9323 5.99933 95.6756 6.58859 94.861 7.76711C93.9929 6.58859 92.8487 5.99933 91.4286 5.99933C90.6052 5.98965 89.7907 6.17053 89.0487 6.52782V5.91577H86.7698V9.73565C86.7568 9.87022 86.7492 10.0102 86.7492 10.16V18.7406H89.0346V11.1714C89.0346 10.288 89.2036 9.56853 89.5414 9.01291C89.8793 8.45729 90.4906 8.18021 91.3754 8.18166C92.1546 8.18166 92.7265 8.43487 93.0911 8.94129C93.489 9.44338 93.6883 10.1365 93.689 11.0205V18.7438H96.0287V10.8653C96.0158 10.1963 96.2165 9.54058 96.6017 8.99338C97.0184 8.45513 97.6431 8.186 98.4758 8.186C99.3085 8.186 99.8804 8.46308 100.192 9.01726C100.541 9.56819 100.722 10.2096 100.711 10.8621V18.7406H103V10.1578C103.002 9.41802 102.784 8.69428 102.376 8.07748V8.07748Z" fill="black"/>
</svg>
