<svg width="80" height="80" viewBox="0 0 80 80" fill="none" xmlns="http://www.w3.org/2000/svg">
<path d="M40.4508 70.4766H12.8253C10.9983 70.4766 9.52344 69.0017 9.52344 67.1747L9.52344 39.5492C9.52344 37.7221 10.9983 36.2473 12.8253 36.2473H40.4508C42.2778 36.2473 43.7527 37.7221 43.7527 39.5492V67.1747C43.7417 68.9907 42.2668 70.4766 40.4508 70.4766Z" fill="#0079FF"/>
<path d="M41.2695 27.2551H28.4803C27.1155 27.2551 26.0039 26.1435 26.0039 24.7787V12.0006C26.0039 10.6358 27.1155 9.52417 28.4803 9.52417H41.2585C42.6232 9.52417 43.7349 10.6358 43.7349 12.0006V24.7787C43.7349 26.1545 42.6343 27.2551 41.2695 27.2551Z" fill="#80BCFF"/>
<path d="M67.9804 53.9783H55.1912C53.8265 53.9783 52.7148 52.8667 52.7148 51.5019V38.7237C52.7148 37.3589 53.8265 36.2473 55.1912 36.2473H67.9804C69.3452 36.2473 70.4568 37.3589 70.4568 38.7237V51.5019C70.4568 52.8667 69.3452 53.9783 67.9804 53.9783Z" fill="#80BCFF"/>
<path d="M67.9804 27.2551H55.1912C53.8265 27.2551 52.7148 26.1435 52.7148 24.7787V12.0006C52.7148 10.6358 53.8265 9.52417 55.1912 9.52417H67.9804C69.3452 9.52417 70.4568 10.6358 70.4568 12.0006V24.7787C70.4568 26.1545 69.3452 27.2551 67.9804 27.2551Z" fill="#BFDDFF"/>
</svg>
