<svg width="84" height="19" viewBox="0 0 84 19" fill="none" xmlns="http://www.w3.org/2000/svg">
<path d="M38.324 9.77685C37.5262 9.29211 36.4161 8.85065 34.9936 8.45247C33.5711 8.05429 32.567 7.61643 31.9813 7.13891C31.3948 6.65417 31.1016 6.06411 31.1016 5.36874C31.1016 4.50313 31.4103 3.82687 32.0278 3.33997C32.6453 2.85306 33.513 2.60709 34.6311 2.60204C35.8271 2.60204 36.7533 2.89887 37.4097 3.49253C38.0661 4.08619 38.3944 4.89518 38.3944 5.91948H40.6568C40.6634 4.99307 40.4002 4.08477 39.8994 3.30534C39.3796 2.49101 38.6398 1.84052 37.7657 1.42914C36.8503 0.976135 35.8069 0.749634 34.6354 0.749634C32.9151 0.749634 31.5157 1.19109 30.4372 2.07401C29.3588 2.95694 28.8222 4.06708 28.8272 5.40444C28.8178 5.96957 28.9302 6.53009 29.1569 7.04785C29.3836 7.56561 29.7192 8.02845 30.1408 8.40486C31.0237 9.20987 32.4303 9.8901 34.3606 10.4455C35.9007 10.8899 36.9639 11.3432 37.5504 11.8056C38.1368 12.268 38.4297 12.9125 38.429 13.7392C38.429 14.5759 38.1127 15.2367 37.4801 15.7214C36.8474 16.2062 35.9367 16.4482 34.748 16.4474C33.4734 16.4474 32.4534 16.1506 31.6881 15.5569C30.9227 14.9633 30.5436 14.1464 30.5509 13.1062H28.2884C28.2751 14.0576 28.5621 14.989 29.1085 15.7679C29.6633 16.5492 30.4488 17.1666 31.4652 17.6203C32.5007 18.0702 33.619 18.298 34.748 18.289C36.5513 18.289 37.994 17.8746 39.076 17.0458C40.158 16.217 40.6972 15.1072 40.6936 13.7164C40.6936 12.8508 40.4985 12.0967 40.1083 11.454C39.718 10.8113 39.1233 10.2522 38.324 9.77685Z" fill="black"/>
<path d="M81.7277 -0.00012207V7.06216C80.7766 6.24958 79.6124 5.72657 78.3732 5.55506C77.134 5.38355 75.8716 5.57071 74.7355 6.0944C73.5994 6.61808 72.6371 7.45635 71.9626 8.50996C71.2881 9.56357 70.9296 10.7884 70.9296 12.0394C70.9296 13.2904 71.2881 14.5152 71.9626 15.5689C72.6371 16.6225 73.5994 17.4607 74.7355 17.9844C75.8716 18.5081 77.134 18.6953 78.3732 18.5238C79.6124 18.3522 80.7766 17.8292 81.7277 17.0167V18.3021H84V-0.00012207H81.7277ZM81.7277 12.219C81.7092 13.3483 81.2452 14.4245 80.4368 15.2133C79.6283 16.002 78.541 16.4393 77.4116 16.4301C76.2822 16.4208 75.2022 15.9656 74.4069 15.1637C73.6116 14.3618 73.1653 13.2781 73.1653 12.1487C73.1653 11.0193 73.6116 9.93557 74.4069 9.13366C75.2022 8.33176 76.2822 7.8766 77.4116 7.86732C78.541 7.85804 79.6283 8.2954 80.4368 9.08413C81.2452 9.87287 81.7092 10.9491 81.7277 12.0784V12.219Z" fill="black"/>
<path d="M6.54429 5.4436C5.3859 5.44374 4.2483 5.75132 3.24766 6.33492C2.24702 6.91852 1.41919 7.75723 0.848717 8.76541C0.278241 9.77359 -0.0144448 10.9151 0.000548399 12.0734C0.0155416 13.2317 0.337678 14.3653 0.934058 15.3583C1.53044 16.3514 2.3797 17.1684 3.39511 17.7259C4.41052 18.2834 5.5557 18.5614 6.7137 18.5316C7.87171 18.5018 9.00105 18.1651 9.98639 17.556C10.9717 16.947 11.7778 16.0873 12.3222 15.0648H9.59447C9.03848 15.6429 8.33123 16.053 7.5534 16.2485C6.77556 16.444 5.95845 16.417 5.19523 16.1705C4.43202 15.924 3.75343 15.468 3.23685 14.8545C2.72027 14.241 2.3865 13.4947 2.27359 12.7006H13.0515C13.0771 12.4642 13.0901 12.2265 13.0905 11.9887C13.0905 11.1291 12.9211 10.2779 12.5921 9.48374C12.2631 8.68958 11.7809 7.96801 11.1731 7.36023C10.5652 6.75245 9.84352 6.27036 9.04931 5.94151C8.2551 5.61265 7.40389 5.44346 6.54429 5.4436V5.4436ZM2.47376 10.6676C2.76898 9.83294 3.31566 9.11036 4.03853 8.59929C4.7614 8.08823 5.62492 7.8138 6.5102 7.8138C7.39549 7.8138 8.25901 8.08823 8.98188 8.59929C9.70475 9.11036 10.2514 9.83294 10.5466 10.6676H2.47376Z" fill="black"/>
<path d="M26.3278 10.6524C26.2539 9.64128 25.9092 8.66868 25.3301 7.83659C24.7509 7.00449 23.9585 6.34355 23.036 5.92307C22.1135 5.50259 21.0949 5.33807 20.0869 5.44674C19.0789 5.55542 18.1187 5.9333 17.3071 6.54076V5.44576H15.0403V18.247H17.3071V10.6675C17.2833 9.03695 18.9582 7.68877 20.6851 7.68877C22.412 7.68877 24.0685 9.06184 24.0631 10.6675V18.247H26.33V10.6675L26.3278 10.6524Z" fill="black"/>
<path d="M49.1852 5.47925C48.0268 5.4792 46.8891 5.78661 45.8883 6.37008C44.8875 6.95356 44.0596 7.7922 43.4889 8.80035C42.9183 9.80849 42.6255 10.95 42.6404 12.1084C42.6552 13.2667 42.9773 14.4003 43.5736 15.3935C44.1699 16.3867 45.0191 17.2038 46.0346 17.7614C47.05 18.3189 48.1952 18.597 49.3532 18.5672C50.5113 18.5374 51.6407 18.2008 52.6261 17.5918C53.6115 16.9827 54.4176 16.123 54.962 15.1005H52.2343C51.6782 15.6784 50.9708 16.0885 50.193 16.2839C49.4151 16.4793 48.598 16.4523 47.8347 16.2058C47.0715 15.9594 46.3928 15.5035 45.8761 14.89C45.3594 14.2766 45.0255 13.5303 44.9123 12.7363H55.6881C55.7145 12.4999 55.7279 12.2622 55.7281 12.0243C55.7281 10.2888 55.0388 8.6244 53.8119 7.39702C52.5849 6.16964 50.9207 5.47982 49.1852 5.47925V5.47925ZM45.1136 10.7032C45.4091 9.8687 45.9559 9.14629 46.6788 8.63535C47.4018 8.12442 48.2653 7.85008 49.1506 7.85008C50.0358 7.85008 50.8993 8.12442 51.6223 8.63535C52.3452 9.14629 52.8921 9.8687 53.1875 10.7032H45.1136Z" fill="black"/>
<path d="M68.9796 10.7248C68.906 9.71349 68.5616 8.74066 67.9825 7.90834C67.4034 7.07603 66.6109 6.41492 65.6883 5.99438C64.7656 5.57385 63.7468 5.40939 62.7387 5.51826C61.7306 5.62713 60.7704 6.00531 59.9588 6.61314V5.51381H57.6866V18.3151H59.9588V10.741C59.935 9.11042 61.61 7.76115 63.3369 7.76115C65.0638 7.76115 66.7203 9.1353 66.7149 10.741V18.3151H68.9871V10.741L68.9796 10.7248Z" fill="black"/>
</svg>
