<svg width="80" height="81" viewBox="0 0 80 81" fill="none" xmlns="http://www.w3.org/2000/svg">
<path d="M33.069 37.9645H10.3189C8.82504 37.9645 7.61914 36.7586 7.61914 35.2648V12.5147C7.61914 11.0208 8.82504 9.81494 10.3189 9.81494H33.069C34.5628 9.81494 35.7687 11.0208 35.7687 12.5147V35.2648C35.7687 36.7496 34.5538 37.9645 33.069 37.9645Z" fill="#1DC296"/>
<path d="M68.5541 70.7673H45.8131C44.3192 70.7673 43.1133 69.5614 43.1133 68.0675V45.3174C43.1133 43.8236 44.3192 42.6177 45.8131 42.6177H68.5631C70.057 42.6177 71.2629 43.8236 71.2629 45.3174V68.0675C71.2539 69.5614 70.048 70.7673 68.5541 70.7673Z" fill="#1DC296"/>
<path d="M62.4536 31.1796H51.9155C50.7995 31.1796 49.8906 30.2707 49.8906 29.1548V18.6257C49.8906 17.5098 50.7995 16.6008 51.9155 16.6008H62.4536C63.5695 16.6008 64.4784 17.5098 64.4784 18.6257V29.1638C64.4784 30.2707 63.5695 31.1796 62.4536 31.1796Z" fill="#77DAC0"/>
<path d="M26.9836 64.0448H16.4545C15.3386 64.0448 14.4297 63.1358 14.4297 62.0199V51.4819C14.4297 50.366 15.3386 49.457 16.4545 49.457H26.9836C28.0995 49.457 29.0084 50.366 29.0084 51.4819V62.0199C29.0084 63.1358 28.1085 64.0448 26.9836 64.0448Z" fill="#77DAC0"/>
</svg>
