<svg width="40" height="40" viewBox="0 0 40 40" fill="none" xmlns="http://www.w3.org/2000/svg">
<path d="M9.33333 12.3333L4.8 15.7333C4.29639 16.111 4 16.7037 4 17.3333V33.3333C4 34.4378 4.89543 35.3333 6 35.3333H34.6667C35.7712 35.3333 36.6667 34.4378 36.6667 33.3333V17.2945C36.6667 16.6869 36.3905 16.1123 35.9161 15.7328L31.6667 12.3333" stroke="#29282F" stroke-linecap="round"/>
<path d="M9.33398 6.66675V19.3334C9.33398 19.7511 9.5384 20.1423 9.88125 20.3808L15.8825 24.5556C16.5571 25.0249 17.4502 25.0337 18.134 24.5778L18.8637 24.0914C19.5493 23.6343 20.445 23.6445 21.1201 24.117L22.1802 24.8591C22.8722 25.3435 23.7939 25.341 24.4832 24.8527L30.49 20.5979C31.0194 20.2229 31.334 19.6145 31.334 18.9658V6.66675C31.334 5.56218 30.4386 4.66675 29.334 4.66675H11.334C10.2294 4.66675 9.33398 5.56218 9.33398 6.66675Z" fill="white" stroke="#18B088"/>
<path d="M13.334 9.33325H19.0007" stroke="#18B088" stroke-linecap="round"/>
<path d="M4.66602 16.6667L17.3327 25.6667" stroke="#29282F"/>
<path d="M36 16.6667L23.3333 26.0001" stroke="#29282F"/>
<path d="M4 34.9999L18.8217 24.1925C19.5238 23.6805 20.4762 23.6805 21.1783 24.1925L36 34.9999" stroke="#29282F"/>
<path d="M13.334 13.3333H28.0007" stroke="#18B088" stroke-linecap="round"/>
<path d="M13.334 17.3333H28.0007" stroke="#18B088" stroke-linecap="round"/>
</svg>
