<svg width="40" height="40" viewBox="0 0 40 40" fill="none" xmlns="http://www.w3.org/2000/svg">
<g clip-path="url(#clip0)">
<path d="M26.4601 9.75788C26.4601 11.407 25.1232 12.7438 23.4742 12.7438C21.8251 12.7438 20.4883 11.407 20.4883 9.75788C20.4883 8.10881 21.8251 6.77197 23.4742 6.77197C25.1232 6.77197 26.4601 8.10881 26.4601 9.75788Z" stroke="#29282F"/>
<path d="M19.3284 24.0168H3.18122C3.43945 19.7823 6.9554 16.428 11.2548 16.428C15.5542 16.428 19.0702 19.7823 19.3284 24.0168Z" stroke="#29282F"/>
<path d="M23.4731 16.113C24.9467 16.113 26.2922 16.6606 27.3177 17.5643C25.256 17.9881 23.4093 19.0052 21.9639 20.4275C21.5207 19.2655 20.887 18.1791 20.0791 17.207C21.0346 16.5187 22.2058 16.113 23.4731 16.113Z" stroke="#29282F"/>
<path d="M15.4929 8.81995C15.4929 11.1609 13.5952 13.0586 11.2543 13.0586C8.91333 13.0586 7.01562 11.1609 7.01562 8.81995C7.01562 6.47901 8.91333 4.5813 11.2543 4.5813C13.5952 4.5813 15.4929 6.47901 15.4929 8.81995Z" stroke="#29282F"/>
<path d="M29.4796 20.2136C25.1496 20.2136 21.627 23.7363 21.627 28.0663C21.627 32.3963 25.1497 35.919 29.4796 35.919C33.8095 35.919 37.3323 32.3963 37.3323 28.0663C37.3322 23.7363 33.8095 20.2136 29.4796 20.2136ZM32.4082 31.8704L29.4796 30.5616L26.551 31.8705L26.8909 28.6807L24.741 26.2999L27.8798 25.6375L29.4797 22.8569L31.0797 25.6375L34.2184 26.2999L32.0686 28.6807L32.4082 31.8704Z" fill="#1DC296"/>
</g>
<defs>
<clipPath id="clip0">
<rect width="34.6667" height="34.6667" fill="white" transform="translate(2.66602 2.66675)"/>
</clipPath>
</defs>
</svg>
