<svg width="40" height="40" viewBox="0 0 40 40" fill="none" xmlns="http://www.w3.org/2000/svg">
<path d="M2.66602 36H37.3327" stroke="#29282F" stroke-linecap="round"/>
<path d="M4 36.0001V26.6667C4 25.5622 4.89543 24.6667 6 24.6667H8C9.10457 24.6667 10 25.5622 10 26.6667V36.0001" stroke="#29282F"/>
<path d="M12.666 36V30C12.666 28.8954 13.5614 28 14.666 28H16.666C17.7706 28 18.666 28.8954 18.666 30V36" stroke="#29282F"/>
<path d="M21.334 35.9999V21.3333C21.334 20.2287 22.2294 19.3333 23.334 19.3333H25.334C26.4386 19.3333 27.334 20.2287 27.334 21.3333V35.9999" stroke="#29282F"/>
<path d="M30 35.9999V17.3332C30 16.2287 30.8954 15.3333 32 15.3333H34C35.1046 15.3333 36 16.2287 36 17.3333V35.9999" stroke="#29282F"/>
<circle cx="6.99935" cy="17.0001" r="2.33333" fill="#18B088"/>
<circle cx="15.6673" cy="20.3333" r="2.33333" fill="#18B088"/>
<circle cx="24.3333" cy="12.3333" r="2.33333" fill="#18B088"/>
<circle cx="32.9993" cy="7.66658" r="2.33333" fill="#18B088"/>
<path d="M7 17.0001L15.6667 20.3334L24.3333 12.3334L33 7.66675" stroke="#18B088"/>
</svg>
