<svg width="40" height="40" viewBox="0 0 40 40" fill="none" xmlns="http://www.w3.org/2000/svg">
<mask id="path-1-inside-1" fill="white">
<path d="M35.9237 3.5H23.2458C23.0929 3.5 22.9463 3.56058 22.8383 3.66842C22.7302 3.77625 22.6695 3.9225 22.6695 4.075V8.60713L18.513 6.53345L17.4418 3.86145C17.3992 3.75464 17.3254 3.66309 17.23 3.59869C17.1346 3.53428 17.022 3.5 16.9068 3.5003V3.5H9.99152V3.5003C9.87632 3.5 9.7637 3.53428 9.66828 3.59869C9.57286 3.66309 9.49906 3.75464 9.45647 3.86145L8.38532 6.53349L3.97106 8.73571C3.88693 8.7777 3.81438 8.83959 3.75974 8.916C3.7051 8.9924 3.67003 9.08098 3.6576 9.17402L2.50506 17.799C2.49411 17.8809 2.50099 17.9643 2.52523 18.0433C2.54947 18.1223 2.59051 18.1952 2.64554 18.257L5.38135 21.328V25.925C5.38135 26.0775 5.44207 26.2238 5.55014 26.3316C5.65821 26.4394 5.80479 26.5 5.95762 26.5H20.9407C21.0935 26.5 21.2401 26.4394 21.3482 26.3316C21.4562 26.2238 21.5169 26.0775 21.5169 25.925V21.328L22.6695 20.0343V25.925C22.6695 26.0775 22.7302 26.2238 22.8383 26.3316C22.9463 26.4394 23.0929 26.5 23.2458 26.5H26.7034C26.8366 26.5 26.9657 26.4539 27.0687 26.3697C27.1718 26.2854 27.2423 26.1681 27.2685 26.0378L29.5847 14.4819L31.901 26.0378C31.9271 26.1681 31.9977 26.2854 32.1008 26.3697C32.2038 26.4539 32.3329 26.5 32.4661 26.5H35.9237C36.0766 26.5 36.2231 26.4394 36.3312 26.3316C36.4393 26.2238 36.5 26.0775 36.5 25.925V4.075C36.5 3.9225 36.4393 3.77625 36.3312 3.66842C36.2231 3.56058 36.0766 3.5 35.9237 3.5V3.5ZM17.5243 7.16355C17.5767 7.2943 17.6753 7.40131 17.8016 7.46429L22.1387 9.62801L23.2159 17.6899L19.1872 22.2122L17.6595 20.6878L20.2571 17.0592C20.3146 16.9788 20.3504 16.885 20.3611 16.7868C20.3717 16.6886 20.3568 16.5893 20.3178 16.4985L18.589 12.4735L17.5296 12.9265L18.9142 16.15H14.0254V7.21932L16.6663 5.02342L17.5243 7.16355ZM13.4491 6.20152L11.5832 4.65H15.3151L13.4491 6.20152ZM4.75964 9.62801L9.09673 7.46429C9.22295 7.40131 9.32162 7.2943 9.37403 7.16355L10.232 5.02341L12.8729 7.21932V16.15H7.98414L9.36868 12.9265L8.30928 12.4735L6.58046 16.4985C6.54147 16.5893 6.52658 16.6886 6.53723 16.7868C6.54787 16.885 6.5837 16.9788 6.64124 17.0592L9.23882 20.6878L7.71113 22.2122L3.68236 17.6899L4.75964 9.62801ZM6.53389 22.6218L7.25571 23.432C7.30788 23.4906 7.3715 23.5379 7.44266 23.571C7.51382 23.6042 7.59102 23.6225 7.66952 23.6248C7.74801 23.6271 7.82615 23.6133 7.89914 23.5844C7.97213 23.5555 8.03842 23.512 8.09395 23.4566L10.399 21.1566C10.4955 21.0603 10.5546 20.9331 10.5658 20.7974C10.5771 20.6618 10.5397 20.5265 10.4604 20.4158L8.22998 17.3H12.8729V25.35H6.53389V22.6218ZM20.3644 25.35H14.0254V17.3H18.6683L16.4379 20.4158C16.3586 20.5265 16.3212 20.6618 16.3325 20.7974C16.3437 20.9331 16.4028 21.0603 16.4993 21.1566L18.8043 23.4566C18.9124 23.5644 19.059 23.625 19.2119 23.625C19.2175 23.625 19.2231 23.6249 19.2288 23.6248C19.3073 23.6225 19.3845 23.6042 19.4557 23.571C19.5268 23.5379 19.5904 23.4906 19.6426 23.432L20.3644 22.6218V25.35ZM35.3475 25.35H32.9385L30.1498 11.4372C30.1237 11.3069 30.0531 11.1896 29.9501 11.1053C29.8471 11.0211 29.718 10.975 29.5847 10.975C29.4515 10.975 29.3224 11.0211 29.2194 11.1053C29.1164 11.1896 29.0458 11.3069 29.0197 11.4372L26.2309 25.35H23.822V18.7405L24.2528 18.257C24.3078 18.1952 24.3488 18.1223 24.3731 18.0433C24.3973 17.9643 24.4042 17.8809 24.3932 17.799L23.822 13.5244V4.65H35.3475V25.35Z"/>
</mask>
<path d="M35.9237 3.5H23.2458C23.0929 3.5 22.9463 3.56058 22.8383 3.66842C22.7302 3.77625 22.6695 3.9225 22.6695 4.075V8.60713L18.513 6.53345L17.4418 3.86145C17.3992 3.75464 17.3254 3.66309 17.23 3.59869C17.1346 3.53428 17.022 3.5 16.9068 3.5003V3.5H9.99152V3.5003C9.87632 3.5 9.7637 3.53428 9.66828 3.59869C9.57286 3.66309 9.49906 3.75464 9.45647 3.86145L8.38532 6.53349L3.97106 8.73571C3.88693 8.7777 3.81438 8.83959 3.75974 8.916C3.7051 8.9924 3.67003 9.08098 3.6576 9.17402L2.50506 17.799C2.49411 17.8809 2.50099 17.9643 2.52523 18.0433C2.54947 18.1223 2.59051 18.1952 2.64554 18.257L5.38135 21.328V25.925C5.38135 26.0775 5.44207 26.2238 5.55014 26.3316C5.65821 26.4394 5.80479 26.5 5.95762 26.5H20.9407C21.0935 26.5 21.2401 26.4394 21.3482 26.3316C21.4562 26.2238 21.5169 26.0775 21.5169 25.925V21.328L22.6695 20.0343V25.925C22.6695 26.0775 22.7302 26.2238 22.8383 26.3316C22.9463 26.4394 23.0929 26.5 23.2458 26.5H26.7034C26.8366 26.5 26.9657 26.4539 27.0687 26.3697C27.1718 26.2854 27.2423 26.1681 27.2685 26.0378L29.5847 14.4819L31.901 26.0378C31.9271 26.1681 31.9977 26.2854 32.1008 26.3697C32.2038 26.4539 32.3329 26.5 32.4661 26.5H35.9237C36.0766 26.5 36.2231 26.4394 36.3312 26.3316C36.4393 26.2238 36.5 26.0775 36.5 25.925V4.075C36.5 3.9225 36.4393 3.77625 36.3312 3.66842C36.2231 3.56058 36.0766 3.5 35.9237 3.5V3.5ZM17.5243 7.16355C17.5767 7.2943 17.6753 7.40131 17.8016 7.46429L22.1387 9.62801L23.2159 17.6899L19.1872 22.2122L17.6595 20.6878L20.2571 17.0592C20.3146 16.9788 20.3504 16.885 20.3611 16.7868C20.3717 16.6886 20.3568 16.5893 20.3178 16.4985L18.589 12.4735L17.5296 12.9265L18.9142 16.15H14.0254V7.21932L16.6663 5.02342L17.5243 7.16355ZM13.4491 6.20152L11.5832 4.65H15.3151L13.4491 6.20152ZM4.75964 9.62801L9.09673 7.46429C9.22295 7.40131 9.32162 7.2943 9.37403 7.16355L10.232 5.02341L12.8729 7.21932V16.15H7.98414L9.36868 12.9265L8.30928 12.4735L6.58046 16.4985C6.54147 16.5893 6.52658 16.6886 6.53723 16.7868C6.54787 16.885 6.5837 16.9788 6.64124 17.0592L9.23882 20.6878L7.71113 22.2122L3.68236 17.6899L4.75964 9.62801ZM6.53389 22.6218L7.25571 23.432C7.30788 23.4906 7.3715 23.5379 7.44266 23.571C7.51382 23.6042 7.59102 23.6225 7.66952 23.6248C7.74801 23.6271 7.82615 23.6133 7.89914 23.5844C7.97213 23.5555 8.03842 23.512 8.09395 23.4566L10.399 21.1566C10.4955 21.0603 10.5546 20.9331 10.5658 20.7974C10.5771 20.6618 10.5397 20.5265 10.4604 20.4158L8.22998 17.3H12.8729V25.35H6.53389V22.6218ZM20.3644 25.35H14.0254V17.3H18.6683L16.4379 20.4158C16.3586 20.5265 16.3212 20.6618 16.3325 20.7974C16.3437 20.9331 16.4028 21.0603 16.4993 21.1566L18.8043 23.4566C18.9124 23.5644 19.059 23.625 19.2119 23.625C19.2175 23.625 19.2231 23.6249 19.2288 23.6248C19.3073 23.6225 19.3845 23.6042 19.4557 23.571C19.5268 23.5379 19.5904 23.4906 19.6426 23.432L20.3644 22.6218V25.35ZM35.3475 25.35H32.9385L30.1498 11.4372C30.1237 11.3069 30.0531 11.1896 29.9501 11.1053C29.8471 11.0211 29.718 10.975 29.5847 10.975C29.4515 10.975 29.3224 11.0211 29.2194 11.1053C29.1164 11.1896 29.0458 11.3069 29.0197 11.4372L26.2309 25.35H23.822V18.7405L24.2528 18.257C24.3078 18.1952 24.3488 18.1223 24.3731 18.0433C24.3973 17.9643 24.4042 17.8809 24.3932 17.799L23.822 13.5244V4.65H35.3475V25.35Z" fill="#29282F" stroke="white" stroke-width="0.2" mask="url(#path-1-inside-1)"/>
<path d="M31.4801 7.50894L31.4834 7.55539C31.5509 8.50531 31.8031 9.41794 32.2165 10.2101L32.2165 10.2101L32.3266 10.4212L32.9373 9.90035L32.8166 9.66896L31.4801 7.50894ZM31.4801 7.50894H31.4335M31.4801 7.50894H31.4335M31.4335 7.50894H31.4139C31.3219 7.50894 31.2304 7.46227 31.1606 7.37306C31.0907 7.28357 31.05 7.16008 31.05 7.02947C31.05 6.89886 31.0907 6.77537 31.1606 6.68587C31.2304 6.59667 31.3219 6.55 31.4139 6.55L32.2417 6.55L32.2418 6.55C32.332 6.54993 32.422 6.59485 32.4913 6.68102C32.5608 6.76749 32.6027 6.88734 32.6055 7.01546C32.6082 7.14358 32.5717 7.26652 32.5057 7.35822C32.4399 7.44972 32.3516 7.50119 32.2612 7.50757L32.2105 7.51115M31.4335 7.50894L32.2105 7.51115M32.2105 7.51115L32.215 7.5618M32.2105 7.51115L32.215 7.5618M32.215 7.5618C32.2808 8.31503 32.4869 9.03762 32.8166 9.66893L32.215 7.5618Z" fill="#29282F" stroke="white" stroke-width="0.1"/>
<path d="M27.5199 7.50894L27.5166 7.55539C27.4491 8.50531 27.1969 9.41794 26.7835 10.2101L26.7835 10.2101L26.6734 10.4212L26.0627 9.90035L26.1834 9.66896L27.5199 7.50894ZM27.5199 7.50894H27.5665M27.5199 7.50894H27.5665M27.5665 7.50894H27.5861C27.6781 7.50894 27.7696 7.46227 27.8394 7.37306C27.9093 7.28357 27.95 7.16008 27.95 7.02947C27.95 6.89886 27.9093 6.77537 27.8394 6.68587C27.7696 6.59667 27.6781 6.55 27.5861 6.55L26.7583 6.55L26.7582 6.55C26.668 6.54993 26.578 6.59485 26.5087 6.68102C26.4392 6.76749 26.3973 6.88734 26.3945 7.01546C26.3918 7.14358 26.4283 7.26652 26.4943 7.35822C26.5601 7.44972 26.6484 7.50119 26.7388 7.50757L26.7895 7.51115M27.5665 7.50894L26.7895 7.51115M26.7895 7.51115L26.785 7.5618M26.7895 7.51115L26.785 7.5618M26.785 7.5618C26.7192 8.31503 26.5131 9.03762 26.1834 9.66893L26.785 7.5618Z" fill="#29282F" stroke="white" stroke-width="0.1"/>
<path d="M26.7854 33.0156C23.6117 31.7461 21.5168 30.2142 21.2913 30.0787C21.2143 30.0274 21.1238 30 21.0313 30H19.0938C18.8349 30 18.625 30.2099 18.625 30.4688V31.4063C18.625 31.6647 18.4147 31.875 18.1563 31.875H16.2813C16.0228 31.875 15.8125 31.6647 15.8125 31.4063C15.8125 30.6308 15.1817 30 14.4063 30H13.4688C13.2099 30 13 30.2099 13 30.4688L13 37.5313C13 37.7901 13.2099 38 13.4688 38H28.5313C28.7901 38 29 37.7901 29 37.5313V35.4882C29 33.4831 27.0096 33.1683 26.7854 33.0156ZM14.4063 30.9375C14.6647 30.9375 14.875 31.1478 14.875 31.4063C14.875 32.1817 15.5058 32.8125 16.2813 32.8125H18.1563C18.9317 32.8125 19.5625 32.1817 19.5625 31.4063V30.9375H20.8893C21.0498 31.0441 21.1888 31.1386 21.4223 31.2898L20.6998 32.0123C20.5167 32.1954 20.5167 32.4922 20.6998 32.6752C20.8828 32.8583 21.1796 32.8583 21.3627 32.6752L22.2389 31.799C22.5497 31.9861 22.8642 32.1673 23.1819 32.3427L22.5748 32.9498C22.3918 33.1329 22.3918 33.4297 22.5748 33.6127C22.7578 33.7958 23.0547 33.7958 23.2377 33.6127L24.0479 32.8025C24.3785 32.9707 24.7123 33.1328 25.0489 33.2882L24.4498 33.8873C24.2668 34.0704 24.2668 34.3672 24.4498 34.5502C24.6328 34.7333 24.9297 34.7333 25.1127 34.5502L25.9694 33.6935C26.3969 33.8733 26.5128 33.9149 27.1785 34.1825C27.7155 34.3973 28.0625 34.9098 28.0625 35.4882V35.625H16.7028C16.4851 34.5565 15.5381 33.75 14.4063 33.75H13.9375V30.9375H14.4063Z" fill="#0079FF"/>
<path d="M33 29V34H30" stroke="#0079FF"/>
<path d="M8 29V34H11" stroke="#0079FF"/>
</svg>
