<svg width="40" height="40" viewBox="0 0 40 40" fill="none" xmlns="http://www.w3.org/2000/svg">
<path d="M29.6516 8.51562V8.71563H29.8516H30.7305C32.0739 8.71563 33.1672 9.80891 33.1672 11.1523V32.3633C33.1672 33.7067 32.0739 34.8 30.7305 34.8H13.1523C11.8089 34.8 10.7156 33.7067 10.7156 32.3633V31.4844V31.2844H10.5156H9.63672C8.29329 31.2844 7.2 30.1911 7.2 28.8477V7.63672C7.2 6.29329 8.29329 5.2 9.63672 5.2H27.2148C28.5583 5.2 29.6516 6.29329 29.6516 7.63672V8.51562ZM11.4293 11.9153L11.4293 11.9153L13.9153 9.42931C14.3758 8.96883 14.987 8.71563 15.6382 8.71563H28.0938H28.2938V8.51562V7.63672C28.2938 7.04163 27.8099 6.55781 27.2148 6.55781H9.63672C9.04163 6.55781 8.55781 7.04163 8.55781 7.63672V28.8477C8.55781 29.4427 9.04163 29.9266 9.63672 29.9266H10.5156H10.7156V29.7266V13.6382C10.7156 12.987 10.9688 12.3758 11.4293 11.9153ZM15.9891 10.2734V10.0734H15.7891H15.6382C15.3505 10.0734 15.0789 10.1859 14.8754 10.3894L12.3894 12.8754C12.1859 13.0789 12.0734 13.3505 12.0734 13.6382V13.7891V13.9891H12.2734H15.7891H15.9891V13.7891V10.2734ZM12.2734 15.3469H12.0734V15.5469V32.3633C12.0734 32.9584 12.5573 33.4422 13.1523 33.4422H30.7305C31.3256 33.4422 31.8094 32.9584 31.8094 32.3633V11.1523C31.8094 10.5573 31.3256 10.0734 30.7305 10.0734H17.5469H17.3469V10.2734V14.668C17.3469 15.0429 17.0429 15.3469 16.668 15.3469H12.2734Z" fill="#29282F" stroke="white" stroke-width="0.4"/>
<path d="M22.5 20C20.2909 20 18.5 21.7909 18.5 24H26.5C26.5 21.7909 24.7091 20 22.5 20Z" fill="#FF2856"/>
<path d="M22.5 19C23.6046 19 24.5 18.1046 24.5 17C24.5 15.8954 23.6046 15 22.5 15C21.3954 15 20.5 15.8954 20.5 17C20.5 18.1046 21.3954 19 22.5 19Z" fill="#FF2856"/>
<rect x="15" y="26.5" width="15" height="1" fill="#29282F"/>
<rect x="15" y="29" width="10" height="1" fill="#29282F"/>
</svg>
