<svg width="40" height="40" viewBox="0 0 40 40" fill="none" xmlns="http://www.w3.org/2000/svg">
<path d="M29.3334 18.1333C29.3334 17.1041 28.496 16.2666 27.4668 16.2666C26.4376 16.2666 25.6001 17.1041 25.6001 18.1333C25.6001 19.1625 26.4376 19.9999 27.4668 19.9999C28.496 19.9999 29.3334 19.1625 29.3334 18.1333ZM26.6668 18.1333C26.6668 17.6921 27.0256 17.3333 27.4668 17.3333C27.908 17.3333 28.2668 17.6921 28.2668 18.1333C28.2668 18.5745 27.908 18.9333 27.4668 18.9333C27.0256 18.9333 26.6668 18.5745 26.6668 18.1333Z" fill="#29282F"/>
<path d="M33.2079 18.8616C33.2079 18.5281 32.9375 18.2576 32.6039 18.2576C32.2704 18.2576 32 18.528 32 18.8616C32 19.1952 32.2704 19.4656 32.6039 19.4656C32.9375 19.4656 33.2079 19.1952 33.2079 18.8616Z" fill="#29282F"/>
<path d="M13.4038 8.26562C13.7374 8.26562 14.0078 7.99522 14.0078 7.66162C14.0078 7.32802 13.7374 7.05762 13.4038 7.05762C13.0703 7.05762 12.7999 7.32802 12.7999 7.66162C12.7999 7.99522 13.0703 8.26562 13.4038 8.26562Z" fill="#29282F"/>
<path d="M30.4 26.9333C30.6948 26.9333 30.9334 26.6945 30.9334 26.3999V24.7999C30.9334 24.5054 30.6948 24.2666 30.4 24.2666C30.1052 24.2666 29.8667 24.5054 29.8667 24.7999V26.3999C29.8667 26.6945 30.1052 26.9333 30.4 26.9333Z" fill="#29282F"/>
<path d="M30.4 28C30.1052 28 29.8667 28.2388 29.8667 28.5333V30.1333C29.8667 30.4279 30.1052 30.6667 30.4 30.6667C30.6948 30.6667 30.9334 30.4279 30.9334 30.1333V28.5333C30.9334 28.2388 30.6948 28 30.4 28Z" fill="#29282F"/>
<path d="M29.3334 26.9333H27.7334C27.4386 26.9333 27.2001 27.1722 27.2001 27.4667C27.2001 27.7612 27.4386 28 27.7334 28H29.3334C29.6282 28 29.8667 27.7612 29.8667 27.4667C29.8667 27.1722 29.6282 26.9333 29.3334 26.9333Z" fill="#29282F"/>
<path d="M33.0668 26.9333H31.4668C31.172 26.9333 30.9335 27.1722 30.9335 27.4667C30.9335 27.7612 31.172 28 31.4668 28H33.0668C33.3616 28 33.6001 27.7612 33.6001 27.4667C33.6001 27.1722 33.3616 26.9333 33.0668 26.9333Z" fill="#29282F"/>
<path d="M10.1334 16.1916H10.0584V16.2666V19.4666V19.5416H10.1334H19.7334H19.8084V19.4666V16.2666V16.1916H19.7334H10.1334ZM9.14177 20V15.7333C9.14177 15.4801 9.34675 15.275 9.60011 15.275H20.2668C20.5201 15.275 20.7251 15.4801 20.7251 15.7333V20C20.7251 20.2531 20.5201 20.4583 20.2668 20.4583H9.60011C9.34675 20.4583 9.14177 20.2531 9.14177 20Z" fill="#29282F" stroke="white" stroke-width="0.15"/>
<path d="M10.9333 22.2083H18.4C19.094 22.2083 19.6583 22.7728 19.6583 23.4666C19.6583 24.1604 19.094 24.725 18.4 24.725H10.9333C10.2393 24.725 9.67498 24.1604 9.67498 23.4666C9.67498 22.7728 10.2393 22.2083 10.9333 22.2083ZM10.9333 23.8083H18.4C18.5883 23.8083 18.7416 23.6553 18.7416 23.4666C18.7416 23.278 18.5883 23.125 18.4 23.125H10.9333C10.745 23.125 10.5916 23.278 10.5916 23.4666C10.5916 23.6553 10.745 23.8083 10.9333 23.8083Z" fill="#29282F" stroke="white" stroke-width="0.15"/>
<path d="M13.3334 26.8584H10.6668C10.4134 26.8584 10.2084 26.6532 10.2084 26.4C10.2084 26.1469 10.4134 25.9417 10.6668 25.9417H13.3334C13.5868 25.9417 13.7918 26.1469 13.7918 26.4C13.7918 26.6532 13.5868 26.8584 13.3334 26.8584Z" fill="#29282F" stroke="white" stroke-width="0.15"/>
<path d="M10.6668 28.075H19.2001C19.4534 28.075 19.6584 28.2802 19.6584 28.5333C19.6584 28.7865 19.4534 28.9917 19.2001 28.9917H10.6668C10.4134 28.9917 10.2084 28.7865 10.2084 28.5333C10.2084 28.2802 10.4134 28.075 10.6668 28.075Z" fill="#29282F" stroke="white" stroke-width="0.15"/>
<path d="M19.2001 10.45H19.2501V10.4V5.59998C19.2501 5.33305 19.4662 5.11665 19.7334 5.11665H35.2001C35.4672 5.11665 35.6834 5.33305 35.6834 5.59998V12.5333C35.6834 12.8003 35.4672 13.0166 35.2001 13.0166H22.9334H22.8834V13.0666V31.2C22.8834 31.4669 22.6672 31.6833 22.4001 31.6833C21.7845 31.6833 21.2834 32.1841 21.2834 32.8C21.2834 33.4159 21.7845 33.9166 22.4001 33.9166C22.6672 33.9166 22.8834 34.133 22.8834 34.4C22.8834 34.6669 22.6672 34.8833 22.4001 34.8833H6.40006C5.25114 34.8833 4.31672 33.9486 4.31672 32.8V13.5448C4.31672 11.8383 5.70527 10.45 7.41152 10.45H19.2001ZM6.93339 30.7166H6.98339V30.6666V11.5276H6.93339L6.92184 11.4789C5.985 11.7013 5.28339 12.5402 5.28339 13.5448V30.9633V31.0504L5.35858 31.0065C5.66694 30.8267 6.01954 30.7166 6.40006 30.7166H6.93339ZM20.5531 33.9166H20.64L20.5964 33.8415C20.4184 33.535 20.3167 33.1792 20.3167 32.8C20.3167 32.4208 20.4184 32.065 20.5964 31.7584L20.64 31.6833H20.5531H6.40006C5.78445 31.6833 5.28339 32.1841 5.28339 32.8C5.28339 33.4159 5.78445 33.9166 6.40006 33.9166H20.5531ZM21.8667 30.7166H21.9167V30.6666V13.0666V13.0166H21.8667H19.7334C19.4662 13.0166 19.2501 12.8003 19.2501 12.5333V11.4667V11.4166H19.2001H8.00006H7.95006V11.4667V30.6666V30.7166H8.00006H21.8667ZM34.6667 12.05H34.7167V12V6.13332V6.08332H34.6667H20.2667H20.2167V6.13332V12V12.05H20.2667H34.6667Z" fill="#29282F" stroke="white" stroke-width="0.1"/>
<rect x="19" y="5" width="17" height="8" rx="0.4" fill="#0079FF"/>
<path d="M25.3052 8.21036L25.6 8.06303V10.9333C25.6 11.2278 25.8386 11.4666 26.1334 11.4666C26.4282 11.4666 26.6667 11.2278 26.6667 10.9333V7.19996C26.6667 7.01503 26.5708 6.84343 26.4136 6.74636C26.2563 6.64903 26.06 6.64063 25.8948 6.72289L24.8282 7.25623C24.5646 7.38796 24.4579 7.70836 24.5896 7.97183C24.7214 8.2353 25.0416 8.3421 25.3052 8.21036V8.21036Z" fill="white"/>
<path d="M28.2771 11.4666H29.323C29.9167 11.4666 30.4001 10.9833 30.4001 10.3893V7.74396C30.4001 7.14996 29.9167 6.66663 29.323 6.66663H28.2771C27.6834 6.66663 27.2001 7.14996 27.2001 7.74396V10.3893C27.2001 10.9833 27.6834 11.4666 28.2771 11.4666ZM28.2771 7.73329L29.3334 7.74396V10.3893C29.3334 10.3958 29.3282 10.4 29.323 10.4L28.2667 10.3893L28.2771 7.73329Z" fill="white"/>
<path d="M32.0105 11.4666H33.0564C33.6501 11.4666 34.1335 10.9833 34.1335 10.3893V7.74396C34.1335 7.14996 33.6501 6.66663 33.0564 6.66663H32.0105C31.4168 6.66663 30.9335 7.14996 30.9335 7.74396V10.3893C30.9335 10.9833 31.4168 11.4666 32.0105 11.4666ZM32.0105 7.73329L33.0668 7.74396V10.3893C33.0668 10.3958 33.0616 10.4 33.0564 10.4L32.0001 10.3893L32.0105 7.73329Z" fill="white"/>
<path d="M21.3334 9.33329H21.8667V9.86662C21.8667 10.1612 22.1053 10.4 22.4001 10.4C22.6949 10.4 22.9334 10.1612 22.9334 9.86662V9.33329H23.4667C23.7615 9.33329 24.0001 9.09449 24.0001 8.79995C24.0001 8.50542 23.7615 8.26662 23.4667 8.26662H22.9334V7.73328C22.9334 7.43875 22.6949 7.19995 22.4001 7.19995C22.1053 7.19995 21.8667 7.43875 21.8667 7.73328V8.26662H21.3334C21.0386 8.26662 20.8 8.50542 20.8 8.79995C20.8 9.09449 21.0386 9.33329 21.3334 9.33329Z" fill="white"/>
</svg>
