<svg width="40" height="40" viewBox="0 0 40 40" fill="none" xmlns="http://www.w3.org/2000/svg">
<path d="M35.5 23.5C35.5 25.1569 34.1569 26.5 32.5 26.5C30.8431 26.5 29.5 25.1569 29.5 23.5C29.5 21.8431 30.8431 20.5 32.5 20.5C34.1569 20.5 35.5 21.8431 35.5 23.5Z" stroke="#29282F"/>
<path d="M5.5 23.5C5.5 25.1569 6.84315 26.5 8.5 26.5C10.1569 26.5 11.5 25.1569 11.5 23.5C11.5 21.8431 10.1569 20.5 8.5 20.5C6.84315 20.5 5.5 21.8431 5.5 23.5Z" stroke="#29282F"/>
<path d="M28.6624 35.9354H12.5152C12.7734 31.7009 16.2894 28.3466 20.5888 28.3466C24.8882 28.3466 28.4042 31.7009 28.6624 35.9354Z" stroke="#29282F"/>
<path d="M32.4215 28.5C35.3185 28.5 37.1777 30.601 37.4619 32.5H37.4567H37.4422H37.4278H37.4134H37.399H37.3846H37.3703H37.356H37.3418H37.3275H37.3133H37.2992H37.285H37.2709H37.2568H37.2427H37.2287H37.2147H37.2007H37.1868H37.1729H37.159H37.1451H37.1312H37.1174H37.1036H37.0899H37.0761H37.0624H37.0487H37.0351H37.0215H37.0078H36.9943H36.9807H36.9672H36.9536H36.9402H36.9267H36.9132H36.8998H36.8864H36.8731H36.8597H36.8464H36.8331H36.8198H36.8065H36.7933H36.7801H36.7669H36.7537H36.7405H36.7274H36.7143H36.7012H36.6881H36.6751H36.662H36.649H36.636H36.623H36.6101H36.5971H36.5842H36.5713H36.5584H36.5456H36.5327H36.5199H36.5071H36.4943H36.4815H36.4687H36.456H36.4432H36.4305H36.4178H36.4051H36.3925H36.3798H36.3672H36.3545H36.3419H36.3293H36.3168H36.3042H36.2916H36.2791H36.2666H36.2541H36.2416H36.2291H36.2166H36.2041H36.1917H36.1793H36.1668H36.1544H36.142H36.1296H36.1172H36.1049H36.0925H36.0802H36.0678H36.0555H36.0432H36.0309H36.0186H36.0063H35.994H35.9817H35.9695H35.9572H35.945H35.9327H35.9205H35.9083H35.8961H35.8839H35.8717H35.8595H35.8473H35.8351H35.8229H35.8107H35.7986H35.7864H35.7743H35.7621H35.75H35.7378H35.7257H35.7136H35.7015H35.6893H35.6772H35.6651H35.653H35.6409H35.6288H35.6167H35.6046H35.5925H35.5804H35.5683H35.5562H35.5441H35.5321H35.52H35.5079H35.4958H35.4837H35.4716H35.4596H35.4475H35.4354H35.4233H35.4112H35.3992H35.3871H35.375H35.3629H35.3508H35.3387H35.3266H35.3145H35.3024H35.2903H35.2782H35.2661H35.254H35.2419H35.2298H35.2177H35.2056H35.1934H35.1813H35.1692H35.157H35.1449H35.1327H35.1206H35.1084H35.0962H35.0841H35.0719H35.0597H35.0475H35.0353H35.0231H35.0109H34.9987H34.9864H34.9742H34.962H34.9497H34.9374H34.9252H34.9129H34.9006H34.8883H34.876H34.8637H34.8514H34.839H34.8267H34.8143H34.802H34.7896H34.7772H34.7648H34.7524H34.74H34.7275H34.7151H34.7026H34.6902H34.6777H34.6652H34.6527H34.6402H34.6276H34.6151H34.6025H34.5899H34.5773H34.5647H34.5521H34.5395H34.5268H34.5142H34.5015H34.4888H34.4761H34.4634H34.4506H34.4379H34.4251H34.4123H34.3995H34.3866H34.3738H34.3609H34.3481H34.3352H34.3222H34.3093H34.2964H34.2834H34.2704H34.2574H34.2444H34.2313H34.2182H34.2051H34.192H34.1789H34.1658H34.1526H34.1394H34.1262H34.1129H34.0997H34.0864H34.0731H34.0598H34.0464H34.0331H34.0197H34.0063H33.9928H33.9794H33.9659H33.9524H33.9389H33.9253H33.9117H33.8981H33.8845H33.8708H33.8572H33.8435H33.8297H33.816H33.8022H33.7884H33.7746H33.7607H33.7468H33.7329H33.719H33.705H33.691H33.677H33.6629H33.6488H33.6347H33.6206H33.6064H33.5922H33.578H33.5637H33.5495H33.5351H33.5208H33.5064H33.492H33.4776H33.4631H33.4486H33.4341H33.4195H33.405H33.3903H33.3757H33.361H33.3463H33.3315H33.3167H33.3019H33.2871H33.2722H33.2573H33.2423H33.2273H33.2123H33.1973H33.1822H33.1671H33.1519H33.1367H33.1215H33.1062H33.0909H33.0756H33.0602H33.0448H33.0294H33.0139H32.9984H32.9828H32.9672H32.9516H32.9359H32.9202H32.9045H32.8887H32.8728H32.857H32.8411H32.8251H32.8092H32.7932H32.7771H32.761H32.7449H32.7287H32.7125H32.6962H32.6799H32.6636H32.6472H32.6308H32.6143H32.5978H32.5812H32.5646H32.548H32.5313H32.5146H32.4978H32.481H32.4642H32.4473H32.4303H32.4134H32.3963H32.3793H32.3621H32.345H32.3278H32.3105H32.2932H32.2759H32.2585H32.241H32.2236H32.206H32.1885H32.1708H32.1532H32.1354H32.1177H32.0999H32.082H32.0641H32.0461H32.0281H32.0101H31.992H31.9738H31.9556H31.9374H31.9191H31.9007H31.8823H31.8639H31.8453H31.8268H31.8082H31.7895H31.7708H31.7521H31.7333H31.7144H31.6955H31.6765H31.6575H31.6384H31.6193H31.6001H31.5809H31.5616H31.5422H31.5229H31.5034H31.4839H31.4643H31.4447H31.4251H31.4053H31.3856H31.3657H31.3458H31.3259H31.3059H31.2858H31.2657H31.2456H31.2253H31.205H31.1847H31.1643H31.1438H31.1233H31.1027H31.0821H31.0614H31.0407H31.0199H30.999H30.9781H30.9571H30.936H30.9149H30.8938H30.8725H30.8512H30.8299H30.8274C30.3656 31.3283 29.7084 30.396 28.794 29.4697C29.8154 28.8616 31.065 28.5 32.4215 28.5Z" stroke="#29282F"/>
<path d="M8.57852 28.5C5.68147 28.5 3.82231 30.601 3.53808 32.5H3.5433H3.55777H3.57222H3.58663H3.60101H3.61536H3.62968H3.64398H3.65824H3.67247H3.68667H3.70085H3.71499H3.72911H3.7432H3.75726H3.77129H3.7853H3.79927H3.81322H3.82715H3.84104H3.85491H3.86875H3.88257H3.89636H3.91012H3.92386H3.93757H3.95125H3.96491H3.97855H3.99216H4.00575H4.01931H4.03285H4.04636H4.05985H4.07332H4.08676H4.10018H4.11357H4.12695H4.1403H4.15363H4.16693H4.18022H4.19348H4.20672H4.21994H4.23314H4.24631H4.25947H4.27261H4.28572H4.29882H4.31189H4.32494H4.33798H4.351H4.36399H4.37697H4.38993H4.40287H4.41579H4.42869H4.44158H4.45445H4.4673H4.48013H4.49294H4.50574H4.51852H4.53129H4.54404H4.55677H4.56948H4.58218H4.59487H4.60754H4.62019H4.63283H4.64545H4.65806H4.67066H4.68324H4.69581H4.70836H4.7209H4.73342H4.74594H4.75843H4.77092H4.78339H4.79586H4.80831H4.82074H4.83317H4.84558H4.85798H4.87038H4.88276H4.89512H4.90748H4.91983H4.93217H4.9445H4.95681H4.96912H4.98142H4.99371H5.00599H5.01826H5.03053H5.04278H5.05503H5.06727H5.0795H5.09172H5.10394H5.11615H5.12835H5.14054H5.15273H5.16491H5.17709H5.18926H5.20142H5.21358H5.22573H5.23788H5.25002H5.26215H5.27429H5.28642H5.29854H5.31066H5.32278H5.33489H5.347H5.3591H5.3712H5.38331H5.3954H5.4075H5.41959H5.43168H5.44377H5.45586H5.46794H5.48003H5.49211H5.50419H5.51627H5.52836H5.54044H5.55252H5.5646H5.57668H5.58876H5.60085H5.61293H5.62502H5.6371H5.64919H5.66128H5.67337H5.68547H5.69756H5.70966H5.72176H5.73387H5.74598H5.75809H5.7702H5.78232H5.79445H5.80657H5.8187H5.83084H5.84298H5.85513H5.86728H5.87943H5.89159H5.90376H5.91593H5.92811H5.9403H5.95249H5.96469H5.9769H5.98911H6.00133H6.01356H6.0258H6.03804H6.05029H6.06255H6.07482H6.0871H6.09939H6.11169H6.12399H6.13631H6.14863H6.16097H6.17331H6.18567H6.19803H6.21041H6.2228H6.2352H6.24761H6.26003H6.27246H6.28491H6.29737H6.30984H6.32232H6.33481H6.34732H6.35984H6.37238H6.38493H6.39749H6.41007H6.42266H6.43526H6.44788H6.46052H6.47317H6.48583H6.49851H6.51121H6.52392H6.53664H6.54939H6.56215H6.57492H6.58772H6.60053H6.61336H6.6262H6.63906H6.65194H6.66484H6.67776H6.69069H6.70364H6.71662H6.72961H6.74262H6.75565H6.7687H6.78176H6.79485H6.80796H6.82109H6.83424H6.84741H6.8606H6.87382H6.88705H6.90031H6.91359H6.92689H6.94021H6.95355H6.96692H6.98031H6.99372H7.00716H7.02062H7.0341H7.04761H7.06114H7.07469H7.08827H7.10187H7.1155H7.12915H7.14283H7.15654H7.17027H7.18402H7.1978H7.21161H7.22545H7.23931H7.25319H7.26711H7.28105H7.29502H7.30901H7.32304H7.33709H7.35117H7.36528H7.37942H7.39358H7.40778H7.422H7.43626H7.45054H7.46485H7.4792H7.49357H7.50797H7.52241H7.53687H7.55137H7.5659H7.58045H7.59504H7.60967H7.62432H7.63901H7.65372H7.66848H7.68326H7.69808H7.71293H7.72781H7.74273H7.75768H7.77266H7.78768H7.80273H7.81782H7.83295H7.8481H7.8633H7.87852H7.89379H7.90909H7.92442H7.9398H7.9552H7.97065H7.98613H8.00165H8.01721H8.0328H8.04843H8.0641H8.0798H8.09555H8.11133H8.12715H8.14301H8.15891H8.17485H8.19083H8.20685H8.22291H8.239H8.25514H8.27132H8.28754H8.3038H8.3201H8.33644H8.35282H8.36925H8.38572H8.40222H8.41877H8.43537H8.452H8.46868H8.4854H8.50217H8.51898H8.53583H8.55272H8.56966H8.58665H8.60367H8.62075H8.63786H8.65503H8.67223H8.68949H8.70678H8.72413H8.74152H8.75896H8.77644H8.79397H8.81154H8.82917H8.84684H8.86456H8.88232H8.90014H8.918H8.93591H8.95386H8.97187H8.98993H9.00803H9.02618H9.04439H9.06264H9.08094H9.09929H9.1177H9.13615H9.15465H9.17321H9.19181H9.21047H9.22918H9.24794H9.26675H9.28561H9.30453H9.32349H9.34251H9.36159H9.38071H9.39989H9.41913H9.43841H9.45775H9.47715H9.49659H9.5161H9.53566H9.55527H9.57493H9.59466H9.61443H9.63427H9.65416H9.6741H9.6941H9.71416H9.73428H9.75445H9.77468H9.79496H9.8153H9.8357H9.85616H9.87668H9.89725H9.91789H9.93858H9.95933H9.98014H10.001H10.0219H10.0429H10.064H10.0851H10.1062H10.1275H10.1488H10.1701H10.1726C10.6344 31.3283 11.2916 30.396 12.206 29.4697C11.1846 28.8616 9.93505 28.5 8.57852 28.5Z" stroke="#29282F"/>
<path d="M24.8275 21.7386C24.8275 24.0796 22.9298 25.9773 20.5889 25.9773C18.2479 25.9773 16.3502 24.0796 16.3502 21.7386C16.3502 19.3977 18.2479 17.5 20.5889 17.5C22.9298 17.5 24.8275 19.3977 24.8275 21.7386Z" stroke="#29282F"/>
<path d="M12.9776 6.89834L13.02 6.89115L13.0192 6.84808C13.0189 6.83216 13.0187 6.81612 13.0187 6.8C13.0187 4.17977 15.1003 2.05 17.6562 2.05C18.6043 2.05 19.5153 2.3422 20.2911 2.89523C20.8373 3.28461 21.2908 3.7835 21.6279 4.36144L21.6541 4.40629L21.6979 4.37845C22.2399 4.03418 22.865 3.85 23.5156 3.85C25.243 3.85 26.6807 5.15172 26.9397 6.84978L26.9452 6.88597L26.9814 6.89164C27.7055 7.00516 28.3768 7.34813 28.9115 7.88582C29.5813 8.55923 29.95 9.45196 29.95 10.4C29.95 11.348 29.5813 12.2408 28.9115 12.9142C28.247 13.5824 27.3712 13.95 26.4453 13.95H22.5924V12.85H26.4453C27.7872 12.85 28.8781 11.7506 28.8781 10.4C28.8781 9.04937 27.7872 7.95 26.4453 7.95H25.9094V7.4C25.9094 6.05015 24.8367 4.95 23.5156 4.95C22.8862 4.95 22.2909 5.2003 21.8397 5.65407L21.2634 6.23372L20.9663 5.46368C20.4244 4.05903 19.1254 3.15 17.6562 3.15C15.689 3.15 14.0906 4.78847 14.0906 6.8C14.0906 6.94512 14.1127 7.10004 14.1354 7.25934L14.1357 7.26151L14.1357 7.26154L14.1358 7.2621L14.1358 7.26214L14.2327 7.95H13.5547C12.2128 7.95 11.1219 9.04937 11.1219 10.4C11.1219 11.7506 12.2128 12.85 13.5547 12.85H17.4662V13.95H13.5547C12.6288 13.95 11.753 13.5824 11.0885 12.9142L11.053 12.9494L11.0885 12.9142C10.4187 12.2408 10.05 11.348 10.05 10.4C10.05 9.452 10.4187 8.55923 11.0885 7.88582L11.053 7.85056L11.0885 7.88582C11.6131 7.35835 12.2692 7.01828 12.9776 6.89834Z" fill="#FF2856" stroke="white" stroke-width="0.1"/>
<path d="M20.6819 14H19.3182C19.0673 14 18.8636 13.7755 18.8636 13.5V11.0001H17.7272C17.6354 11.0001 17.5522 10.9391 17.5172 10.8456C17.4822 10.7521 17.5017 10.6446 17.5663 10.5731L19.8392 8.07312C19.9278 7.97563 20.0719 7.97563 20.1605 8.07312L22.4334 10.5731C22.4984 10.6446 22.518 10.7521 22.4825 10.8456C22.4471 10.9391 22.3648 11.0001 22.273 11.0001H21.1365V13.5C21.1365 13.7755 20.9329 14 20.6819 14Z" fill="#FF2856"/>
</svg>
