<svg width="40" height="40" viewBox="0 0 40 40" fill="none" xmlns="http://www.w3.org/2000/svg">
<path d="M30 28H34C35.1046 28 36 27.1046 36 26V6C36 4.89543 35.1046 4 34 4H12C10.8954 4 10 4.89543 10 6V12" stroke="#29282F"/>
<rect x="4.5" y="12.5" width="25" height="23" rx="1.5" stroke="#29282F"/>
<rect x="4.25" y="16.25" width="25.5" height="0.5" fill="#D0D0D0" stroke="#29282F" stroke-width="0.5"/>
<rect x="8" y="22" width="18" height="2" rx="0.5" fill="#FF2856"/>
<rect x="10" y="26" width="14" height="2" rx="0.5" fill="#FF2856"/>
<rect x="10.25" y="8.25" width="25.5" height="0.5" fill="#D0D0D0" stroke="#29282F" stroke-width="0.5"/>
<circle cx="26.5" cy="14.5" r="0.5" fill="#29282F"/>
<circle cx="32.5" cy="6.5" r="0.5" fill="#29282F"/>
<circle cx="24.5" cy="14.5" r="0.5" fill="#29282F"/>
<circle cx="30.5" cy="6.5" r="0.5" fill="#29282F"/>
<circle cx="22.5" cy="14.5" r="0.5" fill="#29282F"/>
<circle cx="28.5" cy="6.5" r="0.5" fill="#29282F"/>
</svg>
