<svg width="40" height="40" viewBox="0 0 40 40" fill="none" xmlns="http://www.w3.org/2000/svg">
<path d="M33.3333 24.6667C30.3925 24.6667 28 27.1443 28 30.1896C28 31.6648 28.5547 33.0517 29.562 34.0949L33.3333 38.0001L37.1046 34.0949C38.1119 33.0517 38.6667 31.6647 38.6667 30.1896C38.6667 27.1443 36.2742 24.6667 33.3333 24.6667Z" fill="#1DC296"/>
<path d="M13.8527 14.728C15.2378 13.3197 16.0007 11.4474 16.0007 9.45585C16.0007 5.34471 12.7109 2 8.66728 2C4.62372 2 1.33398 5.34471 1.33398 9.45585C1.33398 11.4474 2.09675 13.3197 3.4819 14.728L8.66728 20L13.8527 14.728ZM4.334 9.45598C4.334 7.02669 6.27792 5.05028 8.66728 5.05028C11.0567 5.05028 13.0006 7.02669 13.0006 9.45598C13.0006 11.8853 11.0567 13.8617 8.66728 13.8617C6.27792 13.8617 4.334 11.8853 4.334 9.45598Z" fill="#1DC296"/>
<path d="M15.8824 16.8036C19.2549 16.4175 26 16.6183 26 20.5105C26 25.3758 10 20.9739 10 26.7658C10 31.3994 20.6667 31.6311 26 31.1677" stroke="#29282F" stroke-linecap="round"/>
</svg>
