<svg width="40" height="40" viewBox="0 0 40 40" fill="none" xmlns="http://www.w3.org/2000/svg">
<path d="M20 33.5C12.5442 33.5 6.5 27.4558 6.5 20C6.5 12.5442 12.5442 6.5 20 6.5C26.0349 6.5 31.1462 10.4603 32.8742 15.925C33.2806 17.2102 33.5 18.579 33.5 20C33.5 24.5872 31.2126 28.6401 27.714 31.0805C25.5275 32.6056 22.8689 33.5 20 33.5Z" stroke="#29282F"/>
<path d="M17.8958 26V23.824H16.5038V22.784H17.8958V21.36H16.5038V20.144H17.8958V14.576H20.9038C22.3011 14.576 23.3358 14.8587 24.0078 15.424C24.6904 15.9893 25.0318 16.8107 25.0318 17.888C25.0318 18.976 24.6638 19.8293 23.9278 20.448C23.1918 21.056 22.1091 21.36 20.6798 21.36H19.3358V22.784H21.9758V23.824H19.3358V26H17.8958ZM20.4718 20.144C21.4424 20.144 22.1944 19.984 22.7278 19.664C23.2718 19.344 23.5438 18.768 23.5438 17.936C23.5438 17.2107 23.3198 16.672 22.8718 16.32C22.4238 15.968 21.7251 15.792 20.7758 15.792H19.3358V20.144H20.4718Z" fill="#29282F"/>
<path d="M31.6367 36H28.3637C27.7615 36 27.2727 35.4013 27.2727 34.6667V28.0002H24.5453C24.3249 28.0002 24.1252 27.8375 24.0412 27.5882C23.9572 27.3388 24.0041 27.0522 24.159 26.8615L29.614 20.195C29.8267 19.935 30.1726 19.935 30.3853 20.195L35.8402 26.8615C35.9962 27.0522 36.0432 27.3388 35.9581 27.5882C35.873 27.8375 35.6755 28.0002 35.4551 28.0002H32.7276V34.6667C32.7276 35.4013 32.2389 36 31.6367 36Z" fill="#0079FF"/>
</svg>
