<svg width="40" height="40" viewBox="0 0 40 40" fill="none" xmlns="http://www.w3.org/2000/svg">
<g clip-path="url(#clip0)">
<path d="M21.2879 39.0042H16.148C15.5138 39.0042 14.9978 38.48 14.9978 37.8356V34.0519H19.9254C20.1962 34.0519 20.4155 33.829 20.4155 33.554C20.4155 33.279 20.1962 33.0561 19.9254 33.0561H14.4987C14.2461 33.0561 14.0372 32.8554 14.0234 32.6011L12.9781 11.9539C12.974 11.8739 12.951 11.796 12.911 11.7269L11.3471 9.02636H26.1331L25.1552 10.995C25.0179 11.2321 25.0958 11.5372 25.329 11.6767C25.5625 11.8161 25.8627 11.7371 26 11.5L27.4125 8.78092C27.4568 8.70437 27.4802 8.6172 27.4802 8.52844V6.85742C27.4802 6.38459 27.1016 6 26.6362 6L10.844 6C10.3786 6 10 6.38459 10 6.85742V8.52837C10 8.61714 10.0233 8.70431 10.0677 8.78085L12.0054 12.1267L13.0446 32.6542C13.078 33.2669 13.4764 33.7743 14.0176 33.9673V37.8356C14.0176 39.0291 14.9733 40 16.148 40H21.2879C21.5587 40 21.778 39.7771 21.778 39.5021C21.778 39.2271 21.5586 39.0042 21.2879 39.0042ZM26.5 6.99584V8.03045H10.9802V6.99584H26.5Z" fill="#29282F"/>
<path d="M29.6951 13.3478C29.4828 13.1268 29.1828 13 28.8722 13H21.1278C20.8171 13 20.5171 13.1268 20.3048 13.3479C20.0924 13.569 19.9821 13.8692 20.0024 14.1717L20.9619 28.4855C20.9805 28.7611 21.2239 28.9704 21.5073 28.952C21.79 28.934 22.0042 28.6959 21.9858 28.4202L21.1909 16.5622H28.8092L27.7022 33.0738C27.6647 33.6332 27.185 34.0715 26.6101 34.0715H23.3898C22.8149 34.0715 22.3352 33.6332 22.2977 33.0738L21.9606 28.0443C21.942 27.7685 21.6959 27.5593 21.4152 27.5777C21.1324 27.5957 20.9183 27.8338 20.9367 28.1095L21.2738 33.139C21.3271 33.934 21.8417 34.6023 22.5516 34.9021V38.4728C22.5516 39.3149 23.2541 40 24.1176 40H25.8823C26.7458 40 27.4483 39.3149 27.4483 38.4728V34.9021C28.1582 34.6022 28.6727 33.934 28.7261 33.139L29.9976 14.1715C30.0178 13.8691 29.9076 13.5689 29.6951 13.3478ZM26.4223 38.4728C26.4223 38.7632 26.1801 38.9995 25.8823 38.9995H24.1176C23.8198 38.9995 23.5775 38.7632 23.5775 38.4728V35.072H26.4223V38.4728ZM21.1238 15.5616L21.0262 14.1063C21.0238 14.0707 21.0397 14.0462 21.0535 14.0319C21.0673 14.0175 21.0913 14.0004 21.1278 14.0004H28.8722C28.9086 14.0004 28.9327 14.0175 28.9465 14.0319C28.9603 14.0462 28.9763 14.0707 28.9738 14.1063L28.8762 15.5616H21.1238Z" fill="#29282F"/>
<path d="M11.3196 29.0172V25.1442C11.3196 24.6115 10.8825 24.1781 10.3452 24.1781H10.3019V21.3101C10.3019 21.0403 10.0813 20.8216 9.80913 20.8216C9.53695 20.8216 9.31641 21.0403 9.31641 21.3101V24.1781H6.68359V20.9527C7.79946 20.4546 8.69734 19.5845 9.22916 18.5098C9.28678 18.9204 9.31634 19.3363 9.31634 19.7565V21.2738C9.31634 21.5436 9.53688 21.7623 9.80907 21.7623C10.0813 21.7623 10.3018 21.5436 10.3018 21.2738V19.7565C10.3018 18.334 10.0025 16.9552 9.41245 15.6582C9.25229 15.3064 8.92643 15.0643 8.54059 15.011C8.15475 14.9574 7.77456 15.1018 7.52333 15.3968L6.80678 16.2379C6.09186 17.077 5.69814 18.1439 5.69814 19.2422V24.1782H5.65491C5.11751 24.1782 4.68036 24.6116 4.68036 25.1443V29.0172C4.28421 29.1602 4.00007 29.5362 4.00007 29.9778V31.7434L4 31.7446L4.00007 31.7458V36.2478C4.00007 36.5176 4.22061 36.7363 4.49279 36.7363C4.76498 36.7363 4.98552 36.5176 4.98552 36.2478V32.233H11.0146V37.6949C11.0146 38.4272 10.4135 39.0231 9.67472 39.0231H6.32528C5.58652 39.0231 4.98546 38.4272 4.98546 37.6949V35.7405C4.98546 35.4708 4.76491 35.2521 4.49273 35.2521C4.22055 35.2521 4 35.4708 4 35.7405V37.6949C4 38.9659 5.04314 40 6.32528 40H9.67465C10.9569 40 12 38.9659 12 37.6949V29.9778C12 29.5362 11.7158 29.1601 11.3196 29.0172ZM7.5596 16.8682L8.27616 16.0271C8.32017 15.9755 8.37543 15.9744 8.40433 15.9785C8.4333 15.9825 8.48613 15.9984 8.51418 16.06C8.61272 16.2765 8.70214 16.4957 8.78262 16.717L8.65405 17.2356C8.37956 18.3429 7.66077 19.2839 6.68353 19.8532V19.242C6.68359 18.3743 6.99474 17.5312 7.5596 16.8682ZM5.66582 25.155H10.3342V28.9547H5.66582V25.155ZM4.98552 31.2561V29.9778C4.98552 29.9524 5.00628 29.9317 5.0319 29.9317H5.17309H10.8269H10.9681C10.9937 29.9317 11.0145 29.9524 11.0145 29.9778V31.2561H4.98552Z" fill="#29282F"/>
<path d="M32 0C27.5887 0 24 3.5888 24 7.99996C24 12.4112 27.5888 16 32 16C36.4111 16 40 12.4112 40 7.99996C39.9999 3.5888 36.4111 0 32 0ZM34.9835 11.8754L32 10.5421L29.0164 11.8756L29.3627 8.62593L27.1725 6.20041L30.3701 5.5256L32 2.69288L33.6301 5.5256L36.8277 6.20041L34.6375 8.62593L34.9835 11.8754Z" fill="#0079FF"/>
</g>
<defs>
<clipPath id="clip0">
<rect width="40" height="40" fill="white"/>
</clipPath>
</defs>
</svg>
