<svg width="36" height="36" viewBox="0 0 36 36" fill="none" xmlns="http://www.w3.org/2000/svg">
<path d="M25.8103 13.1896C25.2253 12.6038 24.2743 12.6038 23.6893 13.1896L17.2498 19.6283L14.5603 16.9396C13.9753 16.3538 13.0243 16.3538 12.4393 16.9396C11.8536 17.5253 11.8536 18.4748 12.4393 19.0606L16.1893 22.8106C16.4818 23.1038 16.8658 23.2501 17.2498 23.2501C17.6338 23.2501 18.0178 23.1038 18.3103 22.8106L25.8103 15.3106C26.3961 14.7248 26.3961 13.7753 25.8103 13.1896Z" fill="#FFCD4C"/>
<path d="M34.5 16.5C33.672 16.5 33 17.172 33 18C33 26.271 26.271 33 18 33C9.729 33 3 26.271 3 18C3 9.729 9.729 3 18 3C22.0268 3 25.8068 4.5735 28.6448 7.431C29.2275 8.01975 30.1777 8.02275 30.7658 7.4385C31.3538 6.855 31.3567 5.9055 30.7732 5.3175C27.3682 1.8885 22.8315 0 18 0C8.0745 0 0 8.0745 0 18C0 27.9255 8.0745 36 18 36C27.9255 36 36 27.9255 36 18C36 17.172 35.328 16.5 34.5 16.5Z" fill="#FFCD4C"/>
</svg>
