<svg width="31" height="24" viewBox="0 0 31 24" fill="none" xmlns="http://www.w3.org/2000/svg">
<path d="M0.646736 2.57555C4.90136 6.06252 12.3669 12.1972 14.5611 14.11C14.8557 14.3681 15.1716 14.4994 15.4996 14.4994C15.8269 14.4994 16.1423 14.3694 16.4362 14.1124C18.6323 12.1978 26.0979 6.06252 30.3525 2.57555C30.6174 2.35887 30.6578 1.97801 30.4434 1.71311C29.9476 1.10098 29.2084 0.75 28.4163 0.75H2.58296C1.79083 0.75 1.05161 1.10098 0.555916 1.71316C0.341459 1.97801 0.381844 2.35887 0.646736 2.57555Z" fill="white"/>
<path d="M30.6254 4.46525C30.3965 4.36213 30.1272 4.3981 29.9367 4.5556C25.2184 8.42642 19.1965 13.388 17.3019 15.0402C16.2385 15.9691 14.7627 15.9691 13.6968 15.039C11.6773 13.2781 4.91495 7.71474 1.06332 4.55554C0.871572 4.39804 0.601654 4.3633 0.374604 4.46519C0.146342 4.56779 0 4.78875 0 5.03226V20.75C0 22.1289 1.15856 23.2501 2.58335 23.2501H28.4167C29.8414 23.2501 31 22.1289 31 20.75V5.03226C31 4.78875 30.8537 4.5672 30.6254 4.46525Z" fill="white"/>
</svg>
