<svg width="34" height="34" viewBox="0 0 34 34" fill="none" xmlns="http://www.w3.org/2000/svg">
<path fill-rule="evenodd" clip-rule="evenodd" d="M16.9958 0.33252H17.0042C26.3776 0.33252 34 7.75033 34 16.8671C34 25.9838 26.3776 33.4016 17.0042 33.4016C13.5469 33.4016 10.3403 32.4013 7.65213 30.6693L1.11775 32.701L3.23638 26.5584C1.1985 23.8364 0 20.484 0 16.8671C0 7.74826 7.62238 0.33252 16.9958 0.33252ZM23.5601 26.0148C24.8585 25.742 26.4863 24.8078 26.8964 23.6814C27.3065 22.5529 27.3065 21.5918 27.1875 21.3872C27.0914 21.2248 26.8642 21.1184 26.525 20.9596C26.4367 20.9182 26.3408 20.8733 26.2376 20.8229C25.7383 20.5811 23.3094 19.4134 22.8504 19.2584C22.3999 19.093 21.9706 19.1509 21.6306 19.618C21.566 19.706 21.5015 19.7943 21.4373 19.882C21.0271 20.4431 20.6315 20.9844 20.3025 21.3293C20.0029 21.6393 19.5141 21.6786 19.104 21.5133C19.0593 21.4951 19.0081 21.475 18.9507 21.4524C18.3013 21.1974 16.861 20.6316 15.1175 19.122C13.647 17.8488 12.6483 16.2635 12.3593 15.7882C12.0755 15.3113 12.3203 15.0317 12.5465 14.7732C12.5507 14.7684 12.5549 14.7637 12.559 14.7589C12.7049 14.5834 12.8464 14.4372 12.9886 14.2904C13.0909 14.1847 13.1936 14.0787 13.2985 13.9611C13.3141 13.9436 13.3293 13.9267 13.344 13.9102C13.5668 13.6611 13.6994 13.5127 13.8489 13.2026C14.0189 12.8822 13.8978 12.5515 13.7766 12.3077C13.6933 12.1369 13.1785 10.922 12.7366 9.87905C12.5474 9.43278 12.3717 9.018 12.2488 8.72999C11.9194 7.9632 11.6686 7.93426 11.1693 7.9136C11.154 7.91285 11.1385 7.91209 11.1229 7.91132C10.9651 7.90355 10.7912 7.89499 10.5998 7.89499C9.94952 7.89499 9.27165 8.08101 8.86152 8.48817C8.84719 8.50241 8.83225 8.51719 8.81675 8.53252C8.29206 9.05152 7.12327 10.2077 7.12327 12.5123C7.12327 14.8213 8.80777 17.056 9.11945 17.4695C9.12804 17.4809 9.13558 17.4909 9.14202 17.4995C9.16078 17.5235 9.19613 17.5732 9.24757 17.6457C9.88396 18.5421 12.9837 22.9081 17.6059 24.7706C21.5116 26.3455 22.6719 26.1987 23.5601 26.0148Z" fill="white"/>
</svg>
