<svg width="66" height="65" viewBox="0 0 66 65" fill="none" xmlns="http://www.w3.org/2000/svg">
<g clip-path="url(#clip0)">
<path fill-rule="evenodd" clip-rule="evenodd" d="M48 0L11.677 0.0627169C11.6177 0.0621432 11.5586 0.062709 11.4997 0.0643974L11.5 0.0625364H0L8.28907 7.93715C8.31908 7.96824 8.34959 7.99897 8.3806 8.02934L58.0332 57.6819C58.264 57.9165 58.5173 58.1237 58.7882 58.3014L66.0001 65.0626L66.0005 51.5624L65.9997 51.5631V20.9999C66.5 8 58.5 0.5 48 0Z" fill="black"/>
</g>
<path d="M30.0522 12.4937L28.8675 11.3713L26.0413 14.3542L24.3383 12.7407L31.3536 5.33628L33.0566 6.94981L30.2204 9.94329L31.4474 11.1058L36.2299 9.95639L38.0387 11.6701L32.229 12.9504L31.0974 19.1447L29.1511 17.3006L30.0522 12.4937ZM38.9361 23.962L37.6333 25.3371L31.9002 19.9052L38.9155 12.5009L44.5111 17.8025L43.2083 19.1776L39.3157 15.4895L37.7923 17.0973L41.2301 20.3544L39.9673 21.6872L36.5296 18.4301L34.906 20.1437L38.9361 23.962ZM46.0327 19.2441L47.7357 20.8577L43.1657 25.6811L51.2687 24.205L52.8765 25.7283L45.8611 33.1327L44.1687 31.5292L48.7287 26.7163L40.6357 28.1819L39.0174 26.6485L46.0327 19.2441ZM49.9003 22.0052C48.5464 20.7224 48.3734 19.5349 49.3816 18.4426L50.5557 19.555C50.0821 20.0832 50.1309 20.6178 50.7021 21.159C50.9841 21.4263 51.2593 21.5666 51.5277 21.5799C51.8027 21.5863 52.064 21.4658 52.3116 21.2187L53.4857 22.3311C52.9776 22.8533 52.424 23.0916 51.8249 23.0459C51.2259 23.0002 50.5843 22.6533 49.9003 22.0052ZM51.0857 38.3236C50.3311 37.6087 49.8008 36.7984 49.4946 35.8928C49.2022 34.9868 49.1536 34.0776 49.3489 33.1653C49.5579 32.2526 50.0098 31.4296 50.7046 30.6962C51.3995 29.9628 52.1936 29.4707 53.087 29.2198C53.9942 28.9686 54.9046 28.9681 55.8184 29.2183C56.746 29.4681 57.5905 29.9538 58.3521 30.6754C58.9938 31.2834 59.4652 31.9441 59.7661 32.6575C60.0742 33.3775 60.2041 34.1162 60.1558 34.8733L58.0936 34.8465C58.1408 33.7939 57.7941 32.9168 57.0537 32.2153C56.5953 31.781 56.0895 31.4957 55.5361 31.3595C54.9893 31.2162 54.4434 31.2275 53.8981 31.3934C53.3599 31.5659 52.8737 31.8814 52.4394 32.3398C52.0051 32.7981 51.7163 33.3007 51.573 33.8474C51.4368 34.4008 51.4516 34.9501 51.6175 35.4954C51.79 36.0336 52.1055 36.5198 52.5639 36.9541C53.3043 37.6556 54.2021 37.9509 55.2574 37.84L55.3953 39.8977C54.6352 39.9938 53.8873 39.9075 53.1517 39.6387C52.416 39.37 51.7274 38.9316 51.0857 38.3236Z" fill="white"/>
<defs>
<clipPath id="clip0">
<rect width="66" height="65" fill="white"/>
</clipPath>
</defs>
</svg>
