<svg width="177" height="30" viewBox="0 0 177 30" fill="none" xmlns="http://www.w3.org/2000/svg">
<g clip-path="url(#clip0)">
<path d="M0.0441341 15.811C0.0441341 17.5217 0.114747 19.2237 0.114747 19.4265C0.114747 23.9415 9.95642 30.0085 20.0188 30.0085C27.2477 30.0085 42.1647 27.0103 42.1647 17.7334C42.1619 17.4531 42.1413 17.1733 42.1029 16.8956C42.1029 16.7722 42.05 16.6399 42.0147 16.4988C41.388 14.5235 39.4373 10.8551 32.0141 8.15665C31.0645 7.81425 30.0983 7.51993 29.119 7.27482L28.8983 7.22191C28.4658 7.11609 28.0157 7.01909 27.5743 6.9309H27.4419C25.6968 6.59311 23.9235 6.42185 22.146 6.41944C18.1828 6.41944 14.6257 7.30128 12.6309 8.87976C12.1053 9.23767 11.6711 9.71368 11.3629 10.2696C11.0548 10.8255 10.8815 11.4458 10.8567 12.0808C10.8622 12.5947 10.9733 13.102 11.1833 13.5711L11.2892 13.818C12.2955 12.9979 14.9788 11.296 19.8864 11.296C22.7881 11.2879 25.6646 11.8357 28.3599 12.9097C29.6128 13.42 30.724 14.2246 31.5993 15.2554C32.007 15.8304 32.2858 16.4865 32.4168 17.1789C32.5478 17.8713 32.5278 18.5838 32.3583 19.2678C31.8199 21.2343 29.931 22.7951 26.7446 23.9327C24.7495 24.5724 22.6606 24.8706 20.566 24.8145C14.3874 24.8145 7.50262 22.7157 3.4159 19.5852C2.03511 18.5656 0.890998 17.2602 0.0617873 15.7581L0.0441341 15.811ZM42.1382 14.2149C42.1382 12.4512 42.0676 10.6875 42.0676 10.5288C42.0676 6.00498 32.2259 -0.0532227 22.1636 -0.0532227C14.917 -0.0003126 1.01674e-06 2.99792 1.01674e-06 12.2836C-0.000166963 12.5787 0.0204796 12.8733 0.0617873 13.1655C0.0617873 13.2713 0.0617873 13.3859 0.1324 13.5006C0.670823 15.2642 2.78038 19.2413 10.1329 21.9221C11.0156 22.2572 12.0307 22.557 13.0369 22.8039L13.2399 22.8568C13.6812 22.9627 14.1226 23.0597 14.5992 23.1567H14.6875C16.4326 23.4943 18.2059 23.6656 19.9834 23.6681C23.9466 23.6681 27.4949 22.7863 29.4985 21.2078C30.0383 20.8485 30.4848 20.366 30.8009 19.8002C31.1171 19.2343 31.294 18.6015 31.3168 17.9538C31.3117 17.3583 31.1666 16.7723 30.8931 16.2431V16.1725C28.1304 18.3507 24.3967 18.7034 22.3401 18.7034C19.5332 18.708 16.7488 18.2031 14.1226 17.2131C12.7315 16.7575 11.5042 15.9054 10.5919 14.7616C10.1869 14.1853 9.9096 13.5293 9.77869 12.8373C9.64778 12.1454 9.66625 11.4335 9.83284 10.7492C10.3713 8.79158 12.2602 7.22191 15.4466 6.08434C17.4417 5.44477 19.5306 5.14662 21.6252 5.20251C27.8038 5.20251 34.6797 7.30128 38.7665 10.4318C40.1708 11.4561 41.3237 12.7859 42.1382 14.3207" fill="#C42032"/>
<path d="M171.96 11.3579C171.943 11.6946 171.997 12.0311 172.119 12.3455C172.237 12.6171 172.415 12.8584 172.64 13.051C172.875 13.2458 173.149 13.3899 173.443 13.4743C173.767 13.57 174.103 13.6176 174.44 13.6154C175.106 13.657 175.766 13.4703 176.311 13.0863C176.534 12.9094 176.71 12.6816 176.825 12.4221C176.94 12.1627 176.991 11.8793 176.973 11.596C176.989 11.291 176.925 10.9871 176.788 10.7141C176.671 10.4944 176.505 10.3043 176.303 10.1586C176.096 10.011 175.866 9.89782 175.623 9.82349C175.367 9.74412 175.111 9.67357 174.846 9.62066L174.069 9.4443C173.835 9.391 173.607 9.31111 173.39 9.2062C173.2 9.1158 173.034 8.98304 172.904 8.81819C172.775 8.63591 172.709 8.41558 172.719 8.19209C172.72 8.02567 172.753 7.86096 172.816 7.70708C172.885 7.5439 172.991 7.39896 173.125 7.2838C173.283 7.15008 173.466 7.04826 173.663 6.98398C173.914 6.90164 174.177 6.86287 174.44 6.86934C174.655 6.86954 174.869 6.89921 175.076 6.95752C175.274 7.01358 175.459 7.10632 175.623 7.23089C175.785 7.35429 175.915 7.51452 176.003 7.69826C176.1 7.91116 176.148 8.14322 176.144 8.37728H176.77C176.773 8.10336 176.726 7.83126 176.629 7.57481C176.534 7.32584 176.387 7.10024 176.197 6.91343C175.99 6.71467 175.743 6.56147 175.473 6.4637C175.144 6.35045 174.797 6.2967 174.449 6.30497C174.102 6.29724 173.756 6.34791 173.425 6.45488C173.156 6.54417 172.907 6.68494 172.693 6.86934C172.504 7.03558 172.354 7.24002 172.251 7.46899C172.152 7.68794 172.101 7.92542 172.101 8.16564C172.085 8.47066 172.149 8.77452 172.287 9.04747C172.402 9.2633 172.565 9.45021 172.763 9.59421C172.968 9.73959 173.194 9.85261 173.434 9.92931C173.687 10.0116 173.946 10.0851 174.211 10.1498L174.987 10.3349C175.217 10.3904 175.44 10.4733 175.649 10.5819C175.837 10.68 175.999 10.8186 176.126 10.9875C176.256 11.1796 176.321 11.4083 176.311 11.6401C176.313 11.8267 176.28 12.0121 176.214 12.1868C176.145 12.3619 176.036 12.5187 175.897 12.6454C175.738 12.7852 175.551 12.8904 175.349 12.954C175.09 13.036 174.818 13.0747 174.546 13.0686C174.296 13.0713 174.047 13.0417 173.805 12.9805C173.584 12.925 173.377 12.8261 173.196 12.6894C173.015 12.5501 172.867 12.3724 172.763 12.1692C172.644 11.9236 172.575 11.6568 172.56 11.3843L171.96 11.3579ZM162.251 11.3579C162.233 11.6946 162.287 12.0312 162.41 12.3455C162.527 12.6173 162.705 12.8586 162.93 13.051C163.166 13.246 163.439 13.3901 163.734 13.4743C164.057 13.5702 164.393 13.6177 164.731 13.6154C165.397 13.657 166.057 13.4703 166.602 13.0863C166.824 12.9094 167.001 12.6816 167.116 12.4221C167.231 12.1627 167.282 11.8793 167.264 11.596C167.28 11.291 167.216 10.9871 167.079 10.7141C166.962 10.4944 166.795 10.3043 166.593 10.1586C166.387 10.0107 166.157 9.89753 165.914 9.82349C165.661 9.74118 165.402 9.67357 165.137 9.62066L164.36 9.4443C164.125 9.39085 163.897 9.31097 163.681 9.2062C163.491 9.11553 163.325 8.98281 163.195 8.81819C163.065 8.63591 163 8.41558 163.01 8.19209C163.011 8.02572 163.044 7.86109 163.107 7.70708C163.175 7.5439 163.281 7.39896 163.416 7.2838C163.574 7.15026 163.757 7.04846 163.954 6.98398C164.415 6.85023 164.905 6.85023 165.366 6.98398C165.564 7.03984 165.75 7.13259 165.914 7.25735C166.075 7.38123 166.205 7.54134 166.293 7.72472C166.391 7.93761 166.439 8.16968 166.434 8.40373H167.061C167.064 8.1298 167.017 7.85766 166.92 7.60126C166.825 7.35229 166.678 7.1267 166.487 6.93989C166.281 6.74071 166.034 6.58745 165.764 6.49015C165.435 6.3769 165.088 6.32315 164.74 6.33142C164.392 6.32369 164.046 6.37437 163.716 6.48133C163.444 6.56957 163.192 6.7104 162.974 6.8958C162.786 7.06204 162.636 7.26647 162.533 7.49544C162.434 7.7144 162.383 7.95187 162.383 8.19209C162.367 8.49711 162.431 8.80097 162.568 9.07393C162.684 9.28958 162.847 9.47644 163.045 9.62066C163.25 9.76605 163.476 9.87906 163.716 9.95576C163.969 10.0381 164.228 10.1116 164.493 10.1762L165.269 10.3614C165.501 10.4074 165.726 10.4815 165.94 10.5819C166.127 10.68 166.29 10.8186 166.417 10.9875C166.547 11.1796 166.612 11.4083 166.602 11.6401C166.604 11.8268 166.571 12.0122 166.505 12.1868C166.438 12.3609 166.332 12.5176 166.196 12.6454C166.037 12.7852 165.851 12.8904 165.649 12.954C165.389 13.0362 165.118 13.0749 164.846 13.0686C164.596 13.0713 164.347 13.0417 164.104 12.9805C163.884 12.9248 163.677 12.8259 163.495 12.6894C163.314 12.5501 163.167 12.3724 163.063 12.1692C162.944 11.9235 162.875 11.6567 162.86 11.3843L162.251 11.3579ZM153.424 6.49897V13.4302H158.137V12.8746H154.086V10.0263H157.617V9.47075H154.086V7.05453H158.04V6.49897H153.424ZM143.874 7.05453H145.957C146.17 7.05502 146.383 7.07569 146.592 7.11625C146.783 7.15036 146.965 7.21911 147.131 7.31908C147.29 7.41537 147.421 7.55233 147.51 7.7159C147.611 7.91198 147.66 8.13059 147.651 8.35082C147.658 8.56711 147.613 8.78185 147.519 8.97692C147.434 9.14726 147.31 9.29526 147.157 9.40902C146.993 9.5267 146.807 9.61063 146.61 9.65594C146.387 9.70999 146.159 9.73664 145.93 9.7353H143.874V7.05453ZM143.874 10.2732H145.93C146.137 10.2715 146.344 10.2892 146.548 10.3261C146.72 10.3555 146.88 10.4353 147.007 10.5554C147.146 10.6969 147.244 10.8738 147.29 11.0669C147.361 11.3552 147.393 11.6518 147.387 11.9487C147.387 12.0839 147.387 12.2221 147.387 12.3632C147.387 12.5043 147.387 12.6424 147.387 12.7776C147.387 12.9099 147.387 13.0334 147.457 13.1392C147.476 13.2318 147.509 13.321 147.554 13.4037H148.278V13.3332C148.196 13.292 148.128 13.1451 148.075 12.8923C148.014 12.5519 147.987 12.2062 147.996 11.8605C147.996 11.6842 147.996 11.4902 147.996 11.2961C147.982 11.1097 147.943 10.9258 147.881 10.7494C147.82 10.5805 147.727 10.4248 147.607 10.2909C147.478 10.1485 147.314 10.0421 147.131 9.98222C147.48 9.85023 147.785 9.62438 148.013 9.32966C148.208 9.01873 148.3 8.65501 148.278 8.28909C148.301 8.02449 148.258 7.75828 148.151 7.51486C148.045 7.27143 147.879 7.05858 147.669 6.8958C147.139 6.574 146.523 6.42313 145.904 6.4637H143.185V13.3949H143.874V10.2732ZM134.826 10.3614H136.459C136.773 10.3616 137.087 10.3321 137.395 10.2732C137.679 10.2242 137.951 10.1225 138.198 9.9734C138.431 9.82666 138.622 9.62336 138.754 9.38257C138.906 9.08873 138.979 8.7606 138.966 8.43019C138.967 8.18237 138.931 7.9358 138.86 7.69826C138.789 7.46533 138.662 7.25339 138.489 7.08098C138.288 6.88506 138.043 6.73994 137.774 6.6577C137.412 6.54489 137.033 6.49129 136.653 6.49897H134.164V13.4302H134.818L134.826 10.3614ZM134.826 7.05453H136.195C136.507 7.05107 136.819 7.06579 137.13 7.09862C137.361 7.11916 137.586 7.18509 137.792 7.29262C137.962 7.39044 138.098 7.53825 138.18 7.7159C138.275 7.94497 138.32 8.19136 138.313 8.43901C138.325 8.67934 138.276 8.91879 138.172 9.13565C138.076 9.30865 137.932 9.44973 137.757 9.5413C137.555 9.64328 137.337 9.70895 137.112 9.7353C136.835 9.77232 136.554 9.78999 136.274 9.78821H134.826V7.05453ZM124.084 6.49897L126.379 9.86758L123.987 13.3949H124.729L126.741 10.3349L128.763 13.3949H129.513L127.13 9.86758L129.398 6.49897H128.639L126.732 9.41784L124.835 6.49897H124.084ZM114.808 6.49897V13.4302H119.512V12.8746H115.461V10.0263H118.991V9.47075H115.461V7.05453H119.415V6.49897H114.808ZM108.135 7.64536H110.244V6.43724H104.569V7.63654H106.678V13.4214H108.135V7.64536ZM100.535 6.43724H99.0786V13.4214H100.535V6.43724ZM88.8133 13.4214H91.7967C92.2954 13.4409 92.7891 13.3153 93.2178 13.0598C93.5745 12.8358 93.8762 12.5344 94.1004 12.178C94.3215 11.8108 94.4768 11.408 94.5594 10.9875C94.6437 10.5932 94.688 10.1914 94.6918 9.78821C94.6894 9.42377 94.6509 9.06045 94.5771 8.70356C94.503 8.31928 94.3594 7.95171 94.1534 7.6189C93.9303 7.27557 93.6275 6.99118 93.2707 6.78998C92.8303 6.55029 92.3331 6.43447 91.832 6.45488H88.7515L88.8133 13.4214ZM90.2344 7.63654H91.6378C91.81 7.64042 91.9815 7.6611 92.1497 7.69826C92.3463 7.74183 92.5267 7.8396 92.6705 7.98045C92.8544 8.17062 92.9932 8.39966 93.0765 8.65065C93.2012 9.04384 93.2579 9.45536 93.2442 9.86758C93.2474 10.1634 93.2208 10.4589 93.1648 10.7494C93.1172 11.0118 93.0278 11.2649 92.9 11.499C92.7793 11.7142 92.6101 11.8984 92.4057 12.0369C92.1825 12.18 91.9205 12.2509 91.6554 12.2397H90.2344V7.63654ZM78.7068 6.43724V13.4214H84.0028V12.2221H80.1632V10.282H83.5614V9.08274H80.1632V7.63654H83.8527V6.43724H78.7068ZM69.5448 10.6877H71.0541C71.2683 10.68 71.4824 10.7038 71.6897 10.7582C71.8262 10.7954 71.947 10.8758 72.0339 10.9875C72.1162 11.1078 72.1649 11.2478 72.1751 11.3932C72.1751 11.5578 72.1751 11.7606 72.1751 12.0016C72.1573 12.2953 72.1573 12.5898 72.1751 12.8835C72.1963 13.0746 72.2347 13.2635 72.2899 13.4478H73.9669V13.2274C73.8969 13.2051 73.8353 13.162 73.7904 13.1039C73.7412 13.0325 73.708 12.9513 73.6933 12.8658C73.6809 12.7338 73.6809 12.601 73.6933 12.469C73.6933 12.3014 73.6933 12.0986 73.6933 11.8341C73.6966 11.5711 73.676 11.3084 73.6315 11.0492C73.6031 10.8793 73.5464 10.7154 73.4638 10.5642C73.3961 10.4476 73.3025 10.348 73.1902 10.2732C73.0689 10.1963 72.942 10.1285 72.8106 10.0704C73.1448 9.96395 73.4277 9.7378 73.605 9.43548C73.7897 9.12334 73.8844 8.76627 73.8787 8.40373C73.8882 8.28635 73.8882 8.16838 73.8787 8.051C73.8524 7.90882 73.811 7.76987 73.7551 7.63654C73.6931 7.48357 73.6131 7.33852 73.5168 7.20444C73.4082 7.0528 73.2737 6.92146 73.1196 6.81643C72.9372 6.69634 72.7379 6.6042 72.5282 6.54306C72.2672 6.46816 71.9965 6.4325 71.725 6.43724H68.1943V13.4214H69.6507L69.5448 10.6877ZM69.5448 7.63654H71.3542C71.5321 7.62891 71.7096 7.65896 71.875 7.72472C71.9968 7.77639 72.1054 7.85474 72.1928 7.954C72.2648 8.04134 72.3161 8.14384 72.3428 8.25382C72.3542 8.35344 72.3542 8.45403 72.3428 8.55364C72.3566 8.68845 72.339 8.8246 72.2916 8.95153C72.2441 9.07847 72.168 9.19277 72.0692 9.28557C71.8088 9.4575 71.4973 9.53529 71.1865 9.50602H69.5448V7.63654ZM63.3662 8.72119C63.3308 8.44928 63.2534 8.18451 63.1367 7.93636C63.0054 7.63743 62.8198 7.36536 62.5894 7.13389C62.3368 6.87662 62.0372 6.67007 61.7068 6.52543C61.2803 6.35614 60.8239 6.27514 60.3651 6.28733C59.9337 6.28364 59.5054 6.36143 59.1029 6.51661C58.7135 6.66894 58.3635 6.90707 58.079 7.21326C57.7695 7.53445 57.5292 7.9156 57.3729 8.33319C57.1998 8.85025 57.1163 9.393 57.1258 9.93812C57.1162 10.4768 57.1968 11.0133 57.3641 11.5254C57.5029 11.9492 57.7283 12.3396 58.0261 12.6718C58.3045 12.977 58.6485 13.2151 59.0323 13.3685C59.821 13.6639 60.6873 13.6795 61.4861 13.4126C61.8115 13.2941 62.1111 13.1145 62.3688 12.8835C62.6245 12.6514 62.8342 12.3731 62.9866 12.0633C63.1498 11.7344 63.2657 11.3841 63.3309 11.0228H61.8921C61.8272 11.405 61.6379 11.7553 61.3537 12.0193C61.0737 12.2574 60.7151 12.3831 60.3475 12.372C60.069 12.3794 59.7939 12.3091 59.5531 12.1692C59.3319 12.034 59.1446 11.85 59.0058 11.6312C58.8564 11.3957 58.7489 11.1362 58.6881 10.864C58.6226 10.5747 58.59 10.2789 58.591 9.98222C58.578 9.56937 58.6378 9.15747 58.7675 8.76528C58.8625 8.48561 59.0126 8.22775 59.2088 8.00691C59.3667 7.83413 59.5633 7.70116 59.7826 7.6189C59.963 7.54891 60.154 7.51014 60.3475 7.50426C60.5983 7.49582 60.8481 7.54092 61.0801 7.63654C61.2516 7.71223 61.405 7.82344 61.5302 7.96282C61.6331 8.08283 61.7138 8.22019 61.7686 8.36846L61.8921 8.73883L63.3662 8.72119Z" fill="#010101"/>
<path d="M94.445 22.4777H95.8219C96.1472 22.4921 96.4703 22.419 96.7576 22.266C96.9793 22.1398 97.1694 21.9649 97.3136 21.7546C97.4396 21.5703 97.5295 21.3638 97.5784 21.1461C97.6187 20.9813 97.6424 20.8129 97.6491 20.6434C97.6756 20.1526 97.5075 19.671 97.1812 19.3031C97.0097 19.1352 96.8047 19.0053 96.5797 18.9218C96.3546 18.8382 96.1145 18.8029 95.8749 18.8181H93.2269V24.55H94.445V22.4777ZM94.445 19.8322H95.3983C95.6788 19.8087 95.9596 19.8735 96.2015 20.0173C96.2884 20.0916 96.3562 20.1856 96.3992 20.2915C96.4422 20.3974 96.4592 20.512 96.4486 20.6258C96.4573 20.7226 96.4573 20.82 96.4486 20.9168C96.4297 21.0218 96.3875 21.1213 96.3251 21.2078C96.2531 21.3024 96.1592 21.3781 96.0514 21.4283C95.9045 21.4937 95.7443 21.5239 95.5836 21.5165H94.445V19.8322ZM84.5151 18.8092V22.5923C84.5021 22.9577 84.5778 23.3207 84.7357 23.6505C84.8619 23.902 85.0466 24.1197 85.2742 24.2854C85.4917 24.4386 85.7378 24.5466 85.9979 24.6029C86.247 24.6596 86.5015 24.6892 86.757 24.6911C87.0878 24.6971 87.4178 24.6555 87.7368 24.5676C88.0077 24.492 88.2581 24.3564 88.4694 24.1708C88.6736 23.9836 88.8308 23.751 88.9284 23.4918C89.0414 23.1781 89.0953 22.8462 89.0872 22.5129V18.8092H87.878V22.5923C87.8971 22.884 87.8021 23.1716 87.6132 23.3948C87.4929 23.4992 87.3527 23.5781 87.2009 23.6266C87.0492 23.6751 86.8891 23.6922 86.7305 23.677C86.595 23.6769 86.4606 23.653 86.3333 23.6064C86.2109 23.5636 86.0994 23.4944 86.0068 23.4036C85.9081 23.3037 85.8327 23.1832 85.7861 23.0509C85.7295 22.8834 85.7026 22.7073 85.7067 22.5306V18.8092H84.5151ZM75.2471 22.8304C75.3336 23.1237 75.4678 23.4008 75.6443 23.6505C75.7936 23.8606 75.9789 24.0427 76.1916 24.1884C76.3813 24.318 76.5857 24.4246 76.8006 24.5059C76.9886 24.5773 77.184 24.6276 77.3832 24.6558C77.6932 24.703 78.0087 24.703 78.3188 24.6558C78.518 24.6277 78.7133 24.5774 78.9013 24.5059C79.1162 24.4246 79.3207 24.318 79.5104 24.1884C79.7231 24.0427 79.9083 23.8606 80.0576 23.6505C80.2344 23.4009 80.3687 23.1238 80.4548 22.8304C80.6554 22.0733 80.6554 21.2771 80.4548 20.52C80.3688 20.2265 80.2346 19.9494 80.0576 19.6999C79.9081 19.49 79.7229 19.3079 79.5104 19.162C79.3203 19.033 79.1159 18.9265 78.9013 18.8445C78.7135 18.7726 78.518 18.7223 78.3188 18.6946C78.0088 18.6463 77.6932 18.6463 77.3832 18.6946C77.1839 18.7223 76.9885 18.7726 76.8006 18.8445C76.586 18.9265 76.3816 19.033 76.1916 19.162C75.9791 19.3079 75.7939 19.49 75.6443 19.6999C75.4676 19.9496 75.3334 20.2266 75.2471 20.52C75.0466 21.2771 75.0466 22.0733 75.2471 22.8304ZM76.4387 20.6875C76.5181 20.4563 76.6477 20.2455 76.8183 20.0703C76.9596 19.9296 77.1319 19.8239 77.3214 19.7616C77.6559 19.646 78.0196 19.646 78.3541 19.7616C78.5441 19.8227 78.7167 19.9285 78.8572 20.0703C79.0251 20.2476 79.1544 20.4578 79.2367 20.6875C79.4423 21.333 79.4423 22.0262 79.2367 22.6717C79.1544 22.9015 79.0251 23.1116 78.8572 23.289C78.7165 23.4304 78.544 23.5362 78.3541 23.5976C78.0196 23.7132 77.6559 23.7132 77.3214 23.5976C77.1217 23.5362 76.9399 23.4273 76.7918 23.2801C76.6217 23.1045 76.4922 22.8938 76.4122 22.6628C76.2112 22.0167 76.2112 21.3249 76.4122 20.6787L76.4387 20.6875ZM67.8063 22.2925H69.0508C69.2265 22.287 69.4021 22.3078 69.5716 22.3542C69.6835 22.3835 69.7827 22.4485 69.8541 22.5394C69.9217 22.6388 69.9613 22.7545 69.9688 22.8745C69.9688 23.0097 69.9688 23.1743 69.9688 23.3683C69.9555 23.6003 69.9555 23.8329 69.9688 24.065C69.9878 24.2203 70.0203 24.3738 70.0659 24.5235H71.4958V24.3648L71.3458 24.2678C71.3057 24.2095 71.2786 24.1434 71.2663 24.0738C71.2562 23.9653 71.2562 23.856 71.2663 23.7475C71.2663 23.6123 71.2663 23.4389 71.2663 23.2272C71.2713 23.0117 71.2566 22.7963 71.2222 22.5835C71.1979 22.4442 71.1501 22.31 71.081 22.1867C71.0269 22.0912 70.9514 22.0097 70.8603 21.9486C70.7615 21.8854 70.6583 21.8294 70.5514 21.781C70.826 21.6942 71.0587 21.5089 71.2045 21.2607C71.3611 20.994 71.4377 20.6879 71.4252 20.3789C71.433 20.2821 71.433 20.1847 71.4252 20.0879C71.4054 19.9701 71.3728 19.8548 71.3281 19.744C71.2776 19.6191 71.2124 19.5007 71.1339 19.3912C71.0448 19.2669 70.9342 19.1594 70.8073 19.0738C70.6576 18.9762 70.4939 18.9018 70.3219 18.8533C70.1068 18.7912 69.8837 18.7615 69.6599 18.7651H66.65V24.4971H67.8416L67.8063 22.2925ZM67.8063 19.7881H69.2892C69.4344 19.7847 69.5787 19.8118 69.7128 19.8674C69.8141 19.9082 69.9047 19.9715 69.9776 20.0526C70.0372 20.1244 70.0795 20.2089 70.1012 20.2995C70.1108 20.3816 70.1108 20.4644 70.1012 20.5464C70.1118 20.6573 70.0965 20.7691 70.0567 20.8731C70.0169 20.9771 69.9536 21.0705 69.8717 21.1461C69.665 21.2798 69.4199 21.3418 69.1744 21.3225H67.8416L67.8063 19.7881ZM60.0742 22.4336H61.407C61.3616 22.6772 61.2654 22.9086 61.1246 23.1126C61.0139 23.263 60.8762 23.3916 60.7185 23.4918C60.5947 23.5721 60.457 23.6289 60.3125 23.6593H60.0124C59.8061 23.6603 59.6009 23.6306 59.4034 23.5711C59.2016 23.5086 59.0173 23.3999 58.8649 23.2537C58.6916 23.0824 58.5589 22.8745 58.4766 22.6452C58.2825 22.0251 58.2825 21.3606 58.4766 20.7405C58.5579 20.5075 58.6872 20.2942 58.8561 20.1143C59.0035 19.958 59.1846 19.8374 59.3857 19.7616C59.5859 19.6857 59.7983 19.6469 60.0124 19.647C60.204 19.6437 60.3939 19.6829 60.5685 19.7616C60.7123 19.8266 60.8437 19.9161 60.9568 20.0262C61.0502 20.1154 61.1278 20.2198 61.1863 20.3348C61.2291 20.4078 61.2561 20.4889 61.2658 20.5729H62.4574C62.4067 20.0911 62.1842 19.6435 61.8307 19.3119C61.6056 19.1016 61.3418 18.9368 61.0539 18.8269C60.6955 18.6944 60.315 18.6315 59.933 18.6417C59.5041 18.6317 59.0785 18.7191 58.6884 18.8974C58.346 19.0532 58.044 19.2855 57.8057 19.5764C57.5768 19.8642 57.4059 20.1936 57.3026 20.5464C57.1912 20.9124 57.1347 21.2927 57.1349 21.6752C57.1306 22.13 57.2115 22.5816 57.3732 23.0068C57.5026 23.3543 57.7007 23.6722 57.9558 23.9415C58.1908 24.1885 58.477 24.3811 58.7943 24.5059C59.1122 24.6298 59.4506 24.6926 59.7917 24.6911C60.0184 24.6944 60.2444 24.6647 60.4626 24.6029C60.6391 24.5513 60.8082 24.4772 60.9657 24.3824C61.095 24.3039 61.2136 24.209 61.3187 24.1002L61.5747 23.8181L61.6895 24.5323H62.4838V21.4459H60.1095L60.0742 22.4336Z" fill="#010101"/>
</g>
<defs>
<clipPath id="clip0">
<rect width="177" height="30" fill="white"/>
</clipPath>
</defs>
</svg>
