<svg id="Слой_2" data-name="Слой 2" xmlns="http://www.w3.org/2000/svg" viewBox="0 0 612.96 197.01">
  <defs>
    <style>
      .cls-1 {
        fill: #64615e;
      }

      .cls-2 {
        fill: #8d59a2;
      }

      .cls-3 {
        fill: #fff;
      }
    </style>
  </defs>
  <path class="cls-1" d="M206,93.32h8.6v73a4.86,4.86,0,0,0,1,3,4.51,4.51,0,0,0,3,1h34.59a2.46,2.46,0,0,0,2.14-1.27,8,8,0,0,0,.42-3.19V94.09h9.75v71.4l-.57,5.1,8,.13v20.85h-9.11V178.4H217.15s-4.76.16-7.34-2.2c-1.87-1.71-3.68-3.52-3.77-6.5S206,93.32,206,93.32Z" transform="translate(-35.55 -67.08)"/>
  <g>
    <path class="cls-1" d="M355.41,150.45c.14,19.41,6.19,21.06,20.33,20.87,7.88-.11,13.42-.1,17.55-1.85l2.1,6.8c-3.87,1.75-11.26,2.14-20.87,2.14-18.61,0-28.65-7.69-28.22-30.67.45-24.54,9.24-32.4,26.85-32.4,19.73,0,23.17,14.61,23.17,25.72,0,2.25.06,8.07-.06,9.2Zm32.1-7c.77-11-2.88-20.19-15.23-20.19-11.12,0-16.81,5.79-15.54,20.19Z" transform="translate(-35.55 -67.08)"/>
    <path class="cls-1" d="M457.36,115.37v7.52l-22.13.17.09,55.34-9.79,0V123.21L404,123.15v-7.78Z" transform="translate(-35.55 -67.08)"/>
    <path class="cls-1" d="M479.9,115.41v27.46h29.43V115.41h11.14v63H509.33V150.51H479.9V178.4H468.77v-63Z" transform="translate(-35.55 -67.08)"/>
    <path class="cls-1" d="M584.33,146.92c0,25.68-10.29,31.48-26.1,31.51-16.32,0-24.78-8.22-24.78-31,0-23,9.09-32,25.77-32C576.54,115.39,584.33,126.3,584.33,146.92Zm-41.44.11c0,13.21,5.12,23.18,15.84,23.18,10.46,0,16.67-9.84,16.67-23.43,0-10.21-3.47-23.17-16.42-23.17S542.89,135.57,542.89,147Z" transform="translate(-35.55 -67.08)"/>
  </g>
  <path class="cls-1" d="M284.3,116.81a131.71,131.71,0,0,1,19.6-1.4c14.14,0,28.57,1.87,28.57,15.61,0,7.64-1.88,10.89-7.5,14.32v1.48c2.45,1.73,8.15,6.11,8.15,13.48,0,17.19-12.05,18.36-31.51,18.1-6.87-.09-14-.5-17.3-.76Zm9.23,55.53A123.94,123.94,0,0,0,306,173c7.51,0,17.92-3.9,17.92-12.81s-10.26-10.9-20.95-10.9l-9.48-.09Zm0-29.14,9.9.19c13.43.16,19.89-1.68,19.91-11.2,0-7.5-4.44-8.87-18.94-9.36a105.73,105.73,0,0,0-10.87.17Z" transform="translate(-35.55 -67.08)"/>
  <path class="cls-1" d="M605.74,150.45c.13,19.41,6.18,21.06,20.33,20.87,7.87-.11,13.41-.1,17.54-1.85l2.11,6.8c-3.88,1.75-11.26,2.14-20.88,2.14-18.61,0-28.65-7.69-28.22-30.67.45-24.54,9.24-32.4,26.85-32.4,19.73,0,23.17,14.61,23.17,25.72,0,2.25.06,8.07-.06,9.2Zm32.09-7c.77-11-2.88-20.19-15.23-20.19-11.12,0-16.81,5.79-15.53,20.19Z" transform="translate(-35.55 -67.08)"/>
  <path class="cls-2" d="M107.23,143.81c.43-1.18,3,1.79,3.07,3.16.08,4.59,1,18,.92,20.65.66-1.17,1.48-11,1.63-13.41a52.34,52.34,0,0,0,.09-5.75c.09-.86-.27-2.59,0-3.12.73-1.41,1.17-.86,1.62.46a19.1,19.1,0,0,0,2.41,4.31c1,1.19,8,8.92,8.41,9.37,1.6,1.72,4.77,3.4,5.17,3.29-5.26-4.72-8.63-9.09-12.68-14.93a26.55,26.55,0,0,1-1.33-4.05c-.18-1.11-.19-2.41,1-2.44,2.38,0,3.72,1.51,5.42,2.81,2.12,1.61,4.57,3.18,6.82,4.59,2.08,1.3,4.15,2.58,6.24,3.85.57.35,1.18.7,1.78,1.06l.73.15h0c-1.3-1.48-6.61-5.67-8-6.81-.81-.65-4.62-2.87-5.2-3.22-1.91-1.17-2.83-3.24-4.79-4.3a1.76,1.76,0,0,1,.41-3.17c2.76-1,6.5.61,9.14,1.53a80.82,80.82,0,0,1,9,3.45c1.5.72,6.5,3,6.59,3.05-.16-.09-15-9.47-21.5-9.9-7.2-.49-3.37-3.07-1.14-3.07.68,0,5.82-1.21,6.8-1.48a23.1,23.1,0,0,0,6.89-3.32,36.76,36.76,0,0,0,6.67-5.68c-1.58,1-3.3,3-4.94,3.88a33.82,33.82,0,0,1-8.24,3c-3.16.82-8.1.82-11.33.8,0,0-1.29-2.27.83-3,4.84-1.57,8.44-5,11.67-8.79,2-2.3,4-4.51,6.07-6.69.48-.5,1-1,1.49-1.47-2,1.77-4,3.48-6.15,5s-4.48,3.1-6.78,4.56c-2.07,1.31-3.89,3.1-6.07,4.21a1.69,1.69,0,0,1-1.86-.16,1.82,1.82,0,0,1-.94-2.47,42.89,42.89,0,0,1,3.78-6c1.32-1.85,2.52-3.77,3.77-5.66a49,49,0,0,1,3.21-4.4c-1.77,1-7.71,6.8-10.28,10.82a26.88,26.88,0,0,1-1.74,3h0c-2.25,4.4-3.27,2.31-3.37.44-.07-1.17,0-5.3,0-6a92.35,92.35,0,0,0-1.15-10c-.74-3.31-1.44-6.4-3.66-8.9a18,18,0,0,1,.43,1.76,72,72,0,0,1,1.07,7.6c.41,5.14,1.73,17.67,0,18.42-.79.33-2,.25-2.37-.62-1.09-2.56-1.49-5.25-2.8-7.72s-2.55-4.88-3.76-7.37c-.94-2-2.57-5.06-3.46-7A41.07,41.07,0,0,1,98,102.74c0,.1,1.84,5.39,2.79,7.94.59,1.59,1.28,3.15,1.83,4.75a47.42,47.42,0,0,1,1.09,4.73c.29,2.46-.84,4-2.45,2.45-1.86-1.76-4.81-3.93-6.29-6S86.25,102.9,84.45,98.54c-.25-.6-.48-1.24-.69-1.89.11.62.23,1.24.38,1.86a27.73,27.73,0,0,0,1.66,5.11c.68,1.49,1.51,2.9,2.22,4.38s4.4,8,5.43,9.32,2.23,2.49,3.19,3.83c.76,1.07,3.67,3.88,3.38,4.86-.24.83-1.1-.07-2-.42-2-.8-9.81-3.93-10.81-4-1.46-.19-10.59-.5-11.61-.41l-.55.06c.59.07,1.18.15,1.76.26,2.72.49,5.42,1,8.12,1.58a45.26,45.26,0,0,1,7.45,2.32,18.4,18.4,0,0,1,5.81,3,1.74,1.74,0,0,1-.76,2.89,39.86,39.86,0,0,1-8.73,1.23c-2.94.07-5.64-.06-8.58.07-2.38.1-4.93-.2-7.28.32l-.31.09c.22.06.43.14.65.19,1.19.31,2.39.53,3.6.72l.91.14.38.05.92.11c2.7.28,5.53-.12,8.25-.16,2.17,0,4.14.29,6.28,0,1.74-.28,3.64-.6,5.26.25a1.75,1.75,0,0,1,.35,2.73c-2.88,2.47-6.85,3.6-10.36,4.71-3.32,1-4.9,1.89-9.36,2.81a13.86,13.86,0,0,0-3,.69,11.35,11.35,0,0,0,3.68,0c1.64-.21,3.52-.65,5.14-1,2.85-.52,11.47-3.65,12.47-4.39a1.19,1.19,0,0,1,1.83.17c.56.72-.27,1.6-.83,2.27-1.32,1.59-2.07,3.07-3.41,4.64a26.93,26.93,0,0,0-3.29,5,33.16,33.16,0,0,0-3.26,8.15c.37-.23,5.08-10.18,7.61-12.32.93-1.06,4.8-4.08,5.7-5.08,1.12-1.23,2.2-1,1.85.69-.82,4.11-1.47,5.84-2,9.83-.16,1.12-1.16,7.44-1.27,8.56" transform="translate(-35.55 -67.08)"/>
  <path class="cls-2" d="M167.66,102c-.68-3.24-1.87-7.15-4.26-10s-8.08-6-8.08-6L98.38,67.4s-7.61-1.08-12.61.72c-4.25,1.54-9,6.77-9,6.77L40.85,123.57s-2.72,6.47-2.72,9.69,2.72,8.53,2.72,8.53l38.05,53s5.37,3.9,10.46,4.26A33.17,33.17,0,0,0,99.91,198l56.35-17.87s5.58-2.8,8.41-7a22.74,22.74,0,0,0,3.67-10.52S168.34,105.19,167.66,102Zm-11.34,64.47c-1.67,2.57-6.32,8.46-13.85,8.59-4.34.07-9.77-3.26-13.53-5.36-3.4-1.9-11-10.5-11.88-11.49a133.94,133.94,0,0,1-3.53,18.38c-1.73,4-5.36,12.3-14.93,13.15-2.88.26-13.3-3.92-15.54-5.7-4.55-3.62-3.92-14.13-3.49-16.72a107.55,107.55,0,0,1,3-12.76c.31-1.14,2.06-4.66,2.55-5.75-1.9.76-8.32,1.15-10.68,1.08-1.68,0-10.75.27-13.92-1.08a16.69,16.69,0,0,1-5.91-4.26,14.74,14.74,0,0,1-3-7.53c-.18-2.43-3.31-17,9.79-20.81a37.63,37.63,0,0,1,10.38-1.36c4,0,7-.3,10.83.6,1.62.38,5.69,2,5.87,2-.47-.7-1.4-1.28-1.79-2-.92-1.77-2.14-3.25-3-5a79,79,0,0,1-3.44-9.45A31.3,31.3,0,0,1,79.37,90a14.47,14.47,0,0,1,8.52-11.81c9.71-4.69,16-2.12,20,1.72,1.78,1.69,5.93,8.12,6.74,11.84.85,3.91,1.86,10.6,2.3,14.56,1.07-1,8.1-7.23,10.38-9.17a28.74,28.74,0,0,1,10.6-5.4C149.07,89.36,153.84,96,155,97.37c2.27,2.6,13.33,14.42-6.12,29.1a50.56,50.56,0,0,1-7.78,4.58,31.16,31.16,0,0,1-3.15,1.36c1.56.8,3.06,1.72,4.56,2.64,1.76,1.07,9.15,5.86,12.84,10.44C164.62,157,159.24,161.92,156.32,166.43Z" transform="translate(-35.55 -67.08)"/>
  <g>
    <path class="cls-1" d="M45,227.34H35.55v-3.4h23v3.4H49V255H45Z" transform="translate(-35.55 -67.08)"/>
    <path class="cls-1" d="M58.68,233a48.14,48.14,0,0,1,7.09-.51c3.73,0,9.9.6,9.9,5.58,0,2.76-2.12,4.46-4.65,5v.1c3.27.46,5.66,2.3,5.66,5.52,0,5.85-7.36,6.59-11.74,6.59-2.49,0-5.06-.19-6.26-.28ZM62.5,252.3a24.25,24.25,0,0,0,3.27.18c2.72,0,6.77-.64,6.77-3.87s-3.22-3.91-7.09-3.91h-3Zm0-10.27h3c3,0,6.07-.87,6.07-3.5,0-2.21-1.93-3.27-6-3.27a26.49,26.49,0,0,0-3.13.19Z" transform="translate(-35.55 -67.08)"/>
    <path class="cls-1" d="M102,243.64c0,8.24-5.71,11.84-11.09,11.84-6,0-10.69-4.42-10.69-11.47,0-7.46,4.88-11.83,11-11.83C97.64,232.18,102,236.83,102,243.64Zm-17.68.23c0,4.88,2.81,8.57,6.77,8.57s6.77-3.64,6.77-8.66c0-3.77-1.89-8.56-6.68-8.56S84.29,239.64,84.29,243.87Z" transform="translate(-35.55 -67.08)"/>
    <path class="cls-1" d="M107.1,240c0-2.85-.1-5.16-.19-7.27h3.64l.18,3.82h.1a8.74,8.74,0,0,1,7.91-4.33c5.39,0,9.44,4.56,9.44,11.32,0,8-4.88,12-10.13,12a7.83,7.83,0,0,1-6.86-3.5h-.09v12.11h-4Zm4,5.94a9.38,9.38,0,0,0,.18,1.66,6.25,6.25,0,0,0,6.08,4.74c4.28,0,6.77-3.5,6.77-8.61,0-4.47-2.35-8.29-6.63-8.29a6.46,6.46,0,0,0-6.12,5,6.56,6.56,0,0,0-.28,1.66Z" transform="translate(-35.55 -67.08)"/>
    <path class="cls-1" d="M136.53,232.69V240c0,2.81,1.06,4.74,4.6,4.74a8.39,8.39,0,0,0,4.79-1.57V232.69h4V255h-4V246h-.09a11.73,11.73,0,0,1-6,1.7c-4.24,0-7.32-2.16-7.32-7.28v-7.77Z" transform="translate(-35.55 -67.08)"/>
    <path class="cls-1" d="M158.83,244.56c.09,5.48,3.59,7.74,7.64,7.74a14.73,14.73,0,0,0,6.17-1.15l.69,2.9a18.15,18.15,0,0,1-7.41,1.38c-6.86,0-11-4.51-11-11.24s4-12,10.45-12c7.27,0,9.21,6.4,9.21,10.5a14.38,14.38,0,0,1-.14,1.88Zm11.88-2.9c0-2.58-1.06-6.58-5.62-6.58-4.1,0-5.9,3.78-6.22,6.58Z" transform="translate(-35.55 -67.08)"/>
    <path class="cls-1" d="M195.53,254.14a14.94,14.94,0,0,1-6.4,1.29c-6.72,0-11.09-4.56-11.09-11.37s4.69-11.84,12-11.84a13.36,13.36,0,0,1,5.61,1.16l-.92,3.13a9.27,9.27,0,0,0-4.69-1.06c-5.11,0-7.88,3.77-7.88,8.42,0,5.16,3.32,8.34,7.74,8.34a11.44,11.44,0,0,0,5-1.11Z" transform="translate(-35.55 -67.08)"/>
    <path class="cls-1" d="M216.08,232.69v3.22h-7V255h-4V235.91h-7v-3.22Z" transform="translate(-35.55 -67.08)"/>
    <path class="cls-1" d="M219.54,233a48.36,48.36,0,0,1,7.09-.51c3.73,0,9.9.6,9.9,5.58,0,2.76-2.11,4.46-4.65,5v.1c3.27.46,5.67,2.3,5.67,5.52,0,5.85-7.37,6.59-11.75,6.59-2.48,0-5.06-.19-6.26-.28Zm3.83,19.34a24.1,24.1,0,0,0,3.26.18c2.72,0,6.77-.64,6.77-3.87s-3.22-3.91-7.09-3.91h-2.94Zm0-10.27h3c3,0,6.08-.87,6.08-3.5,0-2.21-1.94-3.27-6-3.27a26.78,26.78,0,0,0-3.13.19Z" transform="translate(-35.55 -67.08)"/>
    <path class="cls-1" d="M262.83,243.64c0,8.24-5.7,11.84-11.09,11.84-6,0-10.68-4.42-10.68-11.47,0-7.46,4.88-11.83,11.05-11.83C258.51,232.18,262.83,236.83,262.83,243.64Zm-17.68.23c0,4.88,2.81,8.57,6.77,8.57s6.77-3.64,6.77-8.66c0-3.77-1.89-8.56-6.68-8.56S245.15,239.64,245.15,243.87Z" transform="translate(-35.55 -67.08)"/>
    <path class="cls-1" d="M267,252.57a2.71,2.71,0,0,1,2.76-2.89,2.9,2.9,0,0,1,0,5.8A2.72,2.72,0,0,1,267,252.57Z" transform="translate(-35.55 -67.08)"/>
    <path class="cls-1" d="M287.4,224.31a45.49,45.49,0,0,1,7.69-.6c4,0,6.86.92,8.7,2.58a8.35,8.35,0,0,1,2.72,6.49,9.11,9.11,0,0,1-2.4,6.63c-2.12,2.25-5.57,3.41-9.48,3.41a13.88,13.88,0,0,1-3.23-.28V255h-4Zm4,15a13.5,13.5,0,0,0,3.32.32c4.83,0,7.78-2.35,7.78-6.63,0-4.09-2.9-6.08-7.32-6.08a17.15,17.15,0,0,0-3.78.32Z" transform="translate(-35.55 -67.08)"/>
    <path class="cls-1" d="M313.38,232.69l4.88,13.16c.51,1.48,1.06,3.23,1.43,4.56h.09c.41-1.33.87-3,1.43-4.65l4.42-13.07h4.28l-6.08,15.88c-2.9,7.64-2.78,11.5-5.54,13.9-2,1.75-7.08,1.13-8.37,1.09l.06-3c1.08,0,5.24.21,6.6-.57,1.55-.89,1.26-4,1.08-5.18a12.93,12.93,0,0,0-.46-1.58L309,232.69Z" transform="translate(-35.55 -67.08)"/>
    <path class="cls-1" d="M337.61,232.69v9.66h1l8.37-9.66h4.93l-10.09,11.14c2.75,3.09,8.48,9.53,10.28,11.14h-4.9a48.64,48.64,0,0,1-4.88-4.85c-1.47-1.52-2.16-2-3.64-3.48l-1,0V255h-4V232.69Z" transform="translate(-35.55 -67.08)"/>
    <path class="cls-1" d="M375.56,243.64c0,8.24-5.71,11.84-11.1,11.84-6,0-10.68-4.42-10.68-11.47,0-7.46,4.88-11.83,11.05-11.83C371.23,232.18,375.56,236.83,375.56,243.64Zm-17.68.23c0,4.88,2.81,8.57,6.77,8.57s6.76-3.64,6.76-8.66c0-3.77-1.88-8.56-6.67-8.56S357.88,239.64,357.88,243.87Z" transform="translate(-35.55 -67.08)"/>
    <path class="cls-1" d="M406.85,244.56c.09,5.48,3.59,7.74,7.64,7.74a14.73,14.73,0,0,0,6.17-1.15l.69,2.9a18.11,18.11,0,0,1-7.41,1.38c-6.86,0-11-4.51-11-11.24s4-12,10.45-12c7.28,0,9.21,6.4,9.21,10.5a14.38,14.38,0,0,1-.14,1.88Zm11.88-2.9c0-2.58-1.06-6.58-5.62-6.58-4.1,0-5.89,3.78-6.22,6.58Z" transform="translate(-35.55 -67.08)"/>
    <path class="cls-1" d="M455,232.69v9.39c0,3.54-.05,5.75-.23,8.93l.13.05c1.34-2.72,2.12-4.29,3.59-6.87l7-11.5h4.74V255h-3.87v-9.44c0-3.64.09-5.52.28-9.11h-.14c-1.43,2.85-2.4,4.64-3.68,6.9-2.12,3.45-4.56,7.74-7,11.65h-4.65V232.69Z" transform="translate(-35.55 -67.08)"/>
    <path class="cls-1" d="M479,244.56c.1,5.48,3.6,7.74,7.65,7.74a14.65,14.65,0,0,0,6.16-1.15l.7,2.9a18.16,18.16,0,0,1-7.42,1.38c-6.86,0-11-4.51-11-11.24s4-12,10.46-12c7.27,0,9.21,6.4,9.21,10.5a16.42,16.42,0,0,1-.14,1.88Zm11.88-2.9c0-2.58-1.06-6.58-5.62-6.58-4.09,0-5.89,3.78-6.21,6.58Z" transform="translate(-35.55 -67.08)"/>
    <path class="cls-1" d="M498.89,252.57a2.71,2.71,0,0,1,2.76-2.89,2.9,2.9,0,0,1,0,5.8A2.71,2.71,0,0,1,498.89,252.57Z" transform="translate(-35.55 -67.08)"/>
    <path class="cls-1" d="M536.28,255l-3.95-6.86c-1.62-2.63-2.63-4.33-3.6-6.12h-.09c-.87,1.79-1.75,3.45-3.36,6.16L521.55,255H517l9.48-15.7-9.11-15.33H522l4.1,7.27c1.16,2,2,3.59,2.86,5.25h.14c.87-1.84,1.65-3.27,2.8-5.25l4.24-7.27h4.6L531.27,239,540.93,255Z" transform="translate(-35.55 -67.08)"/>
    <path class="cls-1" d="M564.71,243.64c0,8.24-5.71,11.84-11.1,11.84-6,0-10.68-4.42-10.68-11.47,0-7.46,4.88-11.83,11.05-11.83C560.38,232.18,564.71,236.83,564.71,243.64Zm-17.68.23c0,4.88,2.81,8.57,6.77,8.57s6.76-3.64,6.76-8.66c0-3.77-1.88-8.56-6.67-8.56S547,239.64,547,243.87Z" transform="translate(-35.55 -67.08)"/>
    <path class="cls-1" d="M611.36,226.09c-1.15.41-2.51,2-4.85,2.93-3.37,1.35-6.81.72-8.51,3.16a9.17,9.17,0,0,0-2,5.53h.13a8.43,8.43,0,0,1,7.74-5c5.48,0,9.48,3.91,9.48,11,0,7.28-3.77,11.79-10.31,11.79-7.83,0-10.41-7.51-10.41-14.92,0-5.07.25-6.15,2.39-9.45,1.36-2.1,5.19-2.6,9.45-4,3.43-1.35,4.53-2,6-2.59ZM603,235.68a5.41,5.41,0,0,0-5,3,9.79,9.79,0,0,0-1.1,4.74c0,3.68,1.79,9,6.21,9s6.13-4.33,6.13-8.43C609.26,240.37,607.83,235.68,603,235.68Z" transform="translate(-35.55 -67.08)"/>
    <path class="cls-1" d="M622.21,232.69v9.39c0,3.54-.05,5.75-.23,8.93l.14.05c1.33-2.72,2.11-4.29,3.59-6.87l6.95-11.5h4.74V255h-3.87v-9.44c0-3.64.1-5.52.28-9.11h-.14c-1.43,2.85-2.39,4.64-3.68,6.9-2.12,3.45-4.56,7.74-7,11.65h-4.65V232.69Z" transform="translate(-35.55 -67.08)"/>
    <path class="cls-1" d="M643,252.57a2.71,2.71,0,0,1,2.76-2.89,2.9,2.9,0,0,1,0,5.8A2.72,2.72,0,0,1,643,252.57Z" transform="translate(-35.55 -67.08)"/>
  </g>
  <path class="cls-2" d="M103.39,79a46.43,46.43,0,0,0-6.57,1.53,22.57,22.57,0,0,0-3.58,3.07s-4-.25-5.33.19a39.88,39.88,0,0,0-5.07,2.71A17.83,17.83,0,0,1,91,79.62C96.5,77.49,103.39,79,103.39,79Z" transform="translate(-35.55 -67.08)"/>
  <path class="cls-2" d="M92.52,82.93" transform="translate(-35.55 -67.08)"/>
  <path class="cls-2" d="M157.58,110.64a45.85,45.85,0,0,0-3.57-5.73,22.44,22.44,0,0,0-4-2.4s-1.06-3.88-1.9-5a40.18,40.18,0,0,0-4.2-3.93A17.9,17.9,0,0,1,153,99.11C156.8,103.62,157.58,110.64,157.58,110.64Z" transform="translate(-35.55 -67.08)"/>
  <path class="cls-2" d="M144.66,172a46.35,46.35,0,0,0,4.48-5,21.92,21.92,0,0,0,1.15-4.57s3.42-2.12,4.24-3.24A39.42,39.42,0,0,0,157.1,154a17.84,17.84,0,0,1-2.68,10.36C151.17,169.25,144.66,172,144.66,172Z" transform="translate(-35.55 -67.08)"/>
  <path class="cls-2" d="M82.9,178.76a46.17,46.17,0,0,0,6.24,2.6,22.07,22.07,0,0,0,4.69-.4s3.11,2.55,4.43,3a39.65,39.65,0,0,0,5.71.76,17.86,17.86,0,0,1-10.67.83C87.61,184,82.9,178.76,82.9,178.76Z" transform="translate(-35.55 -67.08)"/>
  <path class="cls-2" d="M57.27,121.51a45.69,45.69,0,0,0-.76,6.71,21.89,21.89,0,0,0,1.68,4.39s-1.58,3.7-1.61,5.09a39.64,39.64,0,0,0,.84,5.69,17.9,17.9,0,0,1-3.75-10C53.52,127.49,57.27,121.51,57.27,121.51Z" transform="translate(-35.55 -67.08)"/>
  <circle class="cls-3" cx="76.31" cy="60.75" r="3.41"/>
  <circle class="cls-3" cx="78.5" cy="67.27" r="3.41"/>
  <circle class="cls-3" cx="71.9" cy="69.15" r="3.41"/>
  <circle class="cls-3" cx="69.75" cy="62.66" r="3.41"/>
  <path class="cls-1" d="M587.56,225.52c-1.15.41-2.51,2-4.85,2.94-3.38,1.34-6.81.71-8.51,3.15a9.29,9.29,0,0,0-2,5.53h.14a8.43,8.43,0,0,1,7.74-5c5.48,0,9.48,3.91,9.48,11,0,7.28-3.77,11.79-10.31,11.79-7.83,0-10.41-7.51-10.41-14.92,0-5.06.24-6.14,2.39-9.45,1.36-2.09,5.19-2.6,9.44-4,3.44-1.35,4.53-2,6.05-2.58Zm-8.32,9.59a5.42,5.42,0,0,0-5,3,9.74,9.74,0,0,0-1.11,4.74c0,3.69,1.8,9,6.22,9s6.12-4.33,6.12-8.43C585.45,239.81,584,235.11,579.24,235.11Z" transform="translate(-35.55 -67.08)"/>
  <path class="cls-1" d="M379.08,251.47s3.29-12.44,5.35-16.11c.57-1,1.55-2.8,3.1-3.4a2.72,2.72,0,0,1,1.47,0c1.51.57,2.63,2.5,3.06,3.5,1.67,3.88,5.35,16,5.35,16H400v8h-3.65v-5.61H380.32v5.61h-3.89v-8Zm7.73-14.35c-1.57,3.09-4.05,14.35-4.05,14.35h11.42s-3.81-13.14-4.64-14.45A1.45,1.45,0,0,0,386.81,237.12Z" transform="translate(-35.55 -67.08)"/>
  <path class="cls-1" d="M446.68,254.87h-3.95s-4.94-18.91-7-18.86c-1.68.05-6.86,18.93-6.86,18.93l-3.85-.07,6.93-19.21s1.13-3.7,3.91-3.7,4.1,3.58,4.1,3.58Z" transform="translate(-35.55 -67.08)"/>
</svg>
