<svg width="146" height="41" viewBox="0 0 146 41" fill="none" xmlns="http://www.w3.org/2000/svg">
<path fill-rule="evenodd" clip-rule="evenodd" d="M20.4848 0C31.7824 0 40.9423 9.18027 40.9423 20.497C40.9423 31.8197 31.7824 41 20.4848 41C9.19311 41 0.0332031 31.8197 0.0332031 20.497C0.0332031 9.18027 9.19311 0 20.4848 0Z" fill="#FFDD00"/>
<path fill-rule="evenodd" clip-rule="evenodd" d="M25.883 25.2667L25.9129 25.2607L25.9427 25.2487L25.9666 25.2428H25.9726L25.9905 25.2308H25.9965L26.0204 25.2188L26.0383 25.2069L26.0442 25.2009L26.0622 25.1949L26.0741 25.1829L26.0801 25.1769L26.086 25.1709L26.104 25.159L26.1099 25.153L26.1219 25.141V25.1291L26.1338 25.1171L26.1458 25.0991H26.1517L26.1637 25.0812V25.0752L26.1756 25.0572L26.1876 25.0333L26.1935 25.0154L26.1995 24.9974L26.2055 24.9854L26.2114 24.9675V24.9615L26.2174 24.9435L26.2234 24.9376V24.9316L26.2294 24.9136V24.9076V24.8957L26.2353 24.8837C26.2413 24.8418 26.2473 24.7939 26.2473 24.752L26.2532 24.7042V24.6982V24.6802V24.6742V24.6563V24.6503V24.6323V24.6264C26.2532 24.4827 26.2473 24.369 26.301 24.3511V24.3451H26.307H26.313C26.3249 24.3451 26.3368 24.3451 26.3547 24.3511L26.3727 24.3571L26.3846 24.363L26.3906 24.369L26.4025 24.375H26.4085L26.4204 24.387L26.4264 24.393L26.4383 24.3989L26.4503 24.4049L26.4622 24.4169L26.4801 24.4349H26.4861L26.4981 24.4468L26.51 24.4588C26.5339 24.4767 26.5578 24.5007 26.5876 24.5246V24.5126V24.4468L26.504 24.2793L26.3428 23.9501L26.2592 23.5372L26.1756 23.1661L26.092 22.9627L25.7218 22.5916L25.5606 22.3822L25.4352 22.2984L25.3934 22.4241H25.3158L25.1904 22.3822L25.065 22.2984L24.9037 22.2146L24.4081 22.053L24.2409 22.0111L24.0797 21.9273H23.5841L23.5423 21.8436L23.4587 21.6401L23.2975 21.4366L23.0885 21.3528L22.557 21.3109L22.1032 21.269H21.936L21.7748 21.3528L21.5658 21.4366L21.321 21.5144L21.0762 21.5982L21.0344 21.682L20.9508 21.7658H20.8672L20.8254 21.682V21.5982L20.9508 21.4725L21.0344 21.3109V21.1434L20.9926 20.9818L20.9508 20.9399L20.909 21.0237L20.8254 21.1853L20.5387 21.5982L20.3775 21.8076V22.0111L20.4969 22.2565L20.7059 22.4241L20.4551 22.3403L20.2939 22.1787L20.2521 21.9692L20.2103 21.7239L20.2521 21.4725V21.1853L20.2103 21.1434L20.0431 21.3109L19.9655 21.5563L19.8819 21.8436L19.9237 22.053L19.9655 22.1787L19.9237 22.3403L19.8401 22.4659L19.7983 22.7113L19.7147 22.8789L19.5953 22.9627H19.5117V23.0405L19.5535 23.2499L19.5117 23.5372V23.7825L19.5953 23.8663L19.6729 23.9082L19.6371 23.4953L19.7147 23.2918L19.8401 23.0823L20.0849 22.7951L20.2103 22.6694L20.3775 22.5078L20.4133 22.5497L20.4551 22.6275L20.5805 22.7113H20.7059L20.7477 22.7532L20.5805 22.9986L20.5387 23.2499L20.6223 23.4534L20.7477 23.621L21.0762 23.8663L21.118 23.9082L21.0762 23.9501L20.8672 23.8663L20.5387 23.621L20.4551 23.5372L20.3775 23.6628L20.3357 23.7406L20.3775 23.8663H20.1267L20.0073 23.8244L19.9237 23.7406V23.6628L19.8401 23.8244V23.992L19.9237 24.1536L19.9655 24.1955H19.8819L19.6729 24.1536L19.4699 23.9501L19.4281 23.7825L19.4699 23.5791V23.2499L19.3445 23.0823L19.2251 23.0405L19.1415 22.9627L19.0579 22.7532H19.3863L19.4699 22.6275L19.4281 22.4241L19.3863 22.1368V21.8436L19.5117 21.5982L19.6729 21.3109L19.7983 21.0237L19.9655 20.7723L20.2103 20.6526L20.4969 20.527L20.7059 20.4432V20.1978L20.7836 20.0302L20.9926 19.743L21.1956 19.4976L21.2374 19.2463L21.0762 19.4138L20.909 19.5395H20.8254V19.4557L20.909 19.2463V18.5042L20.8254 18.4264L20.7477 18.3845V18.175L20.4133 18.0135H20.3357L20.4133 18.1331L20.4551 18.2169L20.3775 18.2588L20.2103 18.3007L20.0849 18.2169L20.0073 18.0494L19.9237 18.175V18.3007L20.0849 18.4264L20.2521 18.5042H20.1685L19.9237 18.4623L19.7983 18.3426L19.7147 18.2169V18.175L19.6729 18.2169L19.6371 18.3007L19.4699 18.5461L19.4281 18.6718V18.7555L19.5535 18.8752L19.6729 18.9171H19.2669L19.0997 18.7974L19.0161 18.6299V18.4623V18.3426L19.0579 18.2588L19.0161 18.175L18.8966 18.1331H18.7295L18.6041 18.2169L18.4846 18.3426L18.4428 18.5461L18.4846 18.6718L18.5623 18.7555L18.6877 18.8333L18.8966 18.959L19.1833 19.2463L19.2669 19.4557L19.3027 19.7011L19.3863 19.8687L19.6371 19.9883L19.7983 20.0302L19.8401 20.0721L19.7983 20.1559L19.7147 20.3235L19.6729 20.4851L19.5953 20.5688L19.4699 20.6107L19.3027 20.6526L19.0579 20.6945L18.8966 20.7304L18.6877 20.9399L18.6459 21.1434L18.5623 21.2271L18.3174 21.3947L18.2756 21.5563V21.6401L18.1502 21.5144L18.1144 21.3109L18.1502 21.2271L18.2756 21.1434L18.4428 21.0237L18.4846 20.9818V20.7723H18.2338L18.0726 20.8561L17.9472 21.0237L17.8218 21.2271L17.7024 21.4366V22.0949L17.6188 22.4241V22.6694L17.78 22.837L18.0308 22.8789L18.1741 22.819L17.989 22.6694L17.9054 22.3822L17.989 21.9273L18.0308 21.9692L18.0726 22.0111H18.192L18.1502 22.053L18.1144 22.1787L18.0308 22.4241L18.1144 22.6275L18.3174 22.7113L18.6041 22.5916L18.6877 22.4659L18.7295 22.2984L18.6459 21.9692L18.5623 21.7239L18.6041 21.6401H18.6877L18.813 21.7239L18.8966 21.8436L18.9325 22.2146L18.813 22.5916L18.6877 22.7113L18.5205 22.7951L18.2219 22.831L18.1502 22.9986V23.208L18.4428 23.4953L18.2756 23.5372H18.192L18.0308 23.3696L17.9472 23.2499L17.8636 23.208L17.78 23.3696V23.6628L17.8218 23.9501L17.9472 24.1536L18.0726 24.2374L18.2338 24.3211L18.3174 24.363L18.3592 24.4468L18.401 24.5246H18.7295L18.813 24.6084L18.8966 24.7341L19.0579 24.8179H19.2669L19.4281 24.6503L19.5535 24.4827H19.6729L19.7565 24.5246H19.9237L20.0849 24.5665L20.2521 24.6503L20.3775 24.6084L20.4969 24.5665L20.5805 24.6503L20.7059 24.8957L20.8254 24.9794L20.8672 25.0213L20.9508 24.8957L20.9926 24.776V24.7341L21.0344 24.776L21.2374 24.9794L21.3628 25.0213L21.5658 24.9794L21.6912 24.8598L21.8584 24.4468L22.0196 24.363H22.145L22.1868 24.4468L22.3062 24.5665L22.3898 24.6084L22.5988 24.6503H22.8854L22.969 24.6084V24.4827L23.0885 24.2374L23.2139 23.992L23.1721 23.8244L23.1303 23.7406L23.2139 23.621L23.3393 23.4953L23.4229 23.3696H23.5005L23.5423 23.5791L23.6259 23.8244L23.7931 23.9082L23.8707 23.9501V24.0758L23.8289 24.2793L23.9543 24.4827L24.0797 24.6084H24.2827L24.3663 24.5246L24.4917 24.4468L24.6529 24.2793L24.7365 24.2374L24.7783 24.2793V24.4049V24.6503L24.9037 24.776L25.0232 24.8598L25.1486 24.8957L25.1904 25.0213V25.1889L25.2322 25.3505L25.3516 25.4343L25.5606 25.3924L25.7218 25.2308L25.8054 25.147L25.686 25.1889L25.5606 25.147L25.477 25.0213L25.4352 24.7341L25.477 24.6084L25.5188 24.8179L25.6024 24.9794L25.7218 25.0213L25.9308 24.9794L25.9726 24.9376V24.9794L25.8472 25.1051V25.147L25.8054 25.2308V25.2787C25.8353 25.2787 25.8591 25.2727 25.883 25.2667ZM25.3755 26.6671H25.3337L25.1486 26.5713L25.0172 26.4816L24.9694 26.4337L24.844 26.308H25.0948L25.274 26.2362L25.4591 26.1225L25.5188 26.0088L25.4531 25.8472L25.3575 25.7514L25.262 25.7275L25.2083 25.8113L25.0769 25.9908L24.9097 26.0686L24.8142 26.2003V26.326L24.8918 26.5773V26.7329V26.7389L24.9336 26.7509C25.053 26.7748 25.2441 26.715 25.3755 26.6671ZM23.1721 20.2397L22.969 20.114L23.0526 20.2816L23.1721 20.4851L23.1303 20.7723L23.0885 20.9399H23.1303L23.2139 20.8561L23.3393 20.6107V20.4432L23.1721 20.2397ZM21.9002 13.8482L21.733 14.1774L21.8166 14.2971L21.9778 14.3808L22.145 14.5065L22.1868 14.6681L22.0614 14.9613L22.4316 14.9195L22.557 14.71V14.3808L22.5152 14.0936L22.4734 14.0098V13.9679L22.557 14.0098L22.6765 14.1355L22.8436 14.339L22.969 14.6681L23.0108 14.9195L23.0885 15.0032H23.2139L23.2975 15.0391H23.4587L23.6259 15.0032L23.9125 14.9195L24.0797 14.7938L24.1991 14.5903L24.2409 14.3808V13.926L24.2827 13.8901L24.3663 14.0517L24.4081 14.339L24.3245 14.7519L24.1215 15.3324H24.3663L24.6111 15.4521L24.9814 15.7453L25.2322 16.1942L25.274 16.4874V16.7328L25.2322 16.9362L25.1486 17.0619L24.9814 17.1457L24.7783 17.2714L24.6947 17.3492L24.6529 17.5586L24.6947 18.0135L24.8619 18.4264L25.1904 18.7136L25.3934 18.7974L25.6442 18.8333L25.889 18.8752L26.0562 18.9171L26.3428 19.1685H26.4264L26.4622 19.0009L26.4264 18.7136L26.1756 18.4623L26.0144 18.3845H25.7636H25.5188L25.3158 18.3007L25.1486 18.0494L25.065 17.804L25.1068 17.6783L25.1486 17.7621L25.2322 17.9297L25.3934 18.1331L25.6024 18.2169L25.889 18.3007L26.1338 18.3845L26.4264 18.588L26.5458 18.7136V18.6718L26.4622 18.3426L26.3846 18.1331L26.1338 17.9716L25.8054 17.8878L25.6442 17.804L25.4352 17.6005L25.3158 17.3492L25.274 17.1457L25.3934 16.8165L25.5606 16.4455L25.6024 16.2779V16.0326L25.4352 15.6196L25.1904 15.3324L24.9037 15.2067L24.6111 15.1229L24.4499 15.081V14.9613L24.5335 14.71L24.6111 14.339V14.0517L24.5693 13.8482L24.3245 13.5191L24.1215 13.3934L23.9961 13.3096L24.0379 13.3934L24.0797 13.5969V13.8901L23.9961 14.2193L23.8289 14.4646L23.6677 14.6322L23.5005 14.6681H23.3393L23.1721 14.5903L23.0526 14.4227L22.9272 14.1774L22.8436 13.8901L22.7601 13.5969L22.6406 13.4353L22.348 13.2258H22.0196L22.1032 13.2677L22.3062 13.4353L22.4316 13.6388V13.7644L22.348 13.8901L22.2286 14.0098H22.145L21.9778 13.926L21.9002 13.7644V13.8482ZM20.9926 13.4772H21.2374L21.4464 13.5969L21.53 13.6807H21.5658L21.6076 13.6388L21.53 13.3515H21.6494L21.7748 13.4353L21.8584 13.555L21.9002 13.6388H21.936L21.8166 13.3934L21.6494 13.1839L21.4464 13.1061H21.2792L21.0762 13.142L20.8672 13.2258L20.7477 13.3096L20.7059 13.4772L20.7836 13.5191L20.9926 13.4772ZM20.2521 14.339L20.3357 14.4227L20.4133 14.5484L20.6223 14.5903H20.7059L20.7477 14.3808L20.6641 14.1355L20.4133 13.7644L20.2521 13.6388L20.0849 13.555H19.9655L19.8819 13.6388L20.0431 13.8901L20.0849 13.9679L20.0431 14.0936L19.9655 14.1355L19.7147 13.9679L19.5535 13.8901L19.1415 13.6807H18.8966L18.6041 13.7225L18.5623 13.7644L18.6459 13.8482L18.813 13.926L19.0161 14.0517L19.4281 14.2971L19.5535 14.4646L19.5953 14.6322V14.7519L19.6729 14.7938L19.8401 14.71L20.1685 14.339H20.2521ZM20.9508 18.2588V18.0494L20.909 17.8878L20.7836 17.7621L20.5805 17.6783H20.2939L20.0073 17.7202L19.7983 17.8459L19.7565 17.9297H19.8819L20.1267 17.8878H20.3775L20.5805 17.9297L20.8254 18.0913L20.909 18.2169L20.9508 18.2588ZM22.8854 20.6526L22.8436 20.4432L22.5988 20.1978H21.936L21.7748 20.2397L21.6912 20.3235L21.6076 20.3594L21.53 20.3235L21.4046 20.2816L21.1956 20.3594L21.0762 20.4851L21.118 20.527L21.2374 20.6107L21.321 20.8142V21.0656L21.2374 21.3528L21.4046 21.269L21.5658 21.1434L21.6076 20.9818V20.7723L21.53 20.527L21.6912 20.5688L21.7748 20.6945L21.8166 20.8142L21.9002 20.8561L21.9778 20.7723L22.0196 20.6945L22.0614 20.4013L22.145 20.4851L22.1868 20.6945V20.898L22.2286 20.9399H22.2704L22.5152 20.8561L22.6765 20.898L22.8019 20.9399L22.8854 20.898V20.6526ZM23.2139 20.2397L23.5005 20.527L23.6259 20.6945V20.8142V20.8561L23.6677 20.7723L23.7513 20.6945H23.7931L23.9543 20.9399L24.0797 21.0656L24.2409 21.1434L24.3663 21.2271L24.4917 21.3947L24.5693 21.5144L24.7365 21.6401L24.9037 21.5563L24.9396 21.3947V21.3109L24.9814 21.4366L25.1486 21.9692L25.274 22.1368L25.3934 22.2146L25.477 22.1787V22.1368L25.4352 22.0111L25.3158 21.8436L25.3038 21.8196C25.2441 21.7239 25.2083 21.6281 25.2142 21.5443V21.5383L25.1904 21.3528L25.1486 21.0237L25.0232 20.8142L24.9396 20.6107V20.3235L24.8619 19.9465L24.6529 19.5395L24.6111 19.2882L24.6947 19.0009L24.7783 18.6718L24.7365 18.3426L24.6111 18.175L24.4081 18.0494L24.1991 17.9716L24.0379 17.8878H23.9125L23.7513 17.9716L23.6259 18.0135H23.4229L23.4587 18.2169L23.7095 18.175H23.8707L24.0379 18.2588L24.2827 18.3845L24.4917 18.5461L24.5335 18.6299L24.4917 18.7136L24.4081 18.6299L24.2827 18.5042L23.9125 18.3007L23.5841 18.3426L23.4587 18.3845L23.4229 18.4623L23.4587 18.5042H23.5423L23.7095 18.4264L23.7931 18.4623L23.9125 18.5042L24.2409 18.6718L24.4081 18.8752L24.4499 19.0428L24.4917 19.2882V19.4976L24.4499 19.5395L24.3245 19.4557L24.1215 19.2463L24.3245 19.2044L24.2827 18.9171L24.1932 18.8154L24.1096 18.7795L24.0976 18.8513L24.1514 18.971L24.0379 19.0428H23.8707L23.7513 18.959L23.6677 18.7136V18.6718L23.5841 18.6299L23.4587 18.6718L23.5005 18.8752L23.7095 19.1685L23.8289 19.2882L23.8707 19.4138L23.8289 19.6173L23.7095 19.8268L23.5841 19.9883L23.4587 20.114L23.2975 20.1559L23.1721 20.1978L23.2139 20.2397ZM25.1486 23.2499L25.3516 23.0405L25.3158 23.1242L25.1904 23.4534V23.6628L25.274 23.7825L25.477 23.8244L25.8054 23.8663H25.889L25.8472 23.9082L25.6024 24.0339L25.3934 24.0758L25.1904 23.992L25.065 23.8663L25.0232 23.7047V23.4534L25.1486 23.2499ZM23.8707 23.3337L23.9543 23.1661V22.9986L23.8707 22.7532L23.7931 22.5497L23.7513 22.3822L23.7931 22.2984L23.8289 22.3822L23.9125 22.5078L24.1215 22.5916L24.1991 22.6275L24.2409 22.7113L24.1991 22.9627L24.0797 23.208L23.8707 23.3696V23.3337ZM19.1415 23.9082L19.1833 24.0339V24.2793L18.9743 24.5246L18.9325 24.4049L19.0161 24.2374L19.0579 24.1955L18.9325 24.1536L18.6877 24.1117L18.401 24.0758L18.2338 23.9501V23.9082L18.2756 23.8663L18.401 23.7825L18.6041 23.7406H18.813L19.0161 23.7825L19.1415 23.9082ZM21.2374 21.9692L21.3628 21.8854L21.4464 21.8076L21.53 21.8436L21.6494 21.9692L21.6912 22.1787V22.3822L21.6076 22.5916L21.4882 22.7532L21.53 22.9627L21.6912 23.1242L21.8166 23.1661H22.0196L22.1032 23.208L21.936 23.2918V23.3696L21.9002 23.5372L21.733 23.621L21.5658 23.6628H21.4882H21.2374L21.118 23.5372L21.0762 23.3696V23.208V22.837L21.0344 22.6275L20.909 22.4659L20.8254 22.3822L20.7836 22.2565L20.8254 22.0949L20.909 21.9692H21.0762H21.2374ZM22.1868 22.1368L22.2704 21.9692L22.348 21.8076L22.3898 21.7239L22.4316 21.7658V22.2146L22.4734 22.3822L22.557 22.5078L22.6765 22.5916L22.8019 22.7113L23.0108 22.9208L23.0526 23.0823L23.0108 23.2918L22.969 23.2499V23.1242L22.8854 22.9986L22.7601 22.8789L22.4734 22.7113L22.2704 22.5078L22.1868 22.2565V22.1368ZM18.2756 21.6401L18.3174 21.7239L18.2756 21.682V21.6401ZM22.9452 19.3241L23.0288 19.4198L23.0108 19.4138L22.9452 19.3241ZM19.1833 16.1583L19.1415 16.6909L19.1833 16.7747L19.2251 16.8165H19.5953L19.6371 16.8584L19.5953 16.9781L19.3863 17.2714L19.3027 17.3911L19.2669 17.5167L19.4281 17.6783L19.5953 17.7202L19.7565 17.6424L20.1267 17.5167H20.4133L20.4969 17.4748L20.5387 17.433L20.4969 17.3492V17.2714L20.3775 17.1876L20.1267 17.0619L19.8819 16.9003L19.7983 16.8584V16.8165H19.8819L20.0849 16.8584L20.5805 17.02L20.7477 17.0619L20.8254 16.9362L20.8672 16.8165L20.9508 16.7328L21.0344 16.8165L21.1956 17.1457L21.4046 17.2295L21.6494 17.2714L21.936 17.3492L22.145 17.4748L22.1868 17.7202L22.2286 17.9716L22.4316 18.1331L22.5988 18.3426L22.7601 18.6299L22.8436 19.0847L22.9272 19.2882L22.9452 19.3241L22.8854 19.2463L22.6765 18.8333L22.5988 18.9171L22.557 19.0428L22.5152 19.2044L22.4316 19.3719L22.2704 19.4138L22.0196 19.4976L21.8584 19.6173L21.7748 19.7849L21.8584 19.8687L22.0196 19.9105L22.348 19.8687L22.557 19.7849L22.7183 19.743H22.9272L23.0526 19.8687L23.0885 20.0302V20.114L23.1303 20.1559L23.2139 20.114L23.4229 19.9883L23.5841 19.7849L23.6259 19.5754L23.5841 19.4557L23.5005 19.5754L23.3811 19.6173L23.1303 19.5395L23.0288 19.4198L23.3393 19.4976H23.4587L23.5423 19.4557L23.6259 19.2463L23.5423 19.0847L23.4587 19.0009L23.3393 18.8752L23.1303 18.6299L23.0108 18.3007L23.0526 18.0135L23.1303 17.7202L23.0885 17.5167L22.969 17.3073L22.8854 17.0619V16.8584L22.9272 16.7747L22.969 16.8584L23.0526 17.02L23.1721 17.2295L23.2975 17.3492L23.4229 17.433L23.5005 17.4748L23.5423 17.7202H23.7095L23.7931 17.6005L23.8289 17.5167H23.9125L24.0797 17.6783L24.3245 17.7621H24.4081V17.6783L24.3245 17.6005L24.1215 17.2295L23.9125 16.7328L23.7095 16.1942L23.4587 15.7812L23.1303 15.5359L22.8019 15.4102L22.5152 15.3324L22.3062 15.2067L22.1868 15.1229L21.9778 15.081H21.4882L20.909 15.1229L20.4133 15.081L20.1685 15.0391L19.9237 15.081L19.3863 15.2486L18.9325 15.5359L18.5623 15.7812L18.6877 15.9069L19.0579 15.7453L19.3027 15.7034L19.3445 15.7453L19.3027 15.7812L19.2251 15.9069L19.1833 16.1583ZM16.6694 16.9362V17.1038L16.753 17.2714V17.3073H16.5917L16.5499 17.433L16.5917 17.6005L16.6694 17.7202L16.7948 17.7621H16.753L16.6335 17.804L16.5081 17.7621L16.3827 17.6783V17.7621L16.4245 17.8878L16.4663 18.1331L16.3827 18.3426L16.2215 18.4623L16.0543 18.6718L15.9707 18.9171L15.9289 19.33L15.8871 19.5395L15.7677 19.743L15.5169 20.2397L15.3975 20.5688L15.3139 21.0237V21.5982L15.4393 22.2984L15.5169 22.6275L15.5587 22.8789C15.5886 22.9926 15.6065 23.0584 15.6125 23.0823C15.6005 23.0464 15.5826 22.9387 15.5587 22.7951L15.5169 22.3822V21.8854L15.6005 21.3947L15.7677 21.0237L15.9289 20.7304L16.0543 20.4851V20.0302L16.0125 19.9105L16.0543 19.743L16.1379 19.5395L16.2992 19.1685L16.3409 18.959L16.2992 18.8333V18.7974L16.3409 18.8752L16.6694 19.2044L16.7948 19.2882L16.8366 19.2044V19.0428L16.6335 18.5042L16.5917 18.3426L16.6335 18.3007L16.753 18.2588L16.8784 18.175L17.2068 17.6005L17.3322 17.433L17.4098 17.02V16.9362H17.5352L17.7442 16.9003L17.8636 16.7747L17.9472 16.6071L17.989 16.3198V15.9488L17.9054 15.8231L17.7442 16.1164L17.5352 16.2779L17.4098 16.3617L17.2486 16.4036L17.0038 16.3198L16.8366 16.1583L16.753 16.1164V16.2779L16.7948 16.4455L17.0038 16.649L17.0814 16.7328V16.7747L16.962 16.8165L16.7948 16.7747L16.6694 16.7328L16.6335 16.7747L16.6694 16.9362ZM16.2215 17.1038L16.3827 16.9003L16.4245 16.6909L16.4663 16.4455V16.1942L16.5081 16.0326L16.5917 15.9069H16.9202L17.2068 15.9488H17.3322L17.4516 15.865L17.5352 15.7034L17.4516 15.4521L17.3322 15.2067L16.8784 15.3324L16.3827 15.6615L15.9289 16.1583L15.4811 16.8165L15.0691 17.5586L14.6989 18.3426L14.4063 19.1685L14.2032 19.9465L14.0778 20.7723C14.3286 26.0626 14.5735 21.8854 14.4899 21.1015L14.4481 20.4013L14.5317 19.743L14.6989 19.1685L14.6571 20.0302L14.6989 20.8561L14.8183 21.5563L14.9437 22.0949L15.0691 22.4659L15.1467 22.5497L15.1885 22.5078V22.3822L15.1467 22.1787L15.0691 21.8854L14.9855 21.1853L15.0273 20.4851L15.1885 19.8268L15.3975 19.2044L15.6005 18.6299L15.8095 18.1331L15.9707 17.7202L16.0125 17.4748V17.3073L16.0543 17.2295L16.2215 17.1038ZM21.7151 12.9326C21.2314 12.4718 19.8819 13.8003 19.3923 13.3395C19.3206 11.6818 19.3326 11.4724 20.1208 10.1318C20.2402 9.94631 20.3477 9.76678 20.4432 9.59921C21.8882 7.03185 20.6283 6.02046 20.3656 4.00966C20.9687 6.17606 22.4734 6.31969 21.739 9.81465C21.7031 9.97025 21.5957 10.3592 21.6434 10.2396L21.7987 9.8745C23.6916 4.94325 19.7147 6.05039 20.5268 2.07666C18.5264 5.79305 23.0765 5.73321 19.0638 10.443C18.4189 11.1971 18.4667 12.4957 18.61 13.4233L18.5384 13.4473L18.4488 13.4892L18.2159 13.6567C17.4516 13.1241 16.5141 12.2863 16.4126 11.3228C15.7379 5.17066 12.6627 8.52798 11.3311 4.52433C11.4505 8.74342 15.3676 6.41544 14.2391 12.5017C14.0122 13.6986 15.1049 15.087 15.702 15.7453C14.8063 15.7274 13.0866 15.5658 12.376 14.5963C8.72759 9.59921 7.73637 14.0577 4.58951 11.2509C6.79888 14.8476 9.02616 10.8679 11.0862 16.7088C11.4863 17.8519 13.1284 18.5102 13.9704 18.7795C13.1881 19.2163 11.6177 19.9345 10.519 19.4497C4.86419 16.9542 6.23161 21.3049 2.10547 20.4611C5.81362 22.4659 5.75391 17.9057 10.4533 21.9273C11.349 22.6934 13.015 22.4779 13.9047 22.2924L13.9106 22.3941C13.421 23.1841 12.4656 24.4648 11.3311 24.5845C5.19261 25.2607 8.54249 28.3427 4.54771 29.6773C8.75745 29.5576 6.43463 25.6318 12.5074 26.7628C13.7017 26.9902 15.087 25.8951 15.7438 25.2966C15.7259 26.1943 15.5647 27.9178 14.5973 28.63C9.61134 32.2866 14.0599 33.28 11.2594 36.4338C14.8481 34.2196 10.8772 31.9873 16.7052 29.9227C17.4516 29.6593 17.995 28.8574 18.3533 28.1034C18.3951 28.1692 18.4369 28.235 18.4846 28.3009C18.5563 28.3966 18.6339 28.4744 18.7235 28.5522C19.2251 29.001 19.446 29.1566 19.5177 29.8927L19.4938 30.3535C19.7147 29.7671 19.655 29.2823 19.7207 28.6599C19.8461 28.8814 20.1387 29.4678 20.1864 29.5516L20.4731 30.0902L20.7239 30.4673L20.8672 30.6169L21.0284 30.6647L21.1239 30.6468C21.0463 30.8323 20.9209 31.0956 20.7418 31.3829C20.6044 31.6163 20.3715 31.9754 20.1626 32.3763C19.3027 34.064 20.4253 35.1112 20.6343 36.4937C20.067 35.7037 20.0431 35.6618 19.6729 35.2668C19.2967 34.8719 18.9683 33.9263 18.9026 33.0705C18.8429 32.2447 18.9623 31.6701 19.237 30.9819C17.2068 36.0807 21.2672 34.9138 20.4492 38.9234C22.3242 35.4464 18.4488 35.2728 21.2434 31.4008L21.2792 31.329C21.9659 30.4194 22.4436 29.9047 22.4555 28.7018L22.5391 28.6839L22.7302 28.5881L22.8496 28.4086L22.778 28.2709L22.6347 28.1752L22.4555 28.0854L21.9898 28.0016C20.8851 27.858 21.315 27.08 22.3003 27.074L22.4675 27.1159C22.8377 27.3613 24.4081 28.2111 24.5634 29.6773C25.2381 35.8294 28.3133 32.4721 29.6449 36.4757C29.5255 32.2566 25.6083 34.5846 26.7369 28.4983C26.8086 28.1094 26.7429 27.6964 26.5996 27.3014C26.5936 28.2649 26.4622 28.6121 26.3727 29.1806C26.2831 29.7551 26.2055 30.8024 26.3547 31.329C26.504 31.8557 26.5219 32.5918 26.9698 32.9508C27.4176 33.3099 27.4355 33.3279 28.2118 34.2555C27.7819 33.9383 27.1489 33.7288 27.1489 33.7288C27.1489 33.7288 27.137 33.7288 26.6414 33.3997C26.1458 33.0705 25.8472 32.7414 25.5904 32.2566C25.3396 31.7779 25.1605 31.2512 25.1605 30.7425C25.1605 30.2339 24.9157 28.8395 24.5455 28.1453C24.2947 27.6845 24.1394 27.475 24.0678 27.3852L24.2051 27.2715L24.5693 27.068L24.8201 26.8586L24.8858 26.8945C25.1665 27.0321 25.2919 26.9723 25.5188 26.7748C25.6561 26.715 26.0084 26.5474 26.0562 26.4157C26.0681 26.3798 26.0801 26.3379 26.092 26.302C26.1458 26.0686 26.1278 25.8292 26.2712 25.554L26.1099 25.8053L25.9845 26.0626L25.9427 26.1883L25.9069 26.2661L25.7935 26.4097L25.7158 26.4636L25.7397 26.4277L25.877 26.2482L25.9248 25.8412L25.883 25.6736V25.2847C26.8086 25.3684 28.0267 25.6258 28.5999 26.4038C32.2484 31.3949 33.2396 26.9424 36.3865 29.7431C34.1771 26.1524 31.9498 30.1321 29.8897 24.2912C29.6688 23.6569 29.0657 23.1721 28.4268 22.819C29.0358 23.3337 29.7524 24.1177 29.9196 24.8777C30.1286 25.8412 30.5287 26.2541 31.287 27.3373C32.0454 28.4265 34.9175 28.6121 34.3264 28.5402C33.7412 28.4624 33.3411 28.6719 32.332 28.6719C31.3228 28.6719 30.5048 28.1393 29.7464 27.2236C28.9881 26.308 28.6059 25.7933 27.9192 25.3206C27.3579 24.9256 26.9519 24.746 26.6593 24.5605L26.6653 24.5306C26.6891 24.1536 26.4563 23.9022 26.4085 23.5791C26.3547 23.1482 26.2592 22.6993 25.9368 22.3881C25.7397 22.1966 25.5128 22.0231 25.3695 21.7837L25.3038 21.6221L25.2919 21.5383C25.3277 21.1254 25.3396 20.7065 25.2322 20.2936C25.3993 19.9046 25.7696 19.8028 26.2771 19.9764C27.3042 20.3355 27.143 19.4318 27.5609 19.2582C27.9789 19.0847 28.4925 18.8992 29.4777 19.2044C30.4689 19.5036 30.9228 20.0781 31.6095 20.3833C32.2962 20.6885 33.777 21.3169 34.4219 21.1434C35.0728 20.9758 35.6759 20.5569 36.2491 20.4192C34.822 21.6999 33.9323 22.041 33.2993 22.059C32.6723 22.0769 31.4363 21.6221 30.9466 21.3528C30.451 21.0895 29.7106 21.2212 28.8507 21.4785C29.4061 21.3528 29.9793 21.3349 30.457 21.5503C36.1118 24.0459 34.7444 19.6891 38.8705 20.5389C35.1624 18.5341 35.2221 23.0943 30.5227 19.0727C29.6031 18.2828 27.8535 18.5341 26.9877 18.7256C27.4535 17.9536 28.4507 16.5413 29.6449 16.4156C35.7834 15.7393 32.4335 12.6573 36.4283 11.3228C32.2185 11.4424 34.5413 15.3683 28.4686 14.2372C28.2178 14.1893 27.961 14.2013 27.7043 14.2492C27.6207 14.2671 27.5132 14.2671 27.6684 14.2911C27.8834 14.321 28.4447 14.3988 28.9403 14.4946C29.5673 14.6202 30.242 14.8237 30.9884 14.6382C31.7408 14.4586 32.535 14.333 32.9828 13.8482C33.4307 13.3575 33.2456 13.1241 34.2786 12.2982C33.9562 12.6034 33.568 13.4772 33.162 14.2552C32.7559 15.0272 32.1708 15.2067 31.4781 15.5778C30.7854 15.9428 29.7106 15.7812 29 15.9249C28.2894 16.0625 27.8237 16.7747 27.1907 17.3851C26.8325 17.7382 26.5578 17.8459 26.3906 17.8698V17.8638L26.086 17.7382L25.8114 17.5766L25.6322 17.397L25.5964 17.1038L25.6322 16.9243L25.7517 16.7208L25.8412 16.4575V16.1463L25.7576 15.8052L25.6263 15.494L25.5606 15.4162L25.4113 15.2426L25.262 15.093L25.1904 15.0212L24.8739 14.8835H24.7306L24.7186 14.8057L24.7724 14.5604L24.8142 14.2671V14.0038L24.7664 13.8123L24.5932 13.555L24.3305 13.1181L24.0737 13.0643L23.811 13.172L23.7573 13.3395V13.4772L23.7991 13.8841L23.7573 14.1475L23.6498 14.333L23.5542 14.4048L23.184 14.1834L23.0944 13.3515C23.0944 13.3515 23.3273 12.3341 23.8826 11.9033C24.4439 11.4724 26.0263 11.1552 26.7548 10.455C27.0355 10.1857 27.3221 9.83859 27.5729 9.49747C28.3372 8.4442 28.1222 8.16891 28.2238 7.00193C28.2596 6.58301 28.3611 6.18205 28.588 5.8888C28.4327 6.91216 28.6656 7.82181 28.7492 8.82721C28.8149 9.62913 28.4626 10.2994 28.4148 10.3892C29.8241 8.20482 27.5012 7.06177 29.7106 4.56622C26.1278 6.7805 30.0987 9.01273 24.2708 11.0774C23.4527 11.3646 22.8854 12.2922 22.5272 13.1002L22.2465 12.9865L21.8226 12.9446L21.7151 12.9326ZM24.5693 22.7712L24.6768 22.8789L24.5753 22.9806L24.5395 22.7951L24.5693 22.7712Z" fill="#202218"/>
<path fill-rule="evenodd" clip-rule="evenodd" d="M45.0977 27.7503V23.6689H46.1068C46.9368 22.7592 47.3548 21.1135 47.3548 18.7077V12.2324H54.7651V23.6689H56.1206V27.7503H53.7082V25.8173H47.51V27.7503H45.0977ZM48.6147 23.6689H52.3587V14.3809H49.7612V18.7017C49.7612 19.5755 49.6716 20.4791 49.4925 21.3948C49.3074 22.3164 49.0148 23.0704 48.6147 23.6689ZM57.2074 25.8173V15.5958H59.6198V21.5563L61.0349 18.9531L62.9756 15.5958H65.2447V25.8173H62.8323V19.8328L61.5664 22.1548L59.4645 25.8173H57.2074ZM66.8987 25.8173V15.5598H70.7203C71.192 15.5598 71.616 15.6017 71.9982 15.6975C72.3744 15.7873 72.7147 15.9309 73.0312 16.1284C73.3417 16.3259 73.5806 16.6012 73.7537 16.9423C73.9269 17.2954 74.0105 17.7083 74.0105 18.1871C74.0105 18.6419 73.897 19.0428 73.6701 19.3959C73.4432 19.737 73.1148 19.9944 72.6849 20.1619C73.2462 20.2876 73.6641 20.5749 73.9627 21.0297C74.2493 21.4845 74.3986 22.0171 74.3986 22.6156C74.3986 23.1422 74.327 23.603 74.1896 23.9861C74.0523 24.3691 73.8672 24.6803 73.6403 24.9137C73.4134 25.1411 73.1208 25.3266 72.7565 25.4642C72.3982 25.6019 72.028 25.6916 71.6518 25.7395C71.2697 25.7934 70.8338 25.8173 70.3382 25.8173H66.8987ZM69.3111 23.7527H70.368C70.9174 23.7527 71.3294 23.6749 71.5921 23.5252C71.8549 23.3756 71.9862 23.0644 71.9862 22.5857C71.9862 22.3822 71.9564 22.2087 71.9026 22.059C71.8429 21.9154 71.7653 21.7957 71.6697 21.7179C71.5802 21.6282 71.4608 21.5683 71.3055 21.5144C71.1562 21.4666 71.0069 21.4366 70.8636 21.4187C70.7084 21.4067 70.5352 21.4007 70.3322 21.4007H69.3111V23.7527ZM69.3111 19.4139H70.4874C70.8517 19.4139 71.1264 19.3241 71.3115 19.1386C71.5026 18.9591 71.5981 18.7316 71.5981 18.4623C71.5981 18.217 71.5085 18.0075 71.3354 17.822C71.1622 17.6365 70.8756 17.5407 70.4695 17.5407H69.3111V19.4139ZM75.5451 23.0166C75.5451 20.6467 77.4619 19.5934 81.2894 19.8567C81.2894 19.0428 81.176 18.4504 80.9551 18.0853C80.7341 17.7143 80.3161 17.5347 79.713 17.5347C79.1756 17.5347 78.7994 17.6425 78.5845 17.8579C78.3695 18.0733 78.268 18.4564 78.274 19.0009H75.8616C75.7899 17.7502 76.0765 16.8345 76.7334 16.254C77.3842 15.6795 78.3695 15.3863 79.6951 15.3863C81.0804 15.3863 82.0896 15.7214 82.7345 16.3857C83.3794 17.056 83.7018 18.0674 83.7018 19.4318V25.8173H81.6417L81.3969 24.6204C81.0984 25.0333 80.7043 25.3565 80.2266 25.5959C79.7429 25.8293 79.2174 25.955 78.6501 25.955C77.7246 25.955 76.9782 25.6976 76.405 25.1949C75.8317 24.6862 75.5451 23.9561 75.5451 23.0166ZM77.9575 22.8251C77.9575 23.4355 78.4292 23.7347 79.3727 23.7347C79.713 23.7347 80.0116 23.6808 80.2564 23.5671C80.5012 23.4594 80.6923 23.2978 80.8297 23.0944C80.967 22.8849 81.0745 22.6695 81.1402 22.448C81.2118 22.2266 81.2596 21.9693 81.2894 21.688C80.125 21.5683 79.2771 21.6102 78.7457 21.8316C78.2202 22.0471 77.9575 22.3822 77.9575 22.8251ZM85.3917 25.8173V15.5958H87.8041V21.5563L89.2193 18.9531L91.1599 15.5958H93.429V25.8173H91.0166V19.8328L89.7507 22.1548L87.6488 25.8173H85.3917ZM86.5023 12.1846H88.4251C88.4311 12.5077 88.5266 12.7232 88.7057 12.8369C88.8909 12.9566 89.1655 13.0164 89.5178 13.0164C89.8701 13.0164 90.1269 12.9566 90.3001 12.8369C90.4732 12.7172 90.5628 12.5018 90.5628 12.1846H92.5453C92.5333 13.1182 92.2825 13.7944 91.8048 14.2073C91.3271 14.6143 90.5628 14.8178 89.5178 14.8178C88.4729 14.8178 87.7145 14.6143 87.2368 14.2073C86.7651 13.7944 86.5203 13.1182 86.5023 12.1846ZM95.1547 25.8173V15.5958H97.5671V19.4558H100.78V15.5958H103.186V25.8173H100.78V21.5204H97.5671V25.8173H95.1547ZM108.375 25.8173L108.465 23.4714C108.847 23.4953 109.169 23.4355 109.438 23.2799C109.707 23.1243 109.904 22.9507 110.035 22.7592C110.166 22.5737 110.262 22.2685 110.34 21.8496C110.417 21.4307 110.459 21.1195 110.471 20.916C110.483 20.7125 110.489 20.3714 110.489 19.8926C110.489 19.737 110.489 19.6114 110.489 19.5336V12.2324H118.634V25.8173H116.221V14.4467H113.021L112.901 19.5216C112.883 20.3894 112.842 21.1135 112.782 21.688C112.722 22.2625 112.603 22.855 112.424 23.4714C112.244 24.0818 111.994 24.5546 111.677 24.8897C111.361 25.2189 110.925 25.4762 110.375 25.6617C109.826 25.8413 109.157 25.8951 108.375 25.8173ZM120.27 23.0166C120.27 20.6467 122.181 19.5934 126.014 19.8567C126.014 19.0428 125.901 18.4504 125.68 18.0853C125.459 17.7143 125.041 17.5347 124.438 17.5347C123.894 17.5347 123.524 17.6425 123.309 17.8579C123.094 18.0733 122.993 18.4564 122.999 19.0009H120.586C120.515 17.7502 120.801 16.8345 121.452 16.254C122.103 15.6795 123.094 15.3863 124.42 15.3863C125.799 15.3863 126.814 15.7214 127.459 16.3857C128.104 17.056 128.427 18.0674 128.427 19.4318V25.8173H126.36L126.122 24.6204C125.817 25.0333 125.429 25.3565 124.951 25.5959C124.468 25.8293 123.942 25.955 123.369 25.955C122.449 25.955 121.703 25.6976 121.124 25.1949C120.55 24.6862 120.27 23.9561 120.27 23.0166ZM122.682 22.8251C122.682 23.4355 123.154 23.7347 124.097 23.7347C124.438 23.7347 124.73 23.6808 124.975 23.5671C125.22 23.4594 125.417 23.2978 125.554 23.0944C125.692 22.8849 125.793 22.6695 125.865 22.448C125.931 22.2266 125.984 21.9693 126.014 21.688C124.85 21.5683 124.002 21.6102 123.47 21.8316C122.945 22.0471 122.682 22.3822 122.682 22.8251ZM130.116 25.8173V15.5958H132.529V21.5563L133.938 18.9531L135.879 15.5958H138.148V25.8173H135.735V19.8328L134.469 22.1548L132.368 25.8173H130.116ZM131.221 12.1846H133.15C133.15 12.5077 133.245 12.7232 133.43 12.8369C133.616 12.9566 133.884 13.0164 134.243 13.0164C134.589 13.0164 134.852 12.9566 135.025 12.8369C135.198 12.7172 135.282 12.5018 135.282 12.1846H137.27C137.252 13.1182 137.001 13.7944 136.53 14.2073C136.046 14.6143 135.288 14.8178 134.243 14.8178C133.192 14.8178 132.433 14.6143 131.962 14.2073C131.49 13.7944 131.239 13.1182 131.221 12.1846ZM138.972 17.6724V15.6077H145.97V17.6724H143.665V25.8173H141.253V17.6724H138.972Z" fill="#202218"/>
<path fill-rule="evenodd" clip-rule="evenodd" d="M49.9456 33.8243L49.45 33.3336C49.2291 33.555 49.0738 33.6866 48.7454 33.6866C48.1542 33.6866 47.8497 33.2737 47.8497 32.4658C47.8497 31.6699 48.1542 31.2509 48.7454 31.2509C49.0678 31.2509 49.235 31.3826 49.45 31.598L49.9456 31.1193C49.7187 30.8859 49.5993 30.8081 49.4082 30.7183C49.2171 30.6405 49.0022 30.5986 48.7514 30.5986C47.7303 30.5986 47.1152 31.2988 47.1152 32.4538C47.1152 33.6448 47.7243 34.3449 48.7514 34.3449C49.0022 34.3449 49.2111 34.3031 49.4082 34.2193C49.5993 34.1355 49.7187 34.0517 49.9456 33.8243ZM55.4332 33.2677C55.4332 32.8488 55.2302 32.5735 54.8659 32.406C55.2003 32.2504 55.3735 31.987 55.3735 31.622C55.3735 31.0295 54.9436 30.6405 54.2748 30.6405H52.5252V34.2971H54.3345C55.0152 34.2971 55.4332 33.9021 55.4332 33.2677ZM54.6569 31.6699C54.6569 31.9751 54.4659 32.1426 54.1135 32.1426H53.2537V31.215H54.1135C54.4599 31.215 54.6569 31.3826 54.6569 31.6699ZM54.7107 33.2139C54.7107 33.5251 54.5017 33.7285 54.1613 33.7285H53.2537V32.7112H54.1613C54.5017 32.7112 54.7107 32.8967 54.7107 33.2139ZM61.076 32.6872V32.3581C61.076 31.2809 60.4789 30.5986 59.5355 30.5986C58.5801 30.5986 57.9889 31.3048 57.9889 32.4538C57.9889 33.6926 58.5502 34.3449 59.6429 34.3449C60.2281 34.3449 60.5804 34.1774 60.9924 33.7704L60.5327 33.3336C60.2699 33.5849 60.043 33.7166 59.6728 33.7166C58.9921 33.7166 58.7293 33.3036 58.7174 32.6872H61.076ZM60.3595 32.1726H58.7174C58.7293 31.6639 58.9443 31.2091 59.5355 31.2091C60.1326 31.2091 60.3237 31.6699 60.3595 32.1726ZM66.2889 31.2809V30.6405H63.2794V31.2809H64.4438V34.2971H65.1723V31.2809H66.2889ZM75.0607 34.2971V30.6405H72.1348V34.2971H72.8693V31.2809H74.3263V34.2971H75.0607ZM80.823 32.4538C80.823 31.7536 80.6976 31.3467 80.399 31.0295C80.1244 30.7482 79.7422 30.5986 79.3003 30.5986C78.8644 30.5986 78.4882 30.7482 78.2135 31.0295C77.903 31.3527 77.7836 31.7536 77.7836 32.4658C77.7836 33.1899 77.903 33.5849 78.2135 33.9081C78.4882 34.1893 78.8644 34.3449 79.3003 34.3449C79.7422 34.3449 80.1244 34.1893 80.399 33.9081C80.7036 33.5849 80.823 33.1899 80.823 32.4538ZM80.0945 32.4778C80.0945 32.9087 80.0408 33.2318 79.8736 33.4413C79.7422 33.5909 79.5451 33.6866 79.3003 33.6866C79.0734 33.6866 78.8823 33.6029 78.7569 33.4533C78.5897 33.2677 78.5181 32.9805 78.5181 32.4957C78.5181 32.0589 78.5599 31.7237 78.739 31.4963C78.8704 31.3467 79.0555 31.2509 79.3003 31.2509C79.5451 31.2509 79.7362 31.3467 79.8616 31.4903C80.0527 31.6998 80.0945 32.023 80.0945 32.4778ZM86.7584 34.2971L85.3134 32.1426L86.645 30.6405H85.7433L84.2923 32.376V30.6405H83.5578V34.2971H84.2923V33.2737L84.8178 32.6753L85.8627 34.2971H86.7584ZM91.9654 30.6405H91.1831L90.3352 33.2258L89.4634 30.6405H88.6752L89.959 34.1235L89.756 34.704C89.6485 35.0152 89.5351 35.087 89.2305 35.087H89.0454V35.7513H89.338C89.8635 35.7513 90.174 35.5239 90.3531 35.0272L91.9654 30.6405ZM97.2499 34.2971V30.6405H94.33V34.2971H95.0644V31.2809H96.5155V34.2971H97.2499ZM102.833 34.2971V31.8494C102.833 31.0235 102.32 30.5986 101.304 30.5986C100.958 30.5986 100.701 30.6405 100.492 30.7423C100.313 30.8201 100.218 30.9098 100.015 31.1253L100.498 31.5801C100.606 31.4425 100.689 31.3706 100.797 31.3168C100.922 31.2509 101.077 31.227 101.286 31.227C101.86 31.227 102.105 31.4245 102.105 31.9033V32.1726H101.125C100.349 32.1726 99.8713 32.5675 99.8713 33.2318C99.8713 33.938 100.325 34.333 101.137 34.333C101.573 34.333 101.812 34.2671 102.111 33.9679V34.2971H102.833ZM102.105 32.9805C102.105 33.5131 101.872 33.7285 101.304 33.7285C100.809 33.7285 100.588 33.561 100.588 33.2079C100.588 32.8608 100.809 32.6872 101.239 32.6872H102.105V32.9805ZM110.106 32.4538C110.106 31.8075 109.987 31.3946 109.724 31.0774C109.455 30.7602 109.067 30.5986 108.583 30.5986C108.195 30.5986 107.849 30.7183 107.592 30.9457C107.288 31.2031 107.114 31.5861 107.079 32.1127H106.428V30.6405H105.693V34.2971H106.428V32.7411H107.079C107.102 33.3156 107.282 33.7226 107.598 33.9978C107.849 34.2193 108.195 34.3449 108.583 34.3449C109.025 34.3449 109.407 34.1893 109.682 33.9081C109.987 33.5849 110.106 33.178 110.106 32.4538ZM109.378 32.4658C109.378 32.9506 109.312 33.2318 109.163 33.4173C109.025 33.5909 108.822 33.6866 108.583 33.6866C108.345 33.6866 108.147 33.5969 108.01 33.4233C107.855 33.2258 107.801 32.9506 107.801 32.4598C107.801 31.9691 107.855 31.6998 108.016 31.5083C108.153 31.3407 108.356 31.2509 108.583 31.2509C108.822 31.2509 109.025 31.3407 109.157 31.5083C109.312 31.6998 109.378 31.9691 109.378 32.4658ZM115.337 31.2809V30.6405H112.327V31.2809H113.486V34.2971H114.22V31.2809H115.337ZM123.941 30.6405H123.159L122.311 33.2258L121.439 30.6405H120.651L121.935 34.1235L121.732 34.704C121.625 35.0152 121.511 35.087 121.207 35.087H121.021V35.7513H121.314C121.84 35.7513 122.15 35.5239 122.329 35.0272L123.941 30.6405ZM132.683 34.2971V30.6405H131.949V32.0948H130.498V30.6405H129.763V34.2971H130.498V32.7411H131.949V34.2971H132.683ZM138.266 34.2971V31.8494C138.266 31.0235 137.753 30.5986 136.738 30.5986C136.392 30.5986 136.135 30.6405 135.926 30.7423C135.747 30.8201 135.651 30.9098 135.448 31.1253L135.932 31.5801C136.039 31.4425 136.117 31.3706 136.224 31.3168C136.356 31.2509 136.505 31.227 136.714 31.227C137.293 31.227 137.538 31.4245 137.538 31.9033V32.1726H136.559C135.782 32.1726 135.305 32.5675 135.305 33.2318C135.305 33.938 135.759 34.333 136.571 34.333C137.007 34.333 137.239 34.2671 137.544 33.9679V34.2971H138.266ZM137.538 32.9805C137.538 33.5131 137.305 33.7285 136.738 33.7285C136.242 33.7285 136.015 33.561 136.015 33.2079C136.015 32.8608 136.242 32.6872 136.672 32.6872H137.538V32.9805ZM143.766 33.8243L143.27 33.3336C143.044 33.555 142.894 33.6866 142.56 33.6866C141.975 33.6866 141.67 33.2737 141.67 32.4658C141.67 31.6699 141.975 31.2509 142.56 31.2509C142.888 31.2509 143.049 31.3826 143.27 31.598L143.766 31.1193C143.533 30.8859 143.42 30.8081 143.223 30.7183C143.038 30.6405 142.823 30.5986 142.572 30.5986C141.545 30.5986 140.936 31.2988 140.936 32.4538C140.936 33.6448 141.539 34.3449 142.572 34.3449C142.823 34.3449 143.032 34.3031 143.223 34.2193C143.42 34.1355 143.533 34.0517 143.766 33.8243Z" fill="#727271"/>
</svg>
