<svg width="138" height="72" viewBox="0 0 138 72" fill="none" xmlns="http://www.w3.org/2000/svg">
<path d="M14.2034 1.59375C24.7356 5.58017 46.3239 16.4454 46.2929 32.7891C46.2723 43.684 36.156 50.0392 19.9858 45.9569C17.4302 45.3118 15.5514 43.4159 15.8645 41.0832C16.0881 39.4166 17.6025 37.0952 22.1641 38.3609C30.2622 40.6078 36.8319 38.4121 36.7578 30.9907C36.6423 19.4297 22.2345 12.2414 15.4202 8.94608C11.6278 7.11215 13.2293 3.77115 14.2034 1.59375Z" fill="#D50759"/>
<path d="M32.3301 70.7095C21.7966 66.7265 0.204821 55.8682 0.230492 39.5246C0.247606 28.6296 10.3618 22.2712 26.5334 26.3482C29.0892 26.9925 30.9686 28.8878 30.6563 31.2206C30.4331 32.8872 28.9195 35.2092 24.3575 33.945C16.2587 31.7007 9.68972 33.8984 9.76624 41.3199C9.88544 52.8808 24.2955 60.0645 31.1109 63.3576C34.9039 65.1903 33.3035 68.5318 32.3301 70.7095Z" fill="#D50759"/>
<path d="M51.5781 37.3526V40.7217C52.5793 41.286 53.5276 41.6939 54.4231 41.9452C55.3185 42.1966 56.3002 42.3199 57.3682 42.3151C59.2685 42.291 60.8521 41.8992 62.119 41.1398C63.3859 40.3805 64.3361 39.3986 64.9696 38.194C65.603 36.9895 65.9197 35.7075 65.9197 34.3478C65.915 32.9446 65.5681 31.6384 64.8788 30.4291C64.1896 29.2198 63.186 28.2407 61.8683 27.4917C60.5505 26.7428 58.9466 26.3572 57.0564 26.335C56.0478 26.335 55.0921 26.4488 54.1892 26.6764C53.2864 26.9041 52.4754 27.2455 51.7563 27.7008V31.1609C52.5561 30.6762 53.3727 30.2911 54.2059 30.0056C55.0392 29.7201 55.9003 29.5741 56.7892 29.5674C57.7737 29.5731 58.6441 29.7552 59.4003 30.1137C60.1565 30.4723 60.802 30.9448 61.2431 31.6162C61.4905 31.9927 61.688 32.421 61.8357 32.8673H54.8955V35.6681H61.8221C61.6449 36.6669 61.1865 37.4807 60.447 38.1095C59.7074 38.7384 58.6812 39.0628 57.3682 39.0827C57.2977 39.0808 57.216 39.0732 57.1232 39.0599C57.0304 39.0466 56.9488 39.0391 56.8783 39.0372C55.9726 39.0324 55.1227 38.8826 54.3284 38.5876C53.5341 38.2926 52.6174 37.881 51.5781 37.3526Z" fill="#161616"/>
<path d="M73.6427 32.772H72.2596V26.5629H68.6816V42.0877H72.2596V35.6739H73.674C74.7789 35.6739 75.5416 36.5988 76.0499 37.7683C76.5582 38.9378 77.199 40.3776 77.9723 42.0877H82.1667C81.1848 39.9783 80.8221 39.1834 80.1842 37.7568C79.3835 35.8889 78.6918 35.0246 77.4111 34.2434C77.8341 33.5855 78.4016 33.0334 78.7238 32.2524C79.296 30.8654 79.6912 29.3327 81.3824 29.3118L81.587 26.5629C79.7692 26.2231 78.4724 26.5769 77.5886 27.5252C75.8653 29.3741 75.4182 32.772 73.6427 32.772Z" fill="#161616"/>
<path d="M98.035 37.3526C97.0037 37.881 96.0888 38.2926 95.2903 38.5876C94.4917 38.8826 93.631 39.0324 92.7079 39.0372C91.1425 39.0134 89.8775 38.5714 88.9129 37.7112C87.9484 36.8509 87.4521 35.7146 87.4242 34.3023C87.4503 32.89 87.9502 31.7537 88.9238 30.8934C89.8973 30.0332 91.1876 29.5911 92.7946 29.5674C93.7013 29.5741 94.5729 29.7201 95.4094 30.0056C96.2458 30.2911 97.0632 30.6762 97.8618 31.1609V27.7008C97.1417 27.2455 96.3297 26.9041 95.4256 26.6764C94.5215 26.4488 93.5579 26.335 92.5347 26.335C90.639 26.3572 89.0312 26.7428 87.7113 27.4917C86.3914 28.2407 85.3868 29.2198 84.6973 30.4291C84.0078 31.6384 83.6608 32.9446 83.6563 34.3478C83.6562 35.7075 83.9738 36.9895 84.6091 38.194C85.2443 39.3986 86.1971 40.3805 87.4675 41.1398C88.7379 41.8992 90.3259 42.291 92.2315 42.3151C93.3125 42.3199 94.3013 42.1966 95.1982 41.9452C96.0951 41.6939 97.0407 41.286 98.035 40.7217V37.3526Z" fill="#161616"/>
<path d="M109.038 32.299L104.329 26.5625H101.16V42.0874H104.8V32.39L108.739 37.2615H109.295L113.234 32.39V42.0874H116.874V26.5625H113.705L109.038 32.299Z" fill="#161616"/>
<path d="M136.635 34.3023C136.634 33.0286 136.319 31.787 135.688 30.5775C135.058 29.3679 134.117 28.3657 132.867 27.571C131.616 26.7762 130.06 26.3642 128.199 26.335C126.352 26.3642 124.803 26.7762 123.551 27.571C122.3 28.3657 121.356 29.3679 120.72 30.5775C120.084 31.787 119.765 33.0286 119.764 34.3023C119.768 35.6482 120.096 36.9274 120.749 38.1401C121.402 39.3527 122.355 40.3454 123.609 41.1179C124.863 41.8905 126.393 42.2896 128.199 42.3151C129.979 42.2904 131.496 41.8947 132.751 41.128C134.007 40.3614 134.966 39.3722 135.631 38.1603C136.295 36.9485 136.63 35.6625 136.635 34.3023ZM132.872 34.3023C132.853 35.7544 132.425 36.9021 131.59 37.7453C130.754 38.5885 129.624 39.0191 128.199 39.0372C126.775 39.0191 125.644 38.5885 124.809 37.7453C123.973 36.9021 123.546 35.7544 123.527 34.3023C123.546 32.8701 123.973 31.7281 124.809 30.8763C125.644 30.0246 126.775 29.5883 128.199 29.5674C129.624 29.5883 130.754 30.0246 131.59 30.8763C132.425 31.7281 132.853 32.8701 132.872 34.3023Z" fill="#161616"/>
</svg>
