<svg id="Слой_2" data-name="Слой 2" xmlns="http://www.w3.org/2000/svg" viewBox="0 0 758.35 125.77">
  <defs>
    <style>
      .cls-1 {
        stroke: #000;
        stroke-miterlimit: 10;
        stroke-width: 2px;
      }

      .cls-2 {
        fill: #94969a;
      }

      .cls-3 {
        fill: #324c9a;
      }
    </style>
  </defs>
  <g>
    <g>
      <polygon class="cls-1" points="256.77 12.56 211.08 12.56 211.08 64.27 230.41 64.27 230.41 28.91 256.77 28.91 256.77 12.56"/>
      <path class="cls-1" d="M289.27,56.9l-20.09,53.4h17.64l4.68-13.74h18.83l5.07,13.74h19.18L314.19,56.9Zm4.33,29.69,3.95-10.44c1.07-3.1,2.05-7.15,3-10.32h.2c1,3.17,2.14,7.15,3.31,10.32l4.06,10.44Z" transform="translate(-20.37 -44.38)"/>
      <path class="cls-1" d="M341.87,80c.59,8.64-.8,12.76-6.05,14.26l4.69,16.51c5.26,0,12.17-3.24,14.72-5.79,4.68-4.94,5-12,5-25.78V70.29h12v39.76H390V56.91h-48.1Z" transform="translate(-20.37 -44.38)"/>
      <polygon class="cls-1" points="523.54 12.55 505.54 12.55 505.54 50.97 489.76 50.97 489.76 12.5 470 12.5 469.77 65.92 508.42 65.92 508.39 74.48 526.67 74.45 526.67 50.89 523.54 50.92 523.54 12.55"/>
      <polygon class="cls-1" points="549.72 44.35 575.39 44.35 575.39 33.44 549.72 33.44 549.72 24 576.17 24 576.17 12.53 532.35 12.53 532.35 65.92 576.76 65.92 576.76 52.86 549.72 52.86 549.72 44.35"/>
      <polygon class="cls-1" points="619.41 32.96 603.37 32.96 603.37 12.54 584.85 12.54 584.85 64.4 603.11 64.4 603.11 45.23 618.89 45.23 618.89 64.53 637.53 64.53 637.53 12.55 619.41 12.55 619.41 32.96"/>
      <polygon class="cls-1" points="645.54 26.05 663.2 26.05 663.2 64.21 678.12 64.21 678.12 26.01 696.08 26.01 696.08 12.53 645.54 12.53 645.54 26.05"/>
      <path class="cls-1" d="M769,60.68C764.56,57.82,756.12,57,747,57s-15.57,0-24.11.65v51.84H742.6v-17a18.75,18.75,0,0,0,4,.24c8.78,0,18.9.44,24-3.45,3.9-3,7.14-7.34,7.14-14.9C777.72,69.18,773.14,63.38,769,60.68ZM746.5,83.48a27.58,27.58,0,0,1-5-.32V67.35a31.66,31.66,0,0,1,6.14-.47c7.42,0,11.61,2.94,11.61,7.86C759.28,80.22,754.41,83.48,746.5,83.48Z" transform="translate(-20.37 -44.38)"/>
      <path class="cls-1" d="M414.4,57,394.31,110.5H412l4.68-13.74h18.83l5.07,13.74h19.18L439.32,57Zm4.33,29.82,3.95-10.44c1.07-3.09,2.05-7.14,3-10.32h.2c1,3.18,2.14,7.15,3.31,10.32l4.06,10.44Z" transform="translate(-20.37 -44.38)"/>
    </g>
    <g>
      <polygon class="cls-2" points="206.97 95.88 214.61 95.88 214.61 116.68 221.06 116.68 221.06 95.88 228.83 95.88 228.83 91 206.97 91 206.97 95.88"/>
      <path class="cls-2" d="M263.76,135c-8.4,0-13.84,5.75-13.84,13.45,0,7.31,4.94,13.06,13.38,13.06s14-5.1,14-13.52C277.27,140.87,272.5,135,263.76,135Zm-.12,21.91c-4.31,0-6.93-3.55-6.93-8.58s2.54-8.72,6.88-8.72,6.88,4,6.88,8.57C270.47,153.13,268,156.87,263.64,156.87Z" transform="translate(-20.37 -44.38)"/>
      <path class="cls-2" d="M298.88,137.25c-1.9-1.37-4.73-2.06-8.69-2.06a59.1,59.1,0,0,0-8.7.53v25.34h6.38v-9.19a17,17,0,0,0,2.19.12c3.8,0,7.05-.84,9.24-2.71a7.78,7.78,0,0,0,2.62-6.09A7.22,7.22,0,0,0,298.88,137.25ZM290,147.53a11.14,11.14,0,0,1-2.15-.15V139.8a11.65,11.65,0,0,1,2.65-.23c3.21,0,5,1.41,5,3.77C295.55,146,293.44,147.53,290,147.53Z" transform="translate(-20.37 -44.38)"/>
      <polygon class="cls-2" points="285.64 116.68 292.1 116.68 292.1 95.76 302.87 95.76 302.87 91 285.64 91 285.64 116.68"/>
      <path class="cls-2" d="M337.8,135c-8.4,0-13.85,5.75-13.85,13.45,0,7.31,4.94,13.06,13.38,13.06s14-5.1,14-13.52C351.3,140.87,346.54,135,337.8,135Zm-.13,21.91c-4.3,0-6.92-3.55-6.92-8.58s2.53-8.72,6.88-8.72,6.88,4,6.88,8.57C344.51,153.13,342,156.87,337.67,156.87Z" transform="translate(-20.37 -44.38)"/>
      <path class="cls-2" d="M371,147.23v-.08c3.21-1.06,4.69-3.2,4.69-5.48a5.56,5.56,0,0,0-3.42-5c-2.07-1.11-4.47-1.45-8.4-1.45a57.36,57.36,0,0,0-8.31.53v25.22a55.13,55.13,0,0,0,7,.38c5.66,0,9.12-.84,11.19-2.32a6.64,6.64,0,0,0,2.95-5.45C376.63,150.24,374.22,148,371,147.23Zm-9.07-7.66a18.94,18.94,0,0,1,2.74-.15c2.92,0,4.56,1,4.56,3s-1.81,3.16-5.19,3.16H361.9ZM364.39,157a21.35,21.35,0,0,1-2.49-.08V149.7h2.2c3.2,0,5.78,1,5.78,3.62S367.3,157,364.39,157Z" transform="translate(-20.37 -44.38)"/>
      <path class="cls-2" d="M387.52,135.38l-8.69,25.68h6.67l2-6.59h8.15l2.19,6.59h6.92L396,135.38Zm.93,14.74,1.69-5.44c.46-1.49.88-3.43,1.31-5h.08c.42,1.53.93,3.43,1.44,5l1.77,5.44Z" transform="translate(-20.37 -44.38)"/>
      <path class="cls-2" d="M410.86,137.21a6.44,6.44,0,0,0-2.95,5.45c0,3.73,2.83,5.71,6,6.24V149a7.62,7.62,0,0,0-2.36,1.33c-2.15,1.87-2.83,4.88-4,7.81a12.06,12.06,0,0,1-1.43,2.9H413a10.9,10.9,0,0,0,1-2.18c.84-2.09,1.56-5.37,3.37-6.93a4.54,4.54,0,0,1,3-1H422v10.1h6.38V135.72a60.68,60.68,0,0,0-8.19-.53C416.52,135.19,413.06,135.69,410.86,137.21Zm11.1,9.48a19.16,19.16,0,0,1-2.32.12c-2.91,0-5.32-1.26-5.32-3.62,0-2.63,2.24-3.7,5-3.7a15.08,15.08,0,0,1,2.61.23Z" transform="translate(-20.37 -44.38)"/>
      <polygon class="cls-2" points="422.06 116.68 428.52 116.68 428.52 95.76 438.61 95.76 438.61 116.68 445.07 116.68 445.07 91 422.06 91 422.06 116.68"/>
      <path class="cls-2" d="M473.46,146.62c0,3.88-.42,7.16-2.15,8.76a5.57,5.57,0,0,1-3.25,1.37l.8,4.69a12.66,12.66,0,0,0,5.65-1.26c4.31-2.29,5.24-7.35,5.24-13.94v-6.1h6.45v20.92h6.42V135.38H473.46Z" transform="translate(-20.37 -44.38)"/>
      <path class="cls-2" d="M504.86,135.38l-8.69,25.68h6.67l2-6.59H513l2.19,6.59h6.92l-8.82-25.68Zm.93,14.74,1.69-5.44c.46-1.49.88-3.43,1.31-5h.08c.42,1.53.93,3.43,1.44,5l1.77,5.44Z" transform="translate(-20.37 -44.38)"/>
      <polygon class="cls-2" points="500.66 95.88 508.3 95.88 508.3 116.68 514.75 116.68 514.75 95.88 522.52 95.88 522.52 91 500.66 91 500.66 95.88"/>
      <path class="cls-2" d="M561.55,136.56v-2.25h-6v2.25c-5.49.42-12.2,3.66-12.2,11.77,0,7.89,6,11,12.12,11.47v2.32h6V159.8c6.29-.53,12.2-3.73,12.2-11.66S567.58,136.94,561.55,136.56Zm-6.08,19.2c-2.53-.3-5.7-2.51-5.7-7.54,0-5.41,3.21-7.39,5.7-7.7Zm6,0V140.52c2.66.31,5.7,2.21,5.7,7.62S564,155.49,561.5,155.76Z" transform="translate(-20.37 -44.38)"/>
      <path class="cls-2" d="M590.46,135c-8.4,0-13.84,5.75-13.84,13.45,0,7.31,4.93,13.06,13.38,13.06s14-5.1,14-13.52C604,140.87,599.2,135,590.46,135Zm-.13,21.91c-4.3,0-6.92-3.55-6.92-8.58s2.53-8.72,6.88-8.72,6.88,4,6.88,8.57C597.17,153.13,594.68,156.87,590.33,156.87Z" transform="translate(-20.37 -44.38)"/>
      <path class="cls-2" d="M625.58,137.25c-1.9-1.37-4.73-2.06-8.7-2.06a58.94,58.94,0,0,0-8.69.53v25.34h6.37v-9.19a17.09,17.09,0,0,0,2.2.12c3.8,0,7-.84,9.24-2.71a7.78,7.78,0,0,0,2.62-6.09A7.25,7.25,0,0,0,625.58,137.25Zm-8.87,10.28a11.27,11.27,0,0,1-2.15-.15V139.8a11.75,11.75,0,0,1,2.66-.23c3.21,0,5,1.41,5,3.77C622.24,146,620.13,147.53,616.71,147.53Z" transform="translate(-20.37 -44.38)"/>
      <path class="cls-2" d="M653,135.38l-3,8.53c-.93,2.86-1.9,6.25-2.7,9.22h-.13c-.63-3-1.52-6.21-2.4-9.18l-2.79-8.57h-8.57l-1.81,25.68h6l.51-9.76c.21-3.2.34-7.16.5-10.62h.09c.67,3.35,1.64,7,2.57,10l3,9.95h5l3.47-10c1.09-3,2.27-6.67,3.16-9.94H656c0,3.73.12,7.46.25,10.55l.42,9.83h6.29l-1.56-25.68Z" transform="translate(-20.37 -44.38)"/>
      <path class="cls-2" d="M682.94,135.38H674.5l-8.7,25.68h6.67l2-6.59h8.14l2.2,6.59h6.92Zm-7.51,14.74,1.68-5.44c.47-1.49.89-3.43,1.31-5h.09c.42,1.53.93,3.43,1.43,5l1.78,5.44Z" transform="translate(-20.37 -44.38)"/>
    </g>
    <path class="cls-3" d="M183,121.71c-4.17,14-16.36,20.37-22,22.84a46.36,46.36,0,0,1-18.78,3.71,49.28,49.28,0,0,1-6.26-.39,66.21,66.21,0,0,0,4.5-6.62,57.17,57.17,0,0,0,8.41-29.79l-.17-5H65.8v21.41h56.49q-5.13,10.59-13.5,15.55t-20.57,5q-18.75,0-31.54-12A38.87,38.87,0,0,1,43.9,106.9,37.82,37.82,0,0,1,56.22,78.41Q68.54,66.68,86.78,66.68c14,0,26.82,4.34,37.18,21.19l24.4.09a66.17,66.17,0,0,0-11.08-21.28c1.46-.13,3-.2,4.49-.2,14,0,28.19,4.82,39.6,23.14l22.89-.39c-4.24-17.8-23.11-34.38-32.57-38.55a72.73,72.73,0,0,0-29.55-6.25,69.87,69.87,0,0,0-26.74,5.18,78.78,78.78,0,0,0-28.74-5.23q-30.84,0-50.07,20.92a59,59,0,0,0-16.22,41.35A62.84,62.84,0,0,0,29.15,139,60.23,60.23,0,0,0,53,162.05q15.09,8.1,34.32,8.1a66.27,66.27,0,0,0,26.57-5.07,73.39,73.39,0,0,0,27.91,5.07q15.67,0,27.89-5c8.15-3.34,29.28-15.39,37.43-43.37Z" transform="translate(-20.37 -44.38)"/>
  </g>
</svg>
