<svg width="146" height="20" viewBox="0 0 146 20" fill="none" xmlns="http://www.w3.org/2000/svg">
<path d="M10.6592 6.13672V13.2958H9.77099V12.3867C9.43791 13.0685 8.43867 13.5231 7.43943 13.5231C5.88505 13.5231 4.55273 12.1594 4.55273 10.5685V6.13672H5.44095V10.3413C5.44095 11.5913 6.44019 12.5004 7.55045 12.5004C8.66072 12.5004 9.65996 11.4776 9.65996 10.3413V6.13672H10.6592Z" fill="black"/>
<path d="M17.5422 6.13672H18.4304V13.2958H17.5422V10.0004H13.2121V13.2958H12.2129V6.13672H13.1011V9.09126H17.4311V6.13672H17.5422Z" fill="black"/>
<path d="M22.2066 15.341C23.6499 15.341 26.2035 15.341 26.2035 12.5001V11.9319C25.6484 12.7274 24.6491 13.4092 23.5389 13.4092C21.5404 13.4092 19.875 11.7046 19.875 9.65918C19.875 7.61373 21.5404 5.90918 23.5389 5.90918C24.7602 5.90918 25.6484 6.591 26.2035 7.38645V6.13645H27.0917V12.5001C27.2028 16.0228 24.094 16.2501 22.2066 16.2501V15.341ZM26.2035 9.65918C26.2035 8.06827 24.9822 6.93191 23.5389 6.93191C21.9845 6.93191 20.8742 8.18191 20.8742 9.65918C20.8742 11.2501 21.9845 12.5001 23.5389 12.5001C24.9822 12.5001 26.2035 11.2501 26.2035 9.65918Z" fill="black"/>
<path d="M40.8584 11.1366H41.8577C41.4136 12.5002 39.9702 13.5229 38.4158 13.5229C36.4174 13.5229 34.752 11.8184 34.752 9.77295C34.752 7.72749 36.4174 6.02295 38.4158 6.02295C39.8592 6.02295 41.3025 6.93204 41.7466 8.29568H40.6364C40.3033 7.61386 39.304 7.04568 38.4158 7.04568C36.8615 7.04568 35.7512 8.29568 35.7512 9.77295C35.7512 11.3639 36.8615 12.6139 38.4158 12.6139C39.4151 12.5002 40.4143 11.8184 40.8584 11.1366Z" fill="black"/>
<path d="M43.9669 6.13645V7.04554C44.411 6.36373 45.2993 5.90918 45.9654 5.90918C46.9647 5.90918 48.0749 6.47736 48.297 7.27282C48.6301 6.47736 49.7403 5.90918 50.7396 5.90918C52.2939 5.90918 53.5152 7.15918 53.5152 8.63645V13.1819H52.627V8.86373C52.627 7.72736 51.7388 6.93191 50.7396 6.93191C49.7403 6.93191 48.8521 7.841 48.8521 8.86373V13.2955H47.9639V8.86373C47.9639 7.72736 47.0757 6.93191 46.0764 6.93191C45.0772 6.93191 44.189 7.841 44.189 8.86373V13.2955H43.3008V6.13645H43.9669Z" fill="black"/>
<path d="M55.9585 7.38645C56.5137 6.591 57.5129 5.90918 58.6232 5.90918C60.6216 5.90918 62.287 7.61373 62.287 9.65918C62.287 11.7046 60.6216 13.4092 58.6232 13.4092C57.5129 13.4092 56.4026 12.7274 55.9585 11.9319V15.6819H55.0703V6.13645H55.9585V7.38645ZM61.3988 9.65918C61.3988 8.06827 60.1775 6.93191 58.7342 6.93191C57.1798 6.93191 56.0696 8.18191 56.0696 9.65918C56.0696 11.2501 57.1798 12.5001 58.7342 12.5001C60.1775 12.5001 61.3988 11.2501 61.3988 9.65918Z" fill="black"/>
<path d="M69.6143 6.13672V13.2958H68.7261V12.3867C68.393 13.0685 67.3937 13.5231 66.3945 13.5231C64.8401 13.5231 63.5078 12.1594 63.5078 10.5685V6.13672H64.396V10.3413C64.396 11.5913 65.3953 12.5004 66.5055 12.5004C67.6158 12.5004 68.615 11.4776 68.615 10.3413V6.13672H69.6143Z" fill="black"/>
<path d="M82.0488 5.90918H82.937V9.091L86.1568 5.90918H87.3781L83.7142 9.65918L87.4891 13.1819H86.2678L83.7142 10.7955L83.0481 10.2274V13.1819H82.1599L82.0488 5.90918Z" fill="black"/>
<path d="M89.2652 7.38645C89.8203 6.591 90.8195 5.90918 91.9298 5.90918C93.9283 5.90918 95.5937 7.61373 95.5937 9.65918C95.5937 11.7046 93.9283 13.4092 91.9298 13.4092C90.8195 13.4092 89.7093 12.7274 89.2652 11.9319V15.6819H88.377V6.13645H89.2652V7.38645ZM94.7055 9.65918C94.7055 8.06827 93.4842 6.93191 92.0408 6.93191C90.4865 6.93191 89.3762 8.18191 89.3762 9.65918C89.3762 11.2501 90.4865 12.5001 92.0408 12.5001C93.4842 12.5001 94.7055 11.2501 94.7055 9.65918Z" fill="black"/>
<path d="M104.144 6.13659V13.2957H103.256V12.0457C102.701 12.8411 101.702 13.5229 100.592 13.5229C98.5931 13.5229 96.9277 11.8184 96.9277 9.77295C96.9277 7.72749 98.5931 6.02295 100.592 6.02295C101.813 6.02295 102.701 6.70477 103.256 7.50022V6.13659H104.144ZM103.145 9.65931C103.145 8.0684 101.924 6.93204 100.481 6.93204C98.9262 6.93204 97.8159 8.18204 97.8159 9.65931C97.8159 11.2502 98.9262 12.5002 100.481 12.5002C101.924 12.5002 103.145 11.2502 103.145 9.65931Z" fill="black"/>
<path d="M111.472 11.1366H112.471C112.027 12.5002 110.583 13.5229 109.029 13.5229C107.031 13.5229 105.365 11.8184 105.365 9.77295C105.365 7.72749 107.031 6.02295 109.029 6.02295C110.472 6.02295 111.916 6.93204 112.36 8.29568H111.25C110.917 7.61386 109.917 7.04568 109.029 7.04568C107.475 7.04568 106.364 8.29568 106.364 9.77295C106.364 11.3639 107.475 12.6139 109.029 12.6139C110.028 12.5002 111.139 11.8184 111.472 11.1366Z" fill="black"/>
<path d="M113.471 9.65918C113.471 7.61373 115.136 5.90918 117.135 5.90918C119.133 5.90918 120.798 7.61373 120.798 9.65918C120.798 11.7046 119.133 13.4092 117.135 13.4092C115.136 13.4092 113.471 11.8183 113.471 9.65918ZM119.91 9.65918C119.91 8.06827 118.689 6.93191 117.246 6.93191C115.691 6.93191 114.581 8.18191 114.581 9.65918C114.581 11.2501 115.691 12.5001 117.246 12.5001C118.689 12.5001 119.91 11.2501 119.91 9.65918Z" fill="black"/>
<path d="M122.797 6.13645V7.04554C123.241 6.36373 124.129 5.90918 124.795 5.90918C125.795 5.90918 126.905 6.47736 127.127 7.27282C127.46 6.47736 128.57 5.90918 129.57 5.90918C131.124 5.90918 132.345 7.15918 132.345 8.63645V13.1819H131.457V8.86373C131.457 7.72736 130.569 6.93191 129.57 6.93191C128.57 6.93191 127.682 7.841 127.682 8.86373V13.2955H126.794V8.86373C126.794 7.72736 125.906 6.93191 124.907 6.93191C123.907 6.93191 123.019 7.841 123.019 8.86373V13.2955H122.131V6.13645H122.797Z" fill="black"/>
<path d="M133.787 5.90918H134.675V7.38645C135.23 6.591 136.23 5.90918 137.34 5.90918C139.338 5.90918 141.004 7.61373 141.004 9.65918C141.004 11.7046 139.338 13.4092 137.34 13.4092C136.23 13.4092 135.119 12.7274 134.675 11.9319V13.1819H133.787V5.90918ZM140.227 9.65918C140.227 8.06827 139.005 6.93191 137.562 6.93191C136.008 6.93191 134.897 8.18191 134.897 9.65918C134.897 11.2501 136.008 12.5001 137.562 12.5001C139.005 12.5001 140.227 11.2501 140.227 9.65918ZM141.67 5.90918H142.558V13.1819H141.67V5.90918Z" fill="black"/>
<path d="M33.6426 6.02295H34.5308V12.3866C34.5308 15.1139 33.8646 16.2502 30.0897 16.2502V15.4548C33.3095 15.4548 33.5315 14.7729 33.6426 12.3866V11.8184C33.0874 12.6139 32.0882 13.2957 30.9779 13.2957C27.5361 13.4093 28.2023 8.18204 28.2023 6.02295H29.2015C29.2015 7.61386 28.7574 12.2729 30.9779 12.2729C32.9764 12.2729 33.6426 10.9093 33.6426 7.15931" fill="black"/>
<path d="M77.6086 13.2958H76.7203V11.2504C75.8321 12.2731 75.166 12.614 74.0557 12.5004C72.9454 12.5004 70.8359 11.7049 70.8359 9.31854C70.8359 7.27308 71.9462 6.13672 73.9447 6.13672C75.166 6.13672 76.0542 6.81854 76.6093 7.61399V6.13672H77.4975L77.6086 13.2958ZM74.1667 11.7049C75.8321 11.5913 76.3873 10.7958 76.3873 8.97763C76.3873 7.61399 74.9439 6.81854 73.9447 6.81854C72.9454 6.81854 71.6131 7.61399 71.6131 8.97763C71.6131 11.2504 73.1675 11.8185 74.1667 11.7049Z" fill="black"/>
<path d="M72.6116 12.0454L71.2793 13.2954H72.6116L73.6109 12.2727" fill="black"/>
<path d="M117.244 13.4092C119.267 13.4092 120.908 11.7302 120.908 9.65918C120.908 7.58811 119.267 5.90918 117.244 5.90918C115.22 5.90918 113.58 7.58811 113.58 9.65918C113.58 11.7302 115.22 13.4092 117.244 13.4092Z" fill="#E6293D"/>
</svg>
