<svg id="Слой_2" data-name="Слой 2" xmlns="http://www.w3.org/2000/svg" viewBox="0 0 578.3 105.7">
  <defs>
    <style>
      .cls-1 {
        fill: #004bf5;
      }

      .cls-2 {
        fill: #fff;
      }
    </style>
  </defs>
  <g>
    <rect x="29.79" y="54.13" width="12.77" height="31.91"/>
    <rect x="42.26" y="81.89" width="44.43" height="4.15"/>
    <rect x="383.49" y="54.13" width="14.17" height="31.91"/>
    <rect x="429.36" y="54.13" width="13.79" height="31.91"/>
    <rect x="402.98" y="54.13" width="66.89" height="5.11"/>
    <rect x="312" y="59.74" width="13.4" height="26.3"/>
    <rect x="240.77" y="54.13" width="14.04" height="23.06"/>
    <rect x="107.3" y="74.11" width="37.4" height="3.83"/>
    <rect x="171.49" y="54.13" width="45.7" height="4.85"/>
    <rect x="184.17" y="81.7" width="49.87" height="4.34"/>
    <rect x="291" y="54.13" width="14.04" height="23.06"/>
    <path d="M87.57,86s22-23.88,28.94-29.87a12.89,12.89,0,0,1,4.94-2,41.54,41.54,0,0,1,10.51,0c1,.19,3.12.64,3.85,1.36,7.9,7.83,31,30.55,31,30.55H151.15L137.87,71.57S130.59,63,128,59.9a2.9,2.9,0,0,0-3,0c-.66.65-3,3.5-3,3.5l-9.4,10.13L100.94,86Z"/>
    <path d="M213.5,54.13h14.95s4.64.39,5.82,2c1,1.37,1,3,.37,3.34-8.54,3.7-47,21.08-47,21.08L187,81.64,185.19,86H173.28s-5.07-.28-5.07-2.34c0-2.58,3.28-3.62,3.28-3.62l44.17-19.56Z"/>
    <path d="M254.81,77.19s3.82,3.38,5.42,3.75c5.78,1.3,16.18,1.11,21.45.76,2.66-.17,9.32-4.51,9.32-4.51h14a6.63,6.63,0,0,1-2.9,4.21,21.48,21.48,0,0,1-7.5,3.56,49.06,49.06,0,0,1-6.13,1s-24.64.31-32.84-.19a37.25,37.25,0,0,1-9.41-2.59c-4.86-2.23-5.49-6-5.49-6Z"/>
    <path d="M312,59.74a5.56,5.56,0,0,1,1.28-3.41,8.22,8.22,0,0,1,4-2.2h48a14.5,14.5,0,0,1,8,2.07c2.62,1.53,4.21,3.1,4.72,5.46.58,2.65.8,7.6-3.16,10.91a19.53,19.53,0,0,1-4,2.24l-18.63.06L377.68,86H360.45s-20.1-8.51-25.95-12c-.61-.37-.52-3.49,1.61-3.51,5.84,0,20.68,0,20.68,0s6.5-.37,6.71-4.88a5.71,5.71,0,0,0-3.37-5.87H325.4"/>
    <rect class="cls-1" x="482.98" y="10.79" width="83.81" height="80.73"/>
    <g>
      <path class="cls-2" d="M502.64,80.38c-.1-1.79-.21-3.94-.19-5.53h-.06c-.43,1.5-1,3.1-1.61,4.86l-2.26,6.21h-1.26l-2.07-6.09c-.61-1.81-1.12-3.46-1.48-5h0c0,1.59-.13,3.74-.25,5.66L493.08,86h-1.57l.89-12.8h2.11l2.18,6.19c.53,1.58,1,3,1.29,4.31H498c.32-1.29.78-2.7,1.35-4.31l2.28-6.19h2.11l.8,12.8H503Z"/>
      <path class="cls-2" d="M513.75,80h-5v4.61h5.54V86h-7.2V73.2H514v1.38h-5.26v4h5Z"/>
      <path class="cls-2" d="M523.65,73.2v1.38h-5.53V78a13.69,13.69,0,0,1,1.58-.09,6.09,6.09,0,0,1,3.31.85,3.55,3.55,0,0,1,1.63,3.14,3.78,3.78,0,0,1-1.06,2.77,6.51,6.51,0,0,1-4.53,1.42,18.86,18.86,0,0,1-2.58-.15V73.2Zm-5.53,11.53a7.81,7.81,0,0,0,1.39.09,3.73,3.73,0,0,0,2.7-1,2.6,2.6,0,0,0,.7-1.88,2.42,2.42,0,0,0-1-2.09,4.34,4.34,0,0,0-2.44-.64c-.38,0-.89,0-1.31.07Z"/>
      <path class="cls-2" d="M533.42,80h-5v4.61H534V86h-7.2V73.2h6.91v1.38h-5.26v4h5Z"/>
      <path class="cls-2" d="M545.05,73.2V86h-1.68V74.58h-4.23v3.88c0,2.77-.12,5.87-1.92,7.08a3.82,3.82,0,0,1-2,.61l-.21-1.33a2.88,2.88,0,0,0,1.35-.68c1-1,1.12-3.5,1.12-5.55V73.2Z"/>
      <path class="cls-2" d="M549.57,73.2V78a15.62,15.62,0,0,1,1.57-.09c2.63,0,4.94,1.16,4.94,4a3.87,3.87,0,0,1-1,2.73,6.33,6.33,0,0,1-4.6,1.5,18.74,18.74,0,0,1-2.58-.15V73.2Zm0,11.53a7.57,7.57,0,0,0,1.37.09c1.84,0,3.42-.89,3.42-2.85s-1.62-2.77-3.44-2.77a12.24,12.24,0,0,0-1.35.09Z"/>
    </g>
  </g>
</svg>
