<svg id="Слой_1" data-name="Слой 1" xmlns="http://www.w3.org/2000/svg" viewBox="0 0 330.67 124">
  <defs>
    <style>
      .cls-1 {
        fill: #00ab6f;
      }

      .cls-2 {
        fill: #fff;
      }
    </style>
  </defs>
  <g>
    <path class="cls-1" d="M47.27,99.58a37.75,37.75,0,1,1,.1-75.5,37.75,37.75,0,1,1-.1,75.5ZM41.74,56.9c-4.11,0-8.68.58-12.51,2.81-2.32,1.36-4.38,3.25-4,6.23.43,3.15,2.66,5,5.63,6,.38.13.81.12,1.21.24A8,8,0,0,1,37.91,78a14.68,14.68,0,0,0,.47,1.79c1.1,2.62,2.81,4.67,5.76,5.06s4.74-1.49,6.16-3.71a8.54,8.54,0,0,0,1.39-3.19c.52-3.59,1-7.21,1.18-10.83.18-3.78-1.34-7-4.85-8.65A13.89,13.89,0,0,0,41.74,56.9ZM59.7,45c0-3.21-1.37-5.18-3.75-6a5.39,5.39,0,0,0-6.23,2,22.73,22.73,0,0,0-2,3.36,5.37,5.37,0,0,0,1.22,6.23,5.21,5.21,0,0,0,6.45.91A9.7,9.7,0,0,0,59.7,45Zm5.07,17.92a35.06,35.06,0,0,0,5.16-3.2,5.12,5.12,0,0,0,.55-6.95A5.46,5.46,0,0,0,63.54,51a19.92,19.92,0,0,0-3.34,2,5.45,5.45,0,0,0-1.88,6.1C59.09,61.34,61.29,62.94,64.77,62.93ZM43.59,45.86A5.56,5.56,0,0,0,38,40.22c-4.1,0-6,3.82-6.21,7.18-.19,2.86,2.61,5.5,5.52,5.57C40.61,53.05,43.56,49.7,43.59,45.86ZM62.9,78.29c3.89,0,7.15-2.92,7.08-6.28-.06-2.9-2.71-5.67-5.58-5.48-3.29.21-7.18,2.14-7.13,6.21A5.51,5.51,0,0,0,62.9,78.29Z"/>
    <path d="M177.81,77.8c-2.84-3.19-2.64-4.94.89-7.88-2-1.49-3.63-3.27-4-5.92-.68-5.23,2.12-9.34,7.36-9.73,5-.39,10.11-.09,15.25-.09v3.23l-3.93.9a24.32,24.32,0,0,1,.87,2.78c1,5.4-2.43,9.43-8.55,9.92a25.16,25.16,0,0,1-2.88,0,2.11,2.11,0,0,0-2.32,2.11c-.16,1.4.94,1.73,2,1.78,2.4.12,4.82.06,7.21.22,4.33.3,6.67,2.1,7.28,5.41a7.77,7.77,0,0,1-4.88,8.83,22.07,22.07,0,0,1-13.36,1.11c-3.63-.71-5.78-2.91-6-5.86C172.49,81.38,173.87,79.47,177.81,77.8Zm7.09,1.81a15.86,15.86,0,0,0-4.46.44,4.85,4.85,0,0,0-2.6,2.77,3.73,3.73,0,0,0,1.1,3.16c2.39,2.07,9.84,1.53,12-.85a4.27,4.27,0,0,0,1-3.28c-.2-.82-1.52-1.66-2.51-1.94A20.89,20.89,0,0,0,184.9,79.61Zm-.36-12.1c3,0,4.62-1.6,4.67-4.78s-1.59-5.16-4.52-5.21-4.74,1.73-4.81,4.95S181.5,67.49,184.54,67.51Z"/>
    <path d="M251.21,79.64c-3.42.22-3.42.22-5.08-3.33-2.23,3.06-5.31,4-8.87,3.87-4.1-.18-6.72-2.37-7.32-6.19-.65-4.08,1.15-7.28,5.11-8.5a33.75,33.75,0,0,1,6.28-1,39.9,39.9,0,0,1,4.23,0c1-4.06-.69-6.39-4.43-6.14a52.52,52.52,0,0,0-7.1,1.46l-1.62-3.56c4.94-2.18,9.81-3.1,14.85-1.06a6.06,6.06,0,0,1,3.89,5.66C251.33,67,251.21,73.26,251.21,79.64Zm-5.44-12.18A71.64,71.64,0,0,0,238,68.77c-2,.56-2.87,2.59-2.38,4.68S237.56,76,239.35,76C243.9,76.13,246.14,73.37,245.77,67.46Z"/>
    <path d="M309.18,54c6.34,0,10.7,3.68,11.61,10a21.15,21.15,0,0,1,.06,5.73c-.87,6.62-5,10.33-11.4,10.42s-11-3.46-12-10a22.1,22.1,0,0,1,.42-8.14C299.13,56.78,303.33,54,309.18,54Zm6.4,13a38.5,38.5,0,0,0-.66-4.22,5.54,5.54,0,0,0-5.77-4.35c-3,0-5.21,1.27-5.74,4.26a25.93,25.93,0,0,0-.12,8.34c.48,3.22,2.69,4.65,5.87,4.64S314.22,74.21,315,71A38.87,38.87,0,0,0,315.58,67Z"/>
    <path d="M292.87,68.33H276.06a6.46,6.46,0,0,0,6.28,7.49,24.33,24.33,0,0,0,4.51-.32c1.47-.26,2.89-.81,4.53-1.28a17,17,0,0,1-.05,3.13,2.39,2.39,0,0,1-1.16,1.58,18,18,0,0,1-12.52.4c-4.33-1.5-6.6-4.85-7.18-9.24a21.54,21.54,0,0,1,.16-6.56c1.28-7,6.58-10.55,13.57-9.32,3.93.69,6.71,2.94,7.75,6.81A54.39,54.39,0,0,1,292.87,68.33Zm-5.69-4c-.12-4.24-2.14-6.31-5.76-6.14-3.26.15-5.4,2.65-5.19,6.14Z"/>
    <path d="M151.81,79.62h-5.27v-25h4.1l.85,3.14c3-3.63,6.8-4.23,10.92-3.46a6.9,6.9,0,0,1,6.07,6.86c.27,6.1.07,12.22.07,18.45h-5.33V67c0-1.17,0-2.34,0-3.51-.18-3.08-1.4-4.57-4-4.94-3.18-.46-5.85.84-6.63,3.58a23.07,23.07,0,0,0-.75,5.69C151.74,71.7,151.81,75.61,151.81,79.62Z"/>
    <path d="M201.74,54.58h5.49c0,2.91,0,5.71,0,8.51s-.06,5.37.12,8,1.43,4.2,3.65,4.53c3.19.48,5.83-.62,6.7-3.14a17.5,17.5,0,0,0,.88-5.24c.13-4.18,0-8.37,0-12.69H224V79.49c-3.88.69-3.88.69-5-2.93-3.08,3.49-6.92,4.21-11.2,3.27A6.65,6.65,0,0,1,202.13,74a57.05,57.05,0,0,1-.38-7.4C201.7,62.61,201.74,58.64,201.74,54.58Z"/>
    <path d="M108.78,79.62V46.45h5.3V74.94h14v4.68Z"/>
    <path d="M258.82,79.61V44.38H264V79.61Z"/>
    <path d="M138.74,79.64h-5.18v-25h5.18Z"/>
    <path d="M136.15,44.79a3,3,0,1,1-.06,6,2.82,2.82,0,0,1-3-2.93A2.85,2.85,0,0,1,136.15,44.79Z"/>
    <path class="cls-2" d="M41.74,56.9c2.1.5,4.37.65,6.28,1.56,3.51,1.67,5,4.87,4.85,8.65-.17,3.62-.66,7.24-1.18,10.83a8.54,8.54,0,0,1-1.39,3.19c-1.42,2.22-3.25,4.09-6.16,3.71s-4.66-2.44-5.76-5.06A14.68,14.68,0,0,1,37.91,78a8,8,0,0,0-5.81-5.85c-.4-.12-.83-.11-1.21-.24-3-1-5.2-2.81-5.63-6-.41-3,1.65-4.87,4-6.23C33.06,57.48,37.4,57.55,41.74,56.9Z"/>
    <path class="cls-2" d="M59.7,45a9.7,9.7,0,0,1-4.31,6.44,5.21,5.21,0,0,1-6.45-.91,5.37,5.37,0,0,1-1.22-6.23,22.73,22.73,0,0,1,2-3.36A5.39,5.39,0,0,1,56,39C58.33,39.83,59.72,41.8,59.7,45Z"/>
    <path class="cls-2" d="M64.77,62.93a5.88,5.88,0,0,1-6.45-3.86A5.45,5.45,0,0,1,60.2,53a19.92,19.92,0,0,1,3.34-2,5.46,5.46,0,0,1,6.94,1.83,5.12,5.12,0,0,1-.55,6.95C68.15,61.22,66.48,62.74,64.77,62.93Z"/>
    <path class="cls-2" d="M43.59,45.86c0,3.84-3,7.19-6.26,7.11-2.91-.07-5.71-2.71-5.52-5.57C32,44,33.92,40.25,38,40.22A5.56,5.56,0,0,1,43.59,45.86Z"/>
    <path class="cls-2" d="M62.9,78.29a5.51,5.51,0,0,1-5.63-5.55c-.05-4.07,3.84-6,7.13-6.21,2.87-.19,5.52,2.58,5.58,5.48C70.05,75.37,66.79,78.26,62.9,78.29Z"/>
    <path class="cls-2" d="M287.18,64.33H276.23c-.21-3.49,1.93-6,5.19-6.14C285,58,287.06,60.09,287.18,64.33Z"/>
  </g>
</svg>
