<svg width="149" height="26" viewBox="0 0 149 26" fill="none" xmlns="http://www.w3.org/2000/svg">
<path d="M65.7988 19H68.9348V11.79L73.0368 19H74.7868L78.8888 11.79V19H82.1088V8.58398H77.6428L74.0308 15.066L70.4328 8.58398H65.7988V19ZM91.843 14.744H87.895L89.827 10.838L91.843 14.744ZM94.027 19H97.541L91.969 8.58398H87.741L82.477 19H85.795L86.733 17.096H93.047L94.027 19ZM101.166 8.58398H97.9042V19H101.166V8.58398ZM102.548 8.58398V19H113.048V16.41H105.81V8.58398H102.548ZM114.041 8.58398V19H117.289V14.87H124.625V12.49H117.289V10.95H124.807V8.58398H114.041ZM129.234 8.58398H125.972V19H129.234V8.58398ZM134.689 19H137.979V11.048H142.473V8.58398H130.209V11.048H134.689V19Z" fill="black"/>
<g clip-path="url(#clip0)">
<path d="M16.5 17.3637V5.48486L36.5 11.5455L56.5 5.48486V17.3637L46.5 20.5152V14.4546L36.5 17.3637L26.5 14.4546V20.5152L16.5 17.3637Z" fill="black" stroke="black"/>
</g>
<defs>
<clipPath id="clip0">
<rect width="41" height="16" fill="white" transform="translate(16 5)"/>
</clipPath>
</defs>
</svg>
