<svg width="151" height="39" viewBox="0 0 151 39" fill="none" xmlns="http://www.w3.org/2000/svg">
<g clip-path="url(#clip0)">
<path d="M0.566764 29.1909V33.9952L0.531341 35.2553L4.43493 29.1909H5.23548V35.8425H4.66163V31.0668V29.7852L0.7793 35.8425H0V29.1909H0.566764Z" fill="#EA4C2F"/>
<path d="M8.03456 29.1909V32.105H12.2074V29.1909H12.8025V35.8425H12.2144V32.6348H8.03456V35.8425H7.43945V29.1909H8.04164H8.03456Z" fill="#EA4C2F"/>
<path d="M19.1858 29.7207H17.0037V35.8425H16.4016V29.7207H14.1699V29.1909H19.1999V29.7136L19.1858 29.7207Z" fill="#EA4C2F"/>
<path d="M23.1895 35.9645C22.7764 35.9913 22.3626 35.9263 21.9771 35.7742C21.5915 35.6221 21.2436 35.3864 20.9579 35.0838C20.3874 34.3835 20.1013 33.4904 20.1573 32.585C20.1107 31.6701 20.384 30.7678 20.9295 30.0361C21.1798 29.7227 21.4991 29.4727 21.862 29.3061C22.2249 29.1395 22.6212 29.061 23.0195 29.0767C23.3669 29.0603 23.7134 29.1255 24.0317 29.2672C24.35 29.4088 24.6316 29.6229 24.8544 29.8929C25.3229 30.5324 25.5536 31.3182 25.5061 32.1125V32.5993H20.7807C20.7367 33.35 20.9604 34.0918 21.4113 34.69C21.6363 34.9356 21.9126 35.1273 22.2203 35.2512C22.5279 35.3751 22.859 35.428 23.1895 35.406C23.5218 35.4101 23.8538 35.3837 24.1813 35.3272C24.5501 35.247 24.9107 35.132 25.2582 34.9836V35.5349C24.9294 35.6857 24.5848 35.7986 24.2309 35.8714C23.8873 35.9345 23.5387 35.9657 23.1895 35.9645ZM23.0124 29.6065C22.7285 29.5943 22.4455 29.6443 22.1825 29.753C21.9196 29.8618 21.6831 30.0267 21.4892 30.2366C21.0692 30.752 20.8322 31.3948 20.8162 32.0623H24.8827C24.9221 31.4217 24.7475 30.7863 24.3868 30.2581C24.2275 30.0464 24.02 29.8766 23.782 29.7632C23.544 29.6497 23.2824 29.596 23.0195 29.6065H23.0124Z" fill="#EA4C2F"/>
<path d="M30.1505 35.9641C29.7118 35.9955 29.2731 35.9046 28.8821 35.7014C28.4911 35.4981 28.1628 35.1902 27.933 34.8113H27.8905V35.3268C27.8905 35.6276 27.8905 35.9569 27.8905 36.3149V38.8495H27.3379V29.1908H27.8409L27.9542 30.1359H27.9897C28.2229 29.7773 28.5471 29.4884 28.9284 29.2995C29.3097 29.1106 29.7342 29.0286 30.1575 29.0619C30.5411 29.0368 30.9251 29.1035 31.2784 29.2565C31.6317 29.4095 31.9443 29.6446 32.1908 29.9426C32.7078 30.6938 32.9575 31.5999 32.8993 32.513C32.9632 33.4178 32.7126 34.3167 32.1908 35.0548C31.9457 35.3581 31.6331 35.5987 31.2785 35.7567C30.9239 35.9147 30.5374 35.9858 30.1505 35.9641ZM30.1505 35.4271C30.4532 35.4417 30.7549 35.38 31.0282 35.2475C31.3015 35.115 31.5379 34.9159 31.7161 34.6681C32.125 34.0312 32.3189 33.2777 32.2687 32.5202C32.2687 30.5679 31.5603 29.5918 30.1434 29.5918C29.8333 29.5668 29.5216 29.611 29.2303 29.7211C28.9389 29.8312 28.675 30.0046 28.4572 30.229C28.045 30.8398 27.8548 31.576 27.9188 32.3125V32.5059C27.8513 33.2849 28.0326 34.0653 28.436 34.7326C28.6447 34.9762 28.9077 35.1662 29.2033 35.287C29.4989 35.4077 29.8187 35.4558 30.1363 35.4271H30.1505Z" fill="#EA4C2F"/>
<path d="M35.317 29.1909V32.105H39.4898V29.1909H40.0849V35.8425H39.4898V32.6348H35.317V35.8425H34.7148V29.1909H35.317Z" fill="#EA4C2F"/>
<path d="M44.9446 35.9645C44.5304 35.9924 44.1152 35.9279 43.7284 35.7758C43.3415 35.6236 42.9925 35.3874 42.7059 35.0838C42.1354 34.3835 41.8493 33.4904 41.9054 32.585C41.8587 31.6701 42.1321 30.7678 42.6776 30.0361C42.9279 29.7227 43.2472 29.4727 43.6101 29.3061C43.9729 29.1395 44.3693 29.061 44.7675 29.0767C45.115 29.0603 45.4614 29.1255 45.7797 29.2672C46.0981 29.4088 46.3797 29.6229 46.6024 29.8929C47.0801 30.5314 47.3186 31.3203 47.2755 32.1196V32.6065H42.5075C42.4635 33.3572 42.6872 34.099 43.1381 34.6972C43.363 34.9428 43.6394 35.1345 43.9471 35.2584C44.2547 35.3822 44.5858 35.4351 44.9163 35.4132C45.2486 35.4173 45.5806 35.3909 45.9081 35.3344C46.2769 35.2542 46.6375 35.1391 46.985 34.9907V35.542C46.6562 35.6929 46.3116 35.8058 45.9577 35.8786C45.6232 35.9376 45.2842 35.9663 44.9446 35.9645ZM44.7675 29.6065C44.4837 29.5943 44.2006 29.6443 43.9377 29.753C43.6748 29.8618 43.4382 30.0267 43.2443 30.2366C42.8243 30.752 42.5873 31.3948 42.5713 32.0623H46.6378C46.6773 31.4217 46.5026 30.7863 46.1419 30.2581C45.9819 30.0453 45.7733 29.8749 45.534 29.7615C45.2946 29.648 45.0316 29.5948 44.7675 29.6065Z" fill="#EA4C2F"/>
<path d="M53.2605 29.7207H51.0714V35.8425H50.4763V29.7207H48.2305V29.1909H53.2605V29.7136V29.7207Z" fill="#EA4C2F"/>
<path d="M54.0703 32.7066V32.2197H56.9466V32.7209H54.0703V32.7066Z" fill="#EA4C2F"/>
<path d="M61.6357 35.1909L62.0112 34.1241L63.9028 29.1909H64.7317V35.8425H64.1649V29.9284C64.0751 30.1861 63.9807 30.4487 63.8815 30.716C63.7823 30.9833 63.1235 32.6921 61.9049 35.8425H61.4019L59.5812 31.167C59.5056 30.9809 59.4348 30.7828 59.3686 30.5728L59.149 29.8997V35.8353H58.6035V29.1909H59.397L61.2956 34.0811C61.4421 34.4821 61.5554 34.852 61.6357 35.1909Z" fill="#EA4C2F"/>
<path d="M70.9596 35.8422L70.8108 34.7897H70.7612C70.4914 35.1648 70.1431 35.4753 69.7411 35.699C69.3542 35.8847 68.9294 35.9755 68.5013 35.9639C67.9531 36.0002 67.4123 35.8206 66.9922 35.4627C66.8093 35.2836 66.6666 35.067 66.5737 34.8273C66.4808 34.5877 66.4399 34.3307 66.4538 34.0737C66.4441 33.773 66.5129 33.475 66.6535 33.2097C66.794 32.9445 67.0013 32.7214 67.2544 32.563C67.9618 32.1595 68.7665 31.9636 69.5781 31.9973L70.8321 31.9615V31.5033C70.8674 30.9961 70.7326 30.4916 70.4495 30.0713C70.2955 29.9014 70.1048 29.7697 69.8922 29.6865C69.6797 29.6033 69.4509 29.5708 69.2239 29.5916C68.5615 29.6068 67.9125 29.7837 67.3323 30.1071L67.1056 29.5845C67.7679 29.2568 68.4936 29.0808 69.231 29.0689C69.5243 29.0451 69.8193 29.083 70.0974 29.1804C70.3754 29.2778 70.6304 29.4324 70.8462 29.6346C71.2448 30.1346 71.4376 30.7704 71.3847 31.4102V35.835H70.9454L70.9596 35.8422ZM68.5367 35.4126C68.8404 35.4339 69.1452 35.389 69.4303 35.281C69.7154 35.1729 69.9742 35.0042 70.1892 34.7863C70.4041 34.5683 70.5703 34.3062 70.6763 34.0178C70.7823 33.7293 70.8258 33.4212 70.8037 33.1143V32.4556L69.656 32.5057C68.9723 32.492 68.2951 32.6416 67.6794 32.9424C67.4873 33.0627 67.331 33.2334 67.2274 33.4365C67.1239 33.6395 67.0769 33.8672 67.0914 34.0952C67.0788 34.2782 67.1066 34.4618 67.1727 34.6327C67.2389 34.8036 67.3418 34.9575 67.474 35.0832C67.7752 35.3231 68.1542 35.4406 68.5367 35.4126Z" fill="#EA4C2F"/>
<path d="M77.3994 29.7207H74.1334V35.8425H73.5312V29.1909H77.3994V29.7136V29.7207Z" fill="#EA4C2F"/>
<path d="M82.7408 35.8422L82.5921 34.7897H82.5425C82.2726 35.1648 81.9243 35.4753 81.5223 35.699C81.1354 35.8847 80.7106 35.9755 80.2825 35.9639C79.7343 36.0002 79.1935 35.8206 78.7735 35.4627C78.5906 35.2836 78.4478 35.067 78.3549 34.8273C78.262 34.5877 78.2212 34.3307 78.2351 34.0737C78.2253 33.773 78.2942 33.475 78.4347 33.2097C78.5753 32.9445 78.7826 32.7214 79.0356 32.563C79.743 32.1595 80.5478 31.9636 81.3594 31.9973L82.6133 31.9615V31.5033C82.6486 30.9961 82.5139 30.4916 82.2308 30.0713C82.0768 29.9014 81.8861 29.7697 81.6735 29.6865C81.4609 29.6033 81.2322 29.5708 81.0051 29.5916C80.3427 29.6068 79.6937 29.7837 79.1136 30.1071L78.8869 29.5845C79.5492 29.2568 80.2749 29.0808 81.0122 29.0689C81.3055 29.0451 81.6006 29.083 81.8786 29.1804C82.1567 29.2778 82.4117 29.4324 82.6275 29.6346C83.026 30.1346 83.2188 30.7704 83.1659 31.4102V35.835H82.7267L82.7408 35.8422ZM80.3179 35.4126C80.6217 35.4339 80.9264 35.389 81.2115 35.281C81.4966 35.1729 81.7554 35.0042 81.9704 34.7863C82.1854 34.5683 82.3515 34.3062 82.4575 34.0178C82.5636 33.7293 82.607 33.4212 82.585 33.1143V32.4556L81.4727 32.5057C80.789 32.492 80.1118 32.6416 79.4961 32.9424C79.3039 33.0627 79.1477 33.2334 79.0441 33.4365C78.9405 33.6395 78.8935 33.8672 78.9081 34.0952C78.8977 34.2741 78.926 34.4533 78.9908 34.6202C79.0556 34.787 79.1555 34.9377 79.2836 35.0618C79.5762 35.3042 79.947 35.4292 80.325 35.4126H80.3179Z" fill="#EA4C2F"/>
<path d="M86.5598 32.062C87.75 32.062 88.3451 31.6491 88.3451 30.8233C88.3548 30.6505 88.3223 30.4779 88.2507 30.3206C88.1791 30.1633 88.0704 30.0262 87.9342 29.9212C87.5861 29.6906 87.1736 29.5801 86.7582 29.6061C86.4546 29.6044 86.1521 29.6429 85.8584 29.7207C85.553 29.8074 85.2546 29.9175 84.9658 30.0501L84.7391 29.5489C85.3798 29.243 86.078 29.0794 86.7865 29.0692C87.3669 29.027 87.9442 29.1861 88.423 29.5202C88.6073 29.6698 88.754 29.8613 88.8513 30.079C88.9485 30.2967 88.9936 30.5346 88.9827 30.7732C88.9908 31.1178 88.8756 31.4538 88.6582 31.7195C88.4409 31.9852 88.136 32.1627 87.7996 32.2195V32.2553C88.2109 32.3333 88.5847 32.5474 88.8623 32.8639C89.094 33.1771 89.2117 33.5615 89.1953 33.9522C89.203 34.2269 89.1468 34.4997 89.0311 34.7484C88.9154 34.9971 88.7436 35.2149 88.5293 35.3842C87.9876 35.7677 87.3333 35.9545 86.6732 35.914C86.2799 35.9164 85.8877 35.8731 85.5042 35.7851C85.1985 35.7184 84.9047 35.6049 84.6328 35.4486V34.8973C84.9767 35.071 85.3376 35.2078 85.7097 35.3054C86.028 35.3788 86.3537 35.4148 86.6802 35.4128C87.1811 35.4484 87.6795 35.3149 88.0972 35.0333C88.2608 34.9061 88.3915 34.7406 88.4779 34.551C88.5642 34.3614 88.6038 34.1535 88.5931 33.945C88.6076 33.7475 88.5716 33.5496 88.4885 33.3703C88.4053 33.1909 88.2779 33.0363 88.1184 32.9212C87.6876 32.6752 87.1954 32.5608 86.7015 32.5918H85.7238V32.062H86.5386H86.5598Z" fill="#EA4C2F"/>
<path d="M91.4904 29.1908V33.995L91.4549 35.248L95.3585 29.1836H96.1591V35.8351H95.5852V31.0666V29.785L91.6816 35.8494H90.9023V29.1908H91.4691H91.4904Z" fill="#EA4C2F"/>
<path d="M98.9576 29.1909V32.105H103.13V29.1909H103.726V35.8425H103.13V32.6348H98.9576V35.8425H98.3555V29.1909H98.9576Z" fill="#EA4C2F"/>
<path d="M124.992 23.3124H115.18L118.672 6.6084H128.484L127.776 10.2313H122.385L121.853 12.8876H126.869L126.033 16.4676H121.017L120.373 19.6179H125.764L124.992 23.3124Z" fill="#EA4C2F"/>
<path d="M134.054 23.3126H129.648L132.326 10.3031H128.727L129.506 6.61572H141.125L140.324 10.3031H136.732L134.054 23.3126Z" fill="#EA4C2F"/>
<path d="M146.581 20.1835H141.516L140.099 23.3124H135.508L143.924 6.6084H149.592L151.009 23.3124H146.701L146.581 20.1835ZM143.131 16.6036H146.446L146.255 11.7635V10.7826C146.255 10.2098 146.269 9.71101 146.298 9.2862C146.112 9.9369 145.875 10.5714 145.589 11.1836L143.131 16.6036Z" fill="#EA4C2F"/>
<path d="M6.75157 23.1983L4.86 8.26276H4.7679C4.71595 8.81646 4.60732 9.57541 4.44201 10.5396C4.2767 11.5038 4.13501 12.2699 4.01694 12.8379L1.84907 23.1983H0L3.54227 6.35107H6.30525L8.00554 20.2269H8.10472L15.6214 6.35107H18.6536L15.2034 23.1983H13.2198C14.1644 18.6637 14.8988 15.184 15.4231 12.7592C15.9473 10.3344 16.3039 8.82601 16.4928 8.23412H16.422L8.24641 23.1983H6.75157Z" fill="#EA4C2F"/>
<path d="M25.8006 17.8427H20.133L17.3558 23.1983H15.2305L24.3129 6.35107H26.2965L28.4219 23.2054H26.4524L25.8006 17.8427ZM25.5952 16.0456L25.1984 12.6017C25.019 11.2718 24.9079 9.93354 24.8654 8.59212C24.5821 9.26992 24.2751 9.94295 23.9445 10.6112C23.6138 11.2795 22.6692 13.1005 21.1106 16.0742H25.6022L25.5952 16.0456Z" fill="#EA4C2F"/>
<path d="M40.6315 10.697C40.6766 11.5176 40.531 12.3375 40.2062 13.091C39.8814 13.8444 39.3865 14.5105 38.7612 15.0359C37.5143 16.0622 35.6936 16.5753 33.299 16.5753H31.7404L30.3235 23.2053H28.3965L31.9388 6.35098H35.7006C37.0225 6.25442 38.3348 6.6406 39.3988 7.43929C39.8309 7.8556 40.1657 8.36401 40.379 8.92755C40.5922 9.49108 40.6785 10.0956 40.6315 10.697ZM32.0875 14.8927H33.6036C34.9322 14.9874 36.2526 14.6184 37.3443 13.8474C37.7788 13.4695 38.1202 12.9946 38.3416 12.4602C38.5629 11.9258 38.6581 11.3466 38.6195 10.7686C38.6556 10.383 38.6027 9.99414 38.465 9.63263C38.3273 9.27112 38.1086 8.94679 37.826 8.68511C37.1174 8.20921 36.2732 7.98273 35.4244 8.04072H33.5399L32.0875 14.8927Z" fill="#EA4C2F"/>
<path d="M50.1301 23.1983H47.8843L42.6417 14.8427L40.906 23.1983H38.9648L42.5071 6.35107H44.4483L42.7055 14.5563L50.7394 6.35107H53.1339L44.7387 14.7783L50.1301 23.1983Z" fill="#EA4C2F"/>
<path d="M58.6657 23.1983H50.2988L53.8411 6.35107H62.1867L61.8183 8.11241H55.3714L54.252 13.5181H60.2597L59.9338 15.2723H53.8978L52.5942 21.4799H59.0412L58.6657 23.1983Z" fill="#EA4C2F"/>
<path d="M65.803 23.1983H63.8405L67.0003 8.09093H62.3457L62.7212 6.35107H73.9573L73.6172 8.09093H68.991L65.803 23.1983Z" fill="#EA4C2F"/>
<path d="M98.2564 9.98775C97.4314 9.98967 96.6382 10.3098 96.0389 10.8827C95.3266 11.563 94.7933 12.412 94.4874 13.3529C94.1053 14.4496 93.9158 15.6055 93.9277 16.7682C93.8661 17.5862 94.0918 18.4 94.5653 19.0665C94.7943 19.3252 95.0784 19.5279 95.3963 19.6594C95.7142 19.7909 96.0575 19.8477 96.4002 19.8254C97.0448 19.8236 97.687 19.7443 98.313 19.5892C99.096 19.3877 99.8613 19.1219 100.601 18.7944V22.5104C99.0246 23.2065 97.3201 23.5578 95.5997 23.5414C94.7646 23.5957 93.9276 23.4721 93.1428 23.1786C92.3581 22.885 91.6431 22.4281 91.0443 21.8374C89.907 20.4993 89.3324 18.7648 89.4432 17.0044C89.4215 15.0732 89.8156 13.1603 90.598 11.3983C91.2534 9.83445 92.3436 8.49638 93.7364 7.54623C95.0912 6.67256 96.6707 6.2218 98.2776 6.2503C100.204 6.22704 102.098 6.74779 103.747 7.75387L102.018 11.2551C101.4 10.8778 100.748 10.5613 100.07 10.3099C99.4876 10.1005 98.8745 9.99161 98.2564 9.98775Z" fill="#EA4C2F"/>
<path d="M105.101 6.50826H110.641C111.955 6.41789 113.264 6.7486 114.381 7.45336C114.8 7.76462 115.136 8.17619 115.359 8.65109C115.581 9.12599 115.684 9.64934 115.657 10.1741C115.657 12.3794 114.53 13.8233 112.277 14.5058V14.5989C112.918 14.7986 113.477 15.2031 113.871 15.7517C114.28 16.3503 114.489 17.0653 114.466 17.7922C114.508 18.5597 114.374 19.3265 114.072 20.0322C113.771 20.738 113.312 21.3633 112.731 21.859C111.574 22.8137 109.935 23.291 107.814 23.291H101.594L105.101 6.50826ZM107.524 16.2815L106.773 19.8113H107.686C108.279 19.8309 108.858 19.6324 109.316 19.2528C109.528 19.0821 109.697 18.8637 109.81 18.615C109.923 18.3664 109.977 18.0944 109.968 17.8209C110 17.3926 109.866 16.9684 109.592 16.6395C109.221 16.3379 108.748 16.1964 108.274 16.2457H107.502L107.524 16.2815ZM108.197 12.9593H109.018C109.559 12.9992 110.096 12.8445 110.534 12.5226C110.721 12.3385 110.864 12.114 110.953 11.8659C111.041 11.6179 111.072 11.3527 111.045 11.0906C111.045 10.3078 110.572 9.91636 109.628 9.91636H108.919L108.197 12.9593Z" fill="#EA4C2F"/>
<path d="M93.8634 -2.48225e-05H83.024C81.763 -2.48225e-05 80.7641 0.622885 80.7641 1.89734V2.56321L76.4212 11.4558H73.9629V12.1718H74.7847L79.9281 22.1956H76.7967V23.6276H86.7151V22.1956H84.3063L79.0496 12.1718H79.5951V11.4558H77.8452L81.4725 4.03815C81.8834 4.41762 82.4218 4.2959 83.024 4.2959H93.8634C94.1559 4.31864 94.4499 4.27992 94.7268 4.1822C95.0038 4.08448 95.2578 3.92987 95.4727 3.7281C95.6877 3.52633 95.859 3.28178 95.9758 3.00983C96.0927 2.73788 96.1525 2.44442 96.1517 2.14794C96.1525 1.85146 96.0927 1.558 95.9758 1.28605C95.859 1.0141 95.6877 0.769545 95.4727 0.567776C95.2578 0.366007 95.0038 0.211396 94.7268 0.113676C94.4499 0.0159561 94.1559 -0.0227566 93.8634 -2.48225e-05ZM82.8894 22.1956H81.4158L76.1591 12.1718H77.746L82.8894 22.1956ZM93.8634 2.86393H83.024C82.7422 2.86393 82.4719 2.75078 82.2726 2.54937C82.0733 2.34795 81.9613 2.07478 81.9613 1.78995C81.9613 1.50511 82.0733 1.23194 82.2726 1.03053C82.4719 0.829115 82.7422 0.715963 83.024 0.715963H93.8634C94.1452 0.715963 94.4155 0.829115 94.6148 1.03053C94.8141 1.23194 94.9261 1.50511 94.9261 1.78995C94.9261 2.07478 94.8141 2.34795 94.6148 2.54937C94.4155 2.75078 94.1452 2.86393 93.8634 2.86393Z" fill="#EA4C2F"/>
</g>
<defs>
<clipPath id="clip0">
<rect width="151" height="38.8495" fill="white"/>
</clipPath>
</defs>
</svg>
