<svg id="Слой_2" data-name="Слой 2" xmlns="http://www.w3.org/2000/svg" viewBox="0 0 766.96 314.61">
  <defs>
    <style>
      .cls-1 {
        fill: #f63e16;
      }
    </style>
  </defs>
  <g>
    <path class="cls-1" d="M401.72,63.64a1.8,1.8,0,0,1,2,2.06l1.62,36.39h-4.9L399,67.71h-1.17l-8.58,28.36a2,2,0,0,1-2.12,1.68h-4.4a2.14,2.14,0,0,1-2.23-1.68L372,67.71h-1.12l-1.33,34.38H364.6l1.51-36.39a1.88,1.88,0,0,1,2.06-2.06h5.57a2,2,0,0,1,2.06,1.67L383,88.77c.3.86.55,1.71.76,2.57s.43,1.72.69,2.62h1c.25-.9.5-1.77.72-2.62s.46-1.75.72-2.68l7.19-23.35a2,2,0,0,1,2.12-1.67Z"/>
    <path class="cls-1" d="M428,62.92a22,22,0,0,1,7.1,1,9.68,9.68,0,0,1,4.69,3.32,15.28,15.28,0,0,1,2.56,6.15,46.94,46.94,0,0,1,.81,9.48,46.83,46.83,0,0,1-.81,9.47,15.33,15.33,0,0,1-2.56,6.16,9.73,9.73,0,0,1-4.69,3.31,25.5,25.5,0,0,1-14.21,0,9.75,9.75,0,0,1-4.7-3.31,15.07,15.07,0,0,1-2.6-6.16,46.91,46.91,0,0,1-.8-9.47,47,47,0,0,1,.8-9.48,15,15,0,0,1,2.6-6.15,9.71,9.71,0,0,1,4.7-3.32A22,22,0,0,1,428,62.92Zm0,4.4a10.75,10.75,0,0,0-6,1.45,8,8,0,0,0-3.12,4.82,37,37,0,0,0-.92,9.28,37,37,0,0,0,.92,9.25A8,8,0,0,0,422,97a13.18,13.18,0,0,0,12,0,8,8,0,0,0,3.12-4.85,37,37,0,0,0,.92-9.25,37,37,0,0,0-.92-9.28A8,8,0,0,0,434,68.77,10.77,10.77,0,0,0,428,67.32Z"/>
    <path class="cls-1" d="M465.13,63c1.64,0,3,0,4.21.11a31.7,31.7,0,0,1,3.23.37c1,.16,2,.38,3,.64l-.5,3.73-3.1-.28c-.94-.07-2-.13-3-.16s-2.36-.06-3.85-.06a10.51,10.51,0,0,0-5.91,1.45,8.09,8.09,0,0,0-3.09,4.85,37,37,0,0,0-.92,9.25,37,37,0,0,0,.92,9.25A8.12,8.12,0,0,0,459.22,97a10.59,10.59,0,0,0,5.91,1.44c2.38,0,4.38,0,6-.14s3.21-.25,4.77-.47l.5,3.68a33.33,33.33,0,0,1-4.93,1,52.91,52.91,0,0,1-6.33.31,17.55,17.55,0,0,1-8.83-1.92,10.92,10.92,0,0,1-4.79-6.27A37.31,37.31,0,0,1,450,82.87a37.33,37.33,0,0,1,1.48-11.71,10.93,10.93,0,0,1,4.79-6.26A17.44,17.44,0,0,1,465.13,63Z"/>
    <path class="cls-1" d="M488.09,63.64v12a30.73,30.73,0,0,1-.17,3.23,28.46,28.46,0,0,1-.5,3.07c.19,1,.34,2.08.47,3.12a24.24,24.24,0,0,1,.2,3v14h-4.85V63.64ZM494,80.08v4h-7.41v-4Zm15.1-16.44c-.75,2.12-1.45,4.09-2.12,5.91s-1.35,3.45-2,4.9a21.33,21.33,0,0,1-2.23,3.76A10.13,10.13,0,0,1,500,80.75a8.2,8.2,0,0,1-3.51,1.17v.22a9.33,9.33,0,0,1,3.79,1.17A9.57,9.57,0,0,1,503.16,86,22.38,22.38,0,0,1,505.5,90c.73,1.58,1.45,3.38,2.18,5.4s1.53,4.25,2.42,6.66h-5.18q-1.56-4.35-2.79-7.69a34.76,34.76,0,0,0-2.59-5.65,10.45,10.45,0,0,0-3.15-3.51,7.81,7.81,0,0,0-4.46-1.2v-4a7.18,7.18,0,0,0,4.27-1.25,11.4,11.4,0,0,0,3.09-3.49,31.3,31.3,0,0,0,2.45-5.21c.74-2,1.52-4.15,2.34-6.49Z"/>
    <path class="cls-1" d="M529.94,62.92a22,22,0,0,1,7.1,1,9.6,9.6,0,0,1,4.68,3.32,15.29,15.29,0,0,1,2.57,6.15,46.94,46.94,0,0,1,.81,9.48,46.83,46.83,0,0,1-.81,9.47,15.33,15.33,0,0,1-2.57,6.16,9.65,9.65,0,0,1-4.68,3.31,25.5,25.5,0,0,1-14.21,0,9.75,9.75,0,0,1-4.7-3.31,15.07,15.07,0,0,1-2.6-6.16,46.91,46.91,0,0,1-.8-9.47,47,47,0,0,1,.8-9.48,15,15,0,0,1,2.6-6.15,9.71,9.71,0,0,1,4.7-3.32A22,22,0,0,1,529.94,62.92Zm0,4.4a10.75,10.75,0,0,0-6,1.45,8,8,0,0,0-3.12,4.82,36.51,36.51,0,0,0-.92,9.28,36.57,36.57,0,0,0,.92,9.25A8,8,0,0,0,524,97a13.18,13.18,0,0,0,12,0,8,8,0,0,0,3.12-4.85,37,37,0,0,0,.92-9.25,37,37,0,0,0-.92-9.28,8,8,0,0,0-3.12-4.82A10.77,10.77,0,0,0,529.94,67.32Z"/>
    <path class="cls-1" d="M565.88,63.2a26.08,26.08,0,0,1,7.52.86,6.72,6.72,0,0,1,4,3,12.32,12.32,0,0,1,1.26,6.13,10.78,10.78,0,0,1-1.54,6.29,6.47,6.47,0,0,1-5,2.51v.22c2.86.26,4.85,1.27,6,3a13.27,13.27,0,0,1,1.7,7.25,12.57,12.57,0,0,1-1.23,6.13,6.57,6.57,0,0,1-3.93,3,23.76,23.76,0,0,1-7.1.87c-2.19,0-4.08,0-5.66,0s-3-.07-4.37-.14-2.73-.17-4.18-.28l.78-3.9c.82,0,2.37.08,4.65.11s4.95.06,8,.06a17.49,17.49,0,0,0,4.82-.53,4,4,0,0,0,2.51-2,9.29,9.29,0,0,0,.75-4.18,10.9,10.9,0,0,0-.78-4.62,4.46,4.46,0,0,0-2.62-2.29,16,16,0,0,0-5-.72H554.12V80.3h12.32a15.85,15.85,0,0,0,4.43-.58,3.87,3.87,0,0,0,2.37-2,9,9,0,0,0,.72-4,8.36,8.36,0,0,0-.78-4,4,4,0,0,0-2.59-1.89,19,19,0,0,0-4.93-.5h-4.91l-3.81,0c-1.1,0-2,.07-2.76.14l-.78-3.9c1.3-.15,2.53-.25,3.7-.3s2.46-.1,3.85-.12Zm-7.69.44v38.45H553.4V63.64Z"/>
    <path class="cls-1" d="M601.6,63c1.63,0,3,0,4.21.11a31.7,31.7,0,0,1,3.23.37c1,.16,2,.38,3,.64l-.5,3.73-3.1-.28c-1-.07-2-.13-3-.16s-2.36-.06-3.85-.06a10.51,10.51,0,0,0-5.91,1.45,8.09,8.09,0,0,0-3.09,4.85,37,37,0,0,0-.92,9.25,37,37,0,0,0,.92,9.25A8.12,8.12,0,0,0,595.69,97a10.59,10.59,0,0,0,5.91,1.44c2.38,0,4.37,0,6-.14s3.21-.25,4.77-.47l.5,3.68a33.33,33.33,0,0,1-4.93,1,53,53,0,0,1-6.33.31,17.55,17.55,0,0,1-8.83-1.92A10.92,10.92,0,0,1,588,94.57a37.31,37.31,0,0,1-1.48-11.7A37.33,37.33,0,0,1,588,71.16a10.93,10.93,0,0,1,4.79-6.26A17.44,17.44,0,0,1,601.6,63Z"/>
    <path class="cls-1" d="M624.56,63.64v12a30.73,30.73,0,0,1-.17,3.23,28.46,28.46,0,0,1-.5,3.07c.19,1,.34,2.08.47,3.12a24.24,24.24,0,0,1,.2,3v14h-4.85V63.64Zm5.91,16.44v4h-7.42v-4Zm15.1-16.44c-.75,2.12-1.45,4.09-2.12,5.91s-1.35,3.45-2,4.9a22,22,0,0,1-2.23,3.76,10.13,10.13,0,0,1-2.71,2.54A8.2,8.2,0,0,1,633,81.92v.22a9.33,9.33,0,0,1,3.79,1.17A9.57,9.57,0,0,1,639.63,86,22.38,22.38,0,0,1,642,90c.73,1.58,1.45,3.38,2.18,5.4s1.53,4.25,2.42,6.66h-5.18q-1.56-4.35-2.79-7.69A34.76,34.76,0,0,0,636,88.75a10.45,10.45,0,0,0-3.15-3.51A7.81,7.81,0,0,0,628.4,84v-4a7.18,7.18,0,0,0,4.27-1.25,11.4,11.4,0,0,0,3.09-3.49,31.3,31.3,0,0,0,2.45-5.21c.74-2,1.52-4.15,2.34-6.49Z"/>
    <path class="cls-1" d="M668.19,63.64a1.94,1.94,0,0,1,1.17.36,1.78,1.78,0,0,1,.67,1l12.37,37.11h-5.07l-10-31.54c-.15-.52-.3-1-.47-1.59s-.33-1-.47-1.53h-1.56c-.15.48-.3,1-.45,1.53s-.32,1.07-.5,1.59l-10,31.54h-5.07L661.22,65a1.83,1.83,0,0,1,.67-1,2,2,0,0,1,1.17-.36Zm7.13,22.18v4.24h-19.5V85.82Z"/>
    <path class="cls-1" d="M699.17,63.14c2,0,3.79,0,5.24,0s2.78.06,4,.14,2.5.18,3.88.33l-.78,4c-.78-.08-2.25-.13-4.4-.17s-4.78-.05-7.86-.05A11.6,11.6,0,0,0,695,68a4.17,4.17,0,0,0-2.31,2.23,13.07,13.07,0,0,0-.11,8.58,4.92,4.92,0,0,0,2.23,2.56,8.73,8.73,0,0,0,4.24.86h12.53l.17,4.07-1.84,0-2.67.06-3.6,0c-1.35,0-2.89,0-4.59,0a5.18,5.18,0,0,0-3.15.92,5.82,5.82,0,0,0-1.93,3.15l-3.34,11.53h-5.24l3.57-11.76a8.67,8.67,0,0,1,1.34-2.78,6.69,6.69,0,0,1,3.9-2.62l-.06-.28A8.39,8.39,0,0,1,690,83a7.19,7.19,0,0,1-2.28-3.48,16.48,16.48,0,0,1-.7-5.07,14.66,14.66,0,0,1,1.25-6.58,7.55,7.55,0,0,1,4-3.57A18.6,18.6,0,0,1,699.17,63.14Zm13.1.5v38.45h-4.91V63.64Z"/>
  </g>
  <g>
    <path class="cls-1" d="M401.82,122.18a1.76,1.76,0,0,1,2,2l1.58,35.6h-4.8l-1.36-33.64h-1.15l-8.39,27.75a2,2,0,0,1-2.07,1.64h-4.31a2.08,2.08,0,0,1-2.18-1.64l-8.4-27.75h-1.09l-1.31,33.64h-4.79l1.47-35.6a1.84,1.84,0,0,1,2-2h5.45a2,2,0,0,1,2,1.63l7,22.95c.29.84.53,1.67.73,2.51s.43,1.69.68,2.56h1c.25-.87.49-1.72.7-2.56s.46-1.71.71-2.62l7-22.84a2,2,0,0,1,2.07-1.63Z"/>
    <path class="cls-1" d="M421,122.12h5.43c1.83,0,3.65,0,5.45.08s3.53.14,5.2.25l-.21,3.76h-15.1a3.18,3.18,0,0,0-2.46.84,4.08,4.08,0,0,0-.76,2.76v22.35a4.16,4.16,0,0,0,.76,2.78,3.12,3.12,0,0,0,2.46.87h15.1l.21,3.71c-1.67.11-3.4.18-5.2.22l-5.45.08c-1.84,0-3.65,0-5.43,0a7.62,7.62,0,0,1-5.29-1.77,6.13,6.13,0,0,1-2-4.77V128.66a6.1,6.1,0,0,1,2-4.79A7.66,7.66,0,0,1,421,122.12ZM414.69,138h20.06v3.87H414.69Z"/>
    <path class="cls-1" d="M447.18,122.18l9.59,18.15-10.3,19.46h-5.18l10.58-19.46L442,122.18Zm12.26,16.24v3.71h-5.83v-3.71Zm11.73-16.24-9.93,18.15,10.63,19.46h-5.23l-10.3-19.46L466,122.18Z"/>
    <path class="cls-1" d="M490.57,121.47a21.4,21.4,0,0,1,6.95,1,9.36,9.36,0,0,1,4.58,3.24,15,15,0,0,1,2.51,6,45.62,45.62,0,0,1,.79,9.26,45.8,45.8,0,0,1-.79,9.27,14.85,14.85,0,0,1-2.51,6,9.44,9.44,0,0,1-4.58,3.25,25.13,25.13,0,0,1-13.9,0,9.59,9.59,0,0,1-4.6-3.25,14.58,14.58,0,0,1-2.54-6,45.8,45.8,0,0,1-.79-9.27,45.62,45.62,0,0,1,.79-9.26,14.69,14.69,0,0,1,2.54-6,9.51,9.51,0,0,1,4.6-3.24A21.44,21.44,0,0,1,490.57,121.47Zm0,4.3a10.6,10.6,0,0,0-5.86,1.42,7.87,7.87,0,0,0-3,4.72,36,36,0,0,0-.9,9.07,36,36,0,0,0,.9,9.05,7.83,7.83,0,0,0,3,4.74,12.8,12.8,0,0,0,11.72,0,7.74,7.74,0,0,0,3.05-4.74,36,36,0,0,0,.9-9.05,36,36,0,0,0-.9-9.07,7.78,7.78,0,0,0-3.05-4.72A10.58,10.58,0,0,0,490.57,125.77Z"/>
    <path class="cls-1" d="M525.73,121.74a25.82,25.82,0,0,1,7.36.84,6.65,6.65,0,0,1,4,3,12.22,12.22,0,0,1,1.22,6,10.63,10.63,0,0,1-1.5,6.16,6.31,6.31,0,0,1-4.88,2.45v.22q4.2.39,5.86,3a12.92,12.92,0,0,1,1.67,7.08,12.35,12.35,0,0,1-1.2,6,6.42,6.42,0,0,1-3.85,3,23.51,23.51,0,0,1-7,.85c-2.14,0-4,0-5.53,0s-3-.06-4.28-.14-2.67-.16-4.09-.27l.76-3.82c.8,0,2.32.08,4.56.11s4.84.06,7.82.06a16.85,16.85,0,0,0,4.72-.52,3.89,3.89,0,0,0,2.45-1.94,9,9,0,0,0,.73-4.08,10.7,10.7,0,0,0-.76-4.53,4.34,4.34,0,0,0-2.56-2.23,15.35,15.35,0,0,0-4.91-.71h-12.1v-3.65h12a15.49,15.49,0,0,0,4.33-.58,3.75,3.75,0,0,0,2.32-1.91,8.71,8.71,0,0,0,.71-3.89,8.16,8.16,0,0,0-.77-3.93,4,4,0,0,0-2.53-1.85,18.67,18.67,0,0,0-4.82-.49h-4.8l-3.74,0c-1.07,0-2,.07-2.7.14l-.76-3.81q1.9-.23,3.63-.3c1.14-.06,2.4-.09,3.76-.11S523.88,121.74,525.73,121.74Zm-7.52.44v37.61h-4.69V122.18Z"/>
    <path class="cls-1" d="M562,122.18a1.84,1.84,0,0,1,1.14.35,1.69,1.69,0,0,1,.66,1l12.1,36.31h-5l-9.76-30.85c-.14-.51-.3-1-.46-1.56s-.32-1-.47-1.5h-1.52c-.15.48-.29,1-.44,1.5s-.31,1.05-.49,1.56l-9.76,30.85h-5l12.1-36.31a1.69,1.69,0,0,1,.66-1,1.88,1.88,0,0,1,1.14-.35Zm7,21.69V148H549.94v-4.15Z"/>
    <path class="cls-1" d="M592.35,121.68c2,0,3.71,0,5.12,0s2.72.07,3.9.14,2.44.18,3.79.33l-.76,3.87c-.77-.08-2.2-.13-4.31-.17s-4.67,0-7.69,0a11.6,11.6,0,0,0-4.17.62,4.11,4.11,0,0,0-2.26,2.19,12.85,12.85,0,0,0-.11,8.39,4.8,4.8,0,0,0,2.18,2.51,8.63,8.63,0,0,0,4.14.84h12.27l.16,4-1.79,0-2.62.05-3.52.06c-1.33,0-2.82,0-4.5,0a5.08,5.08,0,0,0-3.08.9,5.72,5.72,0,0,0-1.88,3.08L584,159.79h-5.12l3.49-11.5a8.46,8.46,0,0,1,1.31-2.73,6.85,6.85,0,0,1,1.82-1.72,6.49,6.49,0,0,1,2-.84l-.05-.27a8.17,8.17,0,0,1-4.06-1.67,7,7,0,0,1-2.24-3.4,16.43,16.43,0,0,1-.68-5,14.23,14.23,0,0,1,1.23-6.44,7.26,7.26,0,0,1,3.87-3.49A18.27,18.27,0,0,1,592.35,121.68Zm12.81.5v37.61h-4.8V122.18Z"/>
  </g>
  <g>
    <path class="cls-1" d="M370.6,180.47v11.91a30.07,30.07,0,0,1-.16,3.2,27.92,27.92,0,0,1-.5,3c.19,1,.34,2,.47,3.08a23.86,23.86,0,0,1,.19,3v13.85h-4.79V180.47Zm5.85,16.27v3.92h-7.33v-3.92Zm14.95-16.27c-.74,2.1-1.44,4-2.1,5.85s-1.33,3.42-2,4.85a21.63,21.63,0,0,1-2.21,3.72,10,10,0,0,1-2.67,2.51,8.11,8.11,0,0,1-3.48,1.16v.22a9.09,9.09,0,0,1,3.75,1.16,9.36,9.36,0,0,1,2.84,2.62,22.78,22.78,0,0,1,2.32,4c.72,1.57,1.43,3.35,2.15,5.35s1.52,4.21,2.4,6.6h-5.13q-1.54-4.31-2.76-7.62a34.42,34.42,0,0,0-2.56-5.59,10.46,10.46,0,0,0-3.12-3.48,7.73,7.73,0,0,0-4.41-1.18v-3.92a7.07,7.07,0,0,0,4.22-1.24,11.27,11.27,0,0,0,3.06-3.45,32.18,32.18,0,0,0,2.43-5.15q1.1-3,2.31-6.43Z"/>
    <path class="cls-1" d="M412,179.75a21.63,21.63,0,0,1,7,1,9.51,9.51,0,0,1,4.63,3.28,15.13,15.13,0,0,1,2.54,6.09,55.33,55.33,0,0,1,0,18.75,15.24,15.24,0,0,1-2.54,6.1,9.57,9.57,0,0,1-4.63,3.28,25.49,25.49,0,0,1-14.07,0,9.75,9.75,0,0,1-4.66-3.28,14.83,14.83,0,0,1-2.56-6.1,55.33,55.33,0,0,1,0-18.75,14.73,14.73,0,0,1,2.56-6.09,9.68,9.68,0,0,1,4.66-3.28A21.6,21.6,0,0,1,412,179.75Zm0,4.36a10.69,10.69,0,0,0-5.92,1.43,7.87,7.87,0,0,0-3.09,4.77,36.37,36.37,0,0,0-.91,9.19,36.29,36.29,0,0,0,.91,9.15,7.83,7.83,0,0,0,3.09,4.8,12.91,12.91,0,0,0,11.85,0,7.88,7.88,0,0,0,3.09-4.8,36.29,36.29,0,0,0,.91-9.15,36.37,36.37,0,0,0-.91-9.19,7.92,7.92,0,0,0-3.09-4.77A10.73,10.73,0,0,0,412,184.11Z"/>
    <path class="cls-1" d="M471.2,180.47a1.78,1.78,0,0,1,2,2l1.6,36h-4.86l-1.37-34H467.4l-8.5,28.07a2,2,0,0,1-2.09,1.65h-4.36a2.1,2.1,0,0,1-2.2-1.65l-8.5-28.07h-1.1l-1.32,34h-4.86l1.49-36a1.86,1.86,0,0,1,2-2h5.52a2,2,0,0,1,2,1.65l7.11,23.22c.3.85.54,1.7.75,2.54s.43,1.71.69,2.59h1c.26-.88.5-1.74.72-2.59s.46-1.73.71-2.65l7.12-23.11a2,2,0,0,1,2.09-1.65Z"/>
    <path class="cls-1" d="M488.47,180.47v38.06h-4.86V180.47Zm18.2,0v4H488v-4Zm4.24,0v38.06h-4.85V180.47Z"/>
    <path class="cls-1" d="M535.4,180.47a1.93,1.93,0,0,1,1.16.36,1.71,1.71,0,0,1,.66,1l12.25,36.74h-5l-9.88-31.22c-.14-.52-.3-1-.46-1.57s-.33-1-.47-1.52h-1.55c-.14.48-.29,1-.44,1.52s-.31,1-.5,1.57l-9.87,31.22h-5l12.25-36.74a1.71,1.71,0,0,1,.66-1,1.93,1.93,0,0,1,1.16-.36Zm7.06,21.95v4.19h-19.3v-4.19Z"/>
    <path class="cls-1" d="M559.67,180.47v38.06h-4.86V180.47Zm18.14,15.61v4.19H559.23v-4.19Zm4.25-15.61v38.06h-4.85V180.47Z"/>
    <path class="cls-1" d="M620.17,180.47v38.06h-4.69V190.78c0-.73,0-1.47.06-2.2a18.4,18.4,0,0,1,.22-2.15h-.28a20.15,20.15,0,0,1-.93,2.12q-.56,1.08-1,2l-16.88,28h-5V180.47h4.69v27.47q0,1.16-.09,2.28c0,.76-.12,1.5-.19,2.24h.22a20.21,20.21,0,0,1,1-2.1l1.13-2,16.71-27.85Z"/>
    <path class="cls-1" d="M641,180c2,0,3.75,0,5.18,0s2.75.07,3.95.14,2.47.18,3.83.33l-.77,3.92c-.77-.08-2.23-.13-4.36-.17s-4.72-.05-7.78-.05a11.62,11.62,0,0,0-4.22.63,4.12,4.12,0,0,0-2.28,2.21,11.3,11.3,0,0,0-.78,4.38,11.06,11.06,0,0,0,.67,4.11,4.82,4.82,0,0,0,2.2,2.54,8.7,8.7,0,0,0,4.19.85h12.41l.17,4-1.82,0L649,203l-3.56.05c-1.34,0-2.86,0-4.55,0a5.14,5.14,0,0,0-3.11.91,5.78,5.78,0,0,0-1.9,3.12l-3.31,11.42h-5.19l3.53-11.64a8.55,8.55,0,0,1,1.33-2.76,7,7,0,0,1,1.84-1.74,6.57,6.57,0,0,1,2-.85l-.06-.28a8.27,8.27,0,0,1-4.11-1.68,7.13,7.13,0,0,1-2.26-3.45,16.42,16.42,0,0,1-.69-5,14.3,14.3,0,0,1,1.24-6.5,7.36,7.36,0,0,1,3.92-3.53A18.25,18.25,0,0,1,641,180Zm13,.5v38.06h-4.85V180.47Z"/>
  </g>
  <path class="cls-1" d="M73.77,134s8.65-5.27,14.18-6.85c4.8-1.37,18.3-1.76,18.3-1.76V70l22.28,56.76a21.18,21.18,0,0,0,17.17,7.93c12.33-.19,17.52-8.33,17.52-8.33l22.46-57.73.07,69.46c7.1.06,15.32.27,21.06-1.9,7.3-2.47,10-5.08,12.52-11.8V43.57s-4.5-12.14-27.1-11.7a27.93,27.93,0,0,0-25.14,16l-20.54,55.56L123.17,42.88S116,31.43,98.52,31.43A30.47,30.47,0,0,0,73.77,44Z"/>
  <path class="cls-1" d="M219.33,143.51s-8.65,5.27-14.18,6.85c-4.8,1.37-18.3,1.76-18.3,1.76v55.37l-22.28-56.76a21.18,21.18,0,0,0-17.17-7.93c-12.33.19-17.52,8.33-17.52,8.33l-22.46,57.73-.07-69.45c-7.1-.06-15.32-.28-21.06,1.89-7.31,2.47-10,5.08-12.52,11.8v80.81s4.5,12.13,27.09,11.69a27.94,27.94,0,0,0,25.15-16L146.55,174l23.38,60.55S177.07,246,194.58,246a30.47,30.47,0,0,0,24.75-12.53Z"/>
  <path class="cls-1" d="M302.48,31.87h41.87l-73.56,107.5L344.35,246H302.88l-69.67-97c-.68-1.63-3.12-3.44-3.12-9.67,0-4.24,2.36-6.75,3.54-8.63Z"/>
</svg>
