<svg width="156" height="24" viewBox="0 0 156 24" fill="none" xmlns="http://www.w3.org/2000/svg">
<g clip-path="url(#clip0)">
<path d="M33.8141 6.70703C29.0365 6.70703 25.5957 10.3563 25.5957 15.066C25.5957 19.7755 29.0613 23.4002 33.8141 23.4002C36.0915 23.4002 38.1213 22.5618 39.6808 21.0084C41.2155 19.455 42.0324 17.433 42.0324 15.066C42.0324 10.3317 38.6164 6.70703 33.8141 6.70703ZM33.8141 20.1701C31.2396 20.1701 29.2841 18.1235 29.2841 15.0412C29.2841 11.9837 31.2644 9.88786 33.8141 9.88786C36.3885 9.88786 38.3193 11.9344 38.3193 15.0412C38.3193 18.1728 36.3885 20.1701 33.8141 20.1701Z" fill="#23398A"/>
<path d="M48.1449 18.7151V9.93711H50.5709V6.80556H48.1449V3.20557H44.8032V6.80556H42.9219V9.93711H44.8032V19.0357C44.8032 21.822 45.9913 22.9809 48.739 22.9809H51.66V19.5781H48.8133C48.3182 19.5781 48.1449 19.4303 48.1449 18.7151Z" fill="#23398A"/>
<path d="M61.0694 6.53425C59.5842 6.53425 58.297 7.00274 57.1831 7.96435V0H53.5938V23.0055H57.1831V14.0795C57.1831 11.0712 58.3217 9.76435 60.6239 9.76435C62.629 9.76435 63.4954 10.9233 63.4954 13.9562V23.0055H67.0847V13.7096C67.0847 9.22194 64.7578 6.53425 61.0694 6.53425Z" fill="#23398A"/>
<path d="M77.9254 6.70703C73.0983 6.70703 69.707 10.1098 69.707 15.1646C69.707 19.9974 73.3459 23.4002 78.1478 23.4002C81.1438 23.4002 83.5197 22.3399 85.8222 19.6522L83.2225 17.5317C81.6141 19.4057 80.005 20.1454 78.1977 20.1454C75.549 20.1454 73.6182 18.6166 73.2716 16.3728H86.2676V15.7071C86.2926 10.307 82.8512 6.70703 77.9254 6.70703ZM73.3212 13.3646C73.7667 11.3426 75.6233 9.91251 77.9006 9.91251C80.1282 9.91251 81.8614 11.2933 82.3567 13.3646H73.3212Z" fill="#23398A"/>
<path d="M91.8862 8.23581V7.07689H88.668V23.0057H92.0103V14.1289C92.0103 11.4166 93.0001 10.2577 94.8565 10.2577C95.1537 10.2577 95.5499 10.307 96.4906 10.5289V6.95361C95.8221 6.80566 95.5 6.80566 95.2036 6.80566C93.8667 6.80566 92.7528 7.29881 91.8862 8.23581Z" fill="#23398A"/>
<path d="M105.353 20.1454C102.754 20.1454 100.848 18.1481 100.848 15.066C100.848 12.0084 102.754 9.91251 105.353 9.91251C106.715 9.91251 107.755 10.3563 108.918 11.6632L111.196 9.02487C109.413 7.34813 107.581 6.70703 105.378 6.70703C100.576 6.70703 97.2344 10.2824 97.2344 15.066C97.2344 19.8495 100.601 23.4002 105.378 23.4002C107.606 23.4002 109.388 22.7345 111.344 20.9345L108.992 18.2467C107.903 19.6276 106.814 20.1454 105.353 20.1454Z" fill="#23398A"/>
<path d="M125.083 8.82736C123.697 7.49583 121.915 6.78076 119.835 6.78076C114.959 6.78076 111.74 10.1095 111.74 14.9917C111.74 19.578 115.206 23.2027 119.835 23.2027C121.89 23.2027 123.598 22.5862 124.885 21.2794V23.0054H128.449V7.07665H125.108V8.82736H125.083ZM120.206 20.0465C117.409 20.0465 115.355 18.0246 115.355 15.0163C115.355 12.0328 117.384 9.9862 120.206 9.9862C122.978 9.9862 125.009 12.0328 125.009 15.0163C125.033 17.9999 123.003 20.0465 120.206 20.0465Z" fill="#23398A"/>
<path d="M134.611 8.23581V7.07689H131.393V23.0057H134.735V14.1289C134.735 11.4166 135.725 10.2577 137.581 10.2577C137.878 10.2577 138.275 10.307 139.215 10.5289V6.95361C138.547 6.80566 138.225 6.80566 137.928 6.80566C136.566 6.80566 135.477 7.29881 134.611 8.23581Z" fill="#23398A"/>
<path d="M155.999 15.7068C155.999 10.2821 152.559 6.68213 147.632 6.68213C142.781 6.68213 139.414 10.0848 139.414 15.1396C139.414 19.9725 143.053 23.3753 147.88 23.3753C150.875 23.3753 153.251 22.315 155.554 19.6274L152.954 17.5068C151.346 19.3807 149.737 20.1205 147.929 20.1205C145.28 20.1205 143.35 18.5917 143.004 16.3478H155.999V15.7068ZM143.028 13.3643C143.474 11.3424 145.33 9.9123 147.608 9.9123C149.836 9.9123 151.568 11.2931 152.063 13.3643H143.028Z" fill="#23398A"/>
<path d="M16.9565 6.78076C14.9267 6.78076 13.2434 7.52049 11.8572 8.97524C10.6937 7.49583 9.25798 6.78076 7.42622 6.78076C5.94097 6.78076 4.67852 7.24925 3.53983 8.21092V7.07665H0V23.0054H3.58933V14.2274C3.58933 11.2191 4.70327 9.96155 6.95588 9.96155C8.78771 9.96155 9.80257 11.1451 9.80257 14.1041V23.0054H13.2682V14.2274C13.2682 11.2191 14.3821 9.96155 16.6347 9.96155C18.4665 9.96155 19.4319 11.1205 19.4319 14.1041V23.0054H22.9965V13.8329C22.9965 9.44379 20.6202 6.78076 16.9565 6.78076Z" fill="#23398A"/>
</g>
<defs>
<clipPath id="clip0">
<rect width="156" height="23.4" fill="white"/>
</clipPath>
</defs>
</svg>
