<svg width="97" height="40" viewBox="0 0 97 40" fill="none" xmlns="http://www.w3.org/2000/svg">
<g clip-path="url(#clip0)">
<path d="M12.1643 17.2999C12.1246 18.0838 11.6757 19.0124 11.297 19.5574C10.9 20.1343 10.4312 20.5027 9.87849 20.9031C9.02118 21.4611 8.03289 21.7869 7.01091 21.8484C5.99841 21.8422 4.99871 21.6223 4.07767 21.203V26.9572C4.07767 28.379 5.46413 28.7184 5.79089 28.7611C6.11765 28.8037 6.50244 28.8235 6.77576 28.8311V29.0259H0.22522V28.8448C0.522601 28.8309 0.817548 28.7845 1.10473 28.7063C1.52311 28.5723 2.16442 28.041 2.26062 27.8629C2.36691 27.5703 2.41866 27.2607 2.41331 26.9496L2.26062 13.8078C2.26223 13.4802 2.24438 13.1529 2.20718 12.8274C2.1331 12.5351 1.94661 12.2835 1.68802 12.1272C1.42284 11.9962 1.12566 11.9433 0.831412 11.9749C0.559618 11.9841 0.353482 11.9749 0.335159 11.9749V11.6492H7.11932C8.53937 11.6492 9.76244 11.908 10.5778 12.6737C12.4773 14.4547 12.2239 16.1642 12.1643 17.2999ZM10.1793 16.863C10.1793 16.2662 10.2388 14.7577 9.40209 13.5261C9.16541 13.1806 8.18054 12.4073 7.62168 12.2292C7.19414 12.0906 4.42581 11.6857 4.16318 12.7498L4.08378 13.0101V20.8437C6.11307 21.4237 7.38195 21.477 8.90583 20.2835C10.0862 19.361 10.1686 17.2953 10.1732 16.8691L10.1793 16.863Z" fill="#73797D"/>
<path d="M26.6228 29.1553L25.0501 29.1995C23.43 28.8768 22.2268 26.6649 21.6145 25.546C21.0785 24.5626 20.5242 23.0815 19.4767 22.7526L17.6795 22.7268L17.6948 27.3042C17.6948 27.525 17.7773 28.3805 18.4201 28.6971C18.7163 28.8494 19.3118 28.8174 19.5073 28.8235L19.5195 29.2056H14.4348V28.8326C14.5875 28.8204 14.844 28.8494 15.1311 28.8174C15.3003 28.8121 15.4673 28.777 15.6243 28.7139C16.4565 28.481 16.458 27.6483 16.458 27.4001L16.4656 17.7885C16.4656 17.5678 16.4656 17.1796 16.458 16.9984C16.4061 15.7928 16.1526 15.7106 15.8915 15.4579C15.7083 15.2752 15.2242 15.1748 14.502 15.1671V14.8201H20.2784C21.4098 14.8688 21.8832 15.0347 22.3321 15.2965C25.0104 16.8553 23.9949 19.7111 23.7155 20.2196C23.5094 20.5956 22.6803 21.4907 22.2817 21.6901C21.8832 21.8895 21.8038 22.0128 21.3411 22.2351C22.0053 23.1119 23.8148 27.5265 26.1311 28.9331L26.6228 29.1553ZM22.581 19.0961C22.6497 17.4216 22.2756 16.7625 21.8588 16.2799C21.6068 15.9846 21.1869 15.4746 20.4387 15.3087C19.0324 14.9951 17.7391 15.0849 17.6902 16.0699V22.3462H19.1301C20.2998 22.3888 21.0327 22.0813 21.6145 21.5242C22.1962 20.967 22.5398 20.0521 22.581 19.0961Z" fill="#73797D"/>
<path d="M37.8564 26.0164L37.1784 29.1995H27.3694V28.8311C27.5297 28.8174 28.0962 28.8311 28.3649 28.7824C28.669 28.7166 28.9506 28.5728 29.1819 28.3653C29.325 28.2296 29.4378 28.0654 29.5131 27.8834C29.5883 27.7014 29.6242 27.5056 29.6186 27.3088L29.5346 16.8218C29.5346 16.595 29.6094 16.1444 29.2063 15.6375C29.0624 15.4656 28.8738 15.3366 28.6612 15.2646C28.3227 15.1655 27.9771 15.0927 27.6274 15.0469V14.814H36.8165V17.7063H36.4577C36.4456 17.0648 36.249 16.4403 35.8912 15.907C35.682 15.6025 35.1781 15.1458 33.129 15.2052H31.3913C31.3242 15.205 31.2577 15.218 31.1957 15.2435C31.1336 15.2689 31.0772 15.3063 31.0297 15.3536C30.9822 15.4008 30.9445 15.4569 30.9188 15.5187C30.893 15.5805 30.8798 15.6467 30.8798 15.7136V21.5135H32.6159C33.3305 21.5135 34.3795 21.5379 34.5704 21.4389C34.8102 21.308 35.0149 21.1216 35.1674 20.8955C35.285 20.6976 35.3537 20.2865 35.4148 19.8679H35.7721V23.7467H35.4331C35.4194 23.2261 35.2942 22.6933 35.0453 22.3995C34.8926 22.1468 34.3688 21.9428 34.1413 21.9428C33.8756 21.9428 33.0053 21.9199 32.6572 21.9199H30.892V26.5309C30.9226 27.5189 30.8554 27.9223 31.2661 28.3759C31.4011 28.5186 31.5646 28.6315 31.7461 28.7073C31.9276 28.7831 32.123 28.8201 32.3197 28.8158H34.0177C34.5388 28.8151 35.0595 28.7826 35.5766 28.7184C35.8682 28.6279 36.136 28.4739 36.3605 28.2675C36.585 28.0611 36.7606 27.8074 36.8745 27.525C37.1356 26.8536 37.4563 26.1914 37.5326 25.8763L37.8564 26.0164Z" fill="#73797D"/>
<path d="M56.4774 29.1995H51.4095L51.4293 28.8266C51.6446 28.8266 52.2951 28.8768 52.7287 28.5891C52.9899 28.2987 53.1321 27.9211 53.1273 27.5311L53.0845 16.7626H52.547L47.5952 28.8692L47.2364 28.8768L42.6097 17.0959L42.2143 17.0761L41.886 25.2964C41.886 26.0713 41.886 26.8187 41.8707 27.4185C41.8494 27.6442 41.8888 27.8715 41.9849 28.077C42.081 28.2825 42.2302 28.4587 42.4173 28.5876C42.7823 28.8479 43.5763 28.7901 43.7091 28.7961L43.7611 29.1858H39.2505V28.8098C39.5345 28.7855 40.2033 28.7535 40.4827 28.5952C40.8049 28.411 40.9851 27.9726 41.0675 27.6072C41.15 27.2419 41.1469 26.8918 41.2767 25.8886L41.7195 18.7248C41.7195 18.3275 41.7104 18.1889 41.7195 17.8723C41.7195 17.6029 41.7195 17.3441 41.7195 16.9589C41.7195 16.7001 41.7989 15.8035 41.4416 15.4899C41.0599 15.1566 40.3804 15.1855 39.8643 15.1855L39.8521 14.7958H43.0678L47.9968 26.5295L51.6614 17.8921C51.782 17.5876 52.9914 14.9084 52.999 14.7958H56.3002V15.1657C55.4787 15.12 54.9031 15.1946 54.5962 15.5752C54.2603 16.0958 54.3473 17.5846 54.3473 17.7931L54.4923 27.5022C54.4923 27.7245 54.5885 28.1872 54.8985 28.4262C55.4787 28.8829 56.3109 28.7931 56.4804 28.7992L56.4774 29.1995Z" fill="#73797D"/>
<path d="M63.5378 29.1995H58.2898V28.8159C58.4608 28.8022 59.2762 28.8372 59.6411 28.5632C59.8192 28.4412 59.9645 28.2774 60.0644 28.0863C60.1642 27.8952 60.2155 27.6826 60.2137 27.4672L60.1984 17.0594C60.1984 16.8204 60.1984 16.5129 60.1984 16.3378C60.2054 16.1223 60.1436 15.9102 60.0221 15.7319C59.9006 15.5536 59.7255 15.4182 59.522 15.3453C59.2487 15.2266 58.6516 15.26 58.1615 15.2692V14.8125H63.5913V15.2692C63.0874 15.2174 62.5224 15.2174 62.2903 15.3544C62.0582 15.4914 61.7376 15.8218 61.6918 16.1338C61.6629 16.3891 61.6491 16.6457 61.6505 16.9026L61.623 27.4063C61.623 27.7488 61.6719 28.2314 62.0307 28.548C62.4491 28.8768 63.3057 28.8098 63.5149 28.8174L63.5378 29.1995Z" fill="#73797D"/>
<path d="M79.4501 15.2219C79.0211 15.2219 78.5828 15.1747 78.3217 15.3391C78.0255 15.5233 77.575 15.7349 77.575 16.9223C77.575 17.411 77.5247 18.1082 77.5247 18.8038L77.4239 23.9552C77.4189 24.9899 77.1566 26.0072 76.6604 26.916C76.3253 27.4906 75.8689 27.9856 75.3228 28.3668C74.8465 28.7166 74.312 28.9799 73.744 29.1446C73.2276 29.2962 72.6927 29.3756 72.1544 29.3806C71.3436 29.3806 70.5908 29.3425 69.9908 29.0442C69.4995 28.8255 69.0614 28.5036 68.7066 28.1004C68.3401 27.7135 68.0398 27.2691 67.8179 26.7851C67.6026 26.2934 67.3247 25.3024 67.3247 24.7681L67.3095 16.8523C67.2942 16.0683 67.0804 15.7456 66.8514 15.5264C66.6537 15.3872 66.4273 15.2941 66.1887 15.2539C65.913 15.2079 65.6344 15.1815 65.355 15.1747V14.8079H70.516V15.1945C69.6945 15.1945 69.4655 15.1869 69.0715 15.4731C68.8486 15.6893 68.5249 15.7243 68.5997 17.0715L68.6089 24.2262C68.6538 24.8281 68.7945 25.419 69.0257 25.9768C69.2624 26.4335 69.4166 26.8323 69.6884 27.1657C69.9785 27.5219 70.3145 27.9466 70.739 28.1795C71.3364 28.4949 71.9993 28.6674 72.6751 28.6834C73.3642 28.6692 74.043 28.5137 74.6693 28.2267C75.1347 27.9689 75.5335 27.6067 75.8343 27.1687C76.1286 26.7337 76.3671 26.2638 76.5444 25.7698C76.7743 25.1881 76.8909 24.5682 76.8879 23.943L76.9169 18.9439C76.9169 18.2025 76.9001 17.6621 76.8971 17.1324C76.8971 16.6498 76.8971 16.3712 76.7184 15.9907C76.6641 15.8443 76.5748 15.7133 76.4583 15.6091C76.3417 15.5048 76.2015 15.4305 76.0496 15.3924C75.6664 15.2996 75.2862 15.3041 74.651 15.2782V14.8079H79.4486L79.4501 15.2219Z" fill="#73797D"/>
<path d="M41.1028 11.9216H14.3754V12.0739H41.1028V11.9216Z" fill="#73797D"/>
<path d="M82.1711 11.9216H54.8054V12.0739H82.1711V11.9216Z" fill="#73797D"/>
<path d="M43.1152 12.4545C43.332 11.5706 43.631 10.7088 44.0085 9.88036C44.1016 9.67333 44.1932 9.47391 44.2925 9.27145C44.3952 9.06238 44.5094 8.8591 44.6345 8.66254C44.8781 8.27244 45.1512 7.90145 45.4514 7.5528C45.604 7.37472 45.7672 7.20595 45.9401 7.04741C46.1227 6.87721 46.3283 6.73323 46.5508 6.61965C46.684 6.55309 46.8296 6.51473 46.9784 6.507C47.0196 6.50462 47.0609 6.50462 47.1021 6.507C47.1372 6.507 47.1738 6.51765 47.2074 6.52527C47.2774 6.53982 47.3459 6.56071 47.412 6.58768C47.6503 6.69325 47.8629 6.84905 48.035 7.04436C48.6687 7.6841 49.2661 8.3585 49.8246 9.06442C49.9635 9.24405 50.0979 9.42824 50.2246 9.6231C50.3663 9.82494 50.4783 10.0459 50.5575 10.2792C50.5671 10.3158 50.5747 10.3529 50.5804 10.3903C50.586 10.4353 50.586 10.4808 50.5804 10.5258C50.5779 10.5917 50.5588 10.6559 50.5249 10.7126C50.491 10.7692 50.4434 10.8165 50.3865 10.85C50.3445 10.8722 50.2998 10.8891 50.2536 10.9003C50.2196 10.9097 50.1849 10.9168 50.1498 10.9216C50.0857 10.9323 50.0246 10.9383 49.9666 10.9429C49.7299 10.9612 49.5085 10.9642 49.281 10.9657C48.3862 10.9734 47.4991 10.9657 46.6287 11.0464C46.2019 11.0802 45.7811 11.1682 45.3766 11.3083C45.1911 11.3689 45.0197 11.4662 44.8727 11.5944C44.8123 11.6512 44.7649 11.7202 44.7338 11.7969C44.7059 11.8595 44.6949 11.9282 44.7017 11.9963C44.7254 12.0586 44.7681 12.1119 44.8239 12.1485C44.8994 12.2082 44.9813 12.2592 45.0682 12.3008C45.2579 12.3885 45.4558 12.4573 45.6591 12.5063C45.8686 12.5582 46.0813 12.5963 46.2958 12.6205C46.5142 12.6524 46.7325 12.6829 46.9524 12.7027C47.3891 12.7544 47.8289 12.7742 48.2671 12.7849C48.7048 12.7892 49.1423 12.7669 49.5772 12.7179C50.0074 12.6703 50.4313 12.5769 50.8415 12.4393C51.0422 12.3715 51.2364 12.286 51.4218 12.1836C51.6004 12.0785 51.7867 11.9659 51.8523 11.7908C51.8667 11.7498 51.8769 11.7075 51.8829 11.6645C51.8829 11.6432 51.8829 11.6249 51.8936 11.6051C51.9043 11.5853 51.8936 11.5655 51.8936 11.5457C51.9021 11.4684 51.9052 11.3906 51.9027 11.3128C51.8819 11.128 51.8303 10.9479 51.75 10.78C51.5568 10.4002 51.3267 10.0403 51.0629 9.7053C50.5499 8.98983 50.0292 8.26675 49.481 7.56346C49.1987 7.2117 48.9396 6.84202 48.7053 6.45676C48.5842 6.25765 48.4907 6.04308 48.4274 5.81893C48.3612 5.58074 48.379 5.3271 48.4778 5.10042C48.5682 4.88923 48.6808 4.68818 48.8138 4.50064C48.9498 4.31745 49.1032 4.1477 49.2718 3.99372C49.4137 3.83687 49.5222 3.65305 49.591 3.45331C49.6732 3.26411 49.6971 3.05481 49.6597 2.85202C49.6286 2.75793 49.5764 2.67215 49.5071 2.6012C49.4378 2.53024 49.3531 2.47597 49.2596 2.44252C49.1662 2.39868 49.0661 2.37089 48.9634 2.36032C48.913 2.36032 48.8596 2.36032 48.8107 2.35119C48.7396 2.35421 48.6691 2.33677 48.6076 2.30095C48.5901 2.28881 48.5742 2.27449 48.5603 2.25833C48.5436 2.23478 48.5326 2.20768 48.5282 2.17917C48.5234 2.14432 48.5234 2.10898 48.5282 2.07413C48.5366 2.01443 48.5494 1.95541 48.5664 1.89755C48.5966 1.78591 48.6333 1.67612 48.6763 1.56874C48.7594 1.35183 48.8764 1.1494 49.0229 0.968962C49.1685 0.772616 49.3641 0.618628 49.5894 0.522935C49.7069 0.485467 49.8295 0.465964 49.9528 0.465089C50.0205 0.464941 50.0874 0.479744 50.1486 0.508434C50.2099 0.537124 50.264 0.578989 50.3071 0.631017C50.3808 0.734028 50.4198 0.857673 50.4186 0.984185C50.4237 1.10473 50.4055 1.22514 50.3651 1.33887C50.323 1.44924 50.2632 1.55207 50.188 1.64333C50.1153 1.73617 50.0318 1.81999 49.9391 1.89298L49.8475 1.7712C50.023 1.65358 50.1596 1.48671 50.2399 1.29168C50.2757 1.19441 50.2898 1.0905 50.2811 0.987229C50.2803 0.890438 50.2494 0.79629 50.1926 0.717787C50.0781 0.577737 49.846 0.624928 49.6658 0.707131C49.4937 0.814866 49.3472 0.958776 49.2367 1.1288C49.113 1.30082 48.9955 1.48045 48.8825 1.66312C48.8258 1.75483 48.7748 1.8499 48.7298 1.94778C48.7105 1.99724 48.6952 2.04814 48.684 2.10001C48.682 2.12026 48.682 2.14065 48.684 2.1609C48.684 2.1609 48.6931 2.17156 48.6992 2.17308C48.7389 2.20505 48.8748 2.18983 48.9893 2.20353C49.1093 2.21498 49.2264 2.24637 49.336 2.29639C49.4481 2.34352 49.5514 2.40942 49.6413 2.49124C49.7345 2.5784 49.8016 2.68957 49.8353 2.81244C49.8836 3.04831 49.8602 3.2932 49.7681 3.51573C49.7276 3.62466 49.6791 3.73049 49.623 3.83236C49.5666 3.936 49.4974 4.03215 49.4169 4.11855C49.2572 4.26743 49.112 4.43105 48.9832 4.6072C48.8643 4.78661 48.7645 4.97793 48.6855 5.17805C48.5191 5.56167 48.7084 5.97268 48.9329 6.3365C49.1724 6.70421 49.4356 7.05608 49.7208 7.38992C50.2842 8.07799 50.8736 8.74779 51.4584 9.42216C51.7771 9.75981 52.0539 10.1344 52.2829 10.538C52.4043 10.7674 52.4819 11.0172 52.512 11.2748C52.5296 11.4186 52.5134 11.5645 52.4647 11.701C52.41 11.835 52.326 11.9552 52.2188 12.0526C52.0357 12.2214 51.8357 12.3709 51.6218 12.4987C51.4182 12.6137 51.2046 12.71 50.9835 12.7864C50.549 12.9341 50.1002 13.0361 49.6444 13.0908C49.1934 13.144 48.7396 13.17 48.2854 13.1685C47.8274 13.1609 47.3815 13.1426 46.9341 13.0939C46.7096 13.0741 46.4852 13.0452 46.2622 13.0132C46.034 12.9886 45.8075 12.9494 45.5843 12.896C45.3543 12.8416 45.1303 12.7646 44.9155 12.6661C44.7995 12.6134 44.6903 12.547 44.5903 12.4682C44.4641 12.3769 44.3722 12.2462 44.3291 12.0968C44.3097 12.0165 44.3066 11.9332 44.32 11.8517C44.3248 11.8168 44.3319 11.7822 44.3414 11.7482C44.3495 11.7133 44.3608 11.6791 44.375 11.6462C44.4274 11.5162 44.5064 11.3985 44.607 11.3006C44.7934 11.1315 45.0128 11.0024 45.2514 10.9216C45.6836 10.7677 46.1335 10.669 46.5905 10.6278C47.4945 10.5334 48.3938 10.5349 49.2795 10.5167C49.5009 10.5167 49.7223 10.506 49.9299 10.4862C49.9812 10.4826 50.0322 10.4759 50.0826 10.4664C50.1032 10.4637 50.1236 10.4596 50.1437 10.4543C50.1636 10.4543 50.1697 10.4436 50.1666 10.4543C50.1636 10.4649 50.1315 10.4801 50.1284 10.4938C50.1254 10.5075 50.1284 10.5091 50.1284 10.4938C50.1302 10.4838 50.1302 10.4735 50.1284 10.4634C50.1284 10.4512 50.1193 10.4299 50.1162 10.4116C50.0459 10.2264 49.952 10.0509 49.8368 9.88949C49.7177 9.71291 49.5879 9.53937 49.452 9.36888C48.8929 8.68426 48.2959 8.03121 47.664 7.41275C47.5398 7.2726 47.3867 7.16094 47.2151 7.08546C47.1773 7.0713 47.1385 7.06011 47.099 7.05197C47.0792 7.05197 47.0593 7.05197 47.0395 7.04284H46.9982C46.9239 7.05063 46.8518 7.07287 46.786 7.1083C46.6145 7.20267 46.4568 7.31995 46.3172 7.4569C46.1646 7.60036 46.0208 7.75286 45.8866 7.91358C45.6134 8.24553 45.3658 8.59768 45.1461 8.96699C45.0341 9.14755 44.9322 9.33405 44.8407 9.52567C44.7521 9.72204 44.662 9.92755 44.578 10.1346C44.2358 10.9321 43.969 11.7598 43.781 12.6068L43.1152 12.4545Z" fill="#73797D"/>
<path d="M96.9412 29.1995H91.8733L91.8932 28.8266C92.1085 28.8266 92.7589 28.8768 93.1926 28.5891C93.4538 28.2987 93.596 27.9211 93.5911 27.5311L93.5484 16.7626H93.0109L88.059 28.8692L87.7002 28.8768L83.0736 17.0959L82.6781 17.0761L82.3498 25.2964C82.3498 26.0713 82.3498 26.8187 82.3346 27.4185C82.3129 27.6441 82.352 27.8713 82.4479 28.0768C82.5437 28.2823 82.6927 28.4587 82.8797 28.5876C83.2461 28.8479 84.0386 28.7901 84.1715 28.7961L84.2249 29.1858H79.7144V28.8098C79.9999 28.7855 80.6687 28.7535 80.9481 28.5952C81.2688 28.411 81.4505 27.9726 81.5329 27.6072C81.6154 27.2419 81.6123 26.8918 81.7421 25.8886L82.1834 18.7248C82.1834 18.3275 82.1834 18.1889 82.1834 17.8723C82.1834 17.6029 82.1834 17.3441 82.1834 16.9589C82.1834 16.7001 82.2628 15.8035 81.904 15.4899C81.5452 15.1763 80.8443 15.1855 80.3282 15.1855L80.316 14.7958H83.5317L88.4622 26.5295L92.1268 17.8921C92.2459 17.5876 93.4568 14.9084 93.4629 14.7958H96.7641V15.1657C95.9426 15.12 95.3685 15.1946 95.0616 15.5752C94.7256 16.0958 94.8127 17.5846 94.8127 17.7931L94.9577 27.5022C94.9577 27.7245 95.0539 28.1872 95.3639 28.4262C95.9426 28.8829 96.7748 28.7931 96.9458 28.7992L96.9412 29.1995Z" fill="#73797D"/>
<path d="M34.5309 31.4601H14.3754V31.6123H34.5309V31.4601Z" fill="#73797D"/>
<path d="M56.4789 31.4601H39.246V31.6123H56.4789V31.4601Z" fill="#73797D"/>
<path d="M82.1451 31.4601H60.339V31.6123H82.1451V31.4601Z" fill="#73797D"/>
<path d="M15.3204 34.0373L15.7297 33.3629L16.0473 33.264H16.516C16.516 33.264 17.0367 33.1696 17.4078 33.4162C17.501 33.4789 17.5794 33.5611 17.6377 33.6571C17.696 33.753 17.7327 33.8604 17.7452 33.9718C17.8002 34.4087 17.5131 35.0953 17.4612 35.214C17.3425 35.4594 17.2047 35.695 17.0489 35.9188C16.8642 36.1179 16.6297 36.2644 16.3694 36.3435C16.2618 36.355 16.1529 36.3488 16.0473 36.3253C15.9486 36.3101 15.8482 36.3101 15.7495 36.3253C15.6849 36.3709 15.6359 36.4352 15.609 36.5095C15.6028 36.5666 15.6096 36.6243 15.6289 36.6784C15.6671 36.7591 15.8121 36.8444 16.0381 36.8307C16.2428 36.7742 16.4401 36.694 16.626 36.5917C16.626 36.5917 16.9787 36.3511 17.2016 36.1761C17.8246 35.6859 18.2781 34.4498 18.2583 33.643C18.2321 33.4737 18.1713 33.3115 18.0796 33.1665C17.9542 32.9683 17.7775 32.8074 17.5681 32.7007C17.5314 32.684 17.0108 32.6414 17.0108 32.6414H16.4733L16.035 32.6901L15.7663 32.7905L15.5067 33.0782L15.3174 33.4345L15.2181 33.812L15.3204 34.0373Z" fill="#73797D"/>
<path d="M13.6072 39.7366L13.9065 39.6863L14.2943 39.3393L16.1373 34.812L16.7404 33.2776L17.3024 31.8634L17.1237 31.7933L15.838 34.6339L15.3402 35.3083L13.6072 39.7366Z" fill="#73797D"/>
<path d="M21.7457 33.3524L21.8892 33.2793L23.1428 32.6384L23.1871 32.9353L22.926 33.6873L23.3001 33.4346L23.8742 32.9429L24.1964 32.713L24.569 32.7054C24.6078 32.7139 24.6456 32.7261 24.682 32.7419C24.7101 32.7862 24.7327 32.8337 24.7492 32.8835L24.5965 33.0921L24.2819 33.2184L23.804 33.4939L23.2818 33.8075L22.6176 34.7331L22.1198 36.0498L21.8144 36.8612L21.0983 36.9206L21.4495 36.2736C21.4495 36.2736 21.8755 35.2385 21.8892 35.1334C21.903 35.0284 22.4343 33.7938 22.4343 33.7938L22.3748 33.5777L21.7106 33.4742L21.7457 33.3524Z" fill="#73797D"/>
<path d="M30.7959 33.0447C30.7058 33.1391 30.5883 33.1346 30.2676 33.1544C30.0781 33.1606 29.889 33.1769 29.7011 33.2031C29.4377 33.2634 29.19 33.3786 28.9743 33.541C28.8143 33.6539 28.6673 33.7841 28.5361 33.9292C28.2578 34.2011 28.0257 34.5162 27.849 34.8623C27.7067 35.1272 27.6155 35.4164 27.5802 35.7148C27.5614 35.8896 27.5818 36.0664 27.6398 36.2324C27.6636 36.3259 27.7171 36.4093 27.7925 36.4699C27.8526 36.5036 27.9195 36.5238 27.9883 36.5291C28.0572 36.5343 28.1263 36.5245 28.191 36.5003C28.4559 36.4328 28.6992 36.2992 28.898 36.1121C29.2586 35.7947 29.5443 35.4017 29.7347 34.9613C29.8874 34.6081 30.1485 33.9733 29.808 33.8805C29.5026 33.7968 28.8018 34.5883 28.7636 34.4589C28.7086 34.2717 29.5271 33.4071 29.9393 33.4573C30.3149 33.5014 30.431 33.8683 30.4615 33.914C30.5207 34.0236 30.5482 34.1474 30.5409 34.2717C30.5559 34.415 30.5424 34.5598 30.5012 34.6979C30.4456 34.8992 30.3436 35.0848 30.2035 35.2399C29.9576 35.5321 29.1881 36.4653 28.4597 36.7926C28.2938 36.8698 28.1154 36.9172 27.9329 36.9326C27.7348 36.9563 27.5341 36.9214 27.3558 36.8322C27.2147 36.7645 27.099 36.6536 27.0259 36.5155C26.9313 36.3146 26.9694 35.998 27.0381 35.7544C27.2336 35.0755 27.9955 33.7663 28.9789 33.1909C29.2731 32.9991 29.5908 32.8456 29.9241 32.7342C30.1455 32.6657 30.7349 32.4846 30.8708 32.684C30.8967 32.7445 30.9034 32.8116 30.8901 32.876C30.8767 32.9405 30.8438 32.9994 30.7959 33.0447Z" fill="#73797D"/>
<path d="M38.2626 31.1663C38.5909 30.9669 38.8734 30.1875 38.6932 30.017C38.6116 29.9718 38.5192 29.9497 38.426 29.953C38.2332 29.9372 38.0392 29.9465 37.8488 29.9805C37.4996 30.0423 37.1681 30.1794 36.8777 30.3823C36.0699 30.9258 35.5645 31.7996 35.4072 32.0812C35.0514 32.719 34.856 33.4056 34.4514 34.6036C34.146 35.4957 33.3138 37.9526 32.7626 38.6163C32.604 38.8344 32.3782 38.9948 32.1197 39.073C32.0617 39.0897 31.9838 39.105 31.254 39.1324C30.9913 39.1415 30.8814 39.1445 30.8356 39.2222C30.7714 39.3318 30.8753 39.5266 31.0005 39.6393C31.1505 39.7499 31.3378 39.798 31.5227 39.7732C31.8041 39.7574 32.0746 39.6589 32.2999 39.4901C32.5991 39.2767 32.8577 39.0117 33.0634 38.7077C33.5586 37.9943 33.9908 37.2395 34.3552 36.4516C35.1751 34.7117 35.0988 34.6127 35.2881 33.9642C35.3248 33.844 35.4912 33.2625 35.7661 32.5196C35.9783 31.9503 36.2516 31.3155 36.4608 31.0795C36.7371 30.8078 37.0577 30.5849 37.409 30.4204C38.1389 30.1281 38.1145 30.5163 38.1847 30.5939" fill="#73797D"/>
<path d="M34.3705 32.7464V33.0646H36.383V32.6672H34.3705V32.7464Z" fill="#73797D"/>
<path d="M40.0965 34.4392C40.1423 34.5275 40.3943 34.4833 40.5454 34.4544C40.9458 34.378 41.3268 34.2228 41.6662 33.9977C41.9502 33.809 42.193 33.643 42.3533 33.3279C42.4083 33.2168 42.5427 32.9489 42.4266 32.7769C42.3884 32.719 42.3121 32.6551 42.0831 32.6246C41.7429 32.5929 41.4008 32.66 41.0982 32.818C40.712 33.0026 40.3587 33.2489 40.0522 33.5471C39.6539 33.9127 39.3249 34.3469 39.0811 34.8289C38.9131 35.1176 38.792 35.431 38.7223 35.7575C38.6398 36.173 38.6291 36.476 38.8124 36.7195C38.9271 36.8616 39.0901 36.9569 39.2704 36.9875C39.443 37.0179 39.6674 37.0133 40.0339 36.8185C40.1866 36.7348 40.5057 36.578 41.1822 35.9386C41.6265 35.5169 41.7273 35.284 41.7273 35.0511C41.7273 34.9141 41.6769 34.7315 41.6066 34.7238C41.5364 34.7162 41.454 34.9141 41.3975 35.0511C41.1501 35.6022 40.7241 35.928 40.3668 36.1989C40.0095 36.4699 39.669 36.6282 39.417 36.4516C39.191 36.2903 39.2338 35.928 39.4659 35.2551C39.5413 34.9896 39.6485 34.7341 39.785 34.494C39.9212 34.2739 40.0743 34.0647 40.2431 33.8683C41.1776 32.7632 41.6494 33.0356 41.6738 33.0646C41.7178 33.1438 41.7409 33.2328 41.7409 33.3234C41.7409 33.4139 41.7178 33.5029 41.6738 33.5821C41.5461 33.8104 41.3433 33.9878 41.0997 34.0845C40.7027 34.2261 40.3714 34.118 40.1835 34.2702C40.0889 34.3433 40.0614 34.3752 40.0965 34.4392Z" fill="#73797D"/>
<path d="M64.6785 32.9823C64.5885 33.0752 64.4724 33.0706 64.1502 33.0904C63.9606 33.0968 63.7715 33.1136 63.5837 33.1406C63.3201 33.2003 63.0722 33.3156 62.8569 33.4786C62.697 33.591 62.55 33.7206 62.4187 33.8652C62.1416 34.1381 61.9097 34.4531 61.7316 34.7984C61.589 35.0637 61.4978 35.3534 61.4628 35.6524C61.4441 35.8267 61.4644 36.0029 61.5224 36.1684C61.5466 36.2622 61.6 36.3459 61.6751 36.4074C61.7348 36.4417 61.8015 36.4621 61.8702 36.4671C61.939 36.4721 62.008 36.4616 62.0721 36.4364C62.3365 36.3687 62.5797 36.2357 62.779 36.0497C63.1396 35.7317 63.4254 35.3382 63.6158 34.8973C63.7685 34.5457 64.0296 33.9094 63.6891 33.8165C63.3837 33.7328 62.6828 34.5244 62.6447 34.3965C62.5912 34.2077 63.4081 33.3446 63.8204 33.3933C64.196 33.439 64.3121 33.8059 64.3426 33.85C64.4019 33.9591 64.4299 34.0823 64.4235 34.2062C64.4372 34.3501 64.4232 34.4953 64.3823 34.634C64.3266 34.8348 64.2247 35.0198 64.0846 35.1744C63.8387 35.4682 63.0692 36.4013 62.3423 36.7286C62.1759 36.8057 61.997 36.8526 61.814 36.8672C61.616 36.8921 61.4151 36.8577 61.2368 36.7682C61.0954 36.7004 60.9797 36.5888 60.907 36.4501C60.8139 36.2506 60.8505 35.934 60.9208 35.6889C61.1147 35.01 61.8766 33.7008 62.86 33.1254C63.1535 32.9324 63.4713 32.7788 63.8051 32.6687C64.0265 32.6002 64.6159 32.4175 64.7518 32.6185C64.7787 32.6793 64.786 32.7468 64.7729 32.8119C64.7598 32.8771 64.7268 32.9366 64.6785 32.9823Z" fill="#73797D"/>
<path d="M52.6693 33.5562C52.6556 33.4923 52.7655 33.5075 52.7991 33.4375C52.8136 33.4054 52.8194 33.3701 52.8159 33.3351C52.8124 33.3001 52.7998 33.2667 52.7792 33.2381C52.7457 33.2003 52.6996 33.176 52.6495 33.1696C52.5147 33.1455 52.3758 33.1625 52.2509 33.2183C52.1975 33.2426 51.6814 33.3857 51.6188 33.745C51.5821 33.9505 51.8096 34.1545 51.9242 34.3904C52.0387 34.6264 52.1089 34.6477 52.1822 34.8669C52.232 35.0207 52.2557 35.1818 52.2525 35.3434C52.2614 35.5125 52.2343 35.6816 52.1731 35.8396C51.8986 36.3047 51.4979 36.6831 51.0172 36.9311C50.8503 36.9984 50.6683 37.0194 50.4904 36.992C50.2948 37.0019 50.1016 36.9456 49.9422 36.8322C49.8885 36.7957 49.8443 36.7469 49.8132 36.69C49.7821 36.6331 49.7651 36.5696 49.7635 36.5049C49.765 36.4595 49.7786 36.4153 49.8031 36.377C49.8275 36.3387 49.8619 36.3077 49.9025 36.2872C49.9956 36.2522 50.0979 36.3207 50.2705 36.4394C50.443 36.5581 50.4354 36.5916 50.5301 36.619C50.6475 36.651 50.7714 36.651 50.8889 36.619C51.016 36.6059 51.1393 36.5679 51.2516 36.5073C51.364 36.4466 51.4632 36.3644 51.5436 36.2654C51.6241 36.1664 51.6841 36.0526 51.7203 35.9304C51.7565 35.8082 51.7682 35.6801 51.7547 35.5534C51.7271 35.3982 51.6695 35.2499 51.5852 35.1165C51.4325 34.8319 51.3653 34.8395 51.2798 34.6507C51.1925 34.4145 51.1855 34.1561 51.2599 33.9155C51.3307 33.727 51.4341 33.5523 51.5653 33.3994C51.8066 33.0706 52.3883 32.8621 52.5502 32.7996C52.867 32.7264 53.1944 32.711 53.5168 32.754C53.703 32.961 53.0877 33.5395 52.7533 33.9718C52.6876 34.0525 52.709 33.7419 52.6693 33.5562Z" fill="#73797D"/>
<path d="M47.2302 33.503C47.2165 33.439 47.3264 33.4542 47.36 33.3842C47.3742 33.3521 47.3798 33.3169 47.3763 33.2819C47.3729 33.247 47.3604 33.2135 47.3402 33.1848C47.3064 33.1472 47.2605 33.1224 47.2104 33.1148C47.0755 33.0908 46.9365 33.1083 46.8118 33.165C46.7584 33.1894 46.2423 33.3325 46.1797 33.6917C46.143 33.8972 46.3705 34.1012 46.4851 34.3372C46.5996 34.5731 46.6698 34.5929 46.7431 34.8136C46.7929 34.9675 46.8166 35.1285 46.8134 35.2901C46.8223 35.4593 46.7952 35.6284 46.734 35.7864C46.4595 36.2515 46.0588 36.6298 45.5781 36.8778C45.4113 36.9455 45.229 36.966 45.0513 36.9372C44.8566 36.9495 44.6634 36.8959 44.5031 36.785C44.4496 36.7483 44.4055 36.6996 44.3744 36.6427C44.3434 36.5858 44.3263 36.5224 44.3245 36.4577C44.3259 36.4121 44.3396 36.3678 44.364 36.3292C44.3884 36.2907 44.4228 36.2594 44.4634 36.2385C44.5566 36.205 44.6589 36.272 44.8314 36.3907C45.0039 36.5095 44.9963 36.5353 45.091 36.5703C45.208 36.6016 45.3312 36.6016 45.4483 36.5703C45.5762 36.5575 45.7004 36.5194 45.8134 36.4583C45.9265 36.3972 46.0263 36.3143 46.107 36.2145C46.1876 36.1146 46.2476 35.9998 46.2834 35.8767C46.3193 35.7535 46.3302 35.6245 46.3156 35.4971C46.2883 35.3419 46.2307 35.1934 46.1461 35.0602C45.9934 34.7756 45.9262 34.7817 45.8407 34.5944C45.7534 34.3582 45.7464 34.0998 45.8209 33.8592C45.892 33.6709 45.9954 33.4963 46.1262 33.3431C46.369 33.0143 46.9508 32.8058 47.1126 32.7418C47.4295 32.6689 47.757 32.654 48.0792 32.6977C48.2655 32.9047 47.6501 33.4816 47.3157 33.9155C47.2516 33.9977 47.2699 33.6887 47.2302 33.503Z" fill="#73797D"/>
<path d="M57.9814 31.4266C57.9541 31.4791 57.9408 31.5378 57.9427 31.5969C57.9445 31.6561 57.9616 31.7138 57.9921 31.7645C58.0404 31.8138 58.1033 31.8461 58.1716 31.8568C58.2398 31.8675 58.3097 31.856 58.3708 31.8239C58.4435 31.7876 58.5011 31.7271 58.5338 31.6528C58.5664 31.5786 58.5719 31.4953 58.5494 31.4174C58.5304 31.3514 58.4903 31.2933 58.4352 31.2521C58.3801 31.2109 58.3129 31.1888 58.244 31.1891C58.0745 31.2028 57.9997 31.3855 57.9814 31.4266Z" fill="#73797D"/>
<path d="M56.5476 33.0646L57.9402 32.5333H58.1219L56.598 36.3405L57.195 36.2325L57.3355 36.3908L56.2086 37.0012L55.9506 36.8779V36.4106L57.3752 33.0555L56.5583 33.264L56.5476 33.0646Z" fill="#73797D"/>
<path d="M68.1492 33.0647C68.1813 32.9384 68.5523 33.0891 68.9661 32.876C69.1463 32.7831 69.299 32.6385 69.554 32.6476C69.6151 32.6476 69.6471 32.6476 69.6624 32.6674C69.8472 32.8562 69.3143 33.5534 69.157 34.3419C69.1173 34.5474 69.4945 34.106 70.0808 33.5001C70.5938 32.9719 70.9389 32.8212 71.197 32.7557C71.31 32.7268 71.6764 32.6339 71.8078 32.7953C71.9024 32.9155 71.8215 33.1241 71.7665 33.2626C71.5192 33.9358 71.2126 34.5858 70.8504 35.2051C70.7694 35.3436 70.1663 36.1184 70.3541 36.3041C70.4854 36.429 70.9649 36.0788 71.0214 36.1413C71.0519 36.1747 70.9756 36.3102 70.8519 36.4457C70.4747 36.8719 69.8075 37.1627 69.5983 36.9618C69.5517 36.91 69.5266 36.8425 69.528 36.773C69.499 35.8688 71.2718 33.3707 70.9954 33.2596C70.9221 33.2291 70.2457 33.6539 70.1113 33.8106C68.5294 35.6374 68.2103 36.3224 68.0713 36.6543C68.0713 36.6649 67.8942 36.8065 67.8484 36.8324C67.711 36.9283 67.2499 36.9678 67.3476 36.8735C67.6453 36.5842 67.6789 36.3057 67.8057 36.0195C68.0637 35.4319 68.0439 35.3634 68.3828 34.4698C68.7096 33.6097 68.8928 33.3692 68.7966 33.2839C68.7004 33.1987 68.6226 33.2596 68.2836 33.2839C68.1782 33.2961 68.134 33.1302 68.1492 33.0647Z" fill="#73797D"/>
<path d="M79.4638 33.1575C79.1264 33.4223 78.4896 33.1468 77.7995 33.2473C77.4636 33.3068 77.1432 33.4331 76.8573 33.6187C76.3816 33.8916 75.9694 34.2621 75.648 34.7056C75.3426 35.0999 75.0372 36.1533 75.1991 36.3147C75.2405 36.3514 75.2889 36.3794 75.3413 36.3972C75.3937 36.415 75.4492 36.4221 75.5045 36.4182C75.7793 36.4182 75.9824 36.1731 76.0725 36.062C76.7596 35.2095 77.6468 33.4619 77.8804 33.5152C77.9247 33.5259 77.9598 33.7085 78.0331 33.9399C78.0774 34.0921 77.7277 34.4271 77.7277 34.7285C77.7277 34.9157 78.1995 34.7878 78.0865 35.0329C77.9735 35.278 77.517 36.237 77.5597 36.3375C77.6025 36.438 78.2133 36.0224 78.2881 36.1411C78.3339 36.2157 77.1307 37.1626 76.7413 36.8947C76.6848 36.8551 76.7306 36.7653 76.8619 36.4167C77.2742 35.313 77.2482 35.2643 77.2345 35.2552C77.1856 35.2278 76.9963 35.5596 76.5321 36.03C76.3472 36.2194 76.1476 36.394 75.9351 36.5521C75.4358 36.9205 75.2128 36.9358 75.1441 36.9388C75.0491 36.9474 74.9532 36.9358 74.863 36.9049C74.7727 36.8739 74.69 36.8243 74.6204 36.7592C74.5293 36.64 74.4819 36.4934 74.486 36.3436C74.4695 36.131 74.5003 35.9173 74.5761 35.7179C74.9655 34.6889 76.0847 33.8121 76.0847 33.8121C76.7586 33.2828 77.5402 32.9066 78.3751 32.7099C78.6484 32.646 79.4608 32.5866 79.5799 32.8058C79.6226 32.9307 79.6257 33.0326 79.4638 33.1575Z" fill="#73797D"/>
<path d="M83.3789 30.5086L84.7226 29.9271L84.8753 30.0017L82.4857 35.9142C82.4857 35.9142 82.3956 36.3466 82.4857 36.3603C82.5758 36.374 82.7834 36.4349 82.8292 36.3603C82.9595 36.219 83.1148 36.1028 83.2873 36.0178C83.3316 36.033 83.3911 36.1822 83.3911 36.1822L83.1529 36.3968L82.6002 36.8367L82.1513 36.9448C82.1513 36.9448 81.8077 36.7484 81.7787 36.6404C81.7631 36.4768 81.7631 36.3122 81.7787 36.1487L84.2126 30.4006L83.7057 30.5802L83.3789 30.5086Z" fill="#73797D"/>
</g>
<defs>
<clipPath id="clip0">
<rect width="97" height="39.9847" fill="white"/>
</clipPath>
</defs>
</svg>
