<svg width="98" height="24" viewBox="0 0 98 24" fill="none" xmlns="http://www.w3.org/2000/svg">
<g clip-path="url(#clip0)">
<path d="M19.3637 18.539C19.8504 18.3131 20.2408 17.9179 20.4639 17.4253C20.5813 17.1543 20.6398 16.8609 20.6355 16.565C20.6253 16.1852 20.519 15.8144 20.3266 15.4881C20.2418 15.345 20.1467 15.2084 20.042 15.0794C19.7289 14.74 19.3668 14.4506 18.968 14.2212H15.9802V20.9645H16.925V18.8393H18.5562L19.6261 20.9686H20.7506L19.3637 18.539ZM18.7803 18.2181H16.925V15.0304H18.7056C18.8817 15.0985 19.0439 15.199 19.184 15.3267C19.4464 15.5435 19.6356 15.8378 19.725 16.1686C19.8177 16.4622 19.8233 16.777 19.7412 17.0738C19.6686 17.3119 19.5421 17.5295 19.3718 17.7093C19.2145 17.9225 19.0125 18.0976 18.7803 18.2222V18.2181Z" fill="#010101"/>
<path d="M24.4656 20.9687L27.1203 14.2253L29.8254 20.9687H28.925L27.1445 16.4343L25.3155 20.9687H24.4656Z" fill="#010101"/>
<path d="M29.135 19.7732H25.3296V20.2902H29.135V19.7732Z" fill="#010101"/>
<path d="M33.5889 14.2253C33.6272 14.2253 37.9959 19.5219 37.9959 19.4831V14.2253H38.872V20.9687H37.9575L34.4529 16.6529L34.4004 20.9687H33.5546L33.5889 14.2253Z" fill="#010101"/>
<path d="M47.2236 15.2961C46.8054 14.8522 46.2942 14.5086 45.7277 14.2907L42.6854 14.2253V20.9687H45.5339C45.5339 20.9687 48.1361 20.2391 48.1361 17.6563C48.1507 16.7786 47.8228 15.9306 47.2236 15.2961ZM46.8199 19.0458C46.4888 19.6425 45.5541 20.1206 45.5541 20.1206L43.4828 20.1349L43.495 15.0775H45.3865C45.3865 15.0775 46.3959 15.67 46.6341 15.9888C47.0318 16.5405 47.4194 17.9689 46.8219 19.0458H46.8199Z" fill="#010101"/>
<path d="M51.913 14.2253H55.7607V15.2471H52.7709V17.552H55.3408V18.3081H52.7709V20.1349H55.6659V20.9687H51.913V14.2253Z" fill="#010101"/>
<path d="M59.9531 14.2253L61.7297 18.5308L63.3931 14.5523L65.1333 18.5308L67.039 14.2253H67.9798L65.1979 20.8134L63.5466 16.6775L61.8084 20.9687L59.0629 14.2253H59.9531Z" fill="#010101"/>
<path d="M74.784 20.9667C74.1378 20.9562 73.5091 20.7527 72.9769 20.3816C72.4446 20.0106 72.0326 19.4886 71.7926 18.8813C71.5525 18.2739 71.4951 17.6083 71.6277 16.9681C71.7602 16.3278 72.0767 15.7415 72.5374 15.2828C72.9982 14.8241 73.5825 14.5134 74.2172 14.3898C74.8518 14.2663 75.5083 14.3353 76.1043 14.5883C76.7003 14.8412 77.2091 15.2669 77.5668 15.8116C77.9246 16.3564 78.1153 16.9961 78.115 17.6502C78.107 18.5369 77.7517 19.3841 77.1272 20.0059C76.5027 20.6277 75.66 20.9732 74.784 20.9667ZM74.784 15.1491C74.2976 15.1595 73.8252 15.3151 73.4258 15.5962C73.0264 15.8773 72.7179 16.2715 72.5389 16.7293C72.3599 17.1872 72.3184 17.6883 72.4195 18.1699C72.5207 18.6516 72.7601 19.0922 73.1077 19.4367C73.4553 19.7812 73.8955 20.0142 74.3734 20.1065C74.8512 20.1988 75.3453 20.1462 75.7938 19.9555C76.2423 19.7647 76.6251 19.4442 76.8944 19.0341C77.1636 18.624 77.3073 18.1426 77.3074 17.6502C77.2995 16.9802 77.0294 16.3406 76.5563 15.8718C76.0833 15.403 75.446 15.1431 74.784 15.1491Z" fill="#010101"/>
<path d="M85.2605 20.9667C84.6144 20.9562 83.9857 20.7527 83.4534 20.3816C82.9212 20.0106 82.5092 19.4886 82.2691 18.8813C82.0291 18.2739 81.9717 17.6083 82.1042 16.9681C82.2368 16.3278 82.5533 15.7415 83.014 15.2828C83.4747 14.8241 84.0591 14.5134 84.6937 14.3898C85.3283 14.2663 85.9849 14.3353 86.5809 14.5883C87.1768 14.8412 87.6857 15.2669 88.0434 15.8116C88.4011 16.3564 88.5918 16.9961 88.5915 17.6502C88.583 18.5367 88.2276 19.3836 87.6032 20.0053C86.9788 20.627 86.1363 20.9727 85.2605 20.9667ZM85.2605 15.1491C84.7742 15.1595 84.3017 15.3151 83.9023 15.5962C83.503 15.8773 83.1944 16.2715 83.0154 16.7293C82.8364 17.1872 82.7949 17.6883 82.8961 18.1699C82.9973 18.6516 83.2367 19.0922 83.5842 19.4367C83.9318 19.7812 84.3721 20.0142 84.8499 20.1065C85.3278 20.1988 85.8219 20.1462 86.2704 19.9555C86.7188 19.7647 87.1017 19.4442 87.3709 19.0341C87.6402 18.624 87.7839 18.1426 87.784 17.6502C87.776 16.9802 87.5059 16.3406 87.0329 15.8718C86.5599 15.403 85.9225 15.1431 85.2605 15.1491Z" fill="#010101"/>
<path d="M91.5459 14.2253H92.5027C93.1286 14.2253 93.5767 14.5094 93.5767 15.3206C93.5767 16.0971 93.1286 16.4711 92.5027 16.4711H91.9294V17.4928H91.5398L91.5459 14.2253ZM92.4523 16.0644C92.9307 16.0644 93.1932 15.8192 93.1932 15.3165C93.1932 14.8138 92.9307 14.6238 92.4523 14.6238H91.9355V16.0542L92.4523 16.0644ZM92.632 16.326L93.0498 16.1216L93.7746 17.4846H93.2638L92.632 16.326Z" fill="#010101"/>
<path d="M95.4774 16.1216V14.2253H95.9337V16.1339C95.9337 16.9084 96.297 17.1556 96.7654 17.1556C97.2338 17.1556 97.6153 16.9125 97.6153 16.1339V14.2253H98.0534V16.1216C98.0534 17.1577 97.4982 17.5132 96.7654 17.5132C96.0326 17.5132 95.4774 17.1577 95.4774 16.1216Z" fill="#010101"/>
<path d="M6.12943 14.9304C6.12943 14.9304 4.52652 17.2865 4.20352 18.1447C3.90272 18.9396 3.63019 21.4265 3.63019 21.4265C3.63019 21.4265 1.5024 21.2691 0.690859 20.135C-0.282188 18.7721 0.266917 17.0556 0.266917 17.0556C0.997555 17.1697 1.66891 17.5296 2.17264 18.0773C2.92564 18.9641 3.19817 20.2597 3.19817 20.2597C3.19817 20.2597 3.27287 18.7884 3.73718 17.8076C4.10662 17.0495 6.12943 14.9304 6.12943 14.9304Z" fill="#9BD3D2"/>
<path opacity="0.39" d="M8.8984 6.8302C8.8984 6.8302 10.3943 8.81233 9.73215 11.0049C8.80957 13.9945 6.15893 14.8486 6.12865 14.7791C6.09837 14.7097 5.13542 12.9687 5.85814 10.5513C6.32245 8.99215 8.8984 6.8302 8.8984 6.8302Z" fill="#A16EAC"/>
<path opacity="0.52" d="M11.9264 7.99695C11.9264 7.99695 12.1767 10.259 10.8342 12.1083C8.71048 15.0304 6.12444 14.8608 6.12848 14.7791C6.13252 14.6973 5.3775 11.7957 8.26232 9.30066C9.48771 8.24216 11.9264 7.99695 11.9264 7.99695Z" fill="#C298CC"/>
<path opacity="0.52" d="M16.3228 9.49271C16.3228 9.49271 14.6492 12.4475 13.3209 13.1177C11.1164 14.2253 8.95224 13.7798 8.99463 13.7165C9.03703 13.6531 9.31158 11.2644 11.1285 10.1609C14.1385 8.32183 16.3228 9.49271 16.3228 9.49271Z" fill="#CEA3D7"/>
<path opacity="0.52" d="M25.4114 3.56684C25.4114 3.56684 23.6631 5.43249 22.571 5.68384C20.7541 6.09252 19.2501 5.38141 19.2925 5.34258C19.3349 5.30376 19.9567 3.60158 21.4849 3.11525C24.0164 2.31218 25.4114 3.56684 25.4114 3.56684Z" fill="#B581BF"/>
<path opacity="0.52" d="M37.5227 8.88192C37.5227 8.88192 35.9501 9.43978 34.9549 9.04335C34.5886 8.88426 34.2599 8.64825 33.9906 8.35093C33.7212 8.05361 33.5173 7.70177 33.3923 7.3187C33.4307 7.3187 34.9387 6.97336 35.9097 7.44743C36.5655 7.76947 37.1228 8.26516 37.5227 8.88192Z" fill="#F49908"/>
<path opacity="0.52" d="M53.8976 6.31717C53.8976 6.31717 52.8479 4.93582 51.895 4.93582C50.6454 4.93582 50.5687 3.28268 50.607 3.28064C51.3334 3.32586 52.0452 3.50668 52.7066 3.81397C54.1621 4.57617 53.8976 6.31717 53.8976 6.31717Z" fill="#DD7787"/>
<path opacity="0.52" d="M69.7025 7.62305C69.7025 7.62305 70.94 8.15638 71.8929 8.18703C73.1041 8.22586 73.5987 8.4159 73.5442 9.04732C73.4998 9.53569 72.9386 9.72573 71.9454 9.61334C70.3182 9.42739 69.7025 7.62305 69.7025 7.62305Z" fill="#E4EDB0"/>
<path opacity="0.52" d="M87.2192 10.5002C87.2192 10.5002 88.3033 10.4369 88.9554 10.3347C89.9284 10.1814 90.4069 9.10863 90.9217 9.85652C91.1134 10.1324 90.6128 10.7045 89.6741 10.9477C87.9581 11.3871 87.2192 10.5002 87.2192 10.5002Z" fill="#CE9DB9"/>
</g>
<defs>
<clipPath id="clip0">
<rect width="98" height="23.8378" fill="white"/>
</clipPath>
</defs>
</svg>
