<svg id="Слой_2" data-name="Слой 2" xmlns="http://www.w3.org/2000/svg" viewBox="0 0 1524.52 579.13">
  <defs>
    <style>
      .cls-1 {
        fill: #00a2e1;
      }
    </style>
  </defs>
  <g>
    <path class="cls-1" d="M668,234.26c4.17,4,9.31,7,14.81,9.78,5.82,2.92,17.21,3.71,24.06,3.71,4.62,0,15.41-.89,22.94-5,7.15-3.9,20.24-15.14,20.1-15.34l-14.67-13.5c-1.11,1-5.7,4.52-7.43,5.88a48.9,48.9,0,0,1-5.64,3.84,33.12,33.12,0,0,1-7.83,3.54,29,29,0,0,1-8.57,1.3,30.57,30.57,0,0,1-9.17-1.46,22.64,22.64,0,0,1-8.42-4.88,25.5,25.5,0,0,1-6.16-9.2,37.87,37.87,0,0,1-2.44-14.55,39.34,39.34,0,0,1,2.26-14.18,25.71,25.71,0,0,1,5.91-9.39,23.23,23.23,0,0,1,8.36-5.25,28.49,28.49,0,0,1,9.53-1.59,25.92,25.92,0,0,1,8.49,1.37,41.47,41.47,0,0,1,7.36,3.34,60.25,60.25,0,0,1,6,4c1.75,1.37,3.21,2.55,4.36,3.54h2.73l14-14.67c-1.7-.83-14.29-17.61-39.72-18.59-7-.27-20.12,1.18-26.42,4.85a69.5,69.5,0,0,0-14.72,11.09,42.68,42.68,0,0,0-9.54,15.39,57.77,57.77,0,0,0-3.28,20,58.55,58.55,0,0,0,3.44,20.88A40.65,40.65,0,0,0,668,234.26Z"/>
    <polygon class="cls-1" points="827.33 226.66 784.29 226.66 784.29 203.74 824.23 203.74 824.23 185.79 784.29 185.79 784.29 169.78 827.33 169.78 827.33 151.84 760.64 151.84 760.64 244.61 827.33 244.61 827.33 226.66"/>
    <polygon class="cls-1" points="906.65 220.17 935.22 182.49 935.22 244.61 954.98 244.61 954.98 151.84 934.83 151.84 904.11 190.43 873 151.84 852.85 151.84 852.85 244.61 873 244.61 873 182.49 900.78 220.36 906.65 220.17"/>
    <polygon class="cls-1" points="1043.02 226.66 999.99 226.66 999.99 203.74 1039.92 203.74 1039.92 185.79 999.99 185.79 999.99 169.78 1043.02 169.78 1043.02 151.84 976.33 151.84 976.33 244.61 1043.02 244.61 1043.02 226.66"/>
    <polygon class="cls-1" points="1129.04 182.86 1129.04 244.61 1145.98 244.61 1145.98 151.84 1129.04 151.84 1085.06 207.72 1085.06 151.84 1064.87 151.84 1064.87 244.61 1084.56 244.61 1129.04 182.86"/>
    <path class="cls-1" d="M1086,132.29q6.88,5.25,19.42,5.25t19.41-5.25q6.87-5.23,6.93-14.44h-16.52q-.09,5.34-2.26,7.77t-7.56,2.42q-5.42,0-7.57-2.4c-1.44-1.6-2.2-4.19-2.26-7.79h-16.52Q1079.14,127.06,1086,132.29Z"/>
    <polygon class="cls-1" points="1192.91 203.74 1228.02 203.74 1228.02 244.61 1251.8 244.61 1251.8 151.84 1228.02 151.84 1228.02 185.79 1192.91 185.79 1192.91 151.84 1169.14 151.84 1169.14 244.61 1192.91 244.61 1192.91 203.74"/>
    <rect class="cls-1" x="1354.14" y="151.84" width="23.78" height="92.77"/>
    <path class="cls-1" d="M1336.25,193a26.62,26.62,0,0,0-10.87-5.14,72.51,72.51,0,0,0-15.75-1.41h-19.14V151.84h-23.77v92.77h42.53a54.86,54.86,0,0,0,14.77-1.72,32.72,32.72,0,0,0,11.73-6.26,24.84,24.84,0,0,0,7-9.31,30.12,30.12,0,0,0,2.57-12.5,34.56,34.56,0,0,0-2.17-12.42A21.34,21.34,0,0,0,1336.25,193Zm-16.38,27.19a10,10,0,0,1-2.57,3.58,12.59,12.59,0,0,1-4.79,2.56,23.27,23.27,0,0,1-7,1h-15V203.67h15a25.92,25.92,0,0,1,8,1,11.67,11.67,0,0,1,4.58,2.68,8.4,8.4,0,0,1,2.17,3.8,18.55,18.55,0,0,1,.49,4.36A11.6,11.6,0,0,1,1319.87,220.15Z"/>
    <path class="cls-1" d="M748.06,306.22H677.2a210.53,210.53,0,0,1-3.92,41.58,150,150,0,0,1-11.32,35h-7.21V423h22.51V400.87h57.66V423h22.52V382.76h-9.38Zm-24.49,76.54H685.43a145.45,145.45,0,0,0,9.34-26.12,174.5,174.5,0,0,0,5.07-32.05h23.73Z"/>
    <path class="cls-1" d="M817.46,304.24q-22.9,0-35.91,13.3t-13,36.2q0,22.69,13,36.06t35.91,13.37q22.95,0,36-13.37t13-36.06q0-22.9-13.08-36.2T817.46,304.24Zm21.81,63.31a28.3,28.3,0,0,1-5.3,10.23,19.72,19.72,0,0,1-7.46,5.65,22.74,22.74,0,0,1-9,1.81,23,23,0,0,1-9-1.78,19.66,19.66,0,0,1-7.47-5.55,28.74,28.74,0,0,1-5.13-9.73A46.78,46.78,0,0,1,794,353.74a47.93,47.93,0,0,1,2-14.58,26.9,26.9,0,0,1,5.2-9.85,20.67,20.67,0,0,1,7.56-5.49,23.82,23.82,0,0,1,17.6.07,19.29,19.29,0,0,1,7.5,5.55,28.24,28.24,0,0,1,5.16,9.69,46.75,46.75,0,0,1,2,14.54A49.77,49.77,0,0,1,839.27,367.55Z"/>
    <path class="cls-1" d="M948.82,337.75c3.18-4.53,7.31-11.39,9.09-13.89l12.62-17.64-24.45-.07c-4,6.46-7.1,10.7-10.37,16.44-.77,1.36-4.28,6.87-5.68,8.8-7.33,10.18-17.62,8.19-20.41,8.06V306.22H885.13v95H908L907.33,359l15.07.39,23.87,41.82h27.45L938.93,352C940.34,351.27,945.92,341.87,948.82,337.75Z"/>
    <polygon class="cls-1" points="976.33 324.59 1005.99 324.59 1005.99 401.19 1030.48 401.19 1030.48 324.59 1060.14 324.59 1060.14 306.22 976.33 306.22 976.33 324.59"/>
    <path class="cls-1" d="M1112.77,304.24q-22.9,0-35.91,13.3t-13,36.2q0,22.69,13,36.06t35.91,13.37q23,0,36-13.37t13-36.06q0-22.9-13.07-36.2T1112.77,304.24Zm21.81,63.31a28.44,28.44,0,0,1-5.29,10.23,19.83,19.83,0,0,1-7.47,5.65,22.71,22.71,0,0,1-9,1.81,23.07,23.07,0,0,1-9-1.78,19.55,19.55,0,0,1-7.46-5.55,28.57,28.57,0,0,1-5.14-9.73,46.81,46.81,0,0,1-1.94-14.44,47.93,47.93,0,0,1,2-14.58,26.89,26.89,0,0,1,5.19-9.85,20.67,20.67,0,0,1,7.56-5.49,23.85,23.85,0,0,1,17.61.07,19.33,19.33,0,0,1,7.49,5.55,28.08,28.08,0,0,1,5.17,9.69,47.07,47.07,0,0,1,2,14.54A49.77,49.77,0,0,1,1134.58,367.55Z"/>
    <path class="cls-1" d="M1248.33,312.47a36.08,36.08,0,0,0-11-4.69,63.86,63.86,0,0,0-15.28-1.56h-40.31v95h24.5V370.26h15.24q10.39,0,17.38-2.87a39.06,39.06,0,0,0,12.66-8.49,27.76,27.76,0,0,0,6.38-10.23,35.94,35.94,0,0,0,2.23-12.47,30.39,30.39,0,0,0-3-14.1A25.22,25.22,0,0,0,1248.33,312.47Zm-14.57,31.18a11.77,11.77,0,0,1-3.42,4.87,14.63,14.63,0,0,1-6.79,3.05,57.14,57.14,0,0,1-10.3.76h-7V324h4.21c4,0,7.27.05,9.69.16a22.85,22.85,0,0,1,7.46,1.69,11.73,11.73,0,0,1,5,4,11.16,11.16,0,0,1,2.17,6.9A20,20,0,0,1,1233.76,343.65Z"/>
    <polygon class="cls-1" points="1460.7 151.84 1416.71 207.72 1416.71 151.84 1396.53 151.84 1396.53 244.61 1416.22 244.61 1460.7 182.86 1460.7 244.61 1477.64 244.61 1477.64 151.84 1460.7 151.84"/>
    <path class="cls-1" d="M1417.67,132.29q6.88,5.25,19.41,5.25t19.42-5.25q6.87-5.23,6.93-14.44h-16.52c-.06,3.56-.82,6.15-2.26,7.77s-4,2.42-7.57,2.42-6.12-.8-7.56-2.4-2.2-4.19-2.26-7.79h-16.52Q1410.79,127.06,1417.67,132.29Z"/>
    <path class="cls-1" d="M506.35,147.92H427.7V236.8H377.54a103.1,103.1,0,0,0-5.8-44.22C365.5,175.17,341.26,150,302.48,148c-39.52-2-66.33,30.48-66.33,30.48s-16.86-19.36-39.45-26.87c-28.25-9.38-66.77-.39-87.66,26.09-13.18,16.71-15.1,35-15.91,43.83-2.07,22.46,3.65,46.53,18.2,72,28.76,50.34,121.89,110.6,121.89,110.6s65.82-35,108.68-88.3h84.62v88.3h80.22V315.06H594V236.8H506.35Z"/>
  </g>
</svg>
