<svg width="146" height="23" viewBox="0 0 146 23" fill="none" xmlns="http://www.w3.org/2000/svg">
<g clip-path="url(#clip0)">
<path d="M17.8252 10.5856L16.5445 0.034668H6.79331L5.55917 10.5918C5.23939 13.5963 6.50224 14.4169 8.46986 15.3199C9.90813 15.9829 11.1477 16.5543 11.1477 19.1334V22.9764H12.225V19.1334C12.225 16.5597 13.4654 15.9829 14.9029 15.3199C16.8069 14.4402 18.1279 13.573 17.8136 10.5856H17.8252ZM11.6957 14.7314C9.4137 14.7314 7.7713 13.8642 7.17829 12.9434C6.76578 12.1778 6.63581 11.2914 6.81116 10.4396L6.9043 9.72999H16.4863L16.5794 10.4404C16.7531 11.292 16.6232 12.1775 16.2123 12.9434C15.6302 13.8642 13.9769 14.7314 11.6949 14.7314" fill="#A02842"/>
<path d="M10.0888 19.1344C10.0888 17.2362 9.40192 16.9163 8.02186 16.2812C6.35695 15.5126 4.0804 14.4645 4.52903 10.4584L5.72824 0.0356445H1.87448C1.37778 0.0370784 0.901831 0.235076 0.550607 0.586385C0.199384 0.937693 0.0014335 1.41376 0 1.91058L0 21.1258C0.00163706 21.6225 0.199652 22.0985 0.550832 22.4497C0.902012 22.801 1.37784 22.9991 1.87448 23.0007H10.0881V19.1344H10.0888ZM21.5391 0.0356445H17.6388L18.8729 10.4817C19.2626 14.1734 17.4346 15.3379 15.3801 16.3045C13.9713 16.8868 13.296 17.2299 13.296 19.1344V22.9774H21.5391C22.0357 22.9758 22.5116 22.7777 22.8628 22.4265C23.2139 22.0752 23.412 21.5992 23.4136 21.1025V1.88729C23.4059 1.39458 23.2052 0.924578 22.8546 0.578323C22.5041 0.232068 22.0317 0.0372109 21.5391 0.0356445Z" fill="#A02842"/>
<path d="M90.5884 12.0765V10.79C90.5884 6.44 88.1434 4.26228 84.4534 4.26228H84.4123C78.7601 4.30343 78.1896 9.30481 78.1896 10.877C78.1896 16.1175 80.8729 17.9513 84.4123 18.039H84.715C86.9621 18.039 89.5817 16.9676 90.4782 13.8233H86.945C86.6826 14.7604 85.5533 15.2611 84.715 15.2611H84.4123C81.9208 15.0872 81.729 13.0135 81.729 12.0532H90.6117L90.5884 12.0765ZM84.4123 7.07507C85.5013 7.07507 86.8806 7.72722 87.0723 9.82886H81.6995C81.8975 8.12317 82.7707 7.07507 84.3836 7.07507H84.4123ZM73.9742 0H77.4259V17.7416H73.9742V0ZM67.7344 4.25607C67.3995 4.25281 67.0649 4.27435 66.7332 4.32051C66.1179 4.44131 65.5374 4.69788 65.0339 5.07152C64.5303 5.44517 64.1165 5.92648 63.8225 6.48037H63.7813V4.65823H60.4632V23H63.9094V16.0127H63.9738C64.2407 16.5358 64.6307 16.9862 65.1104 17.325C65.59 17.6638 66.1448 17.8809 66.727 17.9575C67.0364 18.0119 67.3497 18.0413 67.6638 18.0452C71.5471 18.0452 73.2058 14.6152 73.2058 11.0579C73.2058 6.51608 70.6273 4.26771 67.7228 4.26771L67.7344 4.25607ZM66.7215 15.2324H66.6338C64.41 15.2324 63.7751 12.8101 63.7751 11.2551C63.7751 9.18214 64.5381 7.23733 66.7207 7.23733C69.0493 7.23733 69.6671 9.35683 69.6671 11.453C69.6671 13.3745 68.8397 15.1625 66.7207 15.2324H66.7215ZM40.752 4.65823V17.7595H44.2448V9.64874C44.2448 8.25127 44.7687 7.13873 46.3871 7.13873C48.1335 7.13873 48.4595 8.71089 48.4595 9.82886V17.73H51.8879V9.84594C51.8879 8.29708 52.5228 7.13873 54.2692 7.13873C55.2526 7.13873 56.1258 7.7971 56.1258 9.7357V17.73H59.555V8.62316C59.555 5.76456 57.5936 4.25684 55.0143 4.25684C54.3 4.25832 53.5991 4.45141 52.9848 4.81601C52.3705 5.1806 51.8651 5.70335 51.5215 6.32976C50.6017 4.95558 49.7751 4.25684 47.854 4.25684C47.0848 4.21962 46.3221 4.41378 45.6643 4.81425C45.0064 5.21473 44.4836 5.80317 44.1633 6.50366H44.0989V4.65823H40.752Z" fill="#4D4D4F"/>
<path d="M40.7734 0H44.08V3.19089H40.7734V0Z" fill="#A02842"/>
<path d="M39.4809 8.606C39.2193 4.8965 36.1627 4.26221 33.6067 4.26221C29.5318 4.26221 28.3271 6.73107 28.3271 8.65259C28.3271 13.567 36.4483 11.9079 36.4483 14.0911C36.4483 14.5747 36.0346 15.4707 34.2416 15.4707C32.0823 15.4707 31.4008 14.6384 31.4008 13.5259H27.873C27.873 17.0195 31.1912 18.0676 34.1601 18.0676C36.2155 18.0676 39.8767 17.3922 39.8767 13.567C39.8767 8.72246 31.6919 10.248 31.6919 8.17512C31.6919 7.59284 31.9309 6.88867 33.8109 6.88867C35.6908 6.88867 35.9943 7.78538 36.1394 8.63551L39.4809 8.606Z" fill="#4D4D4F"/>
<path d="M112.686 0H115.952V3.12101H112.686V0ZM132.066 8.69303C132.066 6.73657 131.897 4.3438 127.787 4.3438C125.604 4.3438 124.207 5.53786 123.27 6.23659V4.65823H118.077V6.35848H120.08V16.1175H115.958V4.65823H106.644V6.33519H108.309L105.875 14.196L102.563 4.65823H100.403L97.0968 14.1727L95.1005 6.3119H96.8469V4.65823H90.4434V6.33519H91.8226L95.0298 17.7774H97.7372L100.834 9.62545L103.856 17.7774H106.481L110.486 6.35848H112.704V16.1408H110.521V17.7774H125.29V16.1175H123.368V7.67987C124.412 7.16121 125.547 6.85458 126.71 6.77772C128.707 6.77772 128.823 7.90734 128.823 9.66039V16.1229H127.432V17.7595H134.115V16.1175H132.095L132.066 8.69303Z" fill="#A02842"/>
<path d="M145.535 10.592C145.535 7.52299 143.969 4.34375 139.917 4.34375C136.122 4.34375 133.514 7.08046 133.514 11.3893C133.514 15.6982 136.524 18.0156 140.453 18.0156C141.356 18.0151 142.249 17.831 143.079 17.4747C143.908 17.1184 144.657 16.5972 145.279 15.9427L144.424 14.3061C143.445 15.025 142.272 15.4309 141.058 15.4707C138.759 15.4707 137.065 14.5748 136.925 11.5811H145.535V10.592ZM136.838 9.96856C136.908 7.8545 137.752 6.1721 139.627 6.1721C141.629 6.1721 142.072 7.74426 142.072 9.96856H136.838Z" fill="#A02842"/>
</g>
<defs>
<clipPath id="clip0">
<rect width="145.534" height="23" fill="white"/>
</clipPath>
</defs>
</svg>
