<svg id="Слой_2" data-name="Слой 2" xmlns="http://www.w3.org/2000/svg" viewBox="0 0 173.37 150.74">
  <defs>
    <style>
      .cls-1 {
        fill: #e72d8e;
      }

      .cls-2 {
        fill: #445897;
      }
    </style>
  </defs>
  <path class="cls-1" d="M77.78,87.84l-7.4.7L109.44,23s1.62-2.66,3.7-2.66c2.37,0,3.77,2.66,3.77,2.66L199,163.83s1.23,3.1,0,5a6.06,6.06,0,0,1-3.5,2.25l-164.69-.29a5.58,5.58,0,0,1-3.68-1.21c-1.52-1.38-.79-3.94-.79-3.94l21.87-38.22,99.19-.12,2.17,2.81L58.19,136l-11,25.27,135.45-6L109.59,40.86,79.12,87.07Z" transform="translate(-26.18 -20.33)"/>
  <path class="cls-2" d="M55.09,112.82l3.15,1.62a7.31,7.31,0,0,1-7.05,4.17,7.31,7.31,0,0,1-4.45-1.27,8.07,8.07,0,0,1-2.63-3.43,12,12,0,0,1-.92-4.78,10.43,10.43,0,0,1,2.16-6.83,7.34,7.34,0,0,1,6-2.63A9.58,9.58,0,0,1,58.16,103l-3,2.63a4,4,0,0,0-3.74-1.75c-1.35,0-4.44.88-4.34,5.43s2.94,5.25,4.26,5.25A4.08,4.08,0,0,0,55.09,112.82Z" transform="translate(-26.18 -20.33)"/>
  <path class="cls-2" d="M69,118.61H65.36V103.34H61.18V99.67H73.27l0,3.67H69Z" transform="translate(-26.18 -20.33)"/>
  <polygon class="cls-2" points="51.5 79.34 55.22 79.34 55.18 89.99 64.52 79.34 66.23 79.34 66.23 98.28 62.64 98.28 62.48 87.03 52.97 98.28 51.5 98.28 51.5 79.34"/>
  <polygon class="cls-2" points="70.71 79.34 70.71 98.28 74.39 98.28 74.39 89.37 77.8 95.88 79.62 95.88 83.61 88.96 83.61 98.28 87.28 98.28 87.28 79.34 85.84 79.34 78.98 90.36 71.74 79.34 70.71 79.34"/>
  <polygon class="cls-2" points="94.46 79.34 98.85 86.54 103 79.34 107.16 79.34 96.43 98.28 92.26 98.28 96.77 90.2 90.07 79.34 94.46 79.34"/>
  <polygon class="cls-2" points="103.96 98.28 112.34 79.34 113.24 79.42 122.35 98.28 118.28 98.26 112.83 87.07 108.06 98.28 103.96 98.28"/>
</svg>
