<svg width="157" height="37" viewBox="0 0 157 37" fill="none" xmlns="http://www.w3.org/2000/svg">
<g clip-path="url(#clip0)">
<path d="M49.3105 15.1804H47.39V20.2406C47.39 20.5747 47.1019 20.8134 46.8139 20.8134H44.9414C44.6053 20.8134 44.3652 20.527 44.3652 20.2406V7.49464C44.3652 7.16048 44.6533 6.92179 44.9414 6.92179H46.8139C47.1499 6.92179 47.39 7.20822 47.39 7.49464V12.4594H49.3105C49.8866 9.16546 52.5273 6.68311 56.0802 6.68311C60.3053 6.68311 63.234 10.2157 62.8499 14.6075C62.5619 18.2833 59.5371 21.1953 55.8402 21.0999C52.3353 21.0044 49.8386 18.522 49.3105 15.1804ZM59.6811 13.8437C59.6811 11.4091 58.1928 9.45188 56.0322 9.45188C53.8717 9.45188 52.3833 11.3614 52.3833 13.8437C52.3833 16.3261 53.8717 18.2833 56.0322 18.2833C58.2408 18.2833 59.6811 16.3738 59.6811 13.8437ZM74.4209 20.8134H72.5484C72.2123 20.8134 71.9723 20.527 71.9723 20.2406V16.7557H68.2273V20.2406C68.2273 20.5747 67.9392 20.8134 67.6512 20.8134H65.7787C65.4426 20.8134 65.2025 20.527 65.2025 20.2406V10.7408C65.2025 10.4066 65.4906 10.1679 65.7787 10.1679H67.6512C67.9873 10.1679 68.2273 10.4544 68.2273 10.7408V14.2734H71.9723V10.7408C71.9723 10.4066 72.2603 10.1679 72.5484 10.1679H74.4209C74.757 10.1679 74.997 10.4544 74.997 10.7408V20.2406C75.0451 20.5747 74.757 20.8134 74.4209 20.8134ZM87.1441 20.8134H85.4157C85.0796 20.8134 84.8396 20.527 84.8396 20.2406V14.6075L80.8065 20.5747C80.7105 20.718 80.5185 20.8612 80.3264 20.8612H78.3579C78.0218 20.8612 77.7818 20.5747 77.7818 20.2883V10.7408C77.7818 10.4066 78.0698 10.1679 78.3579 10.1679H80.0863C80.4224 10.1679 80.6625 10.4544 80.6625 10.7408V16.3738L84.6955 10.4066C84.7915 10.2634 84.9836 10.1202 85.1756 10.1202H87.1441C87.4802 10.1202 87.7203 10.4066 87.7203 10.6931V20.1928C87.7683 20.5747 87.4802 20.8134 87.1441 20.8134ZM91.0811 10.1679H92.9536C93.2897 10.1679 93.5298 10.4544 93.5298 10.7408V14.5121L97.1787 10.3112C97.2747 10.1679 97.4668 10.1202 97.6108 10.1202H99.5313C100.059 10.1202 100.299 10.7408 99.9634 11.1227L96.8906 14.5121L100.684 19.8587C100.972 20.2406 100.684 20.8134 100.203 20.8134H98.0429C97.8509 20.8134 97.6588 20.718 97.5628 20.5747L94.8741 16.7557L93.4818 18.2356V20.1928C93.4818 20.527 93.1937 20.7657 92.9056 20.7657H91.0331C90.697 20.7657 90.457 20.4793 90.457 20.1928V10.7408C90.505 10.4066 90.7451 10.1679 91.0811 10.1679ZM101.596 15.5146C101.596 12.4594 104.092 9.977 107.405 9.977C110.718 9.977 113.215 12.4116 113.215 15.5146C113.215 18.5698 110.718 21.0521 107.405 21.0521C104.044 21.0521 101.596 18.6175 101.596 15.5146ZM110.19 15.5146C110.19 13.9392 109.038 12.5548 107.357 12.5548C105.629 12.5548 104.573 13.8915 104.573 15.5146C104.573 17.0899 105.725 18.4743 107.405 18.4743C109.182 18.4743 110.19 17.1376 110.19 15.5146ZM115.951 10.1679H118.112C118.304 10.1679 118.496 10.2634 118.592 10.4544L121.329 14.6553L124.114 10.4544C124.21 10.2634 124.402 10.1679 124.594 10.1679H126.754C127.09 10.1679 127.33 10.4544 127.33 10.7408V20.2406C127.33 20.5747 127.042 20.8134 126.754 20.8134H124.882C124.546 20.8134 124.306 20.527 124.306 20.2406V14.4166L121.809 18.0924C121.569 18.4266 121.041 18.4266 120.801 18.0924L118.352 14.5121V20.2883C118.352 20.6225 118.064 20.8612 117.776 20.8612H115.951C115.615 20.8612 115.375 20.5747 115.375 20.2883V10.7408C115.327 10.4066 115.615 10.1679 115.951 10.1679Z" fill="#353847"/>
<path d="M132.898 18.6651C132.898 18.4742 132.994 18.331 133.138 18.1877L137.604 14.5597C139.332 13.1276 140.052 12.3638 140.052 11.2181C140.052 10.0246 139.284 9.40403 138.18 9.40403C137.22 9.40403 136.547 9.88141 135.683 10.8362C135.491 11.0748 135.107 11.1226 134.867 10.8839L133.619 9.88141C133.379 9.69046 133.331 9.30856 133.523 9.06987C134.771 7.49453 136.115 6.63525 138.372 6.63525C141.301 6.63525 143.221 8.30607 143.221 10.9794C143.221 13.3185 142.021 14.4642 139.524 16.3737L137.22 18.14H142.741C143.077 18.14 143.317 18.4264 143.317 18.7129V20.1927C143.317 20.5269 143.029 20.7656 142.741 20.7656H133.475C133.139 20.7656 132.898 20.4792 132.898 20.1927V18.6651ZM151.815 17.8058H145.43C145.142 17.8058 144.902 17.6149 144.853 17.3285L144.517 15.8963C144.469 15.7054 144.517 15.5144 144.661 15.3712L151.959 6.92168C152.055 6.77847 152.247 6.73073 152.391 6.73073H154.12C154.456 6.73073 154.696 7.01715 154.696 7.30358V15.2758H155.992C156.328 15.2758 156.568 15.5622 156.568 15.8486V17.1375C156.568 17.4717 156.28 17.7104 155.992 17.7104H154.696V20.145C154.696 20.4792 154.408 20.7178 154.12 20.7178H152.391C152.055 20.7178 151.815 20.4314 151.815 20.145V17.8058ZM151.815 15.3235V10.9794L148.07 15.3235H151.815Z" fill="#8B92A4"/>
<path d="M46.093 32.0322V30.4569C45.8529 30.6956 45.5168 30.8388 45.1327 30.8388C44.6046 30.8388 44.2205 30.6478 43.8844 30.2659C43.5483 29.884 43.4043 29.3589 43.4043 28.6906C43.4043 28.0223 43.5483 27.4971 43.8844 27.1152C44.2205 26.7333 44.6046 26.5424 45.1327 26.5424C45.5168 26.5424 45.8049 26.6856 46.093 26.972V25.2535H47.0532V26.972C47.3413 26.6856 47.6294 26.5424 48.0135 26.5424C48.5416 26.5424 48.9257 26.7333 49.2618 27.1152C49.5979 27.4971 49.7419 28.0223 49.7419 28.6906C49.7419 29.3589 49.5979 29.884 49.2618 30.2659C48.9257 30.6478 48.5416 30.8388 48.0135 30.8388C47.6294 30.8388 47.2933 30.6956 47.0532 30.4569V32.0322H46.093ZM45.4208 30.0272C45.6609 30.0272 45.9009 29.9318 46.093 29.7408V27.5926C45.9009 27.4017 45.6609 27.3062 45.4208 27.3062C45.0847 27.3062 44.8447 27.4494 44.6526 27.6881C44.4606 27.9268 44.4126 28.2609 44.4126 28.6906C44.4126 29.1202 44.5086 29.4544 44.6526 29.6931C44.7967 29.884 45.0847 30.0272 45.4208 30.0272ZM47.7254 30.0272C48.0615 30.0272 48.3015 29.9318 48.4936 29.6931C48.6856 29.4544 48.7337 29.1202 48.7337 28.6906C48.7337 28.2609 48.6376 27.9268 48.4936 27.6881C48.3015 27.4494 48.0615 27.3062 47.7254 27.3062C47.4853 27.3062 47.2933 27.4017 47.0532 27.5926V29.7408C47.2453 29.9318 47.4853 30.0272 47.7254 30.0272ZM50.7982 30.7433V26.5424H51.7584V29.3589C52.6226 28.1177 53.2948 27.163 53.7749 26.5424H54.6872V30.7433H53.7749V27.9268L51.7584 30.7433H50.7982ZM55.9835 30.7433V26.5424H56.9437V28.261H58.8162V26.5424H59.7765V30.7433H58.8162V29.0725H56.9437V30.7433H55.9835ZM64.6257 30.7433H63.6655V30.2182C63.3294 30.6001 62.8493 30.8388 62.3211 30.8388C61.889 30.8388 61.5529 30.7433 61.2648 30.5046C60.9768 30.2659 60.8327 29.9318 60.8327 29.5499C60.8327 29.1202 60.9768 28.7383 61.3129 28.5474C61.6489 28.3087 62.033 28.2132 62.5612 28.2132C62.9933 28.2132 63.3774 28.2609 63.7135 28.4042V28.3087C63.7135 28.0223 63.6174 27.7836 63.4254 27.6404C63.2334 27.4971 62.9933 27.4017 62.6572 27.4017C62.2731 27.4017 61.889 27.4971 61.4569 27.6404L61.2168 26.8766C61.745 26.6379 62.2731 26.5424 62.8012 26.5424C63.4254 26.5424 63.8575 26.6856 64.1936 27.0198C64.4817 27.3062 64.6737 27.7836 64.6737 28.3087V30.7433H64.6257ZM63.6655 29.2157V28.977C63.3774 28.8815 63.0413 28.8338 62.7052 28.8338C62.4171 28.8338 62.1771 28.8815 61.985 29.0248C61.793 29.1202 61.745 29.3112 61.745 29.5021C61.745 29.6931 61.841 29.8363 61.985 29.9318C62.1291 30.0272 62.3211 30.075 62.5612 30.075C62.8973 30.075 63.1373 29.9795 63.3774 29.8363C63.5694 29.6931 63.6655 29.5021 63.6655 29.2157ZM65.874 30.7433V26.5424H66.8343V28.261H68.7067V26.5424H69.667V30.7433H68.7067V29.0725H66.8343V30.7433H65.874ZM72.8838 30.8388C72.2596 30.8388 71.7315 30.6478 71.3474 30.2182C70.9153 29.7886 70.7233 29.2634 70.7233 28.6906C70.7233 28.07 70.9153 27.5926 71.3474 27.163C71.7795 26.7333 72.3077 26.5424 72.8838 26.5424C73.556 26.5424 74.1321 26.7811 74.5642 27.2585L73.9881 27.8791C73.652 27.5449 73.2679 27.3539 72.8838 27.3539C72.5477 27.3539 72.2596 27.4971 72.0196 27.7358C71.7795 27.9745 71.6835 28.3087 71.6835 28.6906C71.6835 29.0725 71.7795 29.4067 72.0196 29.6453C72.2596 29.884 72.5477 30.0272 72.9318 30.0272C73.3159 30.0272 73.7 29.8363 74.0361 29.5021L74.6122 30.075C74.3722 30.3137 74.1321 30.5046 73.8441 30.6478C73.604 30.791 73.2679 30.8388 72.8838 30.8388ZM77.541 30.8388C76.9168 30.8388 76.3887 30.6478 75.9566 30.2182C75.5245 29.7886 75.3324 29.2634 75.3324 28.6906C75.3324 28.07 75.5245 27.5449 75.9566 27.163C76.3887 26.7333 76.9168 26.5424 77.541 26.5424C78.1652 26.5424 78.6933 26.7333 79.1254 27.163C79.5575 27.5926 79.7496 28.1177 79.7496 28.7383C79.7496 29.3589 79.5575 29.8363 79.1254 30.2659C78.7413 30.6478 78.2132 30.8388 77.541 30.8388ZM77.589 30.0272C77.9731 30.0272 78.2612 29.884 78.5012 29.6453C78.7413 29.4067 78.8373 29.0725 78.8373 28.6906C78.8373 28.3087 78.6933 27.9745 78.4532 27.7358C78.2132 27.4971 77.8771 27.3539 77.541 27.3539C77.1569 27.3539 76.8688 27.4971 76.6288 27.7358C76.3887 27.9745 76.2927 28.3087 76.2927 28.6906C76.2927 29.0725 76.4367 29.3589 76.6768 29.6453C76.9168 29.884 77.2049 30.0272 77.589 30.0272ZM80.9019 30.7433V26.5424H83.0624C83.4945 26.5424 83.8306 26.6379 84.0707 26.8288C84.3107 27.0198 84.4548 27.2585 84.4548 27.5926C84.4548 28.0223 84.2147 28.3564 83.7826 28.5474C84.3587 28.6906 84.6468 29.0725 84.6468 29.5976C84.6468 29.9318 84.5028 30.2182 84.2147 30.4091C83.9266 30.6001 83.5425 30.6956 83.0624 30.6956H80.9019V30.7433ZM81.8621 28.3087H82.8704C83.0624 28.3087 83.2064 28.2609 83.3505 28.1655C83.4465 28.07 83.4945 27.9268 83.4945 27.7836C83.4945 27.6404 83.4465 27.5449 83.3505 27.4494C83.2545 27.3539 83.1104 27.3062 82.8704 27.3062H81.8621V28.3087ZM81.8621 29.9795H82.9664C83.2064 29.9795 83.3505 29.9318 83.4945 29.8363C83.6385 29.7408 83.6866 29.5976 83.6866 29.4544C83.6866 29.3112 83.6385 29.168 83.4945 29.0725C83.3505 28.977 83.1584 28.9293 82.9184 28.9293H81.8621V29.9795ZM85.7031 30.7433V26.5424H86.6633V28.0223H87.5275C88.0077 28.0223 88.4398 28.1177 88.7278 28.3564C89.0159 28.5951 89.208 28.9293 89.208 29.3589C89.208 29.7886 89.0639 30.1227 88.7759 30.3614C88.4878 30.6001 88.1037 30.7433 87.6236 30.7433H85.7031ZM86.6633 29.9795H87.4795C87.7196 29.9795 87.9116 29.9318 88.0557 29.8363C88.1997 29.7408 88.2477 29.5976 88.2477 29.3589C88.2477 29.168 88.1997 29.0248 88.0557 28.9293C87.9116 28.8338 87.7196 28.7861 87.4795 28.7861H86.6633V29.9795ZM89.8801 30.7433V26.5424H90.8404V30.7433H89.8801ZM92.1367 30.7433V26.5424H93.097V29.3589C93.9612 28.1177 94.6334 27.163 95.1135 26.5424H96.0257V30.7433H95.0655V27.9268L93.0489 30.7433H92.1367ZM94.9214 25.7786C94.6814 25.9695 94.4413 26.065 94.1052 26.065C93.7691 26.065 93.4811 25.9695 93.289 25.7786C93.0489 25.5876 92.9049 25.3012 92.8569 24.9671L93.433 24.8716C93.5291 25.2535 93.7691 25.3967 94.1052 25.3967C94.4413 25.3967 94.6333 25.2057 94.7774 24.8716L95.3535 24.9671C95.2575 25.3012 95.1135 25.5876 94.9214 25.7786ZM99.7707 30.7433V26.5424H100.731L102.027 28.4996L103.372 26.5424H104.332V30.7433H103.372V27.9268L102.027 29.7886L100.731 27.9268V30.6956H99.7707V30.7433ZM109.181 30.7433H108.221V30.2182C107.885 30.6001 107.405 30.8388 106.876 30.8388C106.444 30.8388 106.108 30.7433 105.82 30.5046C105.532 30.2659 105.388 29.9318 105.388 29.5499C105.388 29.1202 105.532 28.7383 105.868 28.5474C106.204 28.3087 106.588 28.2132 107.117 28.2132C107.549 28.2132 107.933 28.2609 108.269 28.4042V28.3087C108.269 28.0223 108.173 27.7836 107.981 27.6404C107.789 27.4971 107.549 27.4017 107.213 27.4017C106.828 27.4017 106.444 27.4971 106.012 27.6404L105.772 26.8766C106.3 26.6379 106.828 26.5424 107.357 26.5424C107.981 26.5424 108.413 26.6856 108.749 27.0198C109.037 27.3062 109.229 27.7836 109.229 28.3087V30.7433H109.181ZM108.269 29.2157V28.977C107.981 28.8815 107.645 28.8338 107.309 28.8338C107.021 28.8338 106.78 28.8815 106.588 29.0248C106.396 29.1202 106.348 29.3112 106.348 29.5021C106.348 29.6931 106.444 29.8363 106.588 29.9318C106.732 30.0272 106.924 30.075 107.165 30.075C107.501 30.075 107.741 29.9795 107.981 29.8363C108.125 29.6931 108.269 29.5021 108.269 29.2157ZM110.429 32.0322V26.5424H111.39V27.2585C111.774 26.7333 112.254 26.4947 112.83 26.4947C113.358 26.4947 113.838 26.6856 114.222 27.0675C114.606 27.4494 114.798 27.9745 114.798 28.6429C114.798 29.3112 114.606 29.8363 114.222 30.2182C113.838 30.6001 113.358 30.791 112.83 30.791C112.254 30.791 111.774 30.5524 111.39 30.075V31.9845H110.429V32.0322ZM112.59 30.0272C112.926 30.0272 113.214 29.884 113.454 29.6453C113.694 29.4067 113.79 29.0725 113.79 28.6429C113.79 28.2609 113.694 27.9268 113.454 27.6881C113.214 27.4494 112.926 27.3062 112.59 27.3062C112.254 27.3062 111.966 27.4494 111.726 27.6881C111.486 27.9268 111.342 28.2609 111.342 28.6429C111.342 29.0248 111.486 29.3589 111.726 29.5976C111.966 29.884 112.254 30.0272 112.59 30.0272ZM115.855 30.7433V26.5424H116.815V28.5474L118.639 26.5424H119.792L118.159 28.3087L119.936 30.7433H118.784L117.487 29.0248L116.815 29.7408V30.7433H115.855ZM122.624 30.8388C122 30.8388 121.472 30.6478 121.088 30.2182C120.656 29.7886 120.464 29.2634 120.464 28.6429C120.464 28.0223 120.656 27.4971 121.04 27.1152C121.424 26.6856 121.904 26.4947 122.528 26.4947C123.153 26.4947 123.681 26.7333 124.017 27.163C124.353 27.5926 124.545 28.1177 124.545 28.7861V29.0725H121.472C121.52 29.4067 121.664 29.6453 121.856 29.8363C122.096 30.0272 122.336 30.1227 122.672 30.1227C123.105 30.1227 123.489 29.9795 123.825 29.6453L124.401 30.1227C123.921 30.6001 123.345 30.8388 122.624 30.8388ZM121.424 28.3564H123.585C123.537 28.0223 123.441 27.7836 123.249 27.5449C123.057 27.3539 122.817 27.2585 122.528 27.2585C122.24 27.2585 122 27.3539 121.808 27.5449C121.568 27.7836 121.472 28.0223 121.424 28.3564ZM126.513 30.7433V27.4017H125.169V26.5901H128.866V27.4017H127.522V30.7433H126.513Z" fill="#353847"/>
<path d="M7.68164 18.2833L15.3156 4.72586C16.1318 3.29373 17.6682 2.38672 19.3006 2.38672H26.5985C31.9758 2.38672 35.3367 8.11523 32.744 12.7935L29.6712 18.2833H7.68164Z" fill="url(#paint0_linear)"/>
<path d="M13.2051 8.83109L28.8091 8.64014C30.4895 8.64014 32.0259 9.49941 32.8421 10.9315L36.491 17.1852C39.1797 21.8157 35.8669 27.592 30.4895 27.6397L24.1999 27.7352L13.2051 8.83109Z" fill="url(#paint1_linear)"/>
<path d="M24.1987 8.83154L32.1688 22.1981C33.033 23.6302 33.033 25.3965 32.2168 26.8286L28.5679 33.13C25.8792 37.7605 19.2055 37.8083 16.4688 33.2254L13.252 27.8311L24.1987 8.83154Z" fill="url(#paint2_linear)"/>
<path d="M29.6729 18.2832L22.039 31.7929C21.2228 33.2251 19.6864 34.1321 18.054 34.1321H10.7081C5.33071 34.1321 1.96985 28.4036 4.56251 23.7253L7.68331 18.2832H29.6729Z" fill="url(#paint3_linear)"/>
<path d="M21.4144 27.8787L8.64316 27.9265C6.96273 27.9265 5.42634 27.0672 4.61014 25.6351L0.961206 19.3337C-1.72748 14.7032 1.58536 8.9269 6.96273 8.87917L13.2523 8.78369L21.4144 27.8787Z" fill="url(#paint4_linear)"/>
<path d="M13.2025 27.7354L5.23242 14.3689C4.3682 12.9367 4.3682 11.1705 5.18441 9.73832L8.83334 3.43696C11.522 -1.14584 18.2437 -1.19358 20.9804 3.43696L24.1973 8.83131L13.2025 27.7354Z" fill="url(#paint5_linear)"/>
<path d="M18.6764 18.2834L25.3021 10.6454L20.981 3.43706C20.741 3.05516 20.5009 2.721 20.2608 2.43457H19.3486C17.6682 2.43457 16.1798 3.34158 15.3636 4.77371L7.68164 18.2834H18.6764Z" fill="url(#paint6_linear)"/>
<path d="M13.2033 27.7353L18.7247 18.2355L16.132 8.68799L6.96168 8.87894C6.52957 8.87894 6.09746 8.92668 5.66535 9.02215L5.23324 9.78595C4.41703 11.2181 4.41703 12.9844 5.28125 14.4165L13.2033 27.7353Z" fill="url(#paint7_linear)"/>
<path d="M21.4133 27.8785L18.7726 18.2833L8.69007 16.4692L4.60903 23.7731C4.41698 24.1073 4.27294 24.4892 4.12891 24.8233L4.60903 25.6826C5.42524 27.1147 6.96163 27.974 8.64206 27.974L21.4133 27.8785Z" fill="url(#paint8_linear)"/>
<path d="M18.6792 18.2831L12.1016 26.0166L16.4227 33.1295C16.6627 33.5114 16.9028 33.8455 17.1428 34.132H18.0551C19.7355 34.132 21.2239 33.2249 22.0401 31.7928L29.674 18.2354H18.6792V18.2831Z" fill="url(#paint9_linear)"/>
<path d="M32.1692 22.1498L25.3034 10.645L18.6777 18.283L21.0783 27.8783L30.4887 27.6873C30.9209 27.6873 31.3049 27.6396 31.7371 27.5441L32.1692 26.7803C33.0334 25.3482 33.0334 23.5819 32.1692 22.1498Z" fill="url(#paint10_linear)"/>
<path d="M32.7926 12.7937C32.9846 12.4118 33.1767 12.0299 33.3207 11.648L32.8886 10.8842C32.0724 9.45205 30.536 8.59277 28.8556 8.59277L24.1504 8.68825L27.2712 13.8916L28.4235 20.7659L32.7926 12.7937Z" fill="url(#paint11_linear)"/>
<path d="M21.4145 8.68799H15.9412C14.1647 8.68799 12.5803 9.64274 11.6681 11.1226L8.93137 15.8009C8.06715 17.3285 8.06715 19.1903 8.93137 20.7179L11.6681 25.3961C12.5323 26.9237 14.1647 27.8308 15.9412 27.8308H21.4145C23.191 27.8308 24.7754 26.876 25.6876 25.3961L28.4243 20.7179C29.2886 19.1903 29.2886 17.3285 28.4243 15.8009L25.6876 11.1226C24.7754 9.64274 23.143 8.68799 21.4145 8.68799Z" fill="white"/>
<path d="M18.3904 24.4416C15.1255 24.2984 12.6289 21.4819 12.6289 18.2834V13.7006C12.6289 13.5097 12.821 13.3187 13.013 13.3187H15.1736C15.3656 13.3187 15.5577 13.5097 15.5577 13.7006V18.3312C15.5577 20.002 16.806 21.4341 18.4864 21.5296C20.3109 21.6728 21.7992 20.1929 21.7992 18.4267V13.6529C21.7992 13.4619 21.9913 13.271 22.1833 13.271H24.3439C24.5359 13.271 24.728 13.4619 24.728 13.6529V18.4267C24.728 21.8638 21.8473 24.5848 18.3904 24.4416Z" fill="url(#paint12_linear)"/>
</g>
<defs>
<linearGradient id="paint0_linear" x1="23.5746" y1="8.236" x2="26.2735" y2="2.22568" gradientUnits="userSpaceOnUse">
<stop stop-color="#E2A41A"/>
<stop offset="1" stop-color="#FAE100"/>
</linearGradient>
<linearGradient id="paint1_linear" x1="29.3103" y1="18.1824" x2="37.65" y2="18.1824" gradientUnits="userSpaceOnUse">
<stop stop-color="#E2A41A"/>
<stop offset="1" stop-color="#FAE100"/>
</linearGradient>
<linearGradient id="paint2_linear" x1="25.0567" y1="27.232" x2="29.0171" y2="32.4783" gradientUnits="userSpaceOnUse">
<stop stop-color="#E2A41A"/>
<stop offset="1" stop-color="#FAE100"/>
</linearGradient>
<linearGradient id="paint3_linear" x1="14.5937" y1="28.1296" x2="12.3787" y2="34.5228" gradientUnits="userSpaceOnUse">
<stop stop-color="#E2A41A"/>
<stop offset="1" stop-color="#FAE100"/>
</linearGradient>
<linearGradient id="paint4_linear" x1="6.97282" y1="18.3751" x2="0.775878" y2="18.3751" gradientUnits="userSpaceOnUse">
<stop stop-color="#E2A41A"/>
<stop offset="1" stop-color="#FAE100"/>
</linearGradient>
<linearGradient id="paint5_linear" x1="12.0593" y1="9.36168" x2="7.90393" y2="4.21085" gradientUnits="userSpaceOnUse">
<stop stop-color="#E2A41A"/>
<stop offset="1" stop-color="#FAE100"/>
</linearGradient>
<linearGradient id="paint6_linear" x1="16.5111" y1="8.73211" x2="16.5111" y2="2.49186" gradientUnits="userSpaceOnUse">
<stop stop-color="#E2A41A"/>
<stop offset="1" stop-color="#FAE100"/>
</linearGradient>
<linearGradient id="paint7_linear" x1="10.2097" y1="13.5988" x2="5.76029" y2="8.92934" gradientUnits="userSpaceOnUse">
<stop stop-color="#E2A41A"/>
<stop offset="1" stop-color="#FAE100"/>
</linearGradient>
<linearGradient id="paint8_linear" x1="11.6625" y1="24.6204" x2="6.52634" y2="28.4222" gradientUnits="userSpaceOnUse">
<stop stop-color="#E2A41A"/>
<stop offset="1" stop-color="#FAE100"/>
</linearGradient>
<linearGradient id="paint9_linear" x1="20.895" y1="28.3715" x2="20.895" y2="34.1797" gradientUnits="userSpaceOnUse">
<stop stop-color="#E2A41A"/>
<stop offset="1" stop-color="#FAE100"/>
</linearGradient>
<linearGradient id="paint10_linear" x1="27.9307" y1="23.0281" x2="32.4015" y2="26.6426" gradientUnits="userSpaceOnUse">
<stop stop-color="#E2A41A"/>
<stop offset="1" stop-color="#FAE100"/>
</linearGradient>
<linearGradient id="paint11_linear" x1="27.5473" y1="14.2215" x2="33.658" y2="11.893" gradientUnits="userSpaceOnUse">
<stop stop-color="#E2A41A"/>
<stop offset="1" stop-color="#FAE100"/>
</linearGradient>
<linearGradient id="paint12_linear" x1="18.6986" y1="23.3842" x2="18.6986" y2="12.9335" gradientUnits="userSpaceOnUse">
<stop stop-color="#E2A41A"/>
<stop offset="1" stop-color="#FAE100"/>
</linearGradient>
<clipPath id="clip0">
<rect width="157" height="36.7579" fill="white"/>
</clipPath>
</defs>
</svg>
