<svg width="16" height="16" viewBox="0 0 16 16" fill="none" xmlns="http://www.w3.org/2000/svg">
<rect width="16" height="16" fill="black"/>
<path d="M7.06933 8.78173C7.06933 8.78173 7.06933 8.69413 7.37032 8.69413C7.6876 8.69413 7.68062 8.78173 7.68062 8.78173C7.65735 9.45539 6.91107 10.0345 5.95147 10.0345C4.80956 10.0345 4.04001 9.29725 4.04001 8.20265V7.79101C4.04001 6.69719 4.80956 5.95996 5.8801 5.95996C6.91107 5.95996 7.68838 6.72044 7.68838 7.79101V8.08404C7.68838 8.08404 7.68838 8.18715 7.4029 8.18715H4.72888V8.32978C4.72888 9.09104 5.22924 9.51896 5.95069 9.51896C6.60931 9.51896 7.06933 9.14608 7.06933 8.78173ZM5.91113 6.49873C5.24476 6.49873 4.72888 6.94293 4.72888 7.70341V7.7352H7.07709C7.05304 6.95068 6.53018 6.49873 5.91113 6.49873Z" fill="white"/>
<path d="M11.9373 9.90721C11.9373 9.90721 11.9373 10.0181 11.5882 10.0181C11.2391 10.0181 11.2469 9.90721 11.2469 9.90721V7.42654C11.2469 7.42654 11.2469 6.51489 10.2873 6.51489H9.12907V9.90798C9.12907 9.90798 9.12907 10.0188 8.77998 10.0188C8.43089 10.0188 8.43864 9.90798 8.43864 9.90798V6.14201C8.43864 6.14201 8.58914 5.97534 10.2873 5.97534C11.9373 5.97534 11.9373 7.42576 11.9373 7.42576V9.90721Z" fill="white"/>
</svg>
