<svg width="400" height="400" viewBox="0 0 400 400" fill="none" xmlns="http://www.w3.org/2000/svg">
<rect width="400" height="400" fill="black"/>
<path d="M158.698 235.333C158.698 235.333 158.698 231.38 172.281 231.38C186.598 231.38 186.283 235.333 186.283 235.333C185.233 265.732 151.557 291.863 108.255 291.863C56.7259 291.863 22 258.595 22 209.201V190.626C22 141.267 56.726 108 105.034 108C151.557 108 186.633 142.317 186.633 190.626V203.849C186.633 203.849 186.633 208.502 173.751 208.502H53.0853V214.938C53.0853 249.29 75.6642 268.6 108.22 268.6C137.94 268.6 158.698 251.774 158.698 235.333ZM106.434 132.312C76.3643 132.312 53.0853 152.357 53.0853 186.673V188.108H159.049C157.963 152.706 134.369 132.312 106.434 132.312Z" fill="white"/>
<path d="M378.367 286.122C378.367 286.122 378.367 291.124 362.614 291.124C346.861 291.124 347.211 286.122 347.211 286.122V174.181C347.211 174.181 347.211 133.043 303.909 133.043H251.645V286.157C251.645 286.157 251.645 291.159 235.892 291.159C220.139 291.159 220.489 286.157 220.489 286.157V116.217C220.489 116.217 227.28 108.696 303.909 108.696C378.367 108.696 378.367 174.146 378.367 174.146V286.122Z" fill="white"/>
</svg>
