<svg width="184" height="30" viewBox="0 0 184 30" fill="none" xmlns="http://www.w3.org/2000/svg">
<g clip-path="url(#clip0)">
<path d="M59.4581 20.8861C59.4581 20.8861 59.4581 20.5353 60.6998 20.5353C62.0063 20.5353 61.9738 20.8861 61.9738 20.8861C61.8766 23.6149 58.8095 25.9564 54.8622 25.9564C50.1644 25.9564 47 22.9726 47 18.5446V16.8772C47 12.4492 50.1644 9.46533 54.5703 9.46533C58.8141 9.46533 62.0109 12.5449 62.0109 16.8772V18.0662C62.0109 18.0662 62.0109 18.4853 60.8341 18.4853H49.8354V19.0639C49.8354 22.1434 51.8924 23.8746 54.8622 23.8746C57.5678 23.87 59.4581 22.3621 59.4581 20.8861ZM54.6954 11.6429C51.9526 11.6429 49.8354 13.4378 49.8354 16.5219V16.6494H59.4952C59.3933 13.4742 57.2389 11.6429 54.6954 11.6429Z" fill="white"/>
<path d="M79.6263 25.442C79.6263 25.442 79.6263 25.893 78.19 25.893C76.7862 25.893 76.7862 25.442 76.7862 25.442V15.397C76.7862 15.397 76.7862 11.707 72.8389 11.707H68.0761V25.442C68.0761 25.442 68.0761 25.893 66.6399 25.893C65.2361 25.893 65.2361 25.442 65.2361 25.442V10.1991C65.2361 10.1991 65.8569 9.5249 72.8389 9.5249C79.6263 9.5249 79.6263 15.397 79.6263 15.397V25.442Z" fill="white"/>
<path d="M93.2149 16.49C91.1903 16.49 89.6567 16.4262 88.5819 16.3944V25.4417C88.5819 25.4417 88.5819 25.8927 87.1132 25.8927C85.6445 25.8927 85.6445 25.4417 85.6445 25.4417V3.78457C85.6445 3.78457 87.2754 3.11035 94.3222 3.11035C101.142 3.11035 101.142 8.75924 101.142 8.75924V10.8776C101.142 10.8776 101.142 15.3694 96.2496 16.3306L101.568 25.4417C101.568 25.4417 101.503 25.8927 100.164 25.8927C98.6634 25.8927 98.4688 25.4417 98.4688 25.4417L93.2149 16.49ZM88.5819 14.3079H94.2944C98.2093 14.3079 98.2093 10.8092 98.2093 10.8092V8.78658C98.2093 8.78658 98.2093 5.28791 94.2944 5.28791H88.5819V14.3079Z" fill="white"/>
<path d="M116.955 20.8717C116.955 20.8717 116.955 20.521 118.196 20.521C119.503 20.521 119.47 20.8717 119.47 20.8717C119.373 23.6005 116.306 25.9421 112.359 25.9421C107.661 25.9421 104.497 22.9582 104.497 18.5302V16.8629C104.497 12.4349 107.661 9.45093 112.067 9.45093C116.311 9.45093 119.508 12.5305 119.508 16.8629V18.0518C119.508 18.0518 119.508 18.471 118.331 18.471H107.332V19.0495C107.332 22.129 109.389 23.8602 112.359 23.8602C115.06 23.8556 116.955 22.3477 116.955 20.8717ZM112.192 11.633C109.449 11.633 107.332 13.4279 107.332 16.512V16.6396H116.992C116.89 13.4598 114.736 11.633 112.192 11.633Z" fill="white"/>
<path d="M123.177 18.5407V16.8733C123.177 12.4453 126.605 9.46143 130.909 9.46143C134.694 9.46143 137.956 11.6754 138.086 15.1103C138.086 15.1103 137.988 15.4611 136.649 15.4611C135.542 15.4611 135.473 15.1103 135.473 15.1103C135.473 13.0558 133.253 11.7073 130.904 11.7073C128.194 11.7073 126.012 13.5022 126.012 16.5863V18.896C126.012 21.9755 128.199 23.7066 130.904 23.7066C133.318 23.7066 135.473 22.3582 135.473 20.3355C135.473 20.3355 135.57 19.9848 136.682 19.9848C137.988 19.9848 138.086 20.3355 138.086 20.3355C137.956 23.7704 134.759 25.9525 130.941 25.9525C126.503 25.9525 123.177 22.9687 123.177 18.5407Z" fill="white"/>
<path d="M140.834 16.8733C140.834 12.4453 144.16 9.46143 148.534 9.46143C152.94 9.46143 156.266 12.4453 156.266 16.8733V18.5407C156.266 22.9687 153.005 25.9525 148.534 25.9525C144.095 25.9525 140.834 22.9687 140.834 18.5407V16.8733ZM143.669 18.864C143.669 21.9436 145.726 23.7112 148.529 23.7112C151.369 23.7112 153.426 21.9482 153.426 18.864V16.5544C153.426 13.4748 151.304 11.7073 148.529 11.7073C145.786 11.7073 143.669 13.4703 143.669 16.5544V18.864Z" fill="white"/>
<path d="M173.366 12.704C173.399 12.8316 173.399 12.8954 173.399 12.8954V25.3776C173.399 25.3776 173.399 25.8286 171.962 25.8286C170.559 25.8286 170.559 25.3776 170.559 25.3776V13.3783C170.559 13.3783 170.559 11.7109 166.611 11.7109H162.794V25.3776C162.794 25.3776 162.794 25.8286 161.357 25.8286C159.954 25.8286 159.954 25.3776 159.954 25.3776V10.203C159.954 10.203 159.954 9.52881 166.611 9.52881C169.386 9.52881 171.017 10.1074 171.995 10.7816C172.648 10.1711 174.019 9.52881 177.216 9.52881C183.971 9.52881 183.971 14.3759 183.971 14.3759V25.3821C183.971 25.3821 183.971 25.8331 182.567 25.8331C181.164 25.8331 181.164 25.3821 181.164 25.3821V14.3759C181.164 14.3759 181.164 11.7109 177.216 11.7109C174.511 11.7064 173.658 12.3487 173.366 12.704Z" fill="white"/>
<path d="M15.2872 29.9613H1.74417C0.848501 29.9613 0.125488 29.2646 0.125488 28.4015V15.3519C0.125488 14.4889 0.848501 13.7922 1.74417 13.7922H15.2872C16.1828 13.7922 16.9059 14.4889 16.9059 15.3519V28.4015C16.9005 29.2594 16.1775 29.9613 15.2872 29.9613Z" fill="#1B77E0"/>
<path d="M15.425 9.46031H9.26708C8.60995 9.46031 8.07471 8.91726 8.07471 8.25054V2.00811C8.07471 1.34139 8.60995 0.79834 9.26708 0.79834H15.4197C16.0768 0.79834 16.6121 1.34139 16.6121 2.00811V8.25054C16.6121 8.92264 16.0821 9.46031 15.425 9.46031Z" fill="#4597F5"/>
<path d="M28.6685 22.1655H22.5144C21.8577 22.1655 21.3228 21.6405 21.3228 20.996V14.9617C21.3228 14.3172 21.8577 13.7922 22.5144 13.7922H28.6685C29.3252 13.7922 29.8601 14.3172 29.8601 14.9617V20.996C29.8601 21.6405 29.3252 22.1655 28.6685 22.1655Z" fill="#4597F5"/>
<path d="M28.6685 9.46031H22.5144C21.8577 9.46031 21.3228 8.91726 21.3228 8.25054V2.00811C21.3228 1.34139 21.8577 0.79834 22.5144 0.79834H28.6685C29.3252 0.79834 29.8601 1.34139 29.8601 2.00811V8.25054C29.8601 8.92264 29.3252 9.46031 28.6685 9.46031Z" fill="#88BFFF"/>
</g>
<defs>
<clipPath id="clip0">
<rect width="184" height="30" fill="white"/>
</clipPath>
</defs>
</svg>
