<svg width="154" height="32" viewBox="0 0 154 32" fill="none" xmlns="http://www.w3.org/2000/svg">
<path d="M58.2223 18.9013C58.2223 18.9013 58.2223 18.5448 59.4594 18.5448C60.7608 18.5448 60.7286 18.9013 60.7286 18.9013C60.6321 21.6524 57.5692 24.0152 53.628 24.0152C48.9372 24.0152 45.7778 21.0035 45.7778 16.5385V14.8568C45.7778 10.3918 48.9372 7.38013 53.3337 7.38013C57.5692 7.38013 60.7608 10.4878 60.7608 14.8568V16.0541C60.7608 16.0541 60.7608 16.4746 59.5881 16.4746H48.6107V17.0595C48.6107 20.1672 50.6618 21.9129 53.628 21.9129C56.3322 21.9129 58.2223 20.3911 58.2223 18.9013ZM53.4671 9.57833C50.7308 9.57833 48.6153 11.3926 48.6153 14.5003V14.6283H58.2591C58.1579 11.4246 56.0056 9.57833 53.4671 9.57833Z" fill="white"/>
<path d="M78.3892 23.4994C78.3892 23.4994 78.3892 23.9518 76.9544 23.9518C75.5517 23.9518 75.5517 23.4994 75.5517 23.4994V13.3676C75.5517 13.3676 75.5517 9.64295 71.6105 9.64295H66.8599V23.4994C66.8599 23.4994 66.8599 23.9518 65.4251 23.9518C64.0225 23.9518 64.0225 23.4994 64.0225 23.4994V8.12117C64.0225 8.12117 64.6433 7.44019 71.6105 7.44019C78.3846 7.44019 78.3846 13.363 78.3846 13.363V23.4994H78.3892Z" fill="white"/>
<path d="M91.4858 13.4645C87.8711 12.2991 84.353 11.0378 84.353 6.9567C84.353 3.2321 87.3193 0.901367 92.3642 0.901367C98.1633 0.901367 100.311 4.00901 100.311 7.56909V8.186C100.311 8.186 100.247 8.67048 98.9451 8.67048C97.6758 8.67048 97.5425 8.186 97.5425 8.186V7.70162C97.5425 5.07841 96.0432 3.23667 92.4929 3.23667C89.3979 3.23667 87.2825 4.63054 87.2825 6.89272C87.2825 9.48395 90.2487 10.3568 93.8634 11.5542C97.1884 12.6876 100.739 14.2093 100.739 18.1259C100.739 21.494 98.1311 24.0167 92.4654 24.0167C85.981 24.0167 83.9299 20.7492 83.9299 17.285V16.6361C83.9299 16.6361 84.0265 16.1517 85.3004 16.1517C86.5697 16.1517 86.703 16.6361 86.703 16.6361V17.1845C86.703 19.9036 88.3954 21.686 92.5021 21.686C95.9559 21.686 97.8138 20.4247 97.8138 18.2859C97.8046 15.7312 94.8062 14.5339 91.4858 13.4645Z" fill="white"/>
<path d="M116.167 18.9013C116.167 18.9013 116.167 18.5448 117.404 18.5448C118.706 18.5448 118.674 18.9013 118.674 18.9013C118.577 21.6524 115.514 24.0152 111.573 24.0152C106.882 24.0152 103.723 21.0035 103.723 16.5385V14.8568C103.723 10.3918 106.882 7.38013 111.279 7.38013C115.514 7.38013 118.706 10.4878 118.706 14.8568V16.0541C118.706 16.0541 118.706 16.4746 117.533 16.4746H106.556V17.0595C106.556 20.1672 108.607 21.9129 111.573 21.9129C114.277 21.9129 116.167 20.3911 116.167 18.9013ZM111.408 9.57833C108.671 9.57833 106.556 11.3926 106.556 14.5003V14.6283H116.2C116.098 11.4246 113.951 9.57833 111.408 9.57833Z" fill="white"/>
<path d="M136.366 23.4994C136.366 23.4994 136.366 23.9518 134.931 23.9518C133.529 23.9518 133.529 23.4994 133.529 23.4994V13.3676C133.529 13.3676 133.529 9.64295 129.587 9.64295H124.832V23.4994C124.832 23.4994 124.832 23.9518 123.397 23.9518C121.995 23.9518 121.995 23.4994 121.995 23.4994V8.12117C121.995 8.12117 122.615 7.44019 129.583 7.44019C136.357 7.44019 136.357 13.363 136.357 13.363V23.4994H136.366Z" fill="white"/>
<path d="M139.659 13.4954C139.659 13.4954 139.659 7.50862 146.401 7.50862C148.549 7.50862 150.08 7.54061 151.188 7.60459V0.452436C151.188 0.452436 151.188 0 152.591 0C153.994 0 153.994 0.452436 153.994 0.452436V23.2753C153.994 23.2753 153.373 23.9563 146.406 23.9563C139.664 23.9563 139.664 17.9695 139.664 17.9695V13.4954H139.659ZM151.188 9.70682H146.401C142.46 9.70682 142.46 13.4954 142.46 13.4954V17.9604C142.46 17.9604 142.46 21.7489 146.401 21.7489H151.188V9.70682Z" fill="white"/>
<path d="M11.8091 16.1551H1.25274C0.559556 16.1551 0 15.5956 0 14.9024V4.346C0 3.65282 0.559556 3.09326 1.25274 3.09326H11.8091C12.5023 3.09326 13.0619 3.65282 13.0619 4.346V14.9024C13.0619 15.5914 12.4982 16.1551 11.8091 16.1551Z" fill="#00DBC6"/>
<path d="M27.9931 31.2804H17.7186C17.0436 31.2804 16.4988 30.7208 16.4988 30.0277V19.4712C16.4988 18.7781 17.0436 18.2185 17.7186 18.2185H27.9972C28.6721 18.2185 29.2169 18.7781 29.2169 19.4712V30.0277C29.2129 30.7208 28.668 31.2804 27.9931 31.2804Z" fill="#00DBC6"/>
<path d="M25.2182 9.96844H20.5003C20.0007 9.96844 19.5938 9.56127 19.5938 9.06137V4.34457C19.5938 3.84467 20.0007 3.4375 20.5003 3.4375H25.2182C25.7178 3.4375 26.1247 3.84467 26.1247 4.34457V9.0654C26.1247 9.56127 25.7178 9.96844 25.2182 9.96844Z" fill="#80EDE3"/>
<path d="M9.01312 27.8425H4.04808C3.52187 27.8425 3.09326 27.4355 3.09326 26.9359V22.218C3.09326 21.7185 3.52187 21.3115 4.04808 21.3115H9.01312C9.53933 21.3115 9.96794 21.7185 9.96794 22.218V26.9359C9.96794 27.4355 9.54357 27.8425 9.01312 27.8425Z" fill="#80EDE3"/>
</svg>
