<svg width="400" height="400" viewBox="0 0 400 400" fill="none" xmlns="http://www.w3.org/2000/svg">
<rect width="400" height="400" fill="black"/>
<path d="M176.733 219.544C176.733 219.544 176.733 217.354 184.258 217.354C192.19 217.354 192.015 219.544 192.015 219.544C191.434 236.386 172.777 250.863 148.786 250.863C120.239 250.863 101 232.432 101 205.067V194.776C101 167.431 120.239 149 147.002 149C172.777 149 192.209 168.012 192.209 194.776V202.102C192.209 202.102 192.209 204.68 185.072 204.68H118.222V208.245C118.222 227.277 130.731 237.975 148.767 237.975C165.232 237.975 176.733 228.653 176.733 219.544ZM147.778 162.469C131.119 162.469 118.222 173.574 118.222 192.586V193.381H176.927C176.326 173.768 163.254 162.469 147.778 162.469Z" fill="white"/>
<path d="M298.432 247.682C298.432 247.682 298.432 250.454 289.705 250.454C280.978 250.454 281.172 247.682 281.172 247.682V185.665C281.172 185.665 281.172 162.874 257.182 162.874H228.227V247.702C228.227 247.702 228.227 250.473 219.499 250.473C210.772 250.473 210.966 247.702 210.966 247.702V153.552C210.966 153.552 214.728 149.385 257.182 149.385C298.432 149.385 298.432 185.646 298.432 185.646V247.682Z" fill="white"/>
</svg>
