<svg width="102" height="102" viewBox="0 0 102 102" fill="none" xmlns="http://www.w3.org/2000/svg">
<path d="M87.5641 55.5062L64.2027 55.5062C60.2384 55.5062 57.0527 52.2491 57.0527 48.1958L57.0527 24.3104C57.0527 20.2571 60.2384 17 64.2027 17L87.5641 17C91.5285 17 94.7141 20.2571 94.7141 24.3104L94.7141 48.1958C94.7141 52.2491 91.5285 55.5062 87.5641 55.5062Z" fill="#FF2856"/>
<path opacity="0.6" d="M48.6255 85.9782H35.5998C31.9894 85.9782 29.0869 83.0106 29.0869 79.3192L29.0869 66.0013C29.0869 62.3099 31.9894 59.3423 35.5998 59.3423L48.6255 59.3423C52.2359 59.3423 55.1384 62.3099 55.1384 66.0013L55.1384 79.3192C55.1384 83.0106 52.2359 85.9782 48.6255 85.9782Z" fill="#FF2856"/>
<path opacity="0.25" d="M16.1342 56.013C11.2495 56.013 7.28516 51.9597 7.28516 46.9655C7.28516 41.9713 11.2495 37.918 16.1342 37.918C21.0188 37.918 24.9832 41.9713 24.9832 46.9655C24.9832 51.9597 21.0188 56.013 16.1342 56.013Z" fill="#FF2856"/>
</svg>
