<svg width="252" height="252" viewBox="0 0 252 252" fill="none" xmlns="http://www.w3.org/2000/svg">
<g filter="url(#filter0_d)">
<rect x="36.8574" y="32.9875" width="178.851" height="178.851" rx="18.0658" fill="#292930"/>
</g>
<path d="M100.475 166.255C98.5026 166.255 97.1369 165.084 97.1369 163.003V162.613H104.443C105.223 162.613 105.223 162.331 105.223 162.331V161.529C105.223 158.602 103.099 156.521 100.28 156.521C97.3537 156.521 95.2508 158.537 95.2508 161.529V162.656C95.2508 165.648 97.3537 167.664 100.475 167.664C103.099 167.664 105.136 166.081 105.201 164.238C105.201 164.238 105.223 164 104.356 164C103.532 164 103.532 164.238 103.532 164.238C103.532 165.236 102.275 166.255 100.475 166.255ZM103.554 161.377H97.1369V161.29C97.1369 159.209 98.546 157.995 100.367 157.995C102.058 157.995 103.489 159.231 103.554 161.377ZM117.873 160.531C117.873 160.531 117.873 156.564 113.364 156.564C108.725 156.564 108.313 157.019 108.313 157.019V167.317C108.313 167.317 108.313 167.62 109.245 167.62C110.199 167.62 110.199 167.317 110.199 167.317V158.038H113.364C115.987 158.038 115.987 160.531 115.987 160.531V167.317C115.987 167.317 115.987 167.62 116.919 167.62C117.873 167.62 117.873 167.317 117.873 167.317V160.531ZM132.186 156.239C132.186 156.239 132.186 152.228 127.655 152.228C122.972 152.228 121.888 152.684 121.888 152.684V167.317C121.888 167.317 121.888 167.62 122.864 167.62C123.84 167.62 123.84 167.317 123.84 167.317V161.81C124.685 161.854 125.921 161.897 127.655 161.897C132.186 161.897 132.186 157.887 132.186 157.887V156.239ZM123.84 153.702H127.633C130.235 153.702 130.235 156.282 130.235 156.282V157.843C130.235 157.843 130.235 160.401 127.633 160.401H123.84V153.702ZM134.078 162.656C134.078 165.648 136.246 167.664 139.194 167.664C142.164 167.664 144.332 165.648 144.332 162.656V161.529C144.332 158.537 142.121 156.521 139.194 156.521C136.289 156.521 134.078 158.537 134.078 161.529V162.656ZM135.964 161.312C135.964 159.231 137.373 158.038 139.194 158.038C141.037 158.038 142.446 159.231 142.446 161.312V162.873C142.446 164.954 141.08 166.146 139.194 166.146C137.33 166.146 135.964 164.954 135.964 162.873V161.312ZM156.87 160.575C156.87 160.575 156.87 156.564 152.361 156.564C147.721 156.564 147.31 157.019 147.31 157.019V172.737C147.31 172.737 147.31 173.04 148.242 173.04C149.196 173.04 149.196 172.737 149.196 172.737V167.555C149.933 167.599 150.93 167.62 152.361 167.62C156.87 167.62 156.87 163.61 156.87 163.61V160.575ZM149.196 158.038H152.361C154.984 158.038 154.984 160.575 154.984 160.575V163.61C154.984 163.61 154.984 166.146 152.361 166.146H149.196V158.038Z" fill="white"/>
<path d="M153.482 111.313H136.104C133.155 111.313 130.785 108.89 130.785 105.875V88.1068C130.785 85.0916 133.155 82.6687 136.104 82.6687H153.482C156.431 82.6687 158.801 85.0916 158.801 88.1068V105.875C158.801 108.89 156.431 111.313 153.482 111.313Z" fill="#FF2856"/>
<path opacity="0.6" d="M124.515 133.981H114.825C112.14 133.981 109.98 131.773 109.98 129.027V119.12C109.98 116.374 112.14 114.167 114.825 114.167H124.515C127.201 114.167 129.36 116.374 129.36 119.12V129.027C129.36 131.773 127.201 133.981 124.515 133.981Z" fill="#FF2856"/>
<path opacity="0.25" d="M100.346 111.69C96.7127 111.69 93.7637 108.675 93.7637 104.96C93.7637 101.244 96.7127 98.2292 100.346 98.2292C103.98 98.2292 106.929 101.244 106.929 104.96C106.929 108.675 103.98 111.69 100.346 111.69Z" fill="#FF2856"/>
<defs>
<filter id="filter0_d" x="0.725849" y="0.469133" width="251.114" height="251.114" filterUnits="userSpaceOnUse" color-interpolation-filters="sRGB">
<feFlood flood-opacity="0" result="BackgroundImageFix"/>
<feColorMatrix in="SourceAlpha" type="matrix" values="0 0 0 0 0 0 0 0 0 0 0 0 0 0 0 0 0 0 127 0"/>
<feOffset dy="3.61316"/>
<feGaussianBlur stdDeviation="18.0658"/>
<feColorMatrix type="matrix" values="0 0 0 0 0 0 0 0 0 0 0 0 0 0 0 0 0 0 0.25 0"/>
<feBlend mode="normal" in2="BackgroundImageFix" result="effect1_dropShadow"/>
<feBlend mode="normal" in="SourceGraphic" in2="effect1_dropShadow" result="shape"/>
</filter>
</defs>
</svg>
