<svg width="102" height="102" viewBox="0 0 102 102" fill="none" xmlns="http://www.w3.org/2000/svg">
<path d="M51.575 89.8571H16.3524C14.023 89.8571 12.1426 87.9767 12.1426 85.6473L12.1426 50.4247C12.1426 48.0953 14.023 46.2148 16.3524 46.2148H51.575C53.9044 46.2148 55.7848 48.0953 55.7848 50.4247V85.6473C55.7708 87.9627 53.8904 89.8571 51.575 89.8571Z" fill="#0079FF"/>
<path d="M52.6179 34.7498H36.3117C34.5716 34.7498 33.1543 33.3325 33.1543 31.5924V15.3002C33.1543 13.5601 34.5716 12.1428 36.3117 12.1428L52.6039 12.1428C54.344 12.1428 55.7613 13.5601 55.7613 15.3002V31.5924C55.7613 33.3465 54.358 34.7498 52.6179 34.7498Z" fill="#80BCFF"/>
<path d="M86.6736 68.8218H70.3674C68.6273 68.8218 67.21 67.4045 67.21 65.6644V49.3722C67.21 47.6322 68.6273 46.2148 70.3674 46.2148H86.6736C88.4136 46.2148 89.831 47.6322 89.831 49.3722V65.6644C89.831 67.4045 88.4136 68.8218 86.6736 68.8218Z" fill="#80BCFF"/>
<path d="M86.6736 34.7498H70.3674C68.6273 34.7498 67.21 33.3325 67.21 31.5924V15.3002C67.21 13.5601 68.6273 12.1428 70.3674 12.1428L86.6736 12.1428C88.4136 12.1428 89.831 13.5601 89.831 15.3002V31.5924C89.831 33.3465 88.4136 34.7498 86.6736 34.7498Z" fill="#BFDDFF"/>
</svg>
