<svg width="214" height="214" viewBox="0 0 214 214" fill="none" xmlns="http://www.w3.org/2000/svg">
<g filter="url(#filter0_d)">
<rect x="30.8926" y="27.8452" width="152.253" height="152.253" rx="15.3791" fill="#28282F"/>
</g>
<path d="M71.8374 140.97C70.158 140.97 68.9954 139.973 68.9954 138.202V137.869H75.2147C75.8791 137.869 75.8791 137.63 75.8791 137.63V136.947C75.8791 134.455 74.0705 132.684 71.6713 132.684C69.1799 132.684 67.3898 134.4 67.3898 136.947V137.906C67.3898 140.453 69.1799 142.169 71.8374 142.169C74.0705 142.169 75.8052 140.822 75.8606 139.254C75.8606 139.254 75.8791 139.051 75.1409 139.051C74.4396 139.051 74.4396 139.254 74.4396 139.254C74.4396 140.103 73.3692 140.97 71.8374 140.97ZM74.458 136.818H68.9954V136.744C68.9954 134.972 70.195 133.939 71.7452 133.939C73.1846 133.939 74.4027 134.991 74.458 136.818ZM86.6479 136.098C86.6479 136.098 86.6479 132.721 82.8093 132.721C78.86 132.721 78.5093 133.108 78.5093 133.108V141.874C78.5093 141.874 78.5093 142.133 79.3029 142.133C80.1149 142.133 80.1149 141.874 80.1149 141.874V133.975H82.8093C85.0423 133.975 85.0423 136.098 85.0423 136.098V141.874C85.0423 141.874 85.0423 142.133 85.8359 142.133C86.6479 142.133 86.6479 141.874 86.6479 141.874V136.098ZM97.3187 141.874C97.3187 141.874 97.4295 142.133 98.2784 142.133C99.035 142.133 99.072 141.874 99.072 141.874L96.0638 136.633C98.832 136.079 98.832 133.496 98.832 133.496V132.278C98.832 132.278 98.832 129.03 94.975 129.03C90.9887 129.03 90.066 129.417 90.066 129.417V141.874C90.066 141.874 90.066 142.133 90.8964 142.133C91.7269 142.133 91.7269 141.874 91.7269 141.874V136.67C92.3359 136.688 93.2033 136.725 94.3475 136.725L97.3187 141.874ZM91.7269 130.285H94.9565C97.1711 130.285 97.1711 132.296 97.1711 132.296V133.459C97.1711 133.459 97.1711 135.47 94.9565 135.47H91.7269V130.285ZM105.143 140.97C103.463 140.97 102.301 139.973 102.301 138.202V137.869H108.52C109.184 137.869 109.184 137.63 109.184 137.63V136.947C109.184 134.455 107.376 132.684 104.977 132.684C102.485 132.684 100.695 134.4 100.695 136.947V137.906C100.695 140.453 102.485 142.169 105.143 142.169C107.376 142.169 109.111 140.822 109.166 139.254C109.166 139.254 109.184 139.051 108.446 139.051C107.745 139.051 107.745 139.254 107.745 139.254C107.745 140.103 106.675 140.97 105.143 140.97ZM107.763 136.818H102.301V136.744C102.301 134.972 103.5 133.939 105.05 133.939C106.49 133.939 107.708 134.991 107.763 136.818ZM115.45 142.169C117.609 142.169 119.418 140.915 119.492 138.94C119.492 138.94 119.437 138.737 118.698 138.737C118.071 138.737 118.015 138.94 118.015 138.94C118.015 140.103 116.797 140.878 115.432 140.878C113.9 140.878 112.664 139.881 112.664 138.109V136.781C112.664 135.009 113.9 133.975 115.432 133.975C116.761 133.975 118.015 134.751 118.015 135.932C118.015 135.932 118.052 136.135 118.68 136.135C119.437 136.135 119.492 135.932 119.492 135.932C119.418 133.957 117.573 132.684 115.432 132.684C112.996 132.684 111.058 134.4 111.058 136.947V137.906C111.058 140.453 112.94 142.169 115.45 142.169ZM121.205 137.906C121.205 140.453 123.05 142.169 125.56 142.169C128.088 142.169 129.934 140.453 129.934 137.906V136.947C129.934 134.4 128.051 132.684 125.56 132.684C123.087 132.684 121.205 134.4 121.205 136.947V137.906ZM122.81 136.762C122.81 134.991 124.01 133.975 125.56 133.975C127.129 133.975 128.328 134.991 128.328 136.762V138.091C128.328 139.863 127.165 140.878 125.56 140.878C123.973 140.878 122.81 139.863 122.81 138.091V136.762ZM142.231 133.975C144.464 133.975 144.464 135.507 144.464 135.507V141.837C144.464 141.837 144.464 142.096 145.258 142.096C146.051 142.096 146.051 141.837 146.051 141.837V135.507C146.051 135.507 146.051 132.721 142.231 132.721C140.422 132.721 139.647 133.09 139.278 133.44C138.724 133.053 137.802 132.721 136.233 132.721C132.468 132.721 132.468 133.108 132.468 133.108V141.837C132.468 141.837 132.468 142.096 133.262 142.096C134.074 142.096 134.074 141.837 134.074 141.837V133.975H136.233C138.466 133.975 138.466 134.935 138.466 134.935V141.837C138.466 141.837 138.466 142.096 139.26 142.096C140.072 142.096 140.072 141.837 140.072 141.837V134.658C140.072 134.658 140.072 134.621 140.053 134.548C140.219 134.345 140.699 133.975 142.231 133.975Z" fill="white"/>
<path d="M107.383 116.275H85.078C83.6029 116.275 82.4121 115.084 82.4121 113.609V91.3039C82.4121 89.8287 83.6029 88.6379 85.078 88.6379H107.383C108.858 88.6379 110.049 89.8287 110.049 91.3039V113.609C110.04 115.075 108.849 116.275 107.383 116.275Z" fill="#0079FF"/>
<path d="M108.042 81.3778H97.7162C96.6143 81.3778 95.7168 80.4803 95.7168 79.3783V69.0612C95.7168 67.9593 96.6143 67.0618 97.7162 67.0618H108.033C109.135 67.0618 110.033 67.9593 110.033 69.0612V79.3783C110.033 80.4891 109.144 81.3778 108.042 81.3778Z" fill="#80BCFF"/>
<path d="M129.611 102.954H119.285C118.183 102.954 117.285 102.056 117.285 100.955V90.6374C117.285 89.5355 118.183 88.6379 119.285 88.6379H129.611C130.713 88.6379 131.61 89.5355 131.61 90.6374V100.955C131.61 102.056 130.713 102.954 129.611 102.954Z" fill="#80BCFF"/>
<path d="M129.611 81.3778H119.285C118.183 81.3778 117.285 80.4803 117.285 79.3783V69.0612C117.285 67.9593 118.183 67.0618 119.285 67.0618H129.611C130.713 67.0618 131.61 67.9593 131.61 69.0612V79.3783C131.61 80.4891 130.713 81.3778 129.611 81.3778Z" fill="#BFDDFF"/>
<defs>
<filter id="filter0_d" x="0.134418" y="0.162871" width="213.769" height="213.769" filterUnits="userSpaceOnUse" color-interpolation-filters="sRGB">
<feFlood flood-opacity="0" result="BackgroundImageFix"/>
<feColorMatrix in="SourceAlpha" type="matrix" values="0 0 0 0 0 0 0 0 0 0 0 0 0 0 0 0 0 0 127 0"/>
<feOffset dy="3.07582"/>
<feGaussianBlur stdDeviation="15.3791"/>
<feColorMatrix type="matrix" values="0 0 0 0 0 0 0 0 0 0 0 0 0 0 0 0 0 0 0.25 0"/>
<feBlend mode="normal" in2="BackgroundImageFix" result="effect1_dropShadow"/>
<feBlend mode="normal" in="SourceGraphic" in2="effect1_dropShadow" result="shape"/>
</filter>
</defs>
</svg>
