<svg width="110" height="104" viewBox="0 0 110 104" fill="none" xmlns="http://www.w3.org/2000/svg">
<path d="M44.2198 47.9309H5.54469C3.0051 47.9309 0.955078 45.8808 0.955078 43.3413V4.66615C0.955078 2.12656 3.0051 0.0765381 5.54469 0.0765381H44.2198C46.7594 0.0765381 48.8094 2.12656 48.8094 4.66615V43.3413C48.8094 45.8655 46.7441 47.9309 44.2198 47.9309Z" fill="#1DC296"/>
<path d="M104.546 103.696H65.8865C63.3469 103.696 61.2969 101.646 61.2969 99.1059V60.4308C61.2969 57.8912 63.3469 55.8412 65.8865 55.8412H104.562C107.101 55.8412 109.151 57.8912 109.151 60.4308V99.1059C109.136 101.646 107.086 103.696 104.546 103.696Z" fill="#1DC296"/>
<path d="M94.1714 36.3963H76.2567C74.3596 36.3963 72.8145 34.8512 72.8145 32.9541V15.0546C72.8145 13.1576 74.3596 11.6124 76.2567 11.6124H94.1714C96.0685 11.6124 97.6136 13.1576 97.6136 15.0546V32.9694C97.6136 34.8512 96.0685 36.3963 94.1714 36.3963Z" fill="#77DAC0"/>
<path d="M33.8749 92.2674H15.9754C14.0784 92.2674 12.5332 90.7222 12.5332 88.8252V70.9105C12.5332 69.0134 14.0784 67.4683 15.9754 67.4683H33.8749C35.7719 67.4683 37.3171 69.0134 37.3171 70.9105V88.8252C37.3171 90.7222 35.7872 92.2674 33.8749 92.2674Z" fill="#77DAC0"/>
</svg>
