<svg width="284" height="284" viewBox="0 0 284 284" fill="none" xmlns="http://www.w3.org/2000/svg">
<g filter="url(#filter0_d)">
<rect x="40.8398" y="36.9717" width="201.781" height="201.781" rx="20.3819" fill="#292930"/>
</g>
<path d="M134.313 119.067H109.969C108.37 119.067 107.08 117.777 107.08 116.178V91.8344C107.08 90.2359 108.37 88.9456 109.969 88.9456H134.313C135.911 88.9456 137.202 90.2359 137.202 91.8344V116.178C137.202 117.767 135.902 119.067 134.313 119.067Z" fill="#1DC296"/>
<path d="M172.285 154.168H147.951C146.353 154.168 145.062 152.877 145.062 151.279V126.935C145.062 125.337 146.353 124.046 147.951 124.046H172.295C173.894 124.046 175.184 125.337 175.184 126.935V151.279C175.174 152.877 173.884 154.168 172.285 154.168Z" fill="#1DC296"/>
<path d="M165.755 111.807H154.479C153.285 111.807 152.312 110.834 152.312 109.64V98.3735C152.312 97.1794 153.285 96.2068 154.479 96.2068H165.755C166.95 96.2068 167.922 97.1794 167.922 98.3735V109.65C167.922 110.834 166.95 111.807 165.755 111.807Z" fill="#77DAC0"/>
<path d="M127.802 146.974H116.536C115.342 146.974 114.369 146.002 114.369 144.808V133.531C114.369 132.337 115.342 131.365 116.536 131.365H127.802C128.997 131.365 129.969 132.337 129.969 133.531V144.808C129.969 146.002 129.006 146.974 127.802 146.974Z" fill="#77DAC0"/>
<path d="M105.002 187.016C102.777 187.016 101.236 185.695 101.236 183.347V182.907H109.478C110.359 182.907 110.359 182.589 110.359 182.589V181.684C110.359 178.382 107.962 176.034 104.782 176.034C101.48 176.034 99.108 178.309 99.108 181.684V182.956C99.108 186.331 101.48 188.606 105.002 188.606C107.962 188.606 110.261 186.821 110.334 184.742C110.334 184.742 110.359 184.473 109.381 184.473C108.451 184.473 108.451 184.742 108.451 184.742C108.451 185.867 107.033 187.016 105.002 187.016ZM108.476 181.513H101.236V181.415C101.236 179.067 102.826 177.698 104.88 177.698C106.788 177.698 108.402 179.092 108.476 181.513ZM124.631 180.559C124.631 180.559 124.631 176.083 119.544 176.083C114.309 176.083 113.845 176.597 113.845 176.597V188.215C113.845 188.215 113.845 188.557 114.896 188.557C115.973 188.557 115.973 188.215 115.973 188.215V177.747H119.544C122.503 177.747 122.503 180.559 122.503 180.559V188.215C122.503 188.215 122.503 188.557 123.555 188.557C124.631 188.557 124.631 188.215 124.631 188.215V180.559ZM138.822 184.277C138.822 185.891 137.428 186.845 134.835 186.845C131.753 186.845 130.482 185.5 130.482 183.445V183.03C130.482 183.03 130.384 182.663 129.43 182.663C128.476 182.663 128.403 183.03 128.403 183.03V183.519C128.403 186.136 129.943 188.606 134.811 188.606C139.066 188.606 141.023 186.698 141.023 184.155C141.023 181.195 138.357 180.046 135.862 179.19C133.147 178.285 130.922 177.624 130.922 175.668C130.922 173.956 132.512 172.904 134.835 172.904C137.501 172.904 138.626 174.298 138.626 176.279V176.646C138.626 176.646 138.724 177.013 139.678 177.013C140.656 177.013 140.705 176.646 140.705 176.646V176.181C140.705 173.491 139.091 171.143 134.737 171.143C130.946 171.143 128.721 172.904 128.721 175.717C128.721 178.798 131.362 179.752 134.077 180.633C136.572 181.44 138.822 182.345 138.822 184.277ZM150.169 187.016C147.943 187.016 146.403 185.695 146.403 183.347V182.907H154.645C155.525 182.907 155.525 182.589 155.525 182.589V181.684C155.525 178.382 153.129 176.034 149.949 176.034C146.647 176.034 144.275 178.309 144.275 181.684V182.956C144.275 186.331 146.647 188.606 150.169 188.606C153.129 188.606 155.428 186.821 155.501 184.742C155.501 184.742 155.525 184.473 154.547 184.473C153.618 184.473 153.618 184.742 153.618 184.742C153.618 185.867 152.199 187.016 150.169 187.016ZM153.642 181.513H146.403V181.415C146.403 179.067 147.992 177.698 150.047 177.698C151.955 177.698 153.569 179.092 153.642 181.513ZM169.797 180.559C169.797 180.559 169.797 176.083 164.71 176.083C159.476 176.083 159.011 176.597 159.011 176.597V188.215C159.011 188.215 159.011 188.557 160.063 188.557C161.139 188.557 161.139 188.215 161.139 188.215V177.747H164.71C167.67 177.747 167.67 180.559 167.67 180.559V188.215C167.67 188.215 167.67 188.557 168.721 188.557C169.797 188.557 169.797 188.215 169.797 188.215V180.559ZM173.618 184.032C173.618 184.032 173.618 188.557 178.681 188.557C183.915 188.557 184.38 188.043 184.38 188.043V170.8C184.38 170.8 184.38 170.458 183.328 170.458C182.276 170.458 182.276 170.8 182.276 170.8V176.206C181.445 176.157 180.295 176.132 178.681 176.132C173.618 176.132 173.618 180.657 173.618 180.657V184.032ZM182.276 186.894H178.681C175.722 186.894 175.722 184.032 175.722 184.032V180.657C175.722 180.657 175.722 177.795 178.681 177.795H182.276V186.894Z" fill="white"/>
<defs>
<filter id="filter0_d" x="0.0760193" y="0.284237" width="283.309" height="283.309" filterUnits="userSpaceOnUse" color-interpolation-filters="sRGB">
<feFlood flood-opacity="0" result="BackgroundImageFix"/>
<feColorMatrix in="SourceAlpha" type="matrix" values="0 0 0 0 0 0 0 0 0 0 0 0 0 0 0 0 0 0 127 0"/>
<feOffset dy="4.07638"/>
<feGaussianBlur stdDeviation="20.3819"/>
<feColorMatrix type="matrix" values="0 0 0 0 0 0 0 0 0 0 0 0 0 0 0 0 0 0 0.25 0"/>
<feBlend mode="normal" in2="BackgroundImageFix" result="effect1_dropShadow"/>
<feBlend mode="normal" in="SourceGraphic" in2="effect1_dropShadow" result="shape"/>
</filter>
</defs>
</svg>
