<svg width="156" height="82" viewBox="0 0 156 82" fill="none" xmlns="http://www.w3.org/2000/svg">
<g opacity="0.42">
<path d="M16.1112 1.93567C28.0583 6.45761 52.5466 18.7824 52.5115 37.3217C52.4881 49.6802 41.0129 56.8891 22.6704 52.2585C19.7714 51.5266 17.6403 49.3761 17.9954 46.73C18.2491 44.8396 19.9669 42.2062 25.1414 43.642C34.3273 46.1907 41.7795 43.7001 41.6954 35.2817C41.5645 22.1677 25.2212 14.0137 17.4914 10.2757C13.1896 8.19539 15.0062 4.40557 16.1112 1.93567Z" fill="white"/>
<path d="M36.6735 80.3359C24.7249 75.8178 0.232626 63.5009 0.261745 44.9617C0.281158 32.6032 11.7541 25.3905 30.0981 30.0152C32.9973 30.7462 35.1291 32.896 34.7748 35.5422C34.5217 37.4327 32.8048 40.0666 27.6299 38.6326C18.4431 36.0868 10.9917 38.5798 11.0785 46.9982C11.2137 60.1122 27.5596 68.2609 35.2906 71.9963C39.5931 74.0753 37.7777 77.8657 36.6735 80.3359Z" fill="white"/>
<path d="M58.5068 42.4984V46.32C59.6425 46.9602 60.7182 47.4228 61.734 47.7079C62.7497 47.993 63.8633 48.1329 65.0747 48.1275C67.2304 48.1001 69.0267 47.6557 70.4638 46.7943C71.9009 45.933 72.9787 44.8191 73.6972 43.4528C74.4157 42.0865 74.775 40.6322 74.775 39.0899C74.7697 37.4982 74.3761 36.0165 73.5943 34.6447C72.8124 33.273 71.6741 32.1623 70.1794 31.3127C68.6846 30.4632 66.8652 30.0258 64.7211 30.0006C63.577 30.0006 62.4928 30.1297 61.4687 30.3879C60.4446 30.6462 59.5246 31.0335 58.7089 31.5499V35.4748C59.6162 34.925 60.5425 34.4882 61.4877 34.1644C62.4328 33.8405 63.4096 33.6749 64.418 33.6673C65.5347 33.6738 66.522 33.8803 67.3798 34.287C68.2376 34.6937 68.9698 35.2297 69.4702 35.9913C69.7508 36.4184 69.9749 36.9042 70.1423 37.4105H62.2698V40.5875H70.127C69.9259 41.7205 69.406 42.6436 68.5671 43.3569C67.7282 44.0703 66.5641 44.4382 65.0747 44.4608C64.9947 44.4587 64.9021 44.4501 64.7969 44.435C64.6916 44.4199 64.599 44.4113 64.519 44.4092C63.4917 44.4038 62.5276 44.2338 61.6266 43.8992C60.7256 43.5646 59.6857 43.0977 58.5068 42.4984V42.4984Z" fill="white"/>
<path d="M83.5377 37.302H81.9687V30.2588H77.9102V47.8692H81.9687V40.5938H83.5732C84.8265 40.5938 85.6917 41.643 86.2683 42.9695C86.8449 44.2961 87.5717 45.9294 88.4489 47.8692H93.2067C92.0929 45.4764 91.6816 44.5747 90.9579 42.9565C90.0497 40.8377 89.265 39.8573 87.8123 38.9711C88.2921 38.2248 88.9358 37.5986 89.3013 36.7127C89.9504 35.1393 90.3987 33.4007 92.3171 33.377L92.5492 30.2588C90.4872 29.8734 89.0161 30.2747 88.0136 31.3504C86.0589 33.4477 85.5517 37.302 83.5377 37.302V37.302Z" fill="white"/>
<path d="M111.203 42.4982C110.033 43.0975 108.995 43.5645 108.089 43.8991C107.184 44.2337 106.207 44.4037 105.16 44.4091C103.384 44.3822 101.95 43.8808 100.855 42.9049C99.7613 41.9291 99.1984 40.6401 99.1667 39.0381C99.1964 37.4361 99.7634 36.1472 100.868 35.1713C101.972 34.1955 103.436 33.6941 105.258 33.6672C106.287 33.6747 107.276 33.8404 108.225 34.1643C109.173 34.4881 110.101 34.9249 111.006 35.4747V31.5498C110.19 31.0334 109.269 30.646 108.243 30.3878C107.217 30.1296 106.124 30.0005 104.964 30.0005C102.813 30.0257 100.99 30.4631 99.4924 31.3126C97.9952 32.1622 96.8556 33.2729 96.0735 34.6446C95.2914 36.0163 94.8977 37.4981 94.8926 39.0898C94.8926 40.6321 95.2528 42.0864 95.9734 43.4527C96.6939 44.819 97.7747 45.9328 99.2158 46.7942C100.657 47.6556 102.458 48.1 104.62 48.1274C105.846 48.1328 106.968 47.9929 107.985 47.7078C109.002 47.4227 110.075 46.96 111.203 46.3199V42.4982Z" fill="white"/>
<path d="M123.687 36.7657L118.344 30.2587H114.75V47.8691H118.878V36.869L123.347 42.3949H123.978L128.446 36.869V47.8691H132.575V30.2587H128.981L123.687 36.7657Z" fill="white"/>
<path d="M154.99 39.0381C154.99 37.5934 154.631 36.185 153.916 34.8129C153.201 33.4409 152.134 32.3041 150.716 31.4025C149.297 30.501 147.532 30.0337 145.422 30.0005C143.326 30.0337 141.568 30.501 140.149 31.4025C138.73 32.3041 137.659 33.4409 136.938 34.8129C136.216 36.185 135.854 37.5934 135.853 39.0381C135.857 40.5648 136.23 42.0159 136.97 43.3915C137.711 44.767 138.792 45.893 140.214 46.7694C141.637 47.6457 143.372 48.0984 145.422 48.1274C147.44 48.0993 149.161 47.6505 150.585 46.7808C152.009 45.9112 153.098 44.7891 153.851 43.4144C154.604 42.0398 154.984 40.581 154.99 39.0381V39.0381ZM150.721 39.0381C150.7 40.6853 150.215 41.9872 149.267 42.9437C148.32 43.9001 147.038 44.3886 145.422 44.4091C143.805 44.3886 142.523 43.9001 141.576 42.9437C140.628 41.9872 140.143 40.6853 140.122 39.0381C140.143 37.4135 140.628 36.1181 141.576 35.1519C142.523 34.1858 143.805 33.6909 145.422 33.6672C147.038 33.6909 148.32 34.1858 149.267 35.1519C150.215 36.1181 150.7 37.4135 150.721 39.0381Z" fill="white"/>
</g>
</svg>
