<svg width="60" height="74" viewBox="0 0 60 74" fill="none" xmlns="http://www.w3.org/2000/svg">
<path fill-rule="evenodd" clip-rule="evenodd" d="M37.7159 21.8068C38.1735 21.8089 38.6412 21.811 39.1233 21.811L33.4624 12.6562C33.5632 12.6192 33.6424 12.5877 33.7134 12.5596L33.7135 12.5596C33.7726 12.5361 33.826 12.5149 33.8813 12.4947C35.8471 11.7739 37.305 10.529 37.7426 8.3947C38.5781 4.35554 36.5702 1.25011 32.4936 0.491889C30.1543 0.0554993 27.7907 0.109873 25.4268 0.164254C24.2032 0.192403 22.9795 0.220553 21.7591 0.180644C21.2482 0.163825 21.2549 0.486994 21.2615 0.80907V0.809112V0.809155V0.809199V0.809243V0.809288V0.809333C21.2623 0.845668 21.263 0.881988 21.263 0.917803C21.2771 7.66378 21.2771 14.4074 21.263 21.1487C21.2607 21.6636 21.4104 21.8367 21.9323 21.8204C23.0439 21.7782 24.1602 21.7455 25.2671 21.8204C26.0651 21.8765 26.1938 21.5746 26.1774 20.8585C26.1446 19.3353 26.152 17.8052 26.1594 16.2747V16.2746V16.2746V16.2746V16.2745V16.2745V16.2743C26.1625 15.6181 26.1657 14.9618 26.1657 14.306C26.1663 14.2362 26.1584 14.1633 26.1504 14.0897C26.1271 13.8745 26.1031 13.6538 26.2897 13.4916C26.7227 13.1125 28.8499 13.5525 29.1775 14.0814C30.6596 16.4559 32.1223 18.8296 33.5654 21.2025L33.5823 21.2298C33.7849 21.5569 33.9511 21.825 34.443 21.825C35.5158 21.7967 36.5851 21.8016 37.7159 21.8068ZM26.2075 9.60539L26.2077 9.57465L26.2078 9.53905C26.2083 9.36445 26.195 9.04893 26.1784 8.65452C26.1163 7.1829 26.008 4.6131 26.3974 4.16832C26.706 3.76538 28.0315 3.82178 29.0398 3.86469C29.1324 3.86863 29.2224 3.87245 29.3086 3.8758C29.7244 3.89794 30.1386 3.94483 30.5489 4.01621C32.3555 4.29937 33.0856 5.11142 33.1395 6.85252C33.1933 8.6334 32.4491 9.61394 30.7431 10.0188C29.8687 10.2271 28.9853 10.2062 28.102 10.1853C27.6261 10.174 27.1503 10.1627 26.6759 10.1873C26.2025 10.2113 26.205 9.90989 26.2075 9.60539ZM12.6202 10.6434C15.7069 11.6427 16.7717 13.0632 16.7343 15.8901C16.6945 18.8107 15.3957 20.5869 12.7092 21.4036C11.783 21.6868 10.8202 21.8319 9.85178 21.8342H9.85114C6.94484 21.8342 4.03854 21.8342 1.13459 21.86C0.491034 21.86 0.287438 21.7359 0.289778 21.0479C0.307209 16.9066 0.30841 12.7671 0.309613 8.62544V8.62543V8.62541V8.6254V8.62539V8.62538V8.62537V8.62536C0.310347 6.09464 0.311082 3.56314 0.31552 1.02995C0.31552 0.971566 0.307212 0.905686 0.298631 0.837651C0.263534 0.559352 0.223887 0.244985 0.729733 0.260028C1.95417 0.295129 3.18088 0.268158 4.40748 0.241189C6.69738 0.190842 8.98692 0.140502 11.2606 0.494047C15.515 1.1493 16.409 4.40684 15.7467 7.53099C15.4144 9.07786 14.2513 9.97649 12.6202 10.6434ZM5.10822 15.394C5.10822 15.6687 5.10979 15.9423 5.11135 16.2159V16.2159C5.11447 16.7627 5.11758 17.3092 5.10822 17.8629C5.10822 18.3076 5.23693 18.5299 5.71433 18.5112C6.1611 18.4931 6.6085 18.4997 7.05583 18.5063H7.05588H7.05593H7.05598H7.05603H7.05608H7.05613H7.05618H7.0562H7.05622H7.05623H7.05625H7.05627H7.05628H7.0563C7.82491 18.5177 8.59333 18.5291 9.358 18.4152C11.1342 18.1531 11.9837 17.1024 11.9322 15.2138C11.8924 13.4961 10.9961 12.4922 9.24333 12.3518C8.58926 12.3007 7.93134 12.3006 7.27354 12.3004C6.78518 12.3003 6.29688 12.3002 5.81028 12.2792C5.22523 12.2535 5.07078 12.4922 5.10822 13.0328C5.12465 13.5345 5.11916 14.0344 5.11364 14.5366C5.11051 14.8214 5.10738 15.1069 5.10822 15.394ZM5.05908 6.36792V8.51855C5.05908 8.55416 5.05769 8.591 5.0563 8.6281V8.62811V8.62812V8.62813V8.62814V8.62815V8.62815V8.62816C5.04696 8.87635 5.03716 9.13657 5.43819 9.12232C5.88032 9.10667 6.32402 9.11954 6.76763 9.13241C7.65064 9.15802 8.53329 9.18363 9.40247 8.98425C10.8066 8.66364 11.3355 7.81415 11.2887 6.17602C11.2489 4.77191 10.5632 3.95987 9.20823 3.73287C8.7841 3.66105 8.3557 3.61727 7.92581 3.60182C5.05908 3.50119 5.05908 3.50353 5.05908 6.36792ZM12.5733 38.3794V37.1345C12.5733 36.1849 12.5748 35.2353 12.5763 34.2856C12.5804 31.6476 12.5845 29.0092 12.5569 26.3696C12.5569 25.6675 12.7558 25.4335 13.4556 25.4897C14.3513 25.5353 15.2487 25.5353 16.1444 25.4897C16.678 25.4686 16.8956 25.595 16.8933 26.1917C16.8714 32.9705 16.8714 39.75 16.8933 46.5303C16.8933 47.0217 16.7927 47.2909 16.2521 47.2043C16.2163 47.2008 16.1802 47.2008 16.1444 47.2043L16.1367 47.2045C12.9313 47.3049 12.9253 47.3051 11.1645 44.6184C9.16458 41.583 7.17456 38.5337 5.08513 35.3321L4.5371 34.4924C4.52783 34.6769 4.51806 34.8416 4.50912 34.9922C4.49096 35.298 4.47625 35.5458 4.47625 35.7842C4.47625 36.7198 4.47492 37.6562 4.47359 38.5931C4.46993 41.1714 4.46626 43.7533 4.49029 46.3314C4.49029 47.0124 4.34754 47.2839 3.61272 47.2253C2.71714 47.175 1.81943 47.175 0.923847 47.2253C0.411346 47.2441 0.153926 47.1551 0.156266 46.5397C0.178108 39.7594 0.178108 32.9791 0.156266 26.1988C0.156266 25.7167 0.961291 25.5224 1.02916 25.5084C3.3085 25.0638 4.72899 25.9343 5.88738 28.0054C6.91222 29.8392 8.07931 31.59 9.24733 33.3422C10.245 34.8389 11.2434 36.3366 12.1544 37.888C12.2844 38.0597 12.4243 38.2238 12.5733 38.3794ZM21.406 36.4533C21.406 35.5711 21.4075 34.6891 21.4089 33.8071C21.413 31.3576 21.4171 28.9086 21.3896 26.4584C21.3896 25.7563 21.5136 25.4685 22.307 25.4872C23.5238 25.5153 24.7417 25.51 25.96 25.5047H25.9602H25.9602H25.9603H25.9604H25.9604H25.9605C27.1788 25.4995 28.3974 25.4942 29.6154 25.5223C34.5859 25.637 38.1383 28.8805 38.6789 33.8089C38.9246 36.0555 38.9691 38.3184 38.4215 40.5393C37.5182 44.2134 34.2817 47.0005 30.5023 47.1854C28.7803 47.2711 27.0531 47.2627 25.3255 47.2542H25.3253C24.2215 47.2489 23.1174 47.2435 22.0144 47.2626C21.3876 47.2731 21.3951 46.959 21.4039 46.5867C21.4049 46.542 21.406 46.4965 21.406 46.4506C21.4091 43.1182 21.4091 39.7857 21.406 36.4533ZM26.1262 36.4276V42.6712C26.1262 43.1392 26.1917 43.3966 26.758 43.3732C27.2387 43.3508 27.721 43.3542 28.2034 43.3576H28.2035H28.2035H28.2035H28.2036H28.2036C28.7262 43.3613 29.249 43.365 29.7698 43.3358C31.8058 43.2211 33.3784 41.8615 33.685 39.8396C34.0184 37.6018 34.0231 35.3273 33.699 33.0881C33.3831 30.879 31.8268 29.5427 29.5896 29.4234C29.1458 29.399 28.7008 29.404 28.2561 29.4089H28.256C27.8027 29.4139 27.3497 29.419 26.8984 29.393C26.2689 29.3579 26.1145 29.5942 26.1238 30.191C26.1397 31.5993 26.1351 33.0097 26.1305 34.4209V34.4209V34.421V34.4211V34.4211V34.4212C26.1283 35.0899 26.1262 35.7587 26.1262 36.4276ZM38.6251 68.5092C39.8303 66.4312 39.9683 64.1635 39.9028 62.0854C39.9348 60.8599 39.8793 59.6337 39.7367 58.416C39.465 56.373 38.4962 54.4865 36.9939 53.0755C35.4916 51.6645 33.5482 50.8156 31.4922 50.6723C26.7159 50.3354 22.8054 52.8089 21.6353 57.0657C20.8326 59.9769 20.9356 62.9864 21.4738 65.9163C22.1759 69.7425 25.0965 72.2887 29.0888 72.8994C33.025 73.5009 36.7272 71.7855 38.6251 68.5092ZM26.1394 62.8047C26.1456 62.4587 26.1519 62.1127 26.1519 61.7672C26.1693 61.3295 26.1566 60.8904 26.1438 60.4509C26.1172 59.5321 26.0906 58.6117 26.3391 57.6999C26.9124 55.6569 28.567 54.4517 30.741 54.529C32.7442 54.5968 34.401 55.9144 34.7333 57.9222C35.1258 60.4019 35.1408 62.9267 34.7778 65.4108C34.4432 67.8142 32.564 69.2675 30.2987 69.1294C27.9585 68.9867 26.3087 67.3251 26.1519 64.8796C26.1144 64.19 26.1269 63.4972 26.1394 62.8047ZM16.9143 61.807C16.9143 62.7047 16.9131 63.6026 16.9119 64.5005C16.9087 66.9384 16.9054 69.3772 16.926 71.816C16.926 72.4408 16.8324 72.7123 16.1209 72.6655C15.0461 72.6035 13.9686 72.6035 12.8938 72.6655C12.255 72.6983 12.1356 72.4596 12.1426 71.8769C12.1551 70.7804 12.1533 69.6839 12.1515 68.5876V68.5875C12.1492 67.2084 12.147 65.8295 12.173 64.4514C12.173 63.7353 11.9718 63.5575 11.2791 63.5762C9.45063 63.623 7.62138 63.623 5.79136 63.5762C5.13142 63.5598 4.93719 63.7377 4.94889 64.407C4.96786 65.5695 4.96501 66.7326 4.96217 67.8956C4.95906 69.1722 4.95594 70.4488 4.98165 71.7247C4.99569 72.4876 4.77103 72.7123 4.02217 72.6608C2.98547 72.6 1.94175 72.621 0.902705 72.6608C0.373823 72.6795 0.249793 72.4876 0.249793 71.9868C0.266954 65.205 0.266954 58.4247 0.249793 51.6459C0.249793 51.1287 0.411266 50.9579 0.928448 50.972C2.00493 51.0047 3.08376 51.0211 4.15557 50.972C4.85762 50.9345 4.98165 51.2341 4.97229 51.8519C4.95894 52.9433 4.96093 54.0353 4.96292 55.127C4.96511 56.3316 4.9673 57.536 4.94889 58.739C4.94889 59.3826 5.08228 59.6166 5.77029 59.5979C7.64244 59.5511 9.50055 59.5558 11.3657 59.5979C12.0163 59.6119 12.2245 59.4505 12.2105 58.7718C12.1867 57.5431 12.1884 56.3144 12.19 55.0857C12.1915 54.0187 12.193 52.9517 12.1777 51.8846C12.1637 51.1826 12.3579 50.9486 13.0693 50.9743C14.0722 51.041 15.0783 51.041 16.0812 50.9743C16.8815 50.9111 16.926 51.2949 16.9213 51.9104C16.9078 54.2899 16.9101 56.6718 16.9125 59.0553C16.9134 59.9723 16.9143 60.8896 16.9143 61.807ZM44.8281 40.1086C44.6497 40.1215 44.4706 40.1215 44.2921 40.1086C43.7909 40.1372 43.2883 40.134 42.7874 40.0993C42.0877 40.0197 41.8911 40.3707 41.9122 40.9558C41.9754 42.9449 42.6236 44.665 44.3156 45.8702C47.3835 48.0559 53.2387 48.1261 56.3769 46.0199C58.6235 44.5175 59.1149 42.278 58.9792 39.8091C58.8458 37.4104 57.3785 35.9946 55.2723 35.1287C54.0977 34.6391 52.8697 34.3294 51.6419 34.0197L51.6417 34.0196L51.6401 34.0192C51.4131 33.962 51.186 33.9047 50.9593 33.8463L50.8505 33.8183L50.7099 33.7824C49.7207 33.5302 48.7231 33.2758 47.9007 32.6153C46.8944 31.8197 46.9202 30.5326 47.9405 29.8071C49.2487 28.8804 51.9656 28.8991 53.2597 29.8352L53.2732 29.845C53.5957 30.0793 53.9758 30.3554 53.9758 30.7362C53.982 32.0588 54.7801 32.02 55.6009 31.9801C55.7139 31.9746 55.8274 31.9691 55.9393 31.9671C56.6203 31.9484 57.3036 31.932 57.9822 31.9671C58.5111 31.9882 58.6515 31.7986 58.6211 31.2861C58.4947 29.0863 57.657 27.3078 55.5906 26.3366C52.2839 24.7804 48.914 24.771 45.6378 26.3507C43.3069 27.474 42.3545 29.4982 42.4621 32.0865C42.5651 34.5624 43.8545 36.1397 46.0192 37.1202C47.037 37.5879 48.105 37.8892 49.1757 38.1912L49.1757 38.1912C49.4123 38.2579 49.6489 38.3247 49.8852 38.3933C50.1753 38.4776 50.4692 38.5519 50.7632 38.6262C51.5791 38.8324 52.396 39.0389 53.1357 39.4604C54.2894 40.1227 54.6639 41.2787 54.0039 42.2686C53.0752 43.6617 51.5858 43.6471 50.1528 43.6331L50.1403 43.6329C48.7736 43.6119 47.4935 43.3287 46.7657 41.9738C46.6638 41.8263 46.6032 41.6541 46.5902 41.4753C46.7213 40.0805 45.8858 39.9635 44.8281 40.1086ZM43.497 61.7437C43.497 60.8738 43.4983 60.0038 43.4996 59.1336C43.5033 56.7406 43.507 54.3471 43.4829 51.9547C43.4829 51.2527 43.5882 50.9485 44.3979 50.9625C45.8185 50.9862 47.2401 50.9806 48.6618 50.975H48.6618C50.3245 50.9685 51.9873 50.9619 53.6487 51.0023C57.0911 51.0865 59.6653 53.5507 59.9274 56.8527C60.2106 60.4403 58.0834 63.5316 54.779 64.1073C53.3835 64.3527 51.9609 64.2955 50.5421 64.2384H50.5419C50.0931 64.2204 49.6447 64.2024 49.1977 64.1939C48.3271 64.1775 48.1376 64.449 48.1586 65.2634C48.1896 66.4695 48.1864 67.677 48.1832 68.8828C48.1806 69.8622 48.178 70.8405 48.1937 71.8159C48.2078 72.4969 48.0018 72.6771 47.3466 72.642C46.3445 72.5753 45.3391 72.5753 44.3371 72.642C43.5695 72.6982 43.4689 72.3799 43.4759 71.7223C43.5046 69.1947 43.5017 66.6382 43.4988 64.0802V64.0798C43.4979 63.301 43.497 62.522 43.497 61.7437ZM48.2733 57.4612C48.2733 57.7686 48.2758 58.0562 48.2783 58.3307C48.2829 58.8439 48.287 59.3114 48.2733 59.778C48.2522 60.2764 48.4043 60.48 48.9356 60.48C49.4774 60.4655 50.0197 60.4694 50.5621 60.4733H50.5621C51.2402 60.4782 51.9182 60.4832 52.5956 60.452C54.2571 60.3724 55.2751 59.2163 55.2283 57.5525C55.1815 55.9588 54.1378 54.9502 52.4669 54.8987C52.1549 54.8893 51.8429 54.8925 51.5308 54.8956C51.3748 54.8971 51.2188 54.8987 51.0628 54.8987C50.7961 54.905 50.5057 54.8827 50.2148 54.8604C49.5357 54.8082 48.8542 54.7559 48.4675 55.0672C48.0764 55.3758 48.1541 55.9957 48.2285 56.5889C48.268 56.9041 48.3066 57.2118 48.2733 57.4612ZM44.6932 0.518368C44.1758 0.516775 43.6471 0.515148 43.1014 0.515148C45.1046 4.41156 47.0563 8.1816 49.0829 12.0687C48.6175 12.0687 48.18 12.0678 47.7606 12.067C46.9715 12.0655 46.2461 12.0641 45.5188 12.0687C44.4049 12.0757 42.2987 12.2254 42.2987 12.2254C42.2987 12.2254 42.2683 15.5228 42.2683 16.4752C42.9633 16.4776 48.0205 16.4916 50.494 16.4378C51.2195 16.4237 51.5659 16.6671 51.8701 17.306C52.3264 18.2601 52.8321 19.1953 53.338 20.1309C53.5456 20.5149 53.7533 20.8989 53.9575 21.2843C53.9732 21.3141 53.9882 21.344 54.0032 21.3738C54.1272 21.6205 54.2452 21.8553 54.6315 21.8553C55.6237 21.8459 56.6169 21.8491 57.5979 21.8522C58.0839 21.8538 58.5668 21.8553 59.0451 21.8553C59.0652 21.7841 59.0822 21.7352 59.0942 21.7008C59.1102 21.6549 59.1173 21.6347 59.1106 21.6213C55.5145 14.7489 51.9262 7.87426 48.3458 0.997227C48.2931 0.848359 48.1933 0.720735 48.0615 0.633731C47.9298 0.546726 47.7732 0.505092 47.6156 0.515148C46.6556 0.524409 45.6955 0.521454 44.6932 0.518368Z" fill="white" fill-opacity="0.42"/>
</svg>
