<svg width="272" height="67" viewBox="0 0 272 67" fill="none" xmlns="http://www.w3.org/2000/svg">
<g opacity="0.42" clip-path="url(#clip0)">
<path d="M53.5842 51.4676C54.9304 50.843 56.0103 49.7499 56.6274 48.3872C56.952 47.6376 57.1138 46.8261 57.102 46.0077C57.0738 44.9572 56.7797 43.9316 56.2477 43.0291C56.013 42.6332 55.7499 42.2554 55.4604 41.8987C54.5945 40.9598 53.5929 40.1594 52.4897 39.5248H44.2256V58.1767H46.8388V52.2985H51.3506L54.3101 58.188H57.4203L53.5842 51.4676ZM51.9704 50.5803H46.8388V41.763H51.7638C52.251 41.9514 52.6997 42.2293 53.0872 42.5826C53.8131 43.1824 54.3362 43.9964 54.5837 44.9112C54.84 45.7235 54.8555 46.594 54.6284 47.4151C54.4276 48.0736 54.0777 48.6755 53.6065 49.1729C53.1715 49.7625 52.6127 50.247 51.9704 50.5916V50.5803Z" fill="white"/>
<path d="M67.6982 58.1879L75.041 39.536L82.5234 58.1879H80.033L75.1081 45.6459L70.0491 58.1879H67.6982Z" fill="white"/>
<path d="M80.6125 54.8812H70.0869V56.3112H80.6125V54.8812Z" fill="white"/>
<path d="M92.9328 39.536C93.0389 39.536 105.122 54.1862 105.122 54.0788V39.536H107.546V58.1879H105.016L95.3227 46.2507L95.1775 58.1879H92.8379L92.9328 39.536Z" fill="white"/>
<path d="M130.646 42.4977C129.489 41.2698 128.076 40.3196 126.509 39.7169L118.094 39.536V58.1879H125.973C125.973 58.1879 133.17 56.1701 133.17 49.0259C133.21 46.5984 132.304 44.2528 130.646 42.4977V42.4977ZM129.53 52.8693C128.614 54.5197 126.028 55.8423 126.028 55.8423L120.299 55.8818L120.333 41.8929H125.565C125.565 41.8929 128.357 43.532 129.016 44.4138C130.116 45.9398 131.188 49.8906 129.535 52.8693H129.53Z" fill="white"/>
<path d="M143.615 39.536H154.258V42.3621H145.988V48.7376H153.097V50.8289H145.988V55.8818H153.996V58.1879H143.615V39.536Z" fill="white"/>
<path d="M165.855 39.536L170.769 51.445L175.37 40.4403L180.183 51.445L185.454 39.536H188.057L180.362 57.7583L175.794 46.3185L170.987 58.1879L163.393 39.536H165.855Z" fill="white"/>
<path d="M206.877 58.1821C205.09 58.1531 203.351 57.5901 201.879 56.5638C200.407 55.5375 199.267 54.0937 198.603 52.4138C197.939 50.7339 197.78 48.8928 198.147 47.1219C198.513 45.351 199.389 43.7293 200.663 42.4605C201.938 41.1916 203.554 40.3324 205.309 39.9906C207.065 39.6488 208.881 39.8397 210.529 40.5395C212.178 41.2392 213.585 42.4164 214.574 43.9233C215.564 45.4302 216.091 47.1994 216.091 49.0088C216.068 51.4613 215.086 53.8046 213.358 55.5245C211.631 57.2444 209.3 58.2002 206.877 58.1821V58.1821ZM206.877 42.0906C205.532 42.1196 204.225 42.5498 203.12 43.3273C202.016 44.1049 201.162 45.1952 200.667 46.4616C200.172 47.728 200.057 49.1141 200.337 50.4463C200.617 51.7784 201.279 52.9974 202.241 53.9502C203.202 54.9031 204.42 55.5476 205.741 55.8028C207.063 56.058 208.43 55.9127 209.67 55.3851C210.911 54.8574 211.97 53.9709 212.714 52.8366C213.459 51.7023 213.857 50.3707 213.857 49.0088C213.835 47.1554 213.088 45.3865 211.779 44.0897C210.471 42.7929 208.708 42.074 206.877 42.0906V42.0906Z" fill="white"/>
<path d="M235.855 58.1821C234.067 58.1531 232.328 57.5901 230.856 56.5638C229.384 55.5375 228.244 54.0937 227.58 52.4138C226.916 50.7339 226.758 48.8928 227.124 47.1219C227.491 45.351 228.366 43.7293 229.641 42.4605C230.915 41.1916 232.532 40.3324 234.287 39.9906C236.042 39.6488 237.858 39.8397 239.507 40.5395C241.155 41.2392 242.563 42.4164 243.552 43.9233C244.541 45.4301 245.069 47.1994 245.068 49.0088C245.044 51.4608 244.061 53.8033 242.334 55.5228C240.607 57.2424 238.277 58.1987 235.855 58.1821V58.1821ZM235.855 42.0906C234.509 42.1196 233.203 42.5498 232.098 43.3273C230.993 44.1049 230.14 45.1952 229.645 46.4616C229.15 47.728 229.035 49.1141 229.315 50.4463C229.595 51.7784 230.257 52.9973 231.218 53.9502C232.179 54.9031 233.397 55.5475 234.719 55.8028C236.041 56.058 237.407 55.9127 238.648 55.3851C239.888 54.8574 240.947 53.9709 241.692 52.8366C242.437 51.7023 242.834 50.3707 242.835 49.0088C242.812 47.1554 242.065 45.3865 240.757 44.0897C239.449 42.7929 237.686 42.074 235.855 42.0906V42.0906Z" fill="white"/>
<path d="M253.238 39.536H255.885C257.616 39.536 258.856 40.3217 258.856 42.5655C258.856 44.7133 257.616 45.7476 255.885 45.7476H254.299V48.5737H253.222L253.238 39.536ZM255.746 44.6229C257.069 44.6229 257.795 43.9446 257.795 42.5542C257.795 41.1638 257.069 40.6382 255.746 40.6382H254.316V44.5946L255.746 44.6229ZM256.243 45.3464L257.398 44.7811L259.403 48.5511H257.99L256.243 45.3464Z" fill="white"/>
<path d="M264.114 44.7811V39.536H265.376V44.8151C265.376 46.9572 266.381 47.6411 267.677 47.6411C268.972 47.6411 270.028 46.9685 270.028 44.8151V39.536H271.239V44.7811C271.239 47.6468 269.704 48.6302 267.677 48.6302C265.65 48.6302 264.114 47.6468 264.114 44.7811Z" fill="white"/>
<path d="M16.9795 41.4862C16.9795 41.4862 12.5459 48.0031 11.6525 50.3769C10.8205 52.5756 10.0666 59.4542 10.0666 59.4542C10.0666 59.4542 4.18123 59.019 1.93651 55.8821C-0.754921 52.1121 0.763894 47.3644 0.763894 47.3644C2.78482 47.6799 4.64178 48.6755 6.03508 50.1904C8.11786 52.6434 8.87169 56.2268 8.87169 56.2268C8.87169 56.2268 9.07829 52.1573 10.3626 49.4443C11.3844 47.3474 16.9795 41.4862 16.9795 41.4862Z" fill="white"/>
<path opacity="0.39" d="M24.6407 19.0812C24.6407 19.0812 28.7783 24.5637 26.9468 30.6284C24.395 38.8974 17.0633 41.2599 16.9796 41.0678C16.8958 40.8756 14.2323 36.06 16.2313 29.3736C17.5156 25.0611 24.6407 19.0812 24.6407 19.0812Z" fill="white"/>
<path opacity="0.52" d="M33.0147 22.3086C33.0147 22.3086 33.7071 28.5654 29.9938 33.6806C24.1196 41.7631 16.9666 41.2939 16.9778 41.0679C16.989 40.8418 14.9006 32.8158 22.88 25.9146C26.2694 22.9868 33.0147 22.3086 33.0147 22.3086Z" fill="white"/>
<path opacity="0.52" d="M45.1735 26.4458C45.1735 26.4458 40.5445 34.6187 36.8703 36.4725C30.7727 39.536 24.7868 38.3038 24.904 38.1286C25.0213 37.9534 25.7807 31.3461 30.8062 28.294C39.1318 23.2071 45.1735 26.4458 45.1735 26.4458Z" fill="white"/>
<path opacity="0.52" d="M70.3129 10.0546C70.3129 10.0546 65.4773 15.215 62.4564 15.9102C57.4309 17.0406 53.2709 15.0737 53.3882 14.9663C53.5054 14.8589 55.2253 10.1507 59.4523 8.8055C66.4544 6.58423 70.3129 10.0546 70.3129 10.0546Z" fill="white"/>
<path opacity="0.52" d="M103.814 24.7559C103.814 24.7559 99.4644 26.2989 96.7116 25.2024C95.6985 24.7624 94.7894 24.1096 94.0443 23.2872C93.2993 22.4648 92.7353 21.4916 92.3896 20.4321C92.4957 20.4321 96.6669 19.4769 99.3527 20.7881C101.166 21.6789 102.708 23.05 103.814 24.7559V24.7559Z" fill="white"/>
<path opacity="0.52" d="M149.106 17.6623C149.106 17.6623 146.202 13.8415 143.566 13.8415C140.11 13.8415 139.898 9.26896 140.004 9.26331C142.013 9.38837 143.982 9.88852 145.811 10.7385C149.837 12.8467 149.106 17.6623 149.106 17.6623Z" fill="white"/>
<path opacity="0.52" d="M192.822 21.2743C192.822 21.2743 196.245 22.7495 198.881 22.8343C202.231 22.9417 203.599 23.4673 203.448 25.2138C203.326 26.5646 201.773 27.0903 199.026 26.7794C194.525 26.2651 192.822 21.2743 192.822 21.2743Z" fill="white"/>
<path opacity="0.52" d="M241.272 29.2323C241.272 29.2323 244.271 29.0571 246.075 28.7745C248.766 28.3506 250.089 25.3832 251.513 27.4519C252.044 28.2149 250.659 29.7975 248.062 30.4701C243.316 31.6853 241.272 29.2323 241.272 29.2323Z" fill="white"/>
</g>
<defs>
<clipPath id="clip0">
<rect width="271.066" height="65.935" fill="white" transform="translate(0.0253906 0.189209)"/>
</clipPath>
</defs>
</svg>
