<svg width="215" height="54" viewBox="0 0 215 54" fill="none" xmlns="http://www.w3.org/2000/svg">
<g opacity="0.12">
<path d="M0.80323 40.385V47.0302L0.753028 48.7732L6.28528 40.385H7.41984V49.5853H6.60657V42.9797V41.207L1.10444 49.5853H0V40.385H0.80323Z" fill="white"/>
<path d="M11.3864 40.385V44.4157H17.3001V40.385H18.1435V49.5853H17.3102V45.1485H11.3864V49.5853H10.543V40.385H11.3964H11.3864Z" fill="white"/>
<path d="M27.1887 41.1179H24.0962V49.5853H23.2428V41.1179H20.0801V40.385H27.2087V41.108L27.1887 41.1179Z" fill="white"/>
<path d="M32.8618 49.7535C32.2764 49.7906 31.6899 49.7007 31.1435 49.4903C30.5971 49.2799 30.1041 48.9539 29.6991 48.5354C28.8906 47.5667 28.4851 46.3314 28.5645 45.0791C28.4984 43.8136 28.8858 42.5655 29.6589 41.5535C30.0136 41.1199 30.4662 40.7742 30.9804 40.5438C31.4947 40.3134 32.0564 40.2047 32.6208 40.2264C33.1132 40.2038 33.6042 40.294 34.0554 40.4899C34.5065 40.6858 34.9056 40.982 35.2213 41.3554C35.8853 42.2399 36.2123 43.3269 36.145 44.4255V45.0989H29.448C29.3856 46.1372 29.7026 47.1632 30.3416 47.9907C30.6605 48.3304 31.0522 48.5956 31.4882 48.7669C31.9242 48.9382 32.3935 49.0114 32.8618 48.981C33.3327 48.9867 33.8032 48.9502 34.2674 48.8721C34.7901 48.7611 35.3011 48.602 35.7936 48.3967V49.1593C35.3276 49.3679 34.8392 49.5241 34.3377 49.6247C33.8507 49.712 33.3567 49.7551 32.8618 49.7535V49.7535ZM32.6108 40.9593C32.2085 40.9424 31.8073 41.0115 31.4347 41.1619C31.0621 41.3124 30.7269 41.5405 30.4521 41.8308C29.8568 42.5437 29.5209 43.4328 29.4982 44.3561H35.2614C35.3173 43.4701 35.0698 42.5912 34.5586 41.8605C34.3329 41.5677 34.0389 41.3328 33.7015 41.176C33.3642 41.0191 32.9935 40.9447 32.6208 40.9593H32.6108Z" fill="white"/>
<path d="M42.7321 49.7535C42.1105 49.7969 41.4887 49.6712 40.9346 49.3901C40.3804 49.1089 39.9151 48.6831 39.5895 48.159H39.5292V48.8721C39.5292 49.288 39.5292 49.7436 39.5292 50.2387V53.7445H38.7461V40.3848H39.459L39.6196 41.6921H39.6698C40.0003 41.196 40.4598 40.7965 41.0002 40.5352C41.5406 40.2739 42.1422 40.1604 42.7422 40.2066C43.2858 40.1718 43.83 40.264 44.3307 40.4757C44.8314 40.6873 45.2744 41.0125 45.6238 41.4247C46.3565 42.4637 46.7104 43.717 46.6278 44.98C46.7184 46.2315 46.3633 47.4749 45.6238 48.4957C45.2764 48.9153 44.8334 49.248 44.3308 49.4666C43.8283 49.6852 43.2805 49.7835 42.7321 49.7535V49.7535ZM42.7321 49.0107C43.1612 49.0309 43.5887 48.9456 43.976 48.7623C44.3634 48.5791 44.6984 48.3037 44.9511 47.9609C45.5305 47.08 45.8052 46.0377 45.7342 44.9899C45.7342 42.2896 44.7302 40.9394 42.7221 40.9394C42.2827 40.9049 41.8409 40.966 41.428 41.1183C41.0151 41.2706 40.6411 41.5104 40.3325 41.8208C39.7483 42.6657 39.4786 43.684 39.5694 44.7027V44.9701C39.4737 46.0476 39.7306 47.1271 40.3024 48.0501C40.5981 48.3871 40.9708 48.6499 41.3898 48.8169C41.8087 48.984 42.262 49.0504 42.712 49.0107H42.7321Z" fill="white"/>
<path d="M50.0507 40.385V44.4157H55.9645V40.385H56.8079V49.5853H55.9645V45.1485H50.0507V49.5853H49.1973V40.385H50.0507Z" fill="white"/>
<path d="M63.696 49.7535C63.109 49.7921 62.5206 49.703 61.9723 49.4925C61.4241 49.282 60.9294 48.9552 60.5233 48.5354C59.7148 47.5667 59.3093 46.3314 59.3887 45.0791C59.3226 43.8136 59.71 42.5655 60.4831 41.5535C60.8378 41.1199 61.2904 40.7742 61.8046 40.5438C62.3189 40.3134 62.8806 40.2047 63.445 40.2264C63.9374 40.2038 64.4284 40.294 64.8796 40.4899C65.3307 40.6858 65.7298 40.982 66.0455 41.3554C66.7225 42.2386 67.0604 43.3298 66.9993 44.4354V45.1088H60.2421C60.1797 46.1471 60.4967 47.1731 61.1357 48.0006C61.4546 48.3403 61.8463 48.6055 62.2823 48.7768C62.7183 48.9481 63.1876 49.0213 63.6559 48.9909C64.1268 48.9966 64.5973 48.9601 65.0615 48.882C65.5842 48.771 66.0952 48.6119 66.5877 48.4066V49.1692C66.1217 49.3778 65.6333 49.534 65.1318 49.6347C64.6577 49.7163 64.1772 49.7561 63.696 49.7535V49.7535ZM63.445 40.9593C63.0428 40.9424 62.6416 41.0115 62.269 41.1619C61.8964 41.3124 61.5611 41.5405 61.2863 41.8308C60.691 42.5437 60.3552 43.4328 60.3325 44.3561H66.0957C66.1515 43.4701 65.904 42.5912 65.3928 41.8605C65.1661 41.5662 64.8705 41.3306 64.5313 41.1736C64.1921 41.0167 63.8193 40.9431 63.445 40.9593V40.9593Z" fill="white"/>
<path d="M75.4841 41.1179H72.3817V49.5853H71.5383V41.1179H68.3555V40.385H75.4841V41.108V41.1179Z" fill="white"/>
<path d="M76.6289 45.2474V44.574H80.7053V45.2672H76.6289V45.2474Z" fill="white"/>
<path d="M87.352 48.6841L87.8841 47.2085L90.5649 40.385H91.7396V49.5853H90.9364V41.4051C90.8092 41.7616 90.6753 42.1247 90.5348 42.4944C90.3942 42.8642 89.4604 45.2278 87.7335 49.5853H87.0206L84.4403 43.1183C84.3332 42.8609 84.2328 42.5869 84.139 42.2964L83.8278 41.3654V49.5754H83.0547V40.385H84.1792L86.87 47.149C87.0775 47.7036 87.2382 48.2153 87.352 48.6841V48.6841Z" fill="white"/>
<path d="M100.565 49.5851L100.354 48.1293H100.284C99.9016 48.6482 99.408 49.0776 98.8383 49.387C98.29 49.6439 97.688 49.7695 97.0812 49.7535C96.3043 49.8037 95.5378 49.5552 94.9426 49.0602C94.6834 48.8126 94.4811 48.5129 94.3494 48.1814C94.2178 47.8499 94.1598 47.4944 94.1795 47.139C94.1657 46.723 94.2633 46.3108 94.4625 45.944C94.6617 45.5771 94.9554 45.2685 95.3141 45.0494C96.3166 44.4914 97.4572 44.2204 98.6073 44.267L100.384 44.2175V43.5836C100.435 42.8821 100.244 42.1843 99.8423 41.603C99.6241 41.3679 99.3538 41.1858 99.0525 41.0707C98.7513 40.9556 98.4271 40.9107 98.1053 40.9394C97.1665 40.9605 96.2468 41.2051 95.4245 41.6525L95.1033 40.9295C96.0419 40.4763 97.0704 40.2329 98.1154 40.2165C98.5311 40.1835 98.9492 40.236 99.3432 40.3706C99.7373 40.5053 100.099 40.7192 100.405 40.9989C100.969 41.6904 101.243 42.5699 101.168 43.4549V49.5752H100.545L100.565 49.5851ZM97.1314 48.9909C97.5619 49.0204 97.9938 48.9583 98.3978 48.8088C98.8019 48.6594 99.1687 48.426 99.4733 48.1246C99.778 47.8231 100.013 47.4606 100.164 47.0616C100.314 46.6626 100.376 46.2364 100.344 45.8119V44.9008L98.7178 44.9701C97.7488 44.9511 96.789 45.1581 95.9165 45.5742C95.6441 45.7405 95.4227 45.9767 95.2759 46.2576C95.1291 46.5384 95.0625 46.8534 95.0832 47.1687C95.0653 47.4219 95.1046 47.6758 95.1984 47.9122C95.2922 48.1485 95.438 48.3614 95.6253 48.5353C96.0522 48.8672 96.5894 49.0296 97.1314 48.9909Z" fill="white"/>
<path d="M109.691 41.1179H105.062V49.5853H104.209V40.385H109.691V41.108V41.1179Z" fill="white"/>
<path d="M117.262 49.5851L117.052 48.1293H116.981C116.599 48.6482 116.105 49.0776 115.536 49.387C114.987 49.6439 114.385 49.7695 113.778 49.7535C113.002 49.8037 112.235 49.5552 111.64 49.0602C111.381 48.8126 111.178 48.5129 111.047 48.1814C110.915 47.8499 110.857 47.4944 110.877 47.139C110.863 46.723 110.961 46.3108 111.16 45.944C111.359 45.5771 111.653 45.2685 112.011 45.0494C113.014 44.4914 114.154 44.2204 115.305 44.267L117.082 44.2175V43.5836C117.132 42.8821 116.941 42.1843 116.54 41.603C116.321 41.3679 116.051 41.1858 115.75 41.0707C115.449 40.9556 115.124 40.9107 114.803 40.9394C113.864 40.9605 112.944 41.2051 112.122 41.6525L111.801 40.9295C112.739 40.4763 113.768 40.2329 114.813 40.2165C115.228 40.1835 115.646 40.236 116.041 40.3706C116.435 40.5053 116.796 40.7192 117.102 40.9989C117.667 41.6904 117.94 42.5699 117.865 43.4549V49.5752H117.242L117.262 49.5851ZM113.829 48.9909C114.259 49.0204 114.691 48.9583 115.095 48.8088C115.499 48.6594 115.866 48.426 116.171 48.1246C116.475 47.8231 116.711 47.4606 116.861 47.0616C117.011 46.6626 117.073 46.2364 117.042 45.8119V44.9008L115.465 44.9701C114.496 44.9511 113.537 45.1581 112.664 45.5742C112.392 45.7405 112.17 45.9767 112.023 46.2576C111.877 46.5384 111.81 46.8534 111.831 47.1687C111.816 47.4162 111.856 47.664 111.948 47.8948C112.04 48.1256 112.181 48.3341 112.363 48.5056C112.777 48.841 113.303 49.0138 113.839 48.9909H113.829Z" fill="white"/>
<path d="M122.674 44.3561C124.361 44.3561 125.205 43.785 125.205 42.6428C125.218 42.4037 125.172 42.165 125.071 41.9474C124.969 41.7299 124.815 41.5402 124.622 41.395C124.129 41.076 123.544 40.9231 122.955 40.9592C122.525 40.9568 122.097 41.0101 121.68 41.1177C121.248 41.2376 120.825 41.3899 120.415 41.5733L120.094 40.88C121.002 40.4569 121.991 40.2306 122.996 40.2165C123.818 40.1581 124.636 40.3782 125.315 40.8404C125.576 41.0473 125.784 41.3121 125.922 41.6133C126.06 41.9144 126.124 42.2434 126.108 42.5735C126.12 43.0502 125.956 43.5149 125.648 43.8824C125.34 44.2499 124.908 44.4954 124.431 44.574V44.6235C125.014 44.7314 125.544 45.0276 125.937 45.4653C126.266 45.8984 126.433 46.4302 126.409 46.9706C126.42 47.3506 126.341 47.7278 126.177 48.0719C126.013 48.4159 125.769 48.7171 125.466 48.9513C124.698 49.4818 123.771 49.7401 122.835 49.6841C122.278 49.6874 121.722 49.6276 121.178 49.5059C120.745 49.4136 120.329 49.2566 119.943 49.0404V48.2779C120.431 48.5181 120.942 48.7073 121.469 48.8423C121.921 48.9438 122.382 48.9937 122.845 48.9909C123.555 49.0401 124.261 48.8555 124.853 48.466C125.085 48.29 125.27 48.061 125.393 47.7988C125.515 47.5366 125.571 47.249 125.556 46.9607C125.577 46.6875 125.526 46.4137 125.408 46.1657C125.29 45.9176 125.109 45.7037 124.883 45.5445C124.273 45.2042 123.575 45.046 122.875 45.089H121.49V44.3561H122.644H122.674Z" fill="white"/>
<path d="M129.661 40.3849V47.0301L129.611 48.7632L135.144 40.375H136.278V49.5753H135.465V42.9796V41.2069L129.933 49.5951H128.828V40.3849H129.631H129.661Z" fill="white"/>
<path d="M140.244 40.385V44.4157H146.158V40.385H147.001V49.5853H146.158V45.1485H140.244V49.5853H139.391V40.385H140.244Z" fill="white"/>
<path d="M177.142 32.2543H163.236L168.186 9.14966H182.092L181.088 14.1608H173.447L172.694 17.8349H179.803L178.618 22.7866H171.51L170.596 27.1441H178.237L177.142 32.2543Z" fill="white"/>
<path d="M189.984 32.2543H183.739L187.534 14.2598H182.434L183.538 9.15955H200.004L198.87 14.2598H193.779L189.984 32.2543Z" fill="white"/>
<path d="M207.734 27.9265H200.555L198.547 32.2543H192.041L203.969 9.14966H212.001L214.009 32.2543H207.905L207.734 27.9265ZM202.844 22.9748H207.543L207.272 16.2801V14.9233C207.272 14.1311 207.292 13.4411 207.332 12.8535C207.07 13.7536 206.734 14.6312 206.328 15.4779L202.844 22.9748Z" fill="white"/>
<path d="M9.56848 32.0957L6.8877 11.4372H6.75717C6.68354 12.203 6.52959 13.2528 6.29532 14.5865C6.06104 15.9201 5.86023 16.9798 5.69289 17.7654L2.62054 32.0957H0L5.02019 8.79297H8.93594L11.3456 27.9858H11.4862L22.139 8.79297H26.4363L21.5466 32.0957H18.7353C20.0741 25.8235 21.1149 21.0105 21.8579 17.6565C22.6009 14.3026 23.1063 12.2162 23.374 11.3976H23.2736L11.687 32.0957H9.56848Z" fill="white"/>
<path d="M36.5681 24.6879H28.5358L24.6 32.0957H21.5879L34.4597 8.79297H37.271L40.2831 32.1056H37.4919L36.5681 24.6879ZM36.277 22.2022L35.7147 17.4386C35.4605 15.5993 35.303 13.7482 35.2428 11.8927C34.8412 12.8303 34.4061 13.7612 33.9376 14.6855C33.469 15.6098 32.1303 18.1286 29.9214 22.2418H36.287L36.277 22.2022Z" fill="white"/>
<path d="M57.58 14.8043C57.6439 15.9393 57.4375 17.0734 56.9772 18.1155C56.5169 19.1577 55.8156 20.0791 54.9293 20.8058C53.1622 22.2253 50.5818 22.935 47.1882 22.935H44.9793L42.9712 32.1056H40.2402L45.2604 8.79296H50.5919C52.4653 8.6594 54.3251 9.19356 55.8329 10.2983C56.4453 10.8741 56.9199 11.5773 57.2221 12.3568C57.5243 13.1363 57.6465 13.9724 57.58 14.8043V14.8043ZM45.4713 20.6077H47.6199C49.5027 20.7386 51.3741 20.2282 52.9212 19.1618C53.537 18.6392 54.021 17.9822 54.3347 17.2431C54.6483 16.5039 54.7832 15.7029 54.7285 14.9034C54.7796 14.3699 54.7047 13.8321 54.5096 13.3321C54.3145 12.832 54.0045 12.3834 53.604 12.0215C52.5997 11.3632 51.4034 11.05 50.2003 11.1302H47.5295L45.4713 20.6077Z" fill="white"/>
<path d="M71.0463 32.0957H67.8635L60.4336 20.5384L57.9737 32.0957H55.2227L60.2428 8.79297H62.9939L60.524 20.1423L71.9098 8.79297H75.3034L63.4056 20.4493L71.0463 32.0957Z" fill="white"/>
<path d="M83.1448 32.0957H71.2871L76.3073 8.79297H88.1349L87.6128 11.2292H78.476L76.8896 18.7063H85.4039L84.942 21.1326H76.3876L74.5402 29.7189H83.6769L83.1448 32.0957Z" fill="white"/>
<path d="M93.2552 32.0957H90.474L94.952 11.1995H88.3555L88.8876 8.79297H104.812L104.33 11.1995H97.7733L93.2552 32.0957Z" fill="white"/>
<path d="M139.25 13.8239C138.08 13.8266 136.956 14.2693 136.107 15.0618C135.097 16.0027 134.342 17.177 133.908 18.4785C133.367 19.9955 133.098 21.5942 133.115 23.2024C133.028 24.334 133.348 25.4596 134.019 26.3814C134.343 26.7393 134.746 27.0197 135.196 27.2016C135.647 27.3834 136.133 27.4619 136.619 27.4312C137.533 27.4287 138.443 27.319 139.33 27.1044C140.44 26.8258 141.524 26.4581 142.573 26.0051V31.145C140.338 32.1078 137.923 32.5938 135.484 32.5711C134.301 32.6462 133.115 32.4752 132.003 32.0692C130.89 31.6631 129.877 31.0311 129.028 30.214C127.417 28.3632 126.602 25.9642 126.759 23.5293C126.729 20.858 127.287 18.2121 128.396 15.7749C129.325 13.6119 130.87 11.7611 132.844 10.4469C134.764 9.23841 137.002 8.61493 139.28 8.65435C142.009 8.62218 144.694 9.34247 147.031 10.7341L144.581 15.5768C143.705 15.055 142.781 14.6173 141.82 14.2696C140.995 13.9799 140.126 13.8293 139.25 13.8239V13.8239Z" fill="white"/>
<path d="M148.949 9.01092H156.8C158.663 8.88592 160.518 9.34336 162.101 10.3182C162.695 10.7487 163.171 11.318 163.487 11.9748C163.802 12.6317 163.947 13.3556 163.909 14.0815C163.909 17.1317 162.312 19.1289 159.119 20.073V20.2018C160.028 20.4779 160.82 21.0374 161.378 21.7962C161.958 22.6242 162.253 23.6132 162.222 24.6187C162.282 25.6802 162.09 26.7408 161.664 27.717C161.237 28.6932 160.586 29.5582 159.762 30.2438C158.122 31.5643 155.799 32.2245 152.794 32.2245H143.979L148.949 9.01092ZM152.382 22.5291L151.318 27.4114H152.613C153.452 27.4385 154.273 27.164 154.923 26.639C155.222 26.4028 155.462 26.1007 155.623 25.7567C155.783 25.4128 155.86 25.0366 155.846 24.6583C155.893 24.0659 155.702 23.4791 155.314 23.0242C154.789 22.6071 154.118 22.4114 153.447 22.4795H152.352L152.382 22.5291ZM153.336 17.9339H154.501C155.267 17.989 156.028 17.775 156.649 17.3298C156.914 17.0752 157.117 16.7647 157.242 16.4215C157.367 16.0784 157.412 15.7117 157.372 15.3491C157.372 14.2663 156.703 13.7249 155.364 13.7249H154.36L153.336 17.9339Z" fill="white"/>
<path d="M133.026 0.00874561H117.664C115.877 0.00874561 114.461 0.870341 114.461 2.63315V3.55416L108.306 15.8542H104.822V16.8445H105.987L113.276 30.7093H108.838V32.69H122.895V30.7093H119.481L112.031 16.8445H112.804V15.8542H110.324L115.465 5.59426C116.047 6.11914 116.81 5.95078 117.664 5.95078H133.026C133.44 5.98223 133.857 5.92868 134.249 5.79352C134.642 5.65835 135.002 5.4445 135.306 5.16541C135.611 4.88633 135.854 4.54806 136.019 4.17191C136.185 3.79575 136.27 3.38985 136.269 2.97977C136.27 2.56968 136.185 2.16378 136.019 1.78762C135.854 1.41147 135.611 1.0732 135.306 0.794116C135.002 0.515033 134.642 0.301179 134.249 0.166014C133.857 0.03085 133.44 -0.0226965 133.026 0.00874561V0.00874561ZM117.473 30.7093H115.385L107.935 16.8445H110.184L117.473 30.7093ZM133.026 3.9701H117.664C117.264 3.9701 116.881 3.8136 116.599 3.53501C116.317 3.25642 116.158 2.87858 116.158 2.4846C116.158 2.09061 116.317 1.71277 116.599 1.43418C116.881 1.15559 117.264 0.999085 117.664 0.999085H133.026C133.425 0.999085 133.808 1.15559 134.091 1.43418C134.373 1.71277 134.532 2.09061 134.532 2.4846C134.532 2.87858 134.373 3.25642 134.091 3.53501C133.808 3.8136 133.425 3.9701 133.026 3.9701Z" fill="white"/>
</g>
</svg>
