<svg width="75" height="56" viewBox="0 0 75 56" fill="none" xmlns="http://www.w3.org/2000/svg">
<g opacity="0.12" clip-path="url(#clip0)">
<path d="M20.7861 54.6975C3.04282 54.6975 -1.70025 43.5195 1.34638 27.599C4.21128 12.577 14.9611 0.949829 31.5445 0.949829C37.9927 0.949829 42.2943 2.10735 45.7045 4.16329L39.6112 13.294C38.0879 12.3956 35.8462 11.5922 31.458 11.5922C23.6596 11.5922 18.6396 16.3347 16.4844 27.7804C14.3379 39.0448 16.3113 44.3228 21.7727 44.3228C22.6889 44.3254 23.599 44.1735 24.4645 43.8736L26.7928 31.4431H21.9458L23.6596 22.5888H42.3809L36.9194 51.484C33.0678 53.5399 28.3161 54.7061 20.786 54.7061V54.6974V54.6974L20.7861 54.6975H20.7861ZM42.2943 54.6197L44.2677 44.3315C48.3876 43.9773 52.0575 40.9366 53.0528 35.4858L59.501 1.67546H74.5611L68.4591 33.7841C65.8626 47.5536 55.3724 54.3519 42.2943 54.6197V54.6197V54.6197Z" fill="white" stroke="black"/>
</g>
<defs>
<clipPath id="clip0">
<rect width="75" height="56" fill="white"/>
</clipPath>
</defs>
</svg>
