<svg width="263" height="53" viewBox="0 0 263 53" fill="none" xmlns="http://www.w3.org/2000/svg">
<g opacity="0.42" clip-path="url(#clip0)">
<path d="M6.9866 26.905H0.740234V42.6628H6.9866V26.905Z" fill="white"/>
<path d="M28.5725 40.6133H6.83984V42.6626H28.5725V40.6133Z" fill="white"/>
<path d="M180.681 26.905H173.75V42.6628H180.681V26.905Z" fill="white"/>
<path d="M202.931 26.905H196.186V42.6628H202.931V26.905Z" fill="white"/>
<path d="M216.001 26.905H183.282V29.4284H216.001V26.905Z" fill="white"/>
<path d="M145.337 29.6754H138.782V42.6628H145.337V29.6754Z" fill="white"/>
<path d="M110.806 26.905H103.938V38.2925H110.806V26.905Z" fill="white"/>
<path d="M56.9473 36.7717H38.6533V38.663H56.9473V36.7717Z" fill="white"/>
<path d="M92.4056 26.905H70.0518V29.3001H92.4056V26.905Z" fill="white"/>
<path d="M100.649 40.5199H76.2559V42.6631H100.649V40.5199Z" fill="white"/>
<path d="M135.376 26.905H128.509V38.2925H135.376V26.905Z" fill="white"/>
<path d="M29.0029 42.643C29.0029 42.643 39.7641 30.8506 43.1587 27.8927C43.8873 27.3971 44.7103 27.0607 45.5751 26.905C47.2818 26.6853 49.0093 26.6853 50.716 26.905C51.2052 26.9989 52.2421 27.2211 52.5992 27.5766C56.4635 31.4432 67.7627 42.6628 67.7627 42.6628H60.1027L53.6069 35.5172C53.6069 35.5172 50.0459 31.2852 48.779 29.7544C48.5577 29.6193 48.3039 29.5479 48.0453 29.5479C47.7867 29.5479 47.5329 29.6193 47.3116 29.7544C46.9887 30.0753 45.8441 31.4827 45.8441 31.4827L41.2462 36.4851L35.5428 42.643H29.0029Z" fill="white"/>
<path d="M90.6006 26.905H97.9133C97.9133 26.905 100.183 27.0976 100.76 27.8927C101.249 28.5692 101.249 29.3741 100.941 29.542C96.7638 31.3691 77.9513 39.9517 77.9513 39.9517L77.6383 40.49L76.7529 42.643H70.9272C70.9272 42.643 68.4473 42.5047 68.4473 41.4875C68.4473 40.2134 70.0517 39.6998 70.0517 39.6998L91.6571 30.0408L90.6006 26.905Z" fill="white"/>
<path d="M110.806 38.2925C110.806 38.2925 112.675 39.9616 113.457 40.1444C116.285 40.7863 121.372 40.6925 123.949 40.5197C125.251 40.4357 128.508 38.2925 128.508 38.2925H135.356C135.268 38.7166 135.097 39.1187 134.853 39.4756C134.61 39.8325 134.299 40.137 133.938 40.3715C132.84 41.1928 131.594 41.7899 130.269 42.1295C129.281 42.3579 128.279 42.5228 127.271 42.6233C127.271 42.6233 115.218 42.7764 111.207 42.5295C109.624 42.3088 108.076 41.8788 106.604 41.2505C104.227 40.1493 103.919 38.2876 103.919 38.2876L110.806 38.2925Z" fill="white"/>
<path d="M138.782 29.6755C138.798 29.0592 139.018 28.466 139.408 27.9916C139.946 27.4502 140.624 27.0736 141.365 26.9052H164.844C166.219 26.8556 167.578 27.2107 168.757 27.9274C170.038 28.683 170.816 29.4583 171.066 30.6237C171.349 31.9323 171.457 34.3767 169.52 36.0112C168.913 36.4562 168.256 36.8275 167.563 37.1174L158.451 37.147L170.909 42.6432H162.481C162.481 42.6432 152.649 38.4408 149.788 36.7174C149.49 36.5347 149.534 34.9939 150.575 34.9841C153.432 34.9841 160.691 34.9841 160.691 34.9841C160.691 34.9841 163.87 34.8014 163.973 32.5742C164.04 31.9768 163.917 31.3732 163.62 30.8517C163.324 30.3302 162.87 29.9181 162.325 29.6755H145.337" fill="white"/>
<path d="M263.408 5.50305H222.413V45.369H263.408V5.50305Z" fill="white"/>
<path d="M232.032 39.8679C231.983 38.9839 231.929 37.9222 231.939 37.1371H231.91C231.699 37.8778 231.421 38.6679 231.122 39.537L230.017 42.6036H229.4L228.388 39.5963C228.09 38.7025 227.84 37.8877 227.664 37.1272C227.664 37.9124 227.6 38.9741 227.542 39.9222L227.356 42.6431H226.588L227.023 36.3223H228.055L229.122 39.379C229.381 40.1592 229.611 40.8605 229.753 41.5074H229.762C229.919 40.8703 230.144 40.174 230.423 39.379L231.538 36.3223H232.57L232.961 42.6431H232.208L232.032 39.8679Z" fill="black"/>
<path d="M237.466 39.6802H235.02V41.9567H237.73V42.6431H234.208V36.3223H237.588V37.0037H235.015V38.979H237.461L237.466 39.6802Z" fill="black"/>
<path d="M242.308 36.3223V37.0037H239.603V38.6926C239.86 38.6627 240.118 38.6479 240.376 38.6482C240.944 38.6292 241.506 38.7748 241.995 39.0679C242.251 39.2334 242.459 39.4637 242.599 39.7358C242.738 40.0079 242.805 40.3122 242.792 40.6185C242.802 40.87 242.761 41.1208 242.671 41.3559C242.582 41.591 242.447 41.8054 242.274 41.9864C241.649 42.4933 240.858 42.7437 240.058 42.6876C239.636 42.692 239.214 42.6673 238.796 42.6135V36.3223H242.308ZM239.603 42.016C239.828 42.0512 240.055 42.0661 240.283 42.0604C240.524 42.0706 240.766 42.0321 240.992 41.9474C241.219 41.8626 241.427 41.7332 241.604 41.5666C241.719 41.4425 241.808 41.2965 241.867 41.1371C241.926 40.9777 241.953 40.8082 241.946 40.6382C241.956 40.4386 241.917 40.2396 241.832 40.0593C241.746 39.879 241.617 39.7232 241.457 39.6062C241.099 39.3838 240.683 39.2738 240.263 39.2901C240.077 39.2901 239.828 39.2901 239.623 39.3247L239.603 42.016Z" fill="black"/>
<path d="M247.087 39.6802H244.641V41.9567H247.37V42.6431H243.849V36.3223H247.229V37.0037H244.656V38.979H247.101L247.087 39.6802Z" fill="black"/>
<path d="M252.774 36.3223V42.6431H251.953V37.0037H249.883V38.9197C249.883 40.2876 249.825 41.8185 248.944 42.416C248.652 42.6063 248.313 42.7106 247.966 42.7172L247.863 42.0604C248.109 42.0099 248.337 41.8939 248.524 41.7246C249.013 41.2308 249.071 39.9963 249.071 38.9839V36.3223H252.774Z" fill="black"/>
<path d="M254.989 36.3223V38.6926C255.244 38.6648 255.5 38.6499 255.757 38.6481C257.043 38.6481 258.173 39.221 258.173 40.6234C258.19 41.1199 258.014 41.6034 257.684 41.9715C257.061 42.5095 256.251 42.7759 255.434 42.7123C255.012 42.7169 254.59 42.6922 254.172 42.6382V36.3223H254.989ZM254.989 42.016C255.21 42.0513 255.435 42.0661 255.659 42.0604C256.559 42.0604 257.332 41.6209 257.332 40.653C257.332 39.6852 256.539 39.2852 255.649 39.2852C255.428 39.2877 255.208 39.3025 254.989 39.3296V42.016Z" fill="black"/>
</g>
<defs>
<clipPath id="clip0">
<rect width="262.693" height="52.3294" fill="white" transform="translate(0.306641 0.468628)"/>
</clipPath>
</defs>
</svg>
