<svg width="118" height="82" viewBox="0 0 118 82" fill="none" xmlns="http://www.w3.org/2000/svg">
<g opacity="0.12">
<path d="M41.4429 58.1158C41.9149 59.5915 41.4429 60.3295 39.5549 61.2518C37.0061 62.6354 35.4013 62.3587 33.8909 60.3295C32.3805 58.3925 32.0028 56.3632 31.4364 54.5184C31.2476 53.8728 30.9646 52.8581 30.6814 52.9504C30.4926 52.9504 30.3037 53.2271 30.1149 53.6882C28.1325 57.3779 22.7516 60.9751 19.1644 60.2372C16.1436 59.5915 14.5391 56.1787 14.7279 53.0426C15.1055 47.6928 16.1437 42.9886 19.2589 38.469C23.2237 32.7502 28.7933 32.6579 32.9469 38.2845C33.0413 38.3767 33.23 38.5612 33.3244 38.5612C38.0444 37.5466 38.0447 41.5128 37.9503 44.4644C37.8559 47.5083 38.3279 49.9987 39.3663 52.7659C40.3103 55.6253 40.9709 56.6399 41.4429 58.1158ZM22.5629 51.1056C25.3005 51.7513 26.3389 47.5083 26.8109 45.4791C27.0941 44.1877 26.8109 42.6197 25.8669 42.2507C25.5837 42.0663 24.8285 42.0663 24.4509 42.6197C22.9405 45.0179 20.3917 50.6445 22.5629 51.1056Z" fill="white"/>
<path d="M41.6328 47.9618C41.6328 41.1361 46.9191 33.9415 52.8663 32.5579C55.7927 31.9122 59.191 34.4027 59.8518 39.1991C60.3238 42.6119 59.0022 44.5489 55.6038 44.0877C53.8102 43.811 53.6216 42.3352 53.4328 40.7671C53.4328 40.4904 53.1496 40.1215 52.4888 40.3982C49.6568 41.7817 47.7688 47.2238 49.1848 50.0832C50.6952 53.2193 53.9048 53.865 55.7928 50.9134C57.3032 48.3306 58.0584 47.5005 60.0408 48.3306C62.8728 49.5298 62.8726 50.6367 62.1174 52.5736C61.079 55.2486 56.9255 59.4916 51.9223 59.9527C46.5415 60.1372 41.6328 54.4185 41.6328 47.9618Z" fill="white"/>
<path d="M81.2767 61.7076L66.1727 61.0618C65.7951 61.0618 65.5119 60.7851 65.2287 60.5084C65.0399 60.2317 64.8508 59.8628 64.9452 59.4938C64.9452 59.3094 67.0223 44.0899 67.5887 38.0022C67.7775 35.6963 67.8719 33.8516 67.5887 33.2058C67.3999 32.7447 66.6444 32.468 65.0396 31.9145C64.9452 31.8222 64.7564 31.8222 64.5676 31.7301C63.9068 31.4534 63.0572 31.2688 62.1132 30.8999C58.3372 29.793 53.0508 28.225 48.4252 23.8898C46.1596 21.8605 45.5933 19.0934 46.6317 16.4185C47.7645 13.6513 50.5967 11.5298 53.0511 11.5298C53.3343 11.5298 53.7119 11.5298 53.9951 11.622C55.9775 12.0832 57.1101 12.8211 58.4316 13.7436C59.6588 14.5737 61.1696 15.5883 63.9072 16.7874C66.3616 17.8942 68.4381 18.8167 69.3821 18.8167C69.4765 18.8167 69.4767 18.8167 69.4767 18.8167C69.5711 18.7244 69.6652 18.4477 69.6652 17.5254C69.6652 16.6952 69.6656 15.496 69.5712 14.1124C69.288 8.57818 69.288 4.24297 70.9872 2.30596C72.4976 0.553431 75.5184 0 77.5952 0C80.4272 0 82.5983 0.922382 83.6367 2.49044C85.7135 5.62655 85.9968 10.6074 86.0912 15.4039C86.0912 16.7874 86.1852 17.7098 86.2796 18.3555C86.374 18.9088 86.4687 19.1856 86.4687 19.2778C86.8463 19.2778 87.4124 19.0011 87.6012 19.0011C88.3564 18.7244 89.3005 17.8942 90.1501 17.0641C91.7549 15.5883 93.6428 13.8357 96.0972 13.8357C96.1916 13.8357 96.2863 13.8357 96.3807 13.8357C98.8351 13.928 101.29 15.496 102.611 17.6175C103.555 19.1856 103.744 20.8459 103.083 22.1372C100.629 27.0259 96.3808 30.4386 90.3392 32.2835C87.0352 33.2981 85.5244 33.9437 84.8636 34.5894C84.2972 35.2352 84.2029 35.973 84.0141 37.9101C84.0141 38.3712 83.9196 38.8324 83.8252 39.3858C83.2588 44.4589 82.4092 60.324 82.4092 60.5084C82.5036 60.8774 81.9375 61.7076 81.2767 61.7076ZM67.6832 58.2948L80.0492 58.6637C80.238 54.8819 80.8988 43.3521 81.4652 38.9247C81.5596 38.3712 81.5597 37.9101 81.6541 37.5411C81.8429 35.5117 82.032 33.9437 83.2592 32.7447C84.4864 31.5455 86.4688 30.7154 89.8672 29.793C93.0768 28.8706 95.7199 27.3949 97.7967 25.4578C99.1183 24.1665 100.251 22.6906 101.101 20.9381C101.384 20.3847 101.29 19.5546 100.723 18.7244C99.8736 17.2486 98.0796 16.2339 96.5692 16.1418H96.4752C94.9648 16.1418 93.6432 17.3408 92.2272 18.6321C91.1888 19.6468 90.0557 20.6614 88.7341 21.1226C88.0733 21.3993 87.318 21.5837 86.6572 21.5837C85.8076 21.5837 84.6752 21.2149 84.2032 19.6468C83.92 18.8167 83.8252 17.5254 83.8252 15.3116C83.7308 10.7919 83.4479 6.27222 81.7487 3.68953C81.1823 2.85939 79.6717 2.39819 77.8781 2.39819C75.8957 2.39819 73.9133 3.04386 73.1581 3.87401C72.8749 4.15073 72.4031 5.07312 72.3087 7.74803C72.2143 9.68504 72.3088 11.991 72.4032 14.0203C72.4976 15.4039 72.4972 16.6029 72.4972 17.5254C72.4972 18.7244 72.3088 19.4623 71.9312 20.0157C71.5536 20.5691 70.8924 21.2149 69.6652 21.2149C68.2492 21.2149 66.2668 20.3847 63.1516 19.0011C60.2252 17.7098 58.6208 16.6029 57.2991 15.7728C56.0719 14.9426 55.2221 14.3892 53.7117 14.0203C53.6173 14.0203 53.5229 14.0203 53.3341 14.0203C51.7293 14.0203 49.9359 15.7728 49.2751 17.4331C48.8031 18.6321 48.5197 20.477 50.4077 22.2295C54.6557 26.1957 59.5644 27.6716 63.1516 28.6862C64.0956 28.9629 65.04 29.2396 65.7952 29.5163C65.984 29.6086 66.0783 29.6086 66.1727 29.7008C68.1551 30.4386 69.3824 30.8999 70.0432 32.2835C70.6096 33.4826 70.6093 35.1429 70.3261 38.3712C69.7597 43.0753 68.2496 54.3284 67.6832 58.2948Z" fill="white"/>
<path d="M0 74.6264H0.944V77.5781C0.944 77.8548 1.03849 78.2237 1.03849 78.5004C1.03849 78.7771 1.13298 79.1461 1.13298 79.1461L4.05901 74.5342H5.664V80.0685H4.72V77.3013C4.72 76.8401 4.34258 76.3789 4.43698 75.4566L1.51049 80.0685H0.0944922V74.6264H0Z" fill="white"/>
<path d="M10.3859 76.01C10.3859 76.3789 10.0082 76.6557 9.81944 76.9324C9.53624 77.2091 9.53643 77.3013 8.59243 77.3936C9.53643 77.4858 9.72523 77.578 10.0084 77.8548C10.2916 78.1315 10.4804 78.4082 10.4804 78.7771C10.4804 79.3306 10.2915 79.6995 9.91393 79.9762C9.53633 80.253 9.06415 80.4374 8.30895 80.4374C7.55375 80.4374 6.60993 80.3452 6.60993 80.1607V79.3306C6.60993 79.4228 6.98771 79.515 7.27091 79.6073C7.55411 79.6995 7.83713 79.6995 8.02593 79.6995C9.06433 79.6995 9.53643 79.3306 9.53643 78.6849C9.53643 78.4082 9.34763 78.4082 9.06443 78.3159C8.78123 78.1315 8.30922 78.3159 7.64843 78.3159H6.51544V77.3936H7.64843C8.78123 77.3936 9.34744 76.9324 9.34744 76.2867C9.34744 76.01 9.25323 75.7333 9.06443 75.641C8.87563 75.4566 8.59251 75.3643 8.21491 75.3643C7.93171 75.3643 7.64823 75.3643 7.45944 75.4566C7.17624 75.5488 6.98762 75.641 6.70442 75.8255L6.23242 75.1798C6.79882 74.8109 7.55375 74.5342 8.30895 74.5342C8.87535 74.5342 9.44175 74.6264 9.72495 74.9031C10.1969 75.1798 10.3859 75.5488 10.3859 76.01Z" fill="white"/>
<path d="M11.334 79.2318H11.617C11.9946 79.2318 12.2778 77.9405 12.561 77.0181C12.8442 76.1879 12.9386 75.5423 13.033 74.6199H16.054V79.2318H16.998V81.999H16.054V80.1542H12.278V81.999H11.334V79.2318ZM13.883 75.5423C13.7886 76.4646 13.6942 76.6491 13.411 77.387C13.1278 78.1249 12.9386 79.2318 12.561 79.2318H15.0155V75.5423H13.883Z" fill="white"/>
<path d="M21.612 80.1542L21.0455 79.2318H18.8745L18.308 80.1542H17.2695L19.441 74.6199H20.4795L22.6505 80.1542H21.612ZM20.7625 78.3094L20.196 76.5569C20.196 76.4646 20.1019 76.1879 20.0075 76.0035C19.9131 75.819 19.9129 75.5423 19.8185 75.45C19.7241 75.7267 19.6299 76.2802 19.5355 76.6491L18.969 78.3094H20.7625Z" fill="white"/>
<path d="M25.4843 80.1542H24.5403V75.5423H22.6523V74.6199H27.3723V75.5423H25.4843V80.1542Z" fill="white"/>
<path d="M31.1523 80.1542H28.3203V74.6199H31.1523V75.5423H29.2643V77.387H31.1523V78.3094H29.2643V79.2318H31.1523V80.1542Z" fill="white"/>
<path d="M37.7577 80.1542H36.8137V75.5423H34.7368C34.548 77.387 34.3592 78.3094 34.2648 78.8629C34.1704 79.4163 33.9819 79.8775 33.6987 80.062C33.5099 80.3387 33.1323 80.4309 32.7547 80.4309C32.5659 80.4309 32.0938 80.4309 32.0938 80.3387V79.6008C32.0938 79.693 32.4713 79.693 32.5657 79.693C32.7545 79.693 32.9433 79.6008 33.0377 79.324C33.1321 79.1396 33.3209 78.5861 33.4153 77.8482C33.5097 77.1103 33.6985 76.4646 33.8873 74.6199H37.7577V80.1542Z" fill="white"/>
<path d="M43.0444 78.5861C43.0444 79.1396 42.8555 79.5085 42.4779 79.7852C42.1003 80.062 41.5341 80.1542 40.7789 80.1542H38.6074V74.6199H39.5514V77.387H40.6844C41.4396 77.387 42.0058 77.2948 42.3834 77.5715C42.8554 77.8482 43.0444 78.0327 43.0444 78.5861ZM39.6459 79.2318H40.7789C41.1565 79.2318 41.5341 79.3241 41.7229 79.1396C41.9117 78.9551 42.1004 78.8629 42.1004 78.4939C42.1004 78.2172 42.0057 78.3094 41.8169 78.1249C41.6281 77.9405 41.2508 78.2172 40.6844 78.2172H39.6459V79.2318Z" fill="white"/>
<path d="M46.6301 75.3578C46.0637 75.3578 45.6862 75.5423 45.3086 75.9112C45.0254 76.2802 44.8366 76.8336 44.8366 77.4793C44.8366 78.2172 45.0254 78.6784 45.3086 79.0473C45.5918 79.4163 46.0637 79.6008 46.6301 79.6008C46.9133 79.6008 47.1968 79.6008 47.3856 79.5085C47.5744 79.4163 48.1406 79.4163 48.1406 79.324V80.1542C47.1966 80.3387 47.102 80.4309 46.5356 80.4309C45.686 80.4309 45.0256 80.1542 44.5536 79.693C44.0816 79.2318 43.8926 78.4939 43.8926 77.5715C43.8926 77.0181 43.9868 76.4646 44.1756 76.0035C44.3644 75.5423 44.742 75.2656 45.1196 74.9888C45.4972 74.7121 46.0637 74.6199 46.6301 74.6199C47.1965 74.6199 47.7631 74.7121 48.2351 74.9888L47.8576 75.7267C47.6688 75.6345 47.4798 75.5423 47.1966 75.45C47.1022 75.3578 46.8189 75.3578 46.6301 75.3578Z" fill="white"/>
<path d="M53.9082 80.1542H52.7753L50.0378 77.4793V80.1542H49.0938V74.6199H50.0378V77.387L52.7753 74.6199H53.8138L51.4538 77.2948L53.9082 80.1542Z" fill="white"/>
<path d="M58.4382 80.1542L57.8717 79.2318H55.7007L55.1342 80.1542H54.0957L56.2672 74.6199H57.3057L59.4767 80.1542H58.4382ZM57.6832 78.3094L57.1167 76.5569C57.1167 76.4646 57.0221 76.1879 56.9277 76.0035C56.8333 75.819 56.8336 75.5423 56.7392 75.45C56.6448 75.7267 56.5501 76.2802 56.4557 76.6491L55.8897 78.3094H57.6832Z" fill="white"/>
<path d="M62.3021 78.3159L60.8861 80.1607H59.8477L61.4526 77.7625C60.6974 77.4858 60.3197 77.0246 60.3197 76.1945C60.3197 75.641 60.5085 75.2721 60.8861 74.9954C61.2637 74.7187 61.8303 74.5342 62.4911 74.5342H64.2846V80.0685H63.3406V78.2237H62.3021V78.3159ZM63.2461 75.5488H62.4911C62.1135 75.5488 61.8303 75.5488 61.5471 75.7333C61.3583 75.8255 61.2637 76.1022 61.2637 76.3789C61.2637 76.6557 61.3583 76.9324 61.5471 77.1169C61.7359 77.3013 62.1135 77.3936 62.4911 77.3936H63.2461V75.5488Z" fill="white"/>
<path d="M71.7486 74.6199V75.5423H68.9167V80.1542H67.9727V74.6199H71.7486Z" fill="white"/>
<path d="M76.6498 76.3724C76.6498 76.9258 76.4609 77.4793 76.0833 77.756C75.7057 78.0327 75.139 78.3094 74.3838 78.3094H73.7233V80.1542H72.7793V74.6199H74.5728C75.328 74.6199 75.8002 74.8044 76.1778 75.0811C76.461 75.3578 76.6498 75.819 76.6498 76.3724ZM73.6288 77.387H74.1953C74.6673 77.387 75.045 77.2948 75.2338 77.2026C75.4226 77.0181 75.6113 76.8336 75.6113 76.4646C75.6113 76.0957 75.5166 75.9112 75.3278 75.819C75.139 75.6345 74.7614 75.6345 74.3838 75.6345H73.6288V77.387Z" fill="white"/>
<path d="M82.412 74.6199L80.6184 78.6784C80.4296 79.1396 80.1467 79.5085 79.9579 79.7852C79.7691 79.9697 79.5801 80.1542 79.2969 80.2464C79.0137 80.3387 78.7305 80.4309 78.3529 80.4309C78.0697 80.4309 77.4089 80.4309 77.4089 80.3387V79.5085C77.4089 79.6008 77.9753 79.693 78.2585 79.693C78.5417 79.693 78.7306 79.6008 78.9194 79.5085C79.1082 79.4163 79.2026 79.1396 79.3914 78.8629L77.3145 74.7121H78.3529L79.7689 77.6637C79.8633 77.9405 79.9579 78.4017 79.9579 78.4017C79.9579 78.4017 80.052 78.0327 80.052 77.9405L81.3739 74.7121H82.412V74.6199Z" fill="white"/>
<path d="M87.7864 80.1542H86.8424V75.5423H84.0104V80.1542H83.0664V74.6199H87.7864V80.1542Z" fill="white"/>
<path d="M93.4557 80.1542H92.5117V75.5423H90.6237V80.1542H89.6797V74.6199H93.4557V80.1542Z" fill="white"/>
<path d="M99.0241 80.1542L98.4576 79.2318H96.2866L95.7201 80.1542H94.6816L96.8531 74.6199H97.8916L100.063 80.1542H99.0241ZM98.2691 78.3094L97.7026 76.5569C97.7026 76.4646 97.608 76.1879 97.5136 76.0035C97.4192 75.819 97.4195 75.5423 97.3251 75.45C97.2307 75.7267 97.136 76.2802 97.0416 76.6491L96.4756 78.3094H98.2691Z" fill="white"/>
<path d="M106.953 80.1542L106.387 79.2318H104.216L103.649 80.1542H102.611L104.782 74.6199H105.821L107.992 80.1542H106.953ZM106.104 78.3094L105.537 76.5569C105.537 76.4646 105.443 76.1879 105.349 76.0035C105.254 75.819 105.254 75.5423 105.16 75.45C105.065 75.7267 104.971 76.2802 104.877 76.6491L104.31 78.3094H106.104Z" fill="white"/>
<path d="M111.109 75.3578C110.543 75.3578 110.165 75.5423 109.787 75.9112C109.504 76.2802 109.315 76.8336 109.315 77.4793C109.315 78.2172 109.504 78.6784 109.787 79.0473C110.071 79.4163 110.543 79.6008 111.109 79.6008C111.393 79.6008 111.487 79.6008 111.675 79.5085C111.864 79.4163 112.242 79.4163 112.242 79.324V80.1542C112.242 80.3387 111.392 80.4309 110.826 80.4309C109.976 80.4309 109.41 80.1542 108.938 79.693C108.466 79.2318 108.277 78.4939 108.277 77.5715C108.277 77.0181 108.372 76.4646 108.655 76.0035C108.844 75.5423 109.221 75.2656 109.599 74.9888C109.976 74.7121 110.543 74.6199 111.109 74.6199C111.676 74.6199 112.242 74.7121 112.714 74.9888L112.336 75.7267C112.148 75.6345 111.959 75.5423 111.675 75.45C111.581 75.3578 111.393 75.3578 111.109 75.3578Z" fill="white"/>
<path d="M116.111 80.1542H115.167V75.5423H113.279V74.6199H117.999V75.5423H116.111V80.1542Z" fill="white"/>
</g>
</svg>
