<svg width="45" height="71" viewBox="0 0 45 71" fill="none" xmlns="http://www.w3.org/2000/svg">
<g opacity="0.12">
<path d="M38.4169 23.6898H12.5741V34.6875H21.8775C28.6894 34.6875 34.0832 36.3125 38.059 39.5624C42.0614 42.7863 44.0625 47.1412 44.0625 52.6271C44.0625 58.1389 42.0746 62.5718 38.0988 65.9258C34.1495 69.2537 28.8882 70.9436 22.3148 70.9956H0.527344V14.213H38.4169V23.6898ZM12.5741 44.1253V61.5969H22.0763C25.1244 61.5969 27.5496 60.7779 29.352 59.1399C31.1809 57.502 32.0953 55.305 32.0953 52.5491C32.0953 49.9751 31.2206 47.9472 29.4713 46.4652C27.7484 44.9573 25.3762 44.1773 22.3546 44.1253H12.5741Z" fill="white"/>
<rect width="38.4505" height="8.87445" fill="white"/>
</g>
</svg>
