<svg width="53" height="74" viewBox="0 0 53 74" fill="none" xmlns="http://www.w3.org/2000/svg">
<path d="M26.2266 0.19075C19.9639 0.184013 13.9094 2.43951 9.1775 6.54214V0.220933H0.148438V26.0275C0.148438 26.1094 0.148438 26.1913 0.148438 26.2733C0.148438 26.3552 0.148438 26.4371 0.148438 26.5233V73.1907H9.1775V46.0259C12.3636 48.771 16.1664 50.7047 20.2615 51.6622C24.3566 52.6197 28.6225 52.5727 32.6955 51.525C36.7684 50.4773 40.5276 48.4602 43.6524 45.6455C46.7772 42.8309 49.1749 39.3022 50.6411 35.3606C52.1073 31.4189 52.5984 27.181 52.0726 23.0085C51.5468 18.8359 50.0197 14.8525 47.6215 11.3977C45.2232 7.94301 42.0251 5.11955 38.2997 3.16812C34.5743 1.21669 30.4322 0.1952 26.2266 0.19075V0.19075ZM26.093 43.7622C21.9547 43.7623 17.9574 42.2583 14.8455 39.5303C11.7336 36.8024 9.71923 33.0364 9.1775 28.9337V24.4666C9.60677 21.2156 10.9638 18.1572 13.0861 15.6574C15.2085 13.1576 18.0063 11.3224 21.1446 10.3713C24.2829 9.42032 27.6287 9.39382 30.7817 10.295C33.9346 11.1962 36.7611 12.9869 38.9228 15.4527C41.0845 17.9186 42.4898 20.9551 42.9705 24.1989C43.4512 27.4427 42.987 30.7563 41.6334 33.7431C40.2798 36.7299 38.0941 39.2634 35.338 41.0403C32.5819 42.8172 29.3722 43.7622 26.093 43.7622Z" fill="#FF2856"/>
</svg>
