<svg width="56" height="56" viewBox="0 0 56 56" fill="none" xmlns="http://www.w3.org/2000/svg">
<path d="M37.8003 12.88C35.3363 17.136 37.707 19.88 39.2003 20.72C40.8803 20.44 44.5763 19.32 45.9203 17.08C47.2643 14.84 47.6003 6.62664 47.6003 2.79997C45.3603 4.38664 40.2643 8.62397 37.8003 12.88Z" fill="#1DC296"/>
<path d="M17.5472 27.628C22.1141 29.4526 24.4876 26.7111 25.1035 25.1122C24.5842 23.4901 22.9429 19.9943 20.5326 18.9873C18.1222 17.9803 9.94622 18.8321 6.15954 19.3838C8.05261 21.3717 12.9804 25.8034 17.5472 27.628Z" fill="#1DC296"/>
<path d="M33.0399 52.92C33.4133 46.6667 32.3119 32.368 24.9199 25.2" stroke="white" stroke-width="2"/>
<path d="M39.1992 20.72C37.2392 24.1734 33.0952 32.816 32.1992 39.76" stroke="white" stroke-width="2"/>
</svg>
