<svg width="55" height="78" viewBox="0 0 55 78" fill="none" xmlns="http://www.w3.org/2000/svg">
<path d="M44.4944 40.1446C40.9574 37.989 36.0357 36.0258 29.7292 34.255C23.4227 32.4843 18.971 30.5371 16.3742 28.4135C13.7742 26.2579 12.4742 23.6338 12.4742 20.5415C12.4742 16.692 13.843 13.6847 16.5805 11.5194C19.318 9.35409 23.1652 8.26021 28.1222 8.23776C33.4245 8.23776 37.5307 9.55779 40.4409 12.1978C43.3511 14.8379 44.8062 18.4355 44.8062 22.9907H54.8368C54.8658 18.8708 53.6991 14.8316 51.4789 11.3654C49.1743 7.74403 45.8946 4.85124 42.0192 3.02179C37.9609 1.00726 33.3349 0 28.1413 0C20.5141 0 14.3099 1.9632 9.52886 5.88961C4.74782 9.81602 2.36849 14.7529 2.39088 20.7003C2.34908 23.2134 2.84763 25.7061 3.85256 28.0086C4.8575 30.3111 6.34523 32.3694 8.21448 34.0433C12.1289 37.6233 18.365 40.6483 26.9229 43.1183C33.7507 45.0943 38.4646 47.1105 41.0645 49.1667C43.6645 51.223 44.9629 54.0892 44.9597 57.7654C44.9597 61.4865 43.5574 64.4249 40.7527 66.5805C37.9481 68.7362 33.9106 69.8124 28.6402 69.8092C22.9893 69.8092 18.4673 68.4892 15.0742 65.8491C11.6811 63.2091 10.0006 59.5762 10.0325 54.9505H0.0019509C-0.0568637 59.1815 1.21549 63.3234 3.63811 66.7874C6.09739 70.2615 9.58003 73.0075 14.086 75.0252C18.677 77.0257 23.635 78.0387 28.6402 77.9989C36.6353 77.9989 43.0313 76.156 47.8284 72.4701C52.6254 68.7843 55.0159 63.849 54.9999 57.6643C54.9999 53.8149 54.1349 50.4611 52.4047 47.6029C50.6746 44.7447 48.0378 42.2586 44.4944 40.1446Z" fill="#1DC296"/>
</svg>
