<svg width="56" height="56" viewBox="0 0 56 56" fill="none" xmlns="http://www.w3.org/2000/svg">
<path d="M48.0736 30.4734L35.2478 30.4734C33.0712 30.4734 31.3223 28.6852 31.3223 26.4599L31.3223 13.3463C31.3223 11.121 33.0712 9.33276 35.2478 9.33276L48.0736 9.33276C50.2501 9.33276 51.9991 11.121 51.9991 13.3463V26.4599C51.9991 28.6852 50.2501 30.4734 48.0736 30.4734Z" fill="#FF2856"/>
<path opacity="0.6" d="M26.6939 47.203H19.5425C17.5603 47.203 15.9668 45.5737 15.9668 43.5471L15.9668 36.2353C15.9668 34.2086 17.5603 32.5793 19.5425 32.5793H26.6939C28.6761 32.5793 30.2696 34.2086 30.2696 36.2353V43.5471C30.2696 45.5737 28.6761 47.203 26.6939 47.203Z" fill="#FF2856"/>
<path opacity="0.25" d="M8.85633 30.7519C6.17456 30.7519 3.99805 28.5266 3.99805 25.7846C3.99805 23.0427 6.17456 20.8174 8.85633 20.8174C11.5381 20.8174 13.7146 23.0427 13.7146 25.7846C13.7146 28.5266 11.5381 30.7519 8.85633 30.7519Z" fill="#FF2856"/>
</svg>
