<svg width="56" height="56" viewBox="0 0 56 56" fill="none" xmlns="http://www.w3.org/2000/svg">
<path d="M28.3152 49.3341H8.97731C7.6984 49.3341 6.66602 48.3017 6.66602 47.0228L6.66602 27.685C6.66602 26.406 7.6984 25.3737 8.97731 25.3737L28.3152 25.3737C29.5941 25.3737 30.6265 26.406 30.6265 27.685L30.6265 47.0228C30.6188 48.294 29.5864 49.3341 28.3152 49.3341Z" fill="#0079FF"/>
<path d="M28.889 19.0783H19.9366C18.9813 19.0783 18.2031 18.3002 18.2031 17.3448V8.4001C18.2031 7.44476 18.9813 6.66663 19.9366 6.66663L28.8813 6.66663C29.8367 6.66663 30.6148 7.44476 30.6148 8.4001V17.3448C30.6148 18.3079 29.8444 19.0783 28.889 19.0783Z" fill="#80BCFF"/>
<path d="M47.5863 37.7846H38.6339C37.6785 37.7846 36.9004 37.0065 36.9004 36.0511V27.1064C36.9004 26.1511 37.6785 25.3729 38.6339 25.3729H47.5863C48.5416 25.3729 49.3198 26.1511 49.3198 27.1064V36.0511C49.3198 37.0065 48.5416 37.7846 47.5863 37.7846Z" fill="#80BCFF"/>
<path d="M47.5863 19.0792H38.6339C37.6785 19.0792 36.9004 18.301 36.9004 17.3457V8.40095C36.9004 7.44562 37.6785 6.66748 38.6339 6.66748L47.5863 6.66748C48.5416 6.66748 49.3198 7.44562 49.3198 8.40095V17.3457C49.3198 18.3087 48.5416 19.0792 47.5863 19.0792Z" fill="#BFDDFF"/>
</svg>
