<svg width="57" height="56" viewBox="0 0 57 56" fill="none" xmlns="http://www.w3.org/2000/svg">
<path d="M23.1834 26.3715H7.23447C6.18719 26.3715 5.3418 25.5273 5.3418 24.4816V8.55659C5.3418 7.51088 6.18719 6.66675 7.23447 6.66675H23.1834C24.2307 6.66675 25.0761 7.51088 25.0761 8.55659V24.4816C25.0761 25.521 24.2244 26.3715 23.1834 26.3715Z" fill="#1DC296"/>
<path d="M48.0619 49.3334H32.1192C31.072 49.3334 30.2266 48.4893 30.2266 47.4436V31.5185C30.2266 30.4728 31.072 29.6287 32.1192 29.6287H48.0682C49.1155 29.6287 49.9609 30.4728 49.9609 31.5185V47.4436C49.9546 48.4893 49.1092 49.3334 48.0619 49.3334Z" fill="#1DC296"/>
<path d="M43.7838 21.6219H36.3961C35.6138 21.6219 34.9766 20.9856 34.9766 20.2045V12.8341C34.9766 12.053 35.6138 11.4167 36.3961 11.4167H43.7838C44.5661 11.4167 45.2033 12.053 45.2033 12.8341V20.2108C45.2033 20.9856 44.5661 21.6219 43.7838 21.6219Z" fill="#77DAC0"/>
<path d="M18.9181 44.6277H11.5367C10.7544 44.6277 10.1172 43.9914 10.1172 43.2103V35.8336C10.1172 35.0525 10.7544 34.4163 11.5367 34.4163H18.9181C19.7004 34.4163 20.3376 35.0525 20.3376 35.8336V43.2103C20.3376 43.9914 19.7067 44.6277 18.9181 44.6277Z" fill="#77DAC0"/>
</svg>
