<svg width="145" height="33" viewBox="0 0 145 33" fill="none" xmlns="http://www.w3.org/2000/svg">
<path d="M14.6679 12.1187H1.33233C0.596504 12.1187 0 12.752 0 13.5333V27.6923C0 28.4736 0.596504 29.1069 1.33233 29.1069H14.6679C15.4037 29.1069 16.0002 28.4736 16.0002 27.6923V13.5333C16.0002 12.752 15.4037 12.1187 14.6679 12.1187Z" fill="#1B1B1E"/>
<path d="M44.0905 25.2851C44.0905 25.2851 44.0905 24.8067 45.7344 24.8067C47.4673 24.8067 47.4292 25.2851 47.4292 25.2851C47.3021 28.9643 43.2262 32.127 37.9852 32.127C31.7486 32.127 27.5457 28.1006 27.5457 22.1224V19.8742C27.5457 13.9002 31.7486 9.87378 37.5954 9.87378C43.2262 9.87378 47.4715 14.0272 47.4715 19.8742V21.4746C47.4715 21.4746 47.4715 22.0377 45.9124 22.0377H31.308V22.8167C31.308 26.9744 34.0407 29.3115 37.981 29.3115C41.5781 29.3115 44.0905 27.275 44.0905 25.2851ZM37.7649 12.8163C34.1255 12.8163 31.308 15.2423 31.308 19.3958V19.5694H44.1329C44.0016 15.2847 41.1459 12.8163 37.7649 12.8163Z" fill="#1B1B1E"/>
<path d="M70.6774 31.4322C70.6774 31.4322 70.6774 32.0377 68.7708 32.0377C66.8642 32.0377 66.9066 31.4322 66.9066 31.4322V17.8838C66.9066 17.8838 66.9066 12.9048 61.6656 12.9048H55.34V31.4364C55.34 31.4364 55.34 32.0419 53.4334 32.0419C51.5268 32.0419 51.5692 31.4364 51.5692 31.4364V10.8683C51.5692 10.8683 52.3911 9.95801 61.6656 9.95801C70.6774 9.95801 70.6774 17.8796 70.6774 17.8796V31.4322Z" fill="#1B1B1E"/>
<path d="M76.8986 1.96555C76.8986 1.96555 76.8986 1.36011 78.8476 1.36011C80.7965 1.36011 80.7965 1.96555 80.7965 1.96555V14.8238H84.008L93.5833 1.96555C93.5833 1.96555 93.8841 1.44902 96.1805 1.44902C98.176 1.44902 98.176 1.96555 98.176 1.96555L86.9738 16.2422L99.2606 31.4841C99.2606 31.4841 99.2606 32.0049 97.3075 32.0049C95.0577 32.0049 94.7103 31.4841 94.7103 31.4841L84.1182 18.1517H80.7287V31.4841C80.7287 31.4841 80.7287 32.0896 78.8221 32.0896C76.8308 32.0896 76.8308 31.4841 76.8308 31.4841L76.8986 1.96555Z" fill="#1B1B1E"/>
<path d="M101.309 19.8736C101.309 13.8996 105.728 9.89014 111.55 9.89014C117.371 9.89014 121.816 13.9166 121.816 19.8905V22.1387C121.803 28.0958 117.481 32.1264 111.55 32.1264C105.618 32.1264 101.309 28.0958 101.309 22.1218V19.8736ZM105.08 22.5579C105.08 26.7113 107.809 29.095 111.537 29.095C115.265 29.095 118.032 26.7113 118.032 22.5579V19.4418C118.032 15.2841 115.219 12.9004 111.537 12.9004C107.855 12.9004 105.08 15.2841 105.08 19.4418V22.5579Z" fill="#1B1B1E"/>
<path d="M125.956 18.0532C125.956 18.0532 125.956 10.047 134.921 10.047C137.781 10.047 139.818 10.0893 141.276 10.174V0.605444C141.276 0.605444 141.276 0 143.136 0C144.996 0 145 0.605444 145 0.605444V31.1274C145 31.1274 144.178 32.0377 134.904 32.0377C125.956 32.0377 125.956 24.0272 125.956 24.0272V18.0532ZM141.293 12.9726H134.938C129.697 12.9726 129.697 18.0532 129.697 18.0532V24.0272C129.697 24.0272 129.697 29.1079 134.938 29.1079H141.293V12.9726Z" fill="#1B1B1E"/>
</svg>
